<svg width="177" height="154" viewBox="0 0 177 154" fill="none" xmlns="http://www.w3.org/2000/svg">
<path d="M129.884 149.697C129.206 146.896 128.568 144.032 127.93 141.168C123.523 121.73 119.013 101.611 105.814 89.07C105.114 88.3995 104.702 87.4836 104.665 86.5153C104.627 85.547 104.967 84.602 105.613 83.8796C106.298 83.1702 107.237 82.7605 108.223 82.7401C109.21 82.7196 110.164 83.09 110.879 83.7704C123.264 95.4961 128.547 112.397 132.783 129.351C134.354 108.309 125.053 77.4972 109.473 53.6506C96.7875 34.2066 81.6479 21.9532 66.8309 19.1494L65.9232 18.9801C69.709 21.5902 72.7035 25.1916 74.5787 29.3898C76.4538 33.588 77.1372 38.221 76.5539 42.7811C74.795 57.0554 65.8586 59.5899 61.9956 60.1333C52.4865 61.254 41.9347 53.7975 38.1867 43.2701C34.8167 33.9032 35.7992 25.3989 40.9462 19.4018C41.8544 18.3284 42.8746 17.3548 43.9894 16.4978C31.9774 12.6964 19.6486 9.98046 7.15142 8.38281L3.77437 7.86376C3.269 7.81684 2.77845 7.66753 2.33262 7.42492C1.88678 7.18231 1.495 6.85148 1.18114 6.4526C0.867281 6.05372 0.63792 5.59514 0.507033 5.10481C0.376148 4.61447 0.346479 4.10265 0.419835 3.60053C0.493189 3.09841 0.668034 2.61651 0.933711 2.18419C1.19939 1.75187 1.55033 1.37819 1.96516 1.08593C2.37999 0.793657 2.85001 0.588919 3.34659 0.484188C3.84317 0.379456 4.3559 0.376927 4.85354 0.47675L8.11979 1.10291C20.2443 2.71318 38.8218 5.35001 53.7234 11.9059C58.5125 10.847 63.4688 10.7872 68.2825 11.7303C85.0934 14.9398 101.99 28.3323 115.787 49.5263C132.285 74.517 141.634 105.887 140.415 128.557C147.498 113.021 156.591 98.4286 170.839 88.1494C171.541 87.6294 172.404 87.372 173.277 87.422C174.15 87.4721 174.977 87.8265 175.616 88.4235C176.255 89.0205 176.664 89.8225 176.773 90.6899C176.882 91.5573 176.683 92.4353 176.212 93.1713C175.948 93.5827 175.607 93.9385 175.206 94.2185C156.921 107.442 147.561 129.179 139.55 150.303C139.178 151.328 138.484 152.205 137.572 152.802C136.66 153.4 135.579 153.686 134.491 153.617C133.403 153.549 132.366 153.13 131.535 152.423C130.705 151.717 130.126 150.76 129.884 149.697ZM52.9938 19.8631C50.5895 20.6965 48.4378 22.1297 46.7425 24.0269C43.3679 27.9576 42.8807 33.6876 45.2999 40.4801C48.1169 48.4014 55.8233 53.0719 61.2713 52.4592C66.7193 51.8466 68.5698 46.2615 69.1141 41.7121C70.4155 31.7771 63.2289 24.7881 52.9938 19.8631Z" fill="#8F0077"/>
</svg>
