<svg width="285" height="203" viewBox="0 0 285 203" fill="none" xmlns="http://www.w3.org/2000/svg">
<path d="M30.72 30.52C36.6 30.52 41.64 33.28 41.64 41.8V76H58.2V41.8C58.2 34.12 63.48 30.52 68.88 30.52C74.52 30.52 79.8 33.04 79.8 41.8V76H96.36V38.08C96.36 24.04 91.08 14.8 76.92 14.8C64.32 14.8 59.88 23.08 59.64 31.6H57.12C55.92 20.08 49.08 14.8 38.4 14.8C27 14.8 22.08 21.88 21.6 31.6H18.96V16H3.48V76H19.92V41.68C19.92 34 25.44 30.52 30.72 30.52ZM166.914 53.92H150.834C150.834 57.52 147.834 62.44 137.274 62.44C128.874 62.44 123.714 58.24 123.714 52.84C123.714 49 126.954 48.04 133.914 48.04H168.114C169.194 30.64 162.594 14.44 137.394 14.44C117.474 14.44 105.834 27.4 105.834 45.52C105.834 64.72 115.914 77.92 137.274 77.92C158.634 77.92 167.514 66.04 166.914 53.92ZM123.714 40.12C123.714 35.56 127.674 30.52 136.914 30.52C146.394 30.52 150.714 36.04 150.714 45.4H133.914C126.114 45.4 123.714 43.36 123.714 40.12ZM236.758 53.92H220.678C220.678 57.52 217.678 62.44 207.118 62.44C198.718 62.44 193.558 58.24 193.558 52.84C193.558 49 196.798 48.04 203.758 48.04H237.958C239.038 30.64 232.438 14.44 207.238 14.44C187.318 14.44 175.678 27.4 175.678 45.52C175.678 64.72 185.758 77.92 207.118 77.92C228.478 77.92 237.358 66.04 236.758 53.92ZM193.558 40.12C193.558 35.56 197.518 30.52 206.758 30.52C216.238 30.52 220.558 36.04 220.558 45.4H203.758C195.958 45.4 193.558 43.36 193.558 40.12ZM284.07 74.92V59.56C284.07 59.56 281.55 60.64 278.07 60.64C273.03 60.64 269.91 59.2 269.91 54.16V32.68H284.07V16H269.91V0.879994H253.95V8.56C253.95 13.36 252.03 16 246.51 16H244.35V32.68H266.19V35.2C257.67 35.2 253.35 39.4 253.35 46.24V53.44C253.35 66.4 258.75 76.6 273.87 76.6C281.55 76.6 284.07 74.92 284.07 74.92Z" fill="white"/>
<path d="M60.84 153.08H44.76C45 157.04 41.28 162.44 31.8 162.44C22.56 162.44 17.64 155.6 17.64 146.36C17.64 136.76 22.92 130.52 32.52 130.52C42.72 130.52 44.88 137.12 44.64 141.32H60.96C62.04 129.56 57 114.44 32.64 114.44C13.44 114.44 0.6 126.68 0.6 145.88C0.6 165.08 12 177.92 31.92 177.92C53.52 177.92 62.04 164.6 60.84 153.08ZM103.972 133.76C106.852 133.76 109.132 134.36 109.132 134.36V115.88C109.132 115.88 107.932 115.16 105.652 115.16C94.3716 115.16 89.4516 122.12 89.4516 134.96H86.8116V116H71.3316V176H87.8916V145.88C87.8916 136.04 95.2116 133.76 103.972 133.76ZM153.489 163.64H156.129C156.129 171.68 159.969 176.72 169.689 176.72C174.489 176.72 177.009 175.4 177.009 175.4V161.48C177.009 161.48 175.809 161.96 174.009 161.96C171.969 161.96 171.009 161.24 171.009 159.56V138.08C171.009 122.24 161.769 114.44 143.169 114.44C125.289 114.44 114.609 124.64 116.289 140.84H132.249C131.649 133.52 136.809 130.4 142.929 130.4C148.569 130.4 153.729 132.68 153.729 138.2C153.729 143.36 149.289 145.88 142.929 145.88H140.649C128.169 145.88 115.209 148.52 115.209 161C115.209 170.24 122.889 177.32 134.529 177.32C146.409 177.32 152.169 171.68 153.489 163.64ZM131.409 155.6C131.409 150.68 136.209 148.28 142.929 148.28C149.889 148.28 154.449 150.68 154.449 155.6C154.449 160.52 150.129 163.04 142.929 163.04C136.209 163.04 131.409 160.52 131.409 155.6ZM203.623 100.4C203.623 93.92 199.183 89.84 192.823 89.84C186.583 89.84 182.023 93.92 182.023 100.4C182.023 107 186.583 110.96 192.823 110.96C199.183 110.96 203.623 107 203.623 100.4ZM192.823 117.44C188.143 117.44 184.423 115.76 184.423 115.76V176H200.983V115.76C200.983 115.76 197.503 117.44 192.823 117.44ZM273.458 183.68C273.458 175.4 267.818 171.92 258.338 171.8V169.4C266.498 166.16 272.258 160.64 272.258 150.8C272.258 140.72 264.458 135.56 255.818 135.32V132.68H273.458V116H242.378C224.138 116 211.538 128.6 211.538 144.56C211.538 161.36 223.178 172.76 241.778 172.76C244.058 172.76 246.098 172.64 248.138 172.4C249.458 172.16 250.658 172.04 251.738 172.04C255.218 172.04 257.378 173.6 257.378 178.64C257.378 184.28 252.218 187.52 242.978 187.52C232.538 187.52 228.698 183.68 229.298 176.12H213.218C211.778 189.8 217.898 202.76 243.338 202.76C262.418 202.76 273.458 193.52 273.458 183.68ZM228.698 144.8C228.698 136.76 234.938 132.08 242.498 132.08C250.418 132.08 256.178 136.76 256.178 144.8C256.178 152.84 250.178 157.52 242.498 157.52C234.098 157.52 228.698 152.84 228.698 144.8Z" fill="#2EA5E9"/>
</svg>
