<svg width="695" height="322" viewBox="0 0 695 322" fill="none" xmlns="http://www.w3.org/2000/svg">
<path d="M3.04 25H5.856V2.6H3.04V25ZM20.0325 25H22.7525V1.576H20.0325V25ZM28.124 4.744H31.068V1.64H28.124V4.744ZM28.22 25H30.94V7.72H28.22V25ZM47.7995 25H51.2235L44.2795 16.008L50.5835 7.72H47.2555L41.9435 14.76H39.4155V1.576H36.6955V25H39.4155V17.256H41.9115L47.7995 25ZM69.7863 16.456C69.7863 11.4 66.3303 7.368 61.0823 7.368C56.0583 7.368 52.2823 11.24 52.2823 16.36C52.2823 21.512 56.0583 25.384 61.0823 25.384C64.8263 25.384 67.8663 23.304 69.3383 19.752H66.4583C65.4023 21.608 63.4823 22.728 61.0823 22.728C57.8183 22.728 55.4183 20.616 55.0023 17.416H69.7222C69.7543 17.096 69.7863 16.776 69.7863 16.456ZM61.0823 9.928C64.1543 9.928 66.4903 11.848 67.0662 14.92H55.0663C55.6102 11.912 57.9463 9.928 61.0823 9.928ZM88.8568 22.504C86.4888 22.504 85.2088 21.224 85.2088 18.888V10.184H90.6488V7.72H85.2088V4.072H84.7928L79.4488 9.704V10.184H82.4888V18.984C82.4888 22.728 84.7928 25 88.5048 25H90.7448V22.504H88.8568ZM101.966 25.384C107.182 25.384 111.118 21.544 111.118 16.36C111.118 11.208 107.182 7.368 101.966 7.368C96.7175 7.368 92.7815 11.176 92.7815 16.36C92.7815 21.544 96.7175 25.384 101.966 25.384ZM101.966 22.76C98.2535 22.76 95.5655 20.072 95.5655 16.36C95.5655 12.68 98.2535 9.992 101.966 9.992C105.646 9.992 108.333 12.68 108.333 16.392C108.333 20.072 105.646 22.76 101.966 22.76ZM129.098 25.384C133.194 25.384 135.946 23.304 135.946 20.072C135.946 15.848 132.426 15.272 129.45 14.792C127.146 14.44 125.162 14.088 125.162 12.264C125.162 10.76 126.634 9.8 128.97 9.8C131.402 9.8 132.874 10.824 132.97 12.712H135.53C135.434 9.448 132.938 7.368 129.034 7.368C125.13 7.368 122.506 9.384 122.506 12.36C122.506 16.264 125.834 16.872 128.778 17.384C131.114 17.768 133.258 18.152 133.258 20.2C133.258 21.864 131.562 22.888 129.194 22.888C126.762 22.888 125.002 21.768 124.874 19.72H122.186C122.346 23.208 125.002 25.384 129.098 25.384ZM156.193 16.456C156.193 11.4 152.737 7.368 147.489 7.368C142.465 7.368 138.689 11.24 138.689 16.36C138.689 21.512 142.465 25.384 147.489 25.384C151.233 25.384 154.273 23.304 155.745 19.752H152.865C151.809 21.608 149.889 22.728 147.489 22.728C144.225 22.728 141.825 20.616 141.409 17.416H156.128C156.161 17.096 156.193 16.776 156.193 16.456ZM147.489 9.928C150.561 9.928 152.897 11.848 153.472 14.92H141.473C142.016 11.912 144.353 9.928 147.489 9.928ZM176.411 16.456C176.411 11.4 172.955 7.368 167.707 7.368C162.683 7.368 158.907 11.24 158.907 16.36C158.907 21.512 162.683 25.384 167.707 25.384C171.451 25.384 174.491 23.304 175.963 19.752H173.083C172.027 21.608 170.107 22.728 167.707 22.728C164.443 22.728 162.043 20.616 161.627 17.416H176.347C176.379 17.096 176.411 16.776 176.411 16.456ZM167.707 9.928C170.779 9.928 173.115 11.848 173.691 14.92H161.691C162.235 11.912 164.571 9.928 167.707 9.928ZM207.949 7.368C205.581 7.368 203.373 8.616 202.093 10.632C201.133 8.616 199.245 7.368 196.781 7.368C194.605 7.368 192.589 8.392 191.245 10.12L190.797 7.72H188.845V25H191.565V15.432C191.565 12.264 193.645 9.832 196.173 9.832C198.669 9.832 200.109 11.688 200.109 14.824V25H202.797V15.432C202.797 12.264 204.877 9.832 207.405 9.832C209.869 9.832 211.309 11.688 211.309 14.824V25H214.029V13.96C214.029 10.088 211.597 7.368 207.949 7.368ZM231.329 7.72L225.537 20.808L219.393 7.72H216.449L224.129 23.848L223.521 25.128C222.113 28.008 221.313 28.712 218.977 28.712H217.601V31.176H219.233C222.497 31.176 224.129 29.832 225.985 25.736L234.241 7.72H231.329ZM242.411 25.384C246.507 25.384 249.259 23.304 249.259 20.072C249.259 15.848 245.739 15.272 242.763 14.792C240.459 14.44 238.475 14.088 238.475 12.264C238.475 10.76 239.947 9.8 242.283 9.8C244.715 9.8 246.187 10.824 246.283 12.712H248.843C248.747 9.448 246.251 7.368 242.347 7.368C238.443 7.368 235.819 9.384 235.819 12.36C235.819 16.264 239.147 16.872 242.091 17.384C244.427 17.768 246.571 18.152 246.571 20.2C246.571 21.864 244.875 22.888 242.507 22.888C240.075 22.888 238.315 21.768 238.187 19.72H235.499C235.659 23.208 238.315 25.384 242.411 25.384ZM269.505 16.456C269.505 11.4 266.049 7.368 260.801 7.368C255.777 7.368 252.001 11.24 252.001 16.36C252.001 21.512 255.777 25.384 260.801 25.384C264.545 25.384 267.585 23.304 269.057 19.752H266.177C265.121 21.608 263.201 22.728 260.801 22.728C257.537 22.728 255.137 20.616 254.721 17.416H269.441C269.473 17.096 269.505 16.776 269.505 16.456ZM260.801 9.928C263.873 9.928 266.209 11.848 266.785 14.92H254.785C255.329 11.912 257.665 9.928 260.801 9.928ZM273.564 25H276.284V1.576H273.564V25ZM290.999 7.848H285.623V6.504C285.623 4.072 286.583 3.144 289.015 3.144H290.967V0.935999H288.535C284.663 0.935999 282.967 2.76 282.967 6.44V7.848H279.575V10.12H282.967V25H285.687V10.12H290.999V7.848ZM316.347 7.72L315.995 10.376C314.395 8.488 311.995 7.368 309.179 7.368C304.059 7.368 300.219 11.208 300.219 16.392C300.219 21.512 304.059 25.384 309.179 25.384C311.995 25.384 314.363 24.264 315.963 22.408L316.251 25H318.491V7.72H316.347ZM309.371 22.76C305.723 22.76 303.003 20.008 303.003 16.36C303.003 12.744 305.723 9.992 309.371 9.992C313.051 9.992 315.707 12.712 315.707 16.36C315.707 20.04 313.051 22.76 309.371 22.76ZM329.442 25.384C333.538 25.384 336.29 23.304 336.29 20.072C336.29 15.848 332.77 15.272 329.794 14.792C327.49 14.44 325.506 14.088 325.506 12.264C325.506 10.76 326.978 9.8 329.314 9.8C331.746 9.8 333.218 10.824 333.314 12.712H335.874C335.778 9.448 333.282 7.368 329.378 7.368C325.474 7.368 322.85 9.384 322.85 12.36C322.85 16.264 326.178 16.872 329.122 17.384C331.458 17.768 333.602 18.152 333.602 20.2C333.602 21.864 331.906 22.888 329.538 22.888C327.106 22.888 325.346 21.768 325.218 19.72H322.53C322.69 23.208 325.346 25.384 329.442 25.384ZM363.503 7.72L363.151 10.376C361.551 8.488 359.151 7.368 356.335 7.368C351.215 7.368 347.375 11.208 347.375 16.392C347.375 21.512 351.215 25.384 356.335 25.384C359.151 25.384 361.519 24.264 363.119 22.408L363.407 25H365.647V7.72H363.503ZM356.527 22.76C352.879 22.76 350.159 20.008 350.159 16.36C350.159 12.744 352.879 9.992 356.527 9.992C360.207 9.992 362.863 12.712 362.863 16.36C362.863 20.04 360.207 22.76 356.527 22.76ZM379.766 7.368C377.11 7.368 374.902 8.52 373.59 10.44L373.078 7.72H371.126V25H373.846V15.592C373.846 12.36 376.118 9.832 379.094 9.832C382.07 9.832 383.734 11.816 383.734 15.304V25H386.454V14.664C386.454 10.44 383.894 7.368 379.766 7.368ZM416.193 16.456C416.193 11.4 412.737 7.368 407.489 7.368C402.465 7.368 398.689 11.24 398.689 16.36C398.689 21.512 402.465 25.384 407.489 25.384C411.233 25.384 414.273 23.304 415.745 19.752H412.865C411.809 21.608 409.889 22.728 407.489 22.728C404.225 22.728 401.825 20.616 401.409 17.416H416.128C416.161 17.096 416.193 16.776 416.193 16.456ZM407.489 9.928C410.561 9.928 412.897 11.848 413.472 14.92H401.473C402.016 11.912 404.353 9.928 407.489 9.928ZM433.192 25L426.824 15.912L432.712 7.72H429.704L425.224 14.12L420.808 7.72H417.768L423.56 16.04L417.224 25H420.232L425.192 17.832L430.152 25H433.192ZM445.31 7.368C442.526 7.368 440.158 8.488 438.558 10.376L438.014 7.72H436.126V31.176H438.846V22.696C440.446 24.392 442.718 25.384 445.31 25.384C450.462 25.384 454.174 21.512 454.174 16.36C454.174 11.208 450.462 7.368 445.31 7.368ZM445.118 22.76C441.438 22.76 438.75 20.008 438.75 16.36C438.75 12.744 441.438 9.992 445.118 9.992C448.766 9.992 451.454 12.712 451.454 16.36C451.454 20.04 448.766 22.76 445.118 22.76ZM474.474 16.456C474.474 11.4 471.018 7.368 465.77 7.368C460.746 7.368 456.97 11.24 456.97 16.36C456.97 21.512 460.746 25.384 465.77 25.384C469.514 25.384 472.554 23.304 474.026 19.752H471.146C470.09 21.608 468.17 22.728 465.77 22.728C462.506 22.728 460.106 20.616 459.69 17.416H474.41C474.442 17.096 474.474 16.776 474.474 16.456ZM465.77 9.928C468.842 9.928 471.178 11.848 471.754 14.92H459.754C460.298 11.912 462.634 9.928 465.77 9.928ZM486.437 7.656C483.941 7.656 482.149 8.584 480.901 10.376L480.485 7.72H478.533V25H481.253V15.624C481.253 12.264 483.045 10.216 486.213 10.216H487.973V7.656H486.437ZM498.044 22.504C495.676 22.504 494.396 21.224 494.396 18.888V10.184H499.836V7.72H494.396V4.072H493.98L488.636 9.704V10.184H491.676V18.984C491.676 22.728 493.98 25 497.692 25H499.932V22.504H498.044ZM526.691 7.72L526.339 10.376C524.739 8.488 522.339 7.368 519.523 7.368C514.403 7.368 510.563 11.208 510.563 16.392C510.563 21.512 514.403 25.384 519.523 25.384C522.339 25.384 524.707 24.264 526.307 22.408L526.595 25H528.835V7.72H526.691ZM519.715 22.76C516.067 22.76 513.347 20.008 513.347 16.36C513.347 12.744 516.067 9.992 519.715 9.992C523.395 9.992 526.051 12.712 526.051 16.36C526.051 20.04 523.395 22.76 519.715 22.76ZM548.266 1.576V9.928C546.666 8.328 544.426 7.368 541.866 7.368C536.682 7.368 532.938 11.208 532.938 16.392C532.938 21.512 536.682 25.384 541.866 25.384C544.586 25.384 546.922 24.328 548.522 22.568L548.874 25.032H550.986V1.576H548.266ZM542.058 22.76C538.41 22.76 535.722 20.04 535.722 16.392C535.722 12.712 538.41 9.992 542.058 9.992C545.738 9.992 548.426 12.744 548.426 16.392C548.426 20.008 545.738 22.76 542.058 22.76ZM568.662 7.72L562.934 21.48L557.046 7.72H554.23L561.686 25H564.182L571.446 7.72H568.662ZM574.687 4.744H577.631V1.64H574.687V4.744ZM574.783 25H577.503V7.72H574.783V25ZM588.442 25.384C592.538 25.384 595.29 23.304 595.29 20.072C595.29 15.848 591.77 15.272 588.794 14.792C586.49 14.44 584.506 14.088 584.506 12.264C584.506 10.76 585.978 9.8 588.314 9.8C590.746 9.8 592.218 10.824 592.314 12.712H594.874C594.778 9.448 592.282 7.368 588.378 7.368C584.474 7.368 581.85 9.384 581.85 12.36C581.85 16.264 585.178 16.872 588.122 17.384C590.458 17.768 592.602 18.152 592.602 20.2C592.602 21.864 590.906 22.888 588.538 22.888C586.106 22.888 584.346 21.768 584.218 19.72H581.53C581.69 23.208 584.346 25.384 588.442 25.384ZM607.184 25.384C612.4 25.384 616.336 21.544 616.336 16.36C616.336 11.208 612.4 7.368 607.184 7.368C601.936 7.368 598 11.176 598 16.36C598 21.544 601.936 25.384 607.184 25.384ZM607.184 22.76C603.472 22.76 600.784 20.072 600.784 16.36C600.784 12.68 603.472 9.992 607.184 9.992C610.864 9.992 613.552 12.68 613.552 16.392C613.552 20.072 610.864 22.76 607.184 22.76ZM628.374 7.656C625.878 7.656 624.086 8.584 622.838 10.376L622.422 7.72H620.47V25H623.19V15.624C623.19 12.264 624.982 10.216 628.15 10.216H629.91V7.656H628.374ZM23.776 48.72L19.392 61.584L14.048 49.008H13.056L7.776 61.456L3.456 48.72H0.64L6.464 66H8.672L13.568 54.256L18.432 66H20.64L26.528 48.72H23.776ZM29.7803 45.744H32.7243V42.64H29.7803V45.744ZM29.8763 66H32.5963V48.72H29.8763V66ZM45.2318 63.504C42.8638 63.504 41.5838 62.224 41.5838 59.888V51.184H47.0238V48.72H41.5838V45.072H41.1678L35.8238 50.704V51.184H38.8638V59.984C38.8638 63.728 41.1678 66 44.8798 66H47.1198V63.504H45.2318ZM59.3913 48.368C56.8953 48.368 54.8153 49.392 53.4713 51.088V42.576H50.7513V66H53.4713V56.592C53.4713 53.36 55.7433 50.832 58.7193 50.832C61.6953 50.832 63.3593 52.816 63.3593 56.304V66H66.0793V55.664C66.0793 51.184 63.5193 48.368 59.3913 48.368ZM94.4095 48.72L94.0575 51.376C92.4575 49.488 90.0575 48.368 87.2415 48.368C82.1215 48.368 78.2815 52.208 78.2815 57.392C78.2815 62.512 82.1215 66.384 87.2415 66.384C90.0575 66.384 92.4255 65.264 94.0255 63.408L94.3135 66H96.5535V48.72H94.4095ZM87.4335 63.76C83.7855 63.76 81.0655 61.008 81.0655 57.36C81.0655 53.744 83.7855 50.992 87.4335 50.992C91.1135 50.992 93.7695 53.712 93.7695 57.36C93.7695 61.04 91.1135 63.76 87.4335 63.76ZM110.673 48.368C108.017 48.368 105.809 49.52 104.497 51.44L103.985 48.72H102.033V66H104.753V56.592C104.753 53.36 107.025 50.832 110.001 50.832C112.977 50.832 114.641 52.816 114.641 56.304V66H117.361V55.664C117.361 51.44 114.801 48.368 110.673 48.368ZM130.843 45.744H133.787V42.64H130.843V45.744ZM130.939 66H133.659V48.72H130.939V66ZM147.766 48.368C145.11 48.368 142.902 49.52 141.59 51.44L141.078 48.72H139.126V66H141.846V56.592C141.846 53.36 144.118 50.832 147.094 50.832C150.07 50.832 151.734 52.816 151.734 56.304V66H154.454V55.664C154.454 51.44 151.894 48.368 147.766 48.368ZM165.13 66.384C169.226 66.384 171.978 64.304 171.978 61.072C171.978 56.848 168.458 56.272 165.482 55.792C163.178 55.44 161.194 55.088 161.194 53.264C161.194 51.76 162.666 50.8 165.002 50.8C167.434 50.8 168.906 51.824 169.002 53.712H171.562C171.466 50.448 168.97 48.368 165.066 48.368C161.161 48.368 158.538 50.384 158.538 53.36C158.538 57.264 161.866 57.872 164.81 58.384C167.146 58.768 169.29 59.152 169.29 61.2C169.29 62.864 167.594 63.888 165.226 63.888C162.794 63.888 161.034 62.768 160.906 60.72H158.218C158.378 64.208 161.034 66.384 165.13 66.384ZM190.816 48.72L190.464 51.376C188.864 49.488 186.464 48.368 183.648 48.368C178.528 48.368 174.688 52.208 174.688 57.392C174.688 62.512 178.528 66.384 183.648 66.384C186.464 66.384 188.832 65.264 190.432 63.408L190.72 66H192.96V48.72H190.816ZM183.84 63.76C180.192 63.76 177.472 61.008 177.472 57.36C177.472 53.744 180.192 50.992 183.84 50.992C187.52 50.992 190.176 53.712 190.176 57.36C190.176 61.04 187.52 63.76 183.84 63.76ZM205.607 63.504C203.239 63.504 201.959 62.224 201.959 59.888V51.184H207.399V48.72H201.959V45.072H201.543L196.199 50.704V51.184H199.239V59.984C199.239 63.728 201.543 66 205.255 66H207.495V63.504H205.607ZM211.03 45.744H213.974V42.64H211.03V45.744ZM211.126 66H213.846V48.72H211.126V66ZM234.066 48.72L233.714 51.376C232.114 49.488 229.714 48.368 226.898 48.368C221.778 48.368 217.938 52.208 217.938 57.392C217.938 62.512 221.778 66.384 226.898 66.384C229.714 66.384 232.082 65.264 233.682 63.408L233.97 66H236.21V48.72H234.066ZM227.09 63.76C223.442 63.76 220.722 61.008 220.722 57.36C220.722 53.744 223.442 50.992 227.09 50.992C230.77 50.992 233.426 53.712 233.426 57.36C233.426 61.04 230.77 63.76 227.09 63.76ZM250.809 48.368C248.249 48.368 246.009 49.328 244.409 50.928V42.576H241.689V66H243.801L244.185 63.568C245.785 65.328 248.121 66.384 250.809 66.384C256.025 66.384 259.737 62.512 259.737 57.36C259.737 52.208 256.025 48.368 250.809 48.368ZM250.617 63.76C246.937 63.76 244.249 60.976 244.249 57.36C244.249 53.744 246.937 50.992 250.617 50.992C254.265 50.992 256.953 53.712 256.953 57.36C256.953 61.04 254.265 63.76 250.617 63.76ZM263.845 66H266.565V42.576H263.845V66ZM288.193 57.456C288.193 52.4 284.737 48.368 279.489 48.368C274.465 48.368 270.689 52.24 270.689 57.36C270.689 62.512 274.465 66.384 279.489 66.384C283.233 66.384 286.273 64.304 287.745 60.752H284.865C283.809 62.608 281.889 63.728 279.489 63.728C276.225 63.728 273.825 61.616 273.409 58.416H288.128C288.161 58.096 288.193 57.776 288.193 57.456ZM279.489 50.928C282.561 50.928 284.897 52.848 285.472 55.92H273.473C274.016 52.912 276.353 50.928 279.489 50.928ZM309.266 48.368C306.77 48.368 304.69 49.392 303.346 51.088V42.576H300.626V66H303.346V56.592C303.346 53.36 305.618 50.832 308.594 50.832C311.57 50.832 313.234 52.816 313.234 56.304V66H315.954V55.664C315.954 51.184 313.394 48.368 309.266 48.368ZM328.518 66.384C333.222 66.384 336.198 63.376 336.198 58.736V48.72H333.478V58.288C333.478 61.648 331.622 63.76 328.518 63.76C325.478 63.76 323.59 61.68 323.59 58.288V48.72H320.87V58.736C320.87 63.376 323.878 66.384 328.518 66.384ZM350.016 48.368C347.36 48.368 345.152 49.52 343.84 51.44L343.328 48.72H341.376V66H344.096V56.592C344.096 53.36 346.368 50.832 349.344 50.832C352.32 50.832 353.984 52.816 353.984 56.304V66H356.704V55.664C356.704 51.44 354.144 48.368 350.016 48.368ZM376.18 48.72L375.764 51.408C374.196 49.52 371.828 48.368 369.044 48.368C364.244 48.368 360.564 52.112 360.564 56.912C360.564 61.744 364.244 65.456 369.044 65.456C371.604 65.456 373.812 64.496 375.347 62.896V63.952C375.347 67.792 372.98 70.064 369.524 70.064C367.028 70.064 364.852 68.848 364.084 66.704H361.364C362.292 70.352 365.3 72.56 369.524 72.56C374.804 72.56 378.003 69.168 378.003 63.6V48.752L376.18 48.72ZM369.332 62.864C365.876 62.864 363.316 60.304 363.316 56.912C363.316 53.52 365.876 50.96 369.332 50.96C372.788 50.96 375.316 53.488 375.316 56.912C375.316 60.336 372.82 62.864 369.332 62.864ZM399.63 57.456C399.63 52.4 396.174 48.368 390.926 48.368C385.902 48.368 382.126 52.24 382.126 57.36C382.126 62.512 385.902 66.384 390.926 66.384C394.67 66.384 397.71 64.304 399.182 60.752H396.302C395.246 62.608 393.326 63.728 390.926 63.728C387.662 63.728 385.262 61.616 384.846 58.416H399.566C399.598 58.096 399.63 57.776 399.63 57.456ZM390.926 50.928C393.998 50.928 396.334 52.848 396.91 55.92H384.91C385.454 52.912 387.79 50.928 390.926 50.928ZM411.593 48.656C409.097 48.656 407.305 49.584 406.057 51.376L405.641 48.72H403.689V66H406.409V56.624C406.409 53.264 408.201 51.216 411.369 51.216H413.129V48.656H411.593ZM430.138 63.504C427.77 63.504 426.49 62.224 426.49 59.888V51.184H431.93V48.72H426.49V45.072H426.074L420.73 50.704V51.184H423.77V59.984C423.77 63.728 426.074 66 429.786 66H432.026V63.504H430.138ZM443.247 66.384C448.463 66.384 452.399 62.544 452.399 57.36C452.399 52.208 448.463 48.368 443.247 48.368C437.999 48.368 434.063 52.176 434.063 57.36C434.063 62.544 437.999 66.384 443.247 66.384ZM443.247 63.76C439.535 63.76 436.847 61.072 436.847 57.36C436.847 53.68 439.535 50.992 443.247 50.992C446.927 50.992 449.615 53.68 449.615 57.392C449.615 61.072 446.927 63.76 443.247 63.76ZM473.548 48.368C471.052 48.368 468.972 49.392 467.628 51.088V42.576H464.908V66H467.628V56.592C467.628 53.36 469.9 50.832 472.876 50.832C475.852 50.832 477.516 52.816 477.516 56.304V66H480.236V55.664C480.236 51.184 477.676 48.368 473.548 48.368ZM501.599 57.456C501.599 52.4 498.143 48.368 492.895 48.368C487.871 48.368 484.095 52.24 484.095 57.36C484.095 62.512 487.871 66.384 492.895 66.384C496.639 66.384 499.679 64.304 501.151 60.752H498.271C497.215 62.608 495.295 63.728 492.895 63.728C489.631 63.728 487.231 61.616 486.815 58.416H501.535C501.567 58.096 501.599 57.776 501.599 57.456ZM492.895 50.928C495.967 50.928 498.303 52.848 498.879 55.92H486.879C487.423 52.912 489.759 50.928 492.895 50.928ZM505.658 66H508.378V42.576H505.658V66ZM523.029 48.368C520.245 48.368 517.877 49.488 516.277 51.376L515.733 48.72H513.845V72.176H516.565V63.696C518.165 65.392 520.437 66.384 523.029 66.384C528.181 66.384 531.893 62.512 531.893 57.36C531.893 52.208 528.181 48.368 523.029 48.368ZM522.837 63.76C519.157 63.76 516.469 61.008 516.469 57.36C516.469 53.744 519.157 50.992 522.837 50.992C526.485 50.992 529.173 53.712 529.173 57.36C529.173 61.04 526.485 63.76 522.837 63.76ZM11.84 89.368C9.28 89.368 7.04 90.328 5.44 91.928V83.576H2.72V107H4.832L5.216 104.568C6.816 106.328 9.152 107.384 11.84 107.384C17.056 107.384 20.768 103.512 20.768 98.36C20.768 93.208 17.056 89.368 11.84 89.368ZM11.648 104.76C7.968 104.76 5.28 101.976 5.28 98.36C5.28 94.744 7.968 91.992 11.648 91.992C15.296 91.992 17.984 94.712 17.984 98.36C17.984 102.04 15.296 104.76 11.648 104.76ZM32.2363 107.384C36.9403 107.384 39.9163 104.376 39.9163 99.736V89.72H37.1963V99.288C37.1963 102.648 35.3403 104.76 32.2363 104.76C29.1963 104.76 27.3083 102.68 27.3083 99.288V89.72H24.5883V99.736C24.5883 104.376 27.5963 107.384 32.2363 107.384ZM50.567 107.384C54.663 107.384 57.415 105.304 57.415 102.072C57.415 97.848 53.895 97.272 50.919 96.792C48.615 96.44 46.631 96.088 46.631 94.264C46.631 92.76 48.103 91.8 50.439 91.8C52.871 91.8 54.343 92.824 54.439 94.712H56.999C56.903 91.448 54.407 89.368 50.503 89.368C46.599 89.368 43.975 91.384 43.975 94.36C43.975 98.264 47.303 98.872 50.247 99.384C52.583 99.768 54.727 100.152 54.727 102.2C54.727 103.864 53.031 104.888 50.663 104.888C48.231 104.888 46.471 103.768 46.343 101.72H43.655C43.815 105.208 46.471 107.384 50.567 107.384ZM61.4053 86.744H64.3493V83.64H61.4053V86.744ZM61.5013 107H64.2213V89.72H61.5013V107ZM78.3288 89.368C75.6728 89.368 73.4648 90.52 72.1528 92.44L71.6408 89.72H69.6888V107H72.4088V97.592C72.4088 94.36 74.6808 91.832 77.6568 91.832C80.6328 91.832 82.2968 93.816 82.2968 97.304V107H85.0168V96.664C85.0168 92.44 82.4568 89.368 78.3288 89.368ZM106.38 98.456C106.38 93.4 102.924 89.368 97.676 89.368C92.652 89.368 88.876 93.24 88.876 98.36C88.876 103.512 92.652 107.384 97.676 107.384C101.42 107.384 104.46 105.304 105.932 101.752H103.052C101.996 103.608 100.076 104.728 97.676 104.728C94.412 104.728 92.012 102.616 91.596 99.416H106.316C106.348 99.096 106.38 98.776 106.38 98.456ZM97.676 91.928C100.748 91.928 103.084 93.848 103.66 96.92H91.66C92.204 93.912 94.54 91.928 97.676 91.928ZM115.911 107.384C120.007 107.384 122.759 105.304 122.759 102.072C122.759 97.848 119.239 97.272 116.263 96.792C113.959 96.44 111.975 96.088 111.975 94.264C111.975 92.76 113.447 91.8 115.783 91.8C118.215 91.8 119.687 92.824 119.783 94.712H122.343C122.247 91.448 119.751 89.368 115.847 89.368C111.943 89.368 109.319 91.384 109.319 94.36C109.319 98.264 112.647 98.872 115.591 99.384C117.927 99.768 120.071 100.152 120.071 102.2C120.071 103.864 118.375 104.888 116.007 104.888C113.575 104.888 111.815 103.768 111.687 101.72H108.999C109.159 105.208 111.815 107.384 115.911 107.384ZM132.317 107.384C136.413 107.384 139.165 105.304 139.165 102.072C139.165 97.848 135.645 97.272 132.669 96.792C130.365 96.44 128.381 96.088 128.381 94.264C128.381 92.76 129.853 91.8 132.189 91.8C134.621 91.8 136.093 92.824 136.189 94.712H138.749C138.653 91.448 136.157 89.368 132.253 89.368C128.349 89.368 125.725 91.384 125.725 94.36C125.725 98.264 129.053 98.872 131.997 99.384C134.333 99.768 136.477 100.152 136.477 102.2C136.477 103.864 134.781 104.888 132.413 104.888C129.981 104.888 128.221 103.768 128.093 101.72H125.405C125.565 105.208 128.221 107.384 132.317 107.384ZM159.411 98.456C159.411 93.4 155.955 89.368 150.707 89.368C145.683 89.368 141.907 93.24 141.907 98.36C141.907 103.512 145.683 107.384 150.707 107.384C154.451 107.384 157.491 105.304 158.963 101.752H156.083C155.027 103.608 153.107 104.728 150.707 104.728C147.443 104.728 145.043 102.616 144.627 99.416H159.347C159.379 99.096 159.411 98.776 159.411 98.456ZM150.707 91.928C153.779 91.928 156.115 93.848 156.691 96.92H144.691C145.235 93.912 147.571 91.928 150.707 91.928ZM168.942 107.384C173.038 107.384 175.79 105.304 175.79 102.072C175.79 97.848 172.27 97.272 169.294 96.792C166.99 96.44 165.006 96.088 165.006 94.264C165.006 92.76 166.478 91.8 168.814 91.8C171.246 91.8 172.718 92.824 172.814 94.712H175.374C175.278 91.448 172.782 89.368 168.878 89.368C164.974 89.368 162.35 91.384 162.35 94.36C162.35 98.264 165.678 98.872 168.622 99.384C170.958 99.768 173.102 100.152 173.102 102.2C173.102 103.864 171.406 104.888 169.038 104.888C166.606 104.888 164.846 103.768 164.718 101.72H162.03C162.19 105.208 164.846 107.384 168.942 107.384ZM202.523 89.72L202.107 92.408C200.539 90.52 198.171 89.368 195.387 89.368C190.587 89.368 186.907 93.112 186.907 97.912C186.907 102.744 190.587 106.456 195.387 106.456C197.947 106.456 200.155 105.496 201.691 103.896V104.952C201.691 108.792 199.323 111.064 195.867 111.064C193.371 111.064 191.195 109.848 190.427 107.704H187.707C188.635 111.352 191.643 113.56 195.867 113.56C201.147 113.56 204.347 110.168 204.347 104.6V89.752L202.523 89.72ZM195.675 103.864C192.219 103.864 189.659 101.304 189.659 97.912C189.659 94.52 192.219 91.96 195.675 91.96C199.131 91.96 201.659 94.488 201.659 97.912C201.659 101.336 199.163 103.864 195.675 103.864ZM217.718 89.656C215.222 89.656 213.43 90.584 212.182 92.376L211.766 89.72H209.814V107H212.534V97.624C212.534 94.264 214.326 92.216 217.494 92.216H219.254V89.656H217.718ZM229.434 107.384C234.65 107.384 238.586 103.544 238.586 98.36C238.586 93.208 234.65 89.368 229.434 89.368C224.186 89.368 220.25 93.176 220.25 98.36C220.25 103.544 224.186 107.384 229.434 107.384ZM229.434 104.76C225.722 104.76 223.034 102.072 223.034 98.36C223.034 94.68 225.722 91.992 229.434 91.992C233.114 91.992 235.802 94.68 235.802 98.392C235.802 102.072 233.114 104.76 229.434 104.76ZM263.526 89.72L259.142 102.584L253.798 90.008H252.806L247.526 102.456L243.206 89.72H240.39L246.214 107H248.422L253.318 95.256L258.182 107H260.39L266.278 89.72H263.526ZM292.253 89.72L291.901 92.376C290.301 90.488 287.901 89.368 285.085 89.368C279.965 89.368 276.125 93.208 276.125 98.392C276.125 103.512 279.965 107.384 285.085 107.384C287.901 107.384 290.269 106.264 291.869 104.408L292.157 107H294.397V89.72H292.253ZM285.277 104.76C281.629 104.76 278.909 102.008 278.909 98.36C278.909 94.744 281.629 91.992 285.277 91.992C288.957 91.992 291.613 94.712 291.613 98.36C291.613 102.04 288.957 104.76 285.277 104.76ZM308.516 89.368C305.86 89.368 303.652 90.52 302.34 92.44L301.828 89.72H299.876V107H302.596V97.592C302.596 94.36 304.868 91.832 307.844 91.832C310.82 91.832 312.484 93.816 312.484 97.304V107H315.204V96.664C315.204 92.44 312.644 89.368 308.516 89.368ZM334.36 83.576V91.928C332.76 90.328 330.52 89.368 327.96 89.368C322.776 89.368 319.032 93.208 319.032 98.392C319.032 103.512 322.776 107.384 327.96 107.384C330.68 107.384 333.016 106.328 334.616 104.568L334.968 107.032H337.08V83.576H334.36ZM328.152 104.76C324.504 104.76 321.816 102.04 321.816 98.392C321.816 94.712 324.504 91.992 328.152 91.992C331.832 91.992 334.52 94.744 334.52 98.392C334.52 102.008 331.832 104.76 328.152 104.76ZM360.123 89.368C357.339 89.368 354.971 90.488 353.371 92.376L352.827 89.72H350.939V113.176H353.659V104.696C355.259 106.392 357.531 107.384 360.123 107.384C365.275 107.384 368.987 103.512 368.987 98.36C368.987 93.208 365.275 89.368 360.123 89.368ZM359.931 104.76C356.251 104.76 353.563 102.008 353.563 98.36C353.563 94.744 356.251 91.992 359.931 91.992C363.579 91.992 366.267 94.712 366.267 98.36C366.267 102.04 363.579 104.76 359.931 104.76ZM381.03 89.656C378.534 89.656 376.742 90.584 375.494 92.376L375.078 89.72H373.126V107H375.846V97.624C375.846 94.264 377.638 92.216 380.806 92.216H382.566V89.656H381.03ZM392.747 107.384C397.963 107.384 401.899 103.544 401.899 98.36C401.899 93.208 397.963 89.368 392.747 89.368C387.499 89.368 383.563 93.176 383.563 98.36C383.563 103.544 387.499 107.384 392.747 107.384ZM392.747 104.76C389.035 104.76 386.347 102.072 386.347 98.36C386.347 94.68 389.035 91.992 392.747 91.992C396.427 91.992 399.115 94.68 399.115 98.392C399.115 102.072 396.427 104.76 392.747 104.76ZM417.725 89.72L411.997 103.48L406.109 89.72H403.293L410.749 107H413.245L420.509 89.72H417.725ZM423.749 86.744H426.693V83.64H423.749V86.744ZM423.845 107H426.565V89.72H423.845V107ZM445.985 83.576V91.928C444.385 90.328 442.145 89.368 439.585 89.368C434.401 89.368 430.657 93.208 430.657 98.392C430.657 103.512 434.401 107.384 439.585 107.384C442.305 107.384 444.641 106.328 446.241 104.568L446.593 107.032H448.705V83.576H445.985ZM439.777 104.76C436.129 104.76 433.441 102.04 433.441 98.392C433.441 94.712 436.129 91.992 439.777 91.992C443.457 91.992 446.145 94.744 446.145 98.392C446.145 102.008 443.457 104.76 439.777 104.76ZM470.349 98.456C470.349 93.4 466.893 89.368 461.645 89.368C456.621 89.368 452.845 93.24 452.845 98.36C452.845 103.512 456.621 107.384 461.645 107.384C465.389 107.384 468.429 105.304 469.901 101.752H467.021C465.965 103.608 464.045 104.728 461.645 104.728C458.381 104.728 455.981 102.616 455.565 99.416H470.285C470.317 99.096 470.349 98.776 470.349 98.456ZM461.645 91.928C464.717 91.928 467.053 93.848 467.629 96.92H455.629C456.173 93.912 458.509 91.928 461.645 91.928ZM494.162 89.72L488.434 103.48L482.546 89.72H479.73L487.186 107H489.682L496.946 89.72H494.162ZM514.535 89.72L514.183 92.376C512.583 90.488 510.183 89.368 507.367 89.368C502.247 89.368 498.407 93.208 498.407 98.392C498.407 103.512 502.247 107.384 507.367 107.384C510.183 107.384 512.551 106.264 514.151 104.408L514.439 107H516.679V89.72H514.535ZM507.559 104.76C503.911 104.76 501.191 102.008 501.191 98.36C501.191 94.744 503.911 91.992 507.559 91.992C511.239 91.992 513.895 94.712 513.895 98.36C513.895 102.04 511.239 104.76 507.559 104.76ZM522.158 107H524.878V83.576H522.158V107ZM537.705 107.384C542.409 107.384 545.385 104.376 545.385 99.736V89.72H542.665V99.288C542.665 102.648 540.809 104.76 537.705 104.76C534.665 104.76 532.777 102.68 532.777 99.288V89.72H530.057V99.736C530.057 104.376 533.065 107.384 537.705 107.384ZM565.316 89.72L564.964 92.376C563.364 90.488 560.964 89.368 558.148 89.368C553.028 89.368 549.188 93.208 549.188 98.392C549.188 103.512 553.028 107.384 558.148 107.384C560.964 107.384 563.332 106.264 564.932 104.408L565.22 107H567.46V89.72H565.316ZM558.34 104.76C554.692 104.76 551.972 102.008 551.972 98.36C551.972 94.744 554.692 91.992 558.34 91.992C562.02 91.992 564.676 94.712 564.676 98.36C564.676 102.04 562.02 104.76 558.34 104.76ZM582.059 89.368C579.499 89.368 577.259 90.328 575.659 91.928V83.576H572.939V107H575.051L575.435 104.568C577.035 106.328 579.371 107.384 582.059 107.384C587.275 107.384 590.987 103.512 590.987 98.36C590.987 93.208 587.275 89.368 582.059 89.368ZM581.867 104.76C578.187 104.76 575.499 101.976 575.499 98.36C575.499 94.744 578.187 91.992 581.867 91.992C585.515 91.992 588.203 94.712 588.203 98.36C588.203 102.04 585.515 104.76 581.867 104.76ZM595.095 107H597.815V83.576H595.095V107ZM619.443 98.456C619.443 93.4 615.987 89.368 610.739 89.368C605.715 89.368 601.939 93.24 601.939 98.36C601.939 103.512 605.715 107.384 610.739 107.384C614.483 107.384 617.523 105.304 618.995 101.752H616.115C615.059 103.608 613.139 104.728 610.739 104.728C607.475 104.728 605.075 102.616 604.659 99.416H619.378C619.411 99.096 619.443 98.776 619.443 98.456ZM610.739 91.928C613.811 91.928 616.147 93.848 616.722 96.92H604.723C605.266 93.912 607.603 91.928 610.739 91.928ZM2.72 148H5.44V124.576H2.72V148ZM27.0675 139.456C27.0675 134.4 23.6115 130.368 18.3635 130.368C13.3395 130.368 9.5635 134.24 9.5635 139.36C9.5635 144.512 13.3395 148.384 18.3635 148.384C22.1075 148.384 25.1475 146.304 26.6195 142.752H23.7395C22.6835 144.608 20.7635 145.728 18.3635 145.728C15.0995 145.728 12.6995 143.616 12.2835 140.416H27.0035C27.0355 140.096 27.0675 139.776 27.0675 139.456ZM18.3635 132.928C21.4355 132.928 23.7715 134.848 24.3475 137.92H12.3475C12.8915 134.912 15.2275 132.928 18.3635 132.928ZM36.5983 148.384C40.6943 148.384 43.4463 146.304 43.4463 143.072C43.4463 138.848 39.9263 138.272 36.9503 137.792C34.6463 137.44 32.6623 137.088 32.6623 135.264C32.6623 133.76 34.1343 132.8 36.4703 132.8C38.9023 132.8 40.3743 133.824 40.4703 135.712H43.0303C42.9343 132.448 40.4383 130.368 36.5343 130.368C32.6302 130.368 30.0063 132.384 30.0063 135.36C30.0063 139.264 33.3343 139.872 36.2783 140.384C38.6143 140.768 40.7583 141.152 40.7583 143.2C40.7583 144.864 39.0623 145.888 36.6943 145.888C34.2623 145.888 32.5023 144.768 32.3743 142.72H29.6863C29.8463 146.208 32.5023 148.384 36.5983 148.384ZM53.0045 148.384C57.1005 148.384 59.8525 146.304 59.8525 143.072C59.8525 138.848 56.3325 138.272 53.3565 137.792C51.0525 137.44 49.0685 137.088 49.0685 135.264C49.0685 133.76 50.5405 132.8 52.8765 132.8C55.3085 132.8 56.7805 133.824 56.8765 135.712H59.4365C59.3405 132.448 56.8445 130.368 52.9405 130.368C49.0365 130.368 46.4125 132.384 46.4125 135.36C46.4125 139.264 49.7405 139.872 52.6845 140.384C55.0205 140.768 57.1645 141.152 57.1645 143.2C57.1645 144.864 55.4685 145.888 53.1005 145.888C50.6685 145.888 48.9085 144.768 48.7805 142.72H46.0925C46.2525 146.208 48.9085 148.384 53.0045 148.384ZM71.7468 148.384C76.9628 148.384 80.8988 144.544 80.8988 139.36C80.8988 134.208 76.9628 130.368 71.7468 130.368C66.4988 130.368 62.5628 134.176 62.5628 139.36C62.5628 144.544 66.4988 148.384 71.7468 148.384ZM71.7468 145.76C68.0348 145.76 65.3468 143.072 65.3468 139.36C65.3468 135.68 68.0348 132.992 71.7468 132.992C75.4268 132.992 78.1147 135.68 78.1147 139.392C78.1147 143.072 75.4268 145.76 71.7468 145.76ZM93.6725 130.368C91.0165 130.368 88.8085 131.52 87.4965 133.44L86.9845 130.72H85.0325V148H87.7525V138.592C87.7525 135.36 90.0245 132.832 93.0005 132.832C95.9765 132.832 97.6405 134.816 97.6405 138.304V148H100.361V137.664C100.361 133.44 97.8005 130.368 93.6725 130.368ZM111.036 148.384C115.132 148.384 117.884 146.304 117.884 143.072C117.884 138.848 114.364 138.272 111.388 137.792C109.084 137.44 107.1 137.088 107.1 135.264C107.1 133.76 108.572 132.8 110.908 132.8C113.34 132.8 114.812 133.824 114.908 135.712H117.468C117.372 132.448 114.876 130.368 110.972 130.368C107.068 130.368 104.444 132.384 104.444 135.36C104.444 139.264 107.772 139.872 110.716 140.384C113.052 140.768 115.196 141.152 115.196 143.2C115.196 144.864 113.5 145.888 111.132 145.888C108.7 145.888 106.94 144.768 106.812 142.72H104.124C104.284 146.208 106.94 148.384 111.036 148.384ZM136.982 145.504C134.614 145.504 133.334 144.224 133.334 141.888V133.184H138.774V130.72H133.334V127.072H132.918L127.574 132.704V133.184H130.614V141.984C130.614 145.728 132.918 148 136.63 148H138.87V145.504H136.982ZM151.141 130.368C148.645 130.368 146.565 131.392 145.221 133.088V124.576H142.501V148H145.221V138.592C145.221 135.36 147.493 132.832 150.469 132.832C153.445 132.832 155.109 134.816 155.109 138.304V148H157.829V137.664C157.829 133.184 155.269 130.368 151.141 130.368ZM177.785 130.72L177.433 133.376C175.833 131.488 173.433 130.368 170.617 130.368C165.497 130.368 161.657 134.208 161.657 139.392C161.657 144.512 165.497 148.384 170.617 148.384C173.433 148.384 175.801 147.264 177.401 145.408L177.689 148H179.929V130.72H177.785ZM170.809 145.76C167.161 145.76 164.441 143.008 164.441 139.36C164.441 135.744 167.161 132.992 170.809 132.992C174.489 132.992 177.145 135.712 177.145 139.36C177.145 143.04 174.489 145.76 170.809 145.76ZM192.576 145.504C190.208 145.504 188.928 144.224 188.928 141.888V133.184H194.368V130.72H188.928V127.072H188.512L183.168 132.704V133.184H186.208V141.984C186.208 145.728 188.512 148 192.224 148H194.464V145.504H192.576ZM206.47 148H209.19V124.576H206.47V148ZM229.41 130.72L229.058 133.376C227.458 131.488 225.058 130.368 222.242 130.368C217.122 130.368 213.282 134.208 213.282 139.392C213.282 144.512 217.122 148.384 222.242 148.384C225.058 148.384 227.426 147.264 229.026 145.408L229.314 148H231.554V130.72H229.41ZM222.434 145.76C218.786 145.76 216.066 143.008 216.066 139.36C216.066 135.744 218.786 132.992 222.434 132.992C226.114 132.992 228.77 135.712 228.77 139.36C228.77 143.04 226.114 145.76 222.434 145.76ZM242.505 148.384C246.601 148.384 249.353 146.304 249.353 143.072C249.353 138.848 245.833 138.272 242.857 137.792C240.553 137.44 238.569 137.088 238.569 135.264C238.569 133.76 240.041 132.8 242.377 132.8C244.809 132.8 246.281 133.824 246.377 135.712H248.937C248.841 132.448 246.345 130.368 242.441 130.368C238.536 130.368 235.913 132.384 235.913 135.36C235.913 139.264 239.241 139.872 242.185 140.384C244.521 140.768 246.665 141.152 246.665 143.2C246.665 144.864 244.969 145.888 242.601 145.888C240.169 145.888 238.409 144.768 238.281 142.72H235.593C235.753 146.208 238.409 148.384 242.505 148.384ZM260.451 145.504C258.083 145.504 256.803 144.224 256.803 141.888V133.184H262.243V130.72H256.803V127.072H256.387L251.043 132.704V133.184H254.083V141.984C254.083 145.728 256.387 148 260.099 148H262.339V145.504H260.451ZM289.097 130.72L288.745 133.376C287.145 131.488 284.745 130.368 281.929 130.368C276.809 130.368 272.969 134.208 272.969 139.392C272.969 144.512 276.809 148.384 281.929 148.384C284.745 148.384 287.113 147.264 288.713 145.408L289.001 148H291.241V130.72H289.097ZM282.121 145.76C278.473 145.76 275.753 143.008 275.753 139.36C275.753 135.744 278.473 132.992 282.121 132.992C285.801 132.992 288.457 135.712 288.457 139.36C288.457 143.04 285.801 145.76 282.121 145.76ZM305.095 148H307.815V124.576H305.095V148ZM313.187 127.744H316.131V124.64H313.187V127.744ZM313.283 148H316.003V130.72H313.283V148ZM330.718 130.848H325.342V129.504C325.342 127.072 326.302 126.144 328.734 126.144H330.686V123.936H328.254C324.382 123.936 322.686 125.76 322.686 129.44V130.848H319.294V133.12H322.686V148H325.406V133.12H330.718V130.848ZM349.474 139.456C349.474 134.4 346.018 130.368 340.77 130.368C335.746 130.368 331.97 134.24 331.97 139.36C331.97 144.512 335.746 148.384 340.77 148.384C344.514 148.384 347.554 146.304 349.026 142.752H346.146C345.09 144.608 343.17 145.728 340.77 145.728C337.506 145.728 335.106 143.616 334.69 140.416H349.41C349.442 140.096 349.474 139.776 349.474 139.456ZM340.77 132.928C343.842 132.928 346.178 134.848 346.754 137.92H334.754C335.298 134.912 337.634 132.928 340.77 132.928ZM360.513 145.504C358.145 145.504 356.865 144.224 356.865 141.888V133.184H362.305V130.72H356.865V127.072H356.449L351.105 132.704V133.184H354.145V141.984C354.145 145.728 356.449 148 360.161 148H362.401V145.504H360.513ZM365.937 127.744H368.881V124.64H365.937V127.744ZM366.033 148H368.753V130.72H366.033V148ZM393.324 130.368C390.956 130.368 388.748 131.616 387.468 133.632C386.508 131.616 384.62 130.368 382.156 130.368C379.98 130.368 377.964 131.392 376.62 133.12L376.172 130.72H374.22V148H376.94V138.432C376.94 135.264 379.02 132.832 381.548 132.832C384.044 132.832 385.484 134.688 385.484 137.824V148H388.172V138.432C388.172 135.264 390.252 132.832 392.78 132.832C395.244 132.832 396.684 134.688 396.684 137.824V148H399.404V136.96C399.404 133.088 396.972 130.368 393.324 130.368ZM420.786 139.456C420.786 134.4 417.33 130.368 412.082 130.368C407.058 130.368 403.282 134.24 403.282 139.36C403.282 144.512 407.058 148.384 412.082 148.384C415.826 148.384 418.866 146.304 420.338 142.752H417.458C416.402 144.608 414.482 145.728 412.082 145.728C408.818 145.728 406.418 143.616 406.002 140.416H420.722C420.754 140.096 420.786 139.776 420.786 139.456ZM412.082 132.928C415.154 132.928 417.49 134.848 418.066 137.92H406.066C406.61 134.912 408.946 132.928 412.082 132.928ZM423.832 148H426.936V144.608H423.832V148ZM3.04 239H5.856V216.6H3.04V239ZM29.1525 221.368C26.5925 221.368 24.3525 222.328 22.7525 223.928V215.576H20.0325V239H22.1445L22.5285 236.568C24.1285 238.328 26.4645 239.384 29.1525 239.384C34.3685 239.384 38.0805 235.512 38.0805 230.36C38.0805 225.208 34.3685 221.368 29.1525 221.368ZM28.9605 236.76C25.2805 236.76 22.5925 233.976 22.5925 230.36C22.5925 226.744 25.2805 223.992 28.9605 223.992C32.6085 223.992 35.2965 226.712 35.2965 230.36C35.2965 234.04 32.6085 236.76 28.9605 236.76ZM58.3488 230.456C58.3488 225.4 54.8928 221.368 49.6448 221.368C44.6208 221.368 40.8448 225.24 40.8448 230.36C40.8448 235.512 44.6208 239.384 49.6448 239.384C53.3888 239.384 56.4288 237.304 57.9008 233.752H55.0208C53.9648 235.608 52.0448 236.728 49.6448 236.728C46.3808 236.728 43.9808 234.616 43.5648 231.416H58.2847C58.3168 231.096 58.3488 230.776 58.3488 230.456ZM49.6448 223.928C52.7168 223.928 55.0528 225.848 55.6287 228.92H43.6288C44.1727 225.912 46.5088 223.928 49.6448 223.928ZM62.4075 239H65.1275V215.576H62.4075V239ZM70.499 218.744H73.443V215.64H70.499V218.744ZM70.595 239H73.315V221.72H70.595V239ZM94.9425 230.456C94.9425 225.4 91.4865 221.368 86.2385 221.368C81.2145 221.368 77.4385 225.24 77.4385 230.36C77.4385 235.512 81.2145 239.384 86.2385 239.384C89.9825 239.384 93.0225 237.304 94.4945 233.752H91.6145C90.5585 235.608 88.6385 236.728 86.2385 236.728C82.9745 236.728 80.5745 234.616 80.1585 231.416H94.8785C94.9105 231.096 94.9425 230.776 94.9425 230.456ZM86.2385 223.928C89.3105 223.928 91.6465 225.848 92.2225 228.92H80.2225C80.7665 225.912 83.1025 223.928 86.2385 223.928ZM110.756 221.72L105.028 235.48L99.1398 221.72H96.3238L103.78 239H106.276L113.54 221.72H110.756ZM132.536 230.456C132.536 225.4 129.08 221.368 123.832 221.368C118.808 221.368 115.032 225.24 115.032 230.36C115.032 235.512 118.808 239.384 123.832 239.384C127.576 239.384 130.616 237.304 132.088 233.752H129.208C128.152 235.608 126.232 236.728 123.832 236.728C120.568 236.728 118.168 234.616 117.752 231.416H132.472C132.504 231.096 132.536 230.776 132.536 230.456ZM123.832 223.928C126.904 223.928 129.24 225.848 129.816 228.92H117.816C118.36 225.912 120.696 223.928 123.832 223.928ZM144.874 218.744H147.818V215.64H144.874V218.744ZM144.97 239H147.69V221.72H144.97V239ZM161.798 221.368C159.142 221.368 156.934 222.52 155.622 224.44L155.11 221.72H153.158V239H155.878V229.592C155.878 226.36 158.15 223.832 161.126 223.832C164.102 223.832 165.766 225.816 165.766 229.304V239H168.486V228.664C168.486 224.44 165.926 221.368 161.798 221.368ZM187.536 239.384C191.632 239.384 194.384 237.304 194.384 234.072C194.384 229.848 190.864 229.272 187.888 228.792C185.584 228.44 183.6 228.088 183.6 226.264C183.6 224.76 185.072 223.8 187.408 223.8C189.84 223.8 191.312 224.824 191.408 226.712H193.968C193.872 223.448 191.376 221.368 187.472 221.368C183.568 221.368 180.944 223.384 180.944 226.36C180.944 230.264 184.272 230.872 187.216 231.384C189.552 231.768 191.696 232.152 191.696 234.2C191.696 235.864 190 236.888 187.632 236.888C185.2 236.888 183.44 235.768 183.312 233.72H180.624C180.784 237.208 183.44 239.384 187.536 239.384ZM206.278 239.384C211.494 239.384 215.43 235.544 215.43 230.36C215.43 225.208 211.494 221.368 206.278 221.368C201.03 221.368 197.094 225.176 197.094 230.36C197.094 235.544 201.03 239.384 206.278 239.384ZM206.278 236.76C202.566 236.76 199.878 234.072 199.878 230.36C199.878 226.68 202.566 223.992 206.278 223.992C209.958 223.992 212.646 226.68 212.646 230.392C212.646 234.072 209.958 236.76 206.278 236.76ZM219.564 239H222.284V215.576H219.564V239ZM227.655 218.744H230.599V215.64H227.655V218.744ZM227.751 239H230.471V221.72H227.751V239ZM249.891 215.576V223.928C248.291 222.328 246.051 221.368 243.491 221.368C238.307 221.368 234.563 225.208 234.563 230.392C234.563 235.512 238.307 239.384 243.491 239.384C246.211 239.384 248.547 238.328 250.147 236.568L250.499 239.032H252.611V215.576H249.891ZM243.683 236.76C240.035 236.76 237.347 234.04 237.347 230.392C237.347 226.712 240.035 223.992 243.683 223.992C247.363 223.992 250.051 226.744 250.051 230.392C250.051 234.008 247.363 236.76 243.683 236.76ZM271.942 239.384C276.038 239.384 278.79 237.304 278.79 234.072C278.79 229.848 275.27 229.272 272.294 228.792C269.99 228.44 268.006 228.088 268.006 226.264C268.006 224.76 269.478 223.8 271.814 223.8C274.246 223.8 275.718 224.824 275.814 226.712H278.374C278.278 223.448 275.782 221.368 271.878 221.368C267.974 221.368 265.35 223.384 265.35 226.36C265.35 230.264 268.678 230.872 271.622 231.384C273.958 231.768 276.102 232.152 276.102 234.2C276.102 235.864 274.406 236.888 272.038 236.888C269.606 236.888 267.846 235.768 267.718 233.72H265.03C265.19 237.208 267.846 239.384 271.942 239.384ZM289.888 236.504C287.52 236.504 286.24 235.224 286.24 232.888V224.184H291.68V221.72H286.24V218.072H285.824L280.48 223.704V224.184H283.52V232.984C283.52 236.728 285.824 239 289.536 239H291.776V236.504H289.888ZM303.312 221.656C300.816 221.656 299.024 222.584 297.776 224.376L297.36 221.72H295.408V239H298.128V229.624C298.128 226.264 299.92 224.216 303.088 224.216H304.848V221.656H303.312ZM321.972 221.72L321.62 224.376C320.02 222.488 317.62 221.368 314.804 221.368C309.684 221.368 305.844 225.208 305.844 230.392C305.844 235.512 309.684 239.384 314.804 239.384C317.62 239.384 319.988 238.264 321.588 236.408L321.876 239H324.116V221.72H321.972ZM314.996 236.76C311.348 236.76 308.628 234.008 308.628 230.36C308.628 226.744 311.348 223.992 314.996 223.992C318.676 223.992 321.332 226.712 321.332 230.36C321.332 234.04 318.676 236.76 314.996 236.76ZM336.763 236.504C334.395 236.504 333.115 235.224 333.115 232.888V224.184H338.555V221.72H333.115V218.072H332.699L327.355 223.704V224.184H330.395V232.984C330.395 236.728 332.699 239 336.411 239H338.651V236.504H336.763ZM358.224 230.456C358.224 225.4 354.768 221.368 349.52 221.368C344.496 221.368 340.72 225.24 340.72 230.36C340.72 235.512 344.496 239.384 349.52 239.384C353.264 239.384 356.304 237.304 357.776 233.752H354.896C353.84 235.608 351.92 236.728 349.52 236.728C346.256 236.728 343.856 234.616 343.44 231.416H358.16C358.192 231.096 358.224 230.776 358.224 230.456ZM349.52 223.928C352.592 223.928 354.928 225.848 355.504 228.92H343.504C344.048 225.912 346.384 223.928 349.52 223.928ZM376.555 221.72L376.139 224.408C374.571 222.52 372.203 221.368 369.419 221.368C364.619 221.368 360.939 225.112 360.939 229.912C360.939 234.744 364.619 238.456 369.419 238.456C371.979 238.456 374.187 237.496 375.722 235.896V236.952C375.722 240.792 373.355 243.064 369.899 243.064C367.403 243.064 365.227 241.848 364.459 239.704H361.739C362.667 243.352 365.675 245.56 369.899 245.56C375.179 245.56 378.378 242.168 378.378 236.6V221.752L376.555 221.72ZM369.707 235.864C366.251 235.864 363.691 233.304 363.691 229.912C363.691 226.52 366.251 223.96 369.707 223.96C373.163 223.96 375.691 226.488 375.691 229.912C375.691 233.336 373.195 235.864 369.707 235.864ZM383.749 218.744H386.693V215.64H383.749V218.744ZM383.845 239H386.565V221.72H383.845V239ZM408.193 230.456C408.193 225.4 404.737 221.368 399.489 221.368C394.465 221.368 390.689 225.24 390.689 230.36C390.689 235.512 394.465 239.384 399.489 239.384C403.233 239.384 406.273 237.304 407.745 233.752H404.865C403.809 235.608 401.889 236.728 399.489 236.728C396.225 236.728 393.825 234.616 393.409 231.416H408.128C408.161 231.096 408.193 230.776 408.193 230.456ZM399.489 223.928C402.561 223.928 404.897 225.848 405.472 228.92H393.473C394.016 225.912 396.353 223.928 399.489 223.928ZM417.723 239.384C421.819 239.384 424.571 237.304 424.571 234.072C424.571 229.848 421.051 229.272 418.075 228.792C415.771 228.44 413.787 228.088 413.787 226.264C413.787 224.76 415.259 223.8 417.595 223.8C420.027 223.8 421.499 224.824 421.595 226.712H424.155C424.059 223.448 421.563 221.368 417.659 221.368C413.755 221.368 411.131 223.384 411.131 226.36C411.131 230.264 414.459 230.872 417.403 231.384C419.739 231.768 421.883 232.152 421.883 234.2C421.883 235.864 420.187 236.888 417.819 236.888C415.387 236.888 413.627 235.768 413.499 233.72H410.811C410.971 237.208 413.627 239.384 417.723 239.384ZM451.785 221.72L451.433 224.376C449.833 222.488 447.433 221.368 444.617 221.368C439.497 221.368 435.657 225.208 435.657 230.392C435.657 235.512 439.497 239.384 444.617 239.384C447.433 239.384 449.801 238.264 451.401 236.408L451.689 239H453.929V221.72H451.785ZM444.809 236.76C441.161 236.76 438.441 234.008 438.441 230.36C438.441 226.744 441.161 223.992 444.809 223.992C448.489 223.992 451.145 226.712 451.145 230.36C451.145 234.04 448.489 236.76 444.809 236.76ZM468.048 221.368C465.392 221.368 463.184 222.52 461.872 224.44L461.36 221.72H459.408V239H462.128V229.592C462.128 226.36 464.4 223.832 467.376 223.832C470.352 223.832 472.016 225.816 472.016 229.304V239H474.736V228.664C474.736 224.44 472.176 221.368 468.048 221.368ZM493.891 215.576V223.928C492.291 222.328 490.051 221.368 487.491 221.368C482.307 221.368 478.563 225.208 478.563 230.392C478.563 235.512 482.307 239.384 487.491 239.384C490.211 239.384 492.547 238.328 494.147 236.568L494.499 239.032H496.611V215.576H493.891ZM487.683 236.76C484.035 236.76 481.347 234.04 481.347 230.392C481.347 226.712 484.035 223.992 487.683 223.992C491.363 223.992 494.051 226.744 494.051 230.392C494.051 234.008 491.363 236.76 487.683 236.76ZM525.222 221.72L524.87 224.376C523.27 222.488 520.87 221.368 518.054 221.368C512.934 221.368 509.094 225.208 509.094 230.392C509.094 235.512 512.934 239.384 518.054 239.384C520.87 239.384 523.238 238.264 524.838 236.408L525.126 239H527.366V221.72H525.222ZM518.246 236.76C514.598 236.76 511.878 234.008 511.878 230.36C511.878 226.744 514.598 223.992 518.246 223.992C521.926 223.992 524.582 226.712 524.582 230.36C524.582 234.04 521.926 236.76 518.246 236.76ZM540.461 239.384C544.557 239.384 547.853 236.92 548.909 233.112H546.157C545.101 235.416 542.989 236.76 540.461 236.76C536.941 236.76 534.253 233.976 534.253 230.36C534.253 226.776 536.909 223.992 540.461 223.992C543.021 223.992 545.165 225.336 546.157 227.576H548.877C547.821 223.8 544.589 221.368 540.461 221.368C535.341 221.368 531.469 225.208 531.469 230.36C531.469 235.512 535.341 239.384 540.461 239.384ZM559.857 236.504C557.489 236.504 556.209 235.224 556.209 232.888V224.184H561.649V221.72H556.209V218.072H555.793L550.449 223.704V224.184H553.489V232.984C553.489 236.728 555.793 239 559.505 239H561.745V236.504H559.857ZM565.28 218.744H568.224V215.64H565.28V218.744ZM565.376 239H568.096V221.72H565.376V239ZM581.372 239.384C586.588 239.384 590.524 235.544 590.524 230.36C590.524 225.208 586.588 221.368 581.372 221.368C576.124 221.368 572.188 225.176 572.188 230.36C572.188 235.544 576.124 239.384 581.372 239.384ZM581.372 236.76C577.66 236.76 574.972 234.072 574.972 230.36C574.972 226.68 577.66 223.992 581.372 223.992C585.052 223.992 587.74 226.68 587.74 230.392C587.74 234.072 585.052 236.76 581.372 236.76ZM603.298 221.368C600.642 221.368 598.434 222.52 597.122 224.44L596.61 221.72H594.658V239H597.378V229.592C597.378 226.36 599.65 223.832 602.626 223.832C605.602 223.832 607.266 225.816 607.266 229.304V239H609.986V228.664C609.986 224.44 607.426 221.368 603.298 221.368ZM629.941 221.72L629.589 224.376C627.989 222.488 625.589 221.368 622.773 221.368C617.653 221.368 613.813 225.208 613.813 230.392C613.813 235.512 617.653 239.384 622.773 239.384C625.589 239.384 627.957 238.264 629.557 236.408L629.845 239H632.085V221.72H629.941ZM622.965 236.76C619.317 236.76 616.597 234.008 616.597 230.36C616.597 226.744 619.317 223.992 622.965 223.992C626.645 223.992 629.301 226.712 629.301 230.36C629.301 234.04 626.645 236.76 622.965 236.76ZM646.684 221.368C644.124 221.368 641.884 222.328 640.284 223.928V215.576H637.564V239H639.676L640.06 236.568C641.66 238.328 643.996 239.384 646.684 239.384C651.9 239.384 655.612 235.512 655.612 230.36C655.612 225.208 651.9 221.368 646.684 221.368ZM646.492 236.76C642.812 236.76 640.124 233.976 640.124 230.36C640.124 226.744 642.812 223.992 646.492 223.992C650.14 223.992 652.828 226.712 652.828 230.36C652.828 234.04 650.14 236.76 646.492 236.76ZM659.72 239H662.44V215.576H659.72V239ZM684.068 230.456C684.068 225.4 680.612 221.368 675.364 221.368C670.34 221.368 666.564 225.24 666.564 230.36C666.564 235.512 670.34 239.384 675.364 239.384C679.108 239.384 682.148 237.304 683.62 233.752H680.74C679.684 235.608 677.764 236.728 675.364 236.728C672.1 236.728 669.7 234.616 669.284 231.416H684.003C684.036 231.096 684.068 230.776 684.068 230.456ZM675.364 223.928C678.436 223.928 680.772 225.848 681.347 228.92H669.348C669.891 225.912 672.228 223.928 675.364 223.928ZM17.472 262.72L17.12 265.376C15.52 263.488 13.12 262.368 10.304 262.368C5.184 262.368 1.344 266.208 1.344 271.392C1.344 276.512 5.184 280.384 10.304 280.384C13.12 280.384 15.488 279.264 17.088 277.408L17.376 280H19.616V262.72H17.472ZM10.496 277.76C6.848 277.76 4.128 275.008 4.128 271.36C4.128 267.744 6.848 264.992 10.496 264.992C14.176 264.992 16.832 267.712 16.832 271.36C16.832 275.04 14.176 277.76 10.496 277.76ZM33.735 262.368C31.079 262.368 28.871 263.52 27.559 265.44L27.047 262.72H25.095V280H27.815V270.592C27.815 267.36 30.087 264.832 33.063 264.832C36.039 264.832 37.703 266.816 37.703 270.304V280H40.423V269.664C40.423 265.44 37.863 262.368 33.735 262.368ZM51.0983 280.384C55.1943 280.384 57.9463 278.304 57.9463 275.072C57.9463 270.848 54.4263 270.272 51.4503 269.792C49.1463 269.44 47.1623 269.088 47.1623 267.264C47.1623 265.76 48.6343 264.8 50.9703 264.8C53.4023 264.8 54.8743 265.824 54.9703 267.712H57.5303C57.4343 264.448 54.9383 262.368 51.0343 262.368C47.1302 262.368 44.5063 264.384 44.5063 267.36C44.5063 271.264 47.8343 271.872 50.7783 272.384C53.1143 272.768 55.2583 273.152 55.2583 275.2C55.2583 276.864 53.5623 277.888 51.1943 277.888C48.7623 277.888 47.0023 276.768 46.8743 274.72H44.1863C44.3463 278.208 47.0023 280.384 51.0983 280.384ZM82.7448 262.72L78.3608 275.584L73.0168 263.008H72.0248L66.7448 275.456L62.4248 262.72H59.6088L65.4328 280H67.6408L72.5368 268.256L77.4008 280H79.6088L85.4968 262.72H82.7448ZM104.755 271.456C104.755 266.4 101.299 262.368 96.051 262.368C91.027 262.368 87.251 266.24 87.251 271.36C87.251 276.512 91.027 280.384 96.051 280.384C99.795 280.384 102.835 278.304 104.307 274.752H101.427C100.371 276.608 98.451 277.728 96.051 277.728C92.787 277.728 90.387 275.616 89.971 272.416H104.691C104.723 272.096 104.755 271.776 104.755 271.456ZM96.051 264.928C99.123 264.928 101.459 266.848 102.035 269.92H90.035C90.579 266.912 92.915 264.928 96.051 264.928ZM116.718 262.656C114.222 262.656 112.43 263.584 111.182 265.376L110.766 262.72H108.814V280H111.534V270.624C111.534 267.264 113.326 265.216 116.494 265.216H118.254V262.656H116.718ZM126.505 280.384C130.601 280.384 133.353 278.304 133.353 275.072C133.353 270.848 129.833 270.272 126.857 269.792C124.553 269.44 122.569 269.088 122.569 267.264C122.569 265.76 124.041 264.8 126.377 264.8C128.809 264.8 130.281 265.824 130.377 267.712H132.937C132.841 264.448 130.345 262.368 126.441 262.368C122.536 262.368 119.913 264.384 119.913 267.36C119.913 271.264 123.241 271.872 126.185 272.384C128.521 272.768 130.665 273.152 130.665 275.2C130.665 276.864 128.969 277.888 126.601 277.888C124.169 277.888 122.409 276.768 122.281 274.72H119.593C119.753 278.208 122.409 280.384 126.505 280.384ZM152.451 277.504C150.083 277.504 148.803 276.224 148.803 273.888V265.184H154.243V262.72H148.803V259.072H148.387L143.043 264.704V265.184H146.083V273.984C146.083 277.728 148.387 280 152.099 280H154.339V277.504H152.451ZM166.61 262.368C164.114 262.368 162.034 263.392 160.69 265.088V256.576H157.97V280H160.69V270.592C160.69 267.36 162.962 264.832 165.938 264.832C168.914 264.832 170.578 266.816 170.578 270.304V280H173.298V269.664C173.298 265.184 170.738 262.368 166.61 262.368ZM193.253 262.72L192.901 265.376C191.301 263.488 188.901 262.368 186.085 262.368C180.965 262.368 177.125 266.208 177.125 271.392C177.125 276.512 180.965 280.384 186.085 280.384C188.901 280.384 191.269 279.264 192.869 277.408L193.157 280H195.397V262.72H193.253ZM186.277 277.76C182.629 277.76 179.909 275.008 179.909 271.36C179.909 267.744 182.629 264.992 186.277 264.992C189.957 264.992 192.613 267.712 192.613 271.36C192.613 275.04 189.957 277.76 186.277 277.76ZM208.044 277.504C205.676 277.504 204.396 276.224 204.396 273.888V265.184H209.836V262.72H204.396V259.072H203.98L198.636 264.704V265.184H201.676V273.984C201.676 277.728 203.98 280 207.692 280H209.932V277.504H208.044ZM233.798 262.72L228.006 275.808L221.862 262.72H218.918L226.598 278.848L225.99 280.128C224.582 283.008 223.782 283.712 221.446 283.712H220.07V286.176H221.702C224.966 286.176 226.598 284.832 228.454 280.736L236.71 262.72H233.798ZM247.122 280.384C252.338 280.384 256.274 276.544 256.274 271.36C256.274 266.208 252.338 262.368 247.122 262.368C241.874 262.368 237.938 266.176 237.938 271.36C237.938 276.544 241.874 280.384 247.122 280.384ZM247.122 277.76C243.41 277.76 240.722 275.072 240.722 271.36C240.722 267.68 243.41 264.992 247.122 264.992C250.802 264.992 253.49 267.68 253.49 271.392C253.49 275.072 250.802 277.76 247.122 277.76ZM267.768 280.384C272.472 280.384 275.448 277.376 275.448 272.736V262.72H272.728V272.288C272.728 275.648 270.872 277.76 267.768 277.76C264.728 277.76 262.84 275.68 262.84 272.288V262.72H260.12V272.736C260.12 277.376 263.128 280.384 267.768 280.384ZM296.617 280.384C300.713 280.384 304.009 277.92 305.065 274.112H302.313C301.257 276.416 299.145 277.76 296.617 277.76C293.097 277.76 290.409 274.976 290.409 271.36C290.409 267.776 293.065 264.992 296.617 264.992C299.177 264.992 301.321 266.336 302.313 268.576H305.033C303.977 264.8 300.745 262.368 296.617 262.368C291.497 262.368 287.625 266.208 287.625 271.36C287.625 276.512 291.497 280.384 296.617 280.384ZM323.597 262.72L323.245 265.376C321.645 263.488 319.245 262.368 316.429 262.368C311.309 262.368 307.469 266.208 307.469 271.392C307.469 276.512 311.309 280.384 316.429 280.384C319.245 280.384 321.613 279.264 323.213 277.408L323.501 280H325.741V262.72H323.597ZM316.621 277.76C312.973 277.76 310.253 275.008 310.253 271.36C310.253 267.744 312.973 264.992 316.621 264.992C320.301 264.992 322.957 267.712 322.957 271.36C322.957 275.04 320.301 277.76 316.621 277.76ZM339.86 262.368C337.204 262.368 334.996 263.52 333.684 265.44L333.172 262.72H331.22V280H333.94V270.592C333.94 267.36 336.212 264.832 339.188 264.832C342.164 264.832 343.828 266.816 343.828 270.304V280H346.548V269.664C346.548 265.44 343.988 262.368 339.86 262.368ZM367.934 280.384C373.15 280.384 377.086 276.544 377.086 271.36C377.086 266.208 373.15 262.368 367.934 262.368C362.686 262.368 358.75 266.176 358.75 271.36C358.75 276.544 362.686 280.384 367.934 280.384ZM367.934 277.76C364.222 277.76 361.534 275.072 361.534 271.36C361.534 267.68 364.222 264.992 367.934 264.992C371.614 264.992 374.302 267.68 374.302 271.392C374.302 275.072 371.614 277.76 367.934 277.76ZM390.404 262.368C387.62 262.368 385.252 263.488 383.652 265.376L383.108 262.72H381.22V286.176H383.94V277.696C385.54 279.392 387.812 280.384 390.404 280.384C395.556 280.384 399.268 276.512 399.268 271.36C399.268 266.208 395.556 262.368 390.404 262.368ZM390.212 277.76C386.532 277.76 383.844 275.008 383.844 271.36C383.844 267.744 386.532 264.992 390.212 264.992C393.86 264.992 396.548 267.712 396.548 271.36C396.548 275.04 393.86 277.76 390.212 277.76ZM419.568 271.456C419.568 266.4 416.112 262.368 410.864 262.368C405.84 262.368 402.064 266.24 402.064 271.36C402.064 276.512 405.84 280.384 410.864 280.384C414.608 280.384 417.648 278.304 419.12 274.752H416.24C415.184 276.608 413.264 277.728 410.864 277.728C407.6 277.728 405.2 275.616 404.784 272.416H419.503C419.536 272.096 419.568 271.776 419.568 271.456ZM410.864 264.928C413.936 264.928 416.272 266.848 416.847 269.92H404.848C405.391 266.912 407.728 264.928 410.864 264.928ZM431.53 262.656C429.034 262.656 427.242 263.584 425.994 265.376L425.578 262.72H423.626V280H426.346V270.624C426.346 267.264 428.138 265.216 431.306 265.216H433.066V262.656H431.53ZM450.191 262.72L449.839 265.376C448.239 263.488 445.839 262.368 443.023 262.368C437.903 262.368 434.063 266.208 434.063 271.392C434.063 276.512 437.903 280.384 443.023 280.384C445.839 280.384 448.207 279.264 449.807 277.408L450.095 280H452.335V262.72H450.191ZM443.215 277.76C439.567 277.76 436.847 275.008 436.847 271.36C436.847 267.744 439.567 264.992 443.215 264.992C446.895 264.992 449.551 267.712 449.551 271.36C449.551 275.04 446.895 277.76 443.215 277.76ZM464.982 277.504C462.614 277.504 461.334 276.224 461.334 273.888V265.184H466.774V262.72H461.334V259.072H460.918L455.574 264.704V265.184H458.614V273.984C458.614 277.728 460.918 280 464.63 280H466.87V277.504H464.982ZM486.443 271.456C486.443 266.4 482.987 262.368 477.739 262.368C472.715 262.368 468.939 266.24 468.939 271.36C468.939 276.512 472.715 280.384 477.739 280.384C481.483 280.384 484.523 278.304 485.995 274.752H483.115C482.059 276.608 480.139 277.728 477.739 277.728C474.475 277.728 472.075 275.616 471.659 272.416H486.378C486.411 272.096 486.443 271.776 486.443 271.456ZM477.739 264.928C480.811 264.928 483.147 266.848 483.722 269.92H471.723C472.266 266.912 474.603 264.928 477.739 264.928ZM506.684 280.384C511.9 280.384 515.836 276.544 515.836 271.36C515.836 266.208 511.9 262.368 506.684 262.368C501.436 262.368 497.5 266.176 497.5 271.36C497.5 276.544 501.436 280.384 506.684 280.384ZM506.684 277.76C502.972 277.76 500.284 275.072 500.284 271.36C500.284 267.68 502.972 264.992 506.684 264.992C510.364 264.992 513.052 267.68 513.052 271.392C513.052 275.072 510.364 277.76 506.684 277.76ZM528.61 262.368C525.954 262.368 523.746 263.52 522.434 265.44L521.922 262.72H519.97V280H522.69V270.592C522.69 267.36 524.962 264.832 527.938 264.832C530.914 264.832 532.578 266.816 532.578 270.304V280H535.298V269.664C535.298 265.44 532.738 262.368 528.61 262.368ZM563.628 262.72L563.276 265.376C561.676 263.488 559.276 262.368 556.46 262.368C551.34 262.368 547.5 266.208 547.5 271.392C547.5 276.512 551.34 280.384 556.46 280.384C559.276 280.384 561.644 279.264 563.244 277.408L563.532 280H565.772V262.72H563.628ZM556.652 277.76C553.004 277.76 550.284 275.008 550.284 271.36C550.284 267.744 553.004 264.992 556.652 264.992C560.332 264.992 562.988 267.712 562.988 271.36C562.988 275.04 560.332 277.76 556.652 277.76ZM579.891 262.368C577.235 262.368 575.027 263.52 573.715 265.44L573.203 262.72H571.251V280H573.971V270.592C573.971 267.36 576.243 264.832 579.219 264.832C582.195 264.832 583.859 266.816 583.859 270.304V280H586.579V269.664C586.579 265.44 584.019 262.368 579.891 262.368ZM603.86 262.72L598.068 275.808L591.924 262.72H588.98L596.66 278.848L596.052 280.128C594.644 283.008 593.844 283.712 591.508 283.712H590.132V286.176H591.764C595.028 286.176 596.66 284.832 598.516 280.736L606.772 262.72H603.86ZM617.405 259.744H620.349V256.64H617.405V259.744ZM617.501 280H620.221V262.72H617.501V280ZM631.161 280.384C635.257 280.384 638.009 278.304 638.009 275.072C638.009 270.848 634.489 270.272 631.513 269.792C629.209 269.44 627.225 269.088 627.225 267.264C627.225 265.76 628.697 264.8 631.033 264.8C633.465 264.8 634.937 265.824 635.033 267.712H637.593C637.497 264.448 635.001 262.368 631.097 262.368C627.193 262.368 624.569 264.384 624.569 267.36C624.569 271.264 627.897 271.872 630.841 272.384C633.177 272.768 635.321 273.152 635.321 275.2C635.321 276.864 633.625 277.888 631.257 277.888C628.825 277.888 627.065 276.768 626.937 274.72H624.249C624.409 278.208 627.065 280.384 631.161 280.384ZM647.567 280.384C651.663 280.384 654.415 278.304 654.415 275.072C654.415 270.848 650.895 270.272 647.919 269.792C645.615 269.44 643.631 269.088 643.631 267.264C643.631 265.76 645.103 264.8 647.439 264.8C649.871 264.8 651.343 265.824 651.439 267.712H653.999C653.903 264.448 651.407 262.368 647.503 262.368C643.599 262.368 640.975 264.384 640.975 267.36C640.975 271.264 644.303 271.872 647.247 272.384C649.583 272.768 651.727 273.152 651.727 275.2C651.727 276.864 650.031 277.888 647.663 277.888C645.231 277.888 643.471 276.768 643.343 274.72H640.655C640.815 278.208 643.471 280.384 647.567 280.384ZM665.861 280.384C670.565 280.384 673.541 277.376 673.541 272.736V262.72H670.821V272.288C670.821 275.648 668.965 277.76 665.861 277.76C662.821 277.76 660.933 275.68 660.933 272.288V262.72H658.213V272.736C658.213 277.376 661.221 280.384 665.861 280.384ZM694.88 271.456C694.88 266.4 691.424 262.368 686.176 262.368C681.152 262.368 677.376 266.24 677.376 271.36C677.376 276.512 681.152 280.384 686.176 280.384C689.92 280.384 692.96 278.304 694.432 274.752H691.552C690.496 276.608 688.576 277.728 686.176 277.728C682.912 277.728 680.512 275.616 680.096 272.416H694.816C694.848 272.096 694.88 271.776 694.88 271.456ZM686.176 264.928C689.248 264.928 691.584 266.848 692.16 269.92H680.16C680.704 266.912 683.04 264.928 686.176 264.928ZM2.624 300.744H5.568V297.64H2.624V300.744ZM2.72 321H5.44V303.72H2.72V321ZM19.5475 303.368C16.8915 303.368 14.6835 304.52 13.3715 306.44L12.8595 303.72H10.9075V321H13.6275V311.592C13.6275 308.36 15.8995 305.832 18.8755 305.832C21.8515 305.832 23.5155 307.816 23.5155 311.304V321H26.2355V310.664C26.2355 306.44 23.6755 303.368 19.5475 303.368ZM46.4505 318.504C44.0825 318.504 42.8025 317.224 42.8025 314.888V306.184H48.2425V303.72H42.8025V300.072H42.3865L37.0425 305.704V306.184H40.0825V314.984C40.0825 318.728 42.3865 321 46.0985 321H48.3385V318.504H46.4505ZM60.61 303.368C58.114 303.368 56.034 304.392 54.69 306.088V297.576H51.97V321H54.69V311.592C54.69 308.36 56.962 305.832 59.938 305.832C62.914 305.832 64.578 307.816 64.578 311.304V321H67.298V310.664C67.298 306.184 64.738 303.368 60.61 303.368ZM88.6613 312.456C88.6613 307.4 85.2053 303.368 79.9573 303.368C74.9333 303.368 71.1573 307.24 71.1573 312.36C71.1573 317.512 74.9333 321.384 79.9573 321.384C83.7013 321.384 86.7413 319.304 88.2133 315.752H85.3333C84.2773 317.608 82.3573 318.728 79.9573 318.728C76.6933 318.728 74.2933 316.616 73.8773 313.416H88.5972C88.6293 313.096 88.6613 312.776 88.6613 312.456ZM79.9573 305.928C83.0293 305.928 85.3653 307.848 85.9412 310.92H73.9413C74.4852 307.912 76.8213 305.928 79.9573 305.928ZM110.281 303.848H104.905V302.504C104.905 300.072 105.865 299.144 108.297 299.144H110.249V296.936H107.817C103.945 296.936 102.249 298.76 102.249 302.44V303.848H98.8565V306.12H102.249V321H104.969V306.12H110.281V303.848ZM120.768 321.384C125.472 321.384 128.448 318.376 128.448 313.736V303.72H125.728V313.288C125.728 316.648 123.872 318.76 120.768 318.76C117.728 318.76 115.84 316.68 115.84 313.288V303.72H113.12V313.736C113.12 318.376 116.128 321.384 120.768 321.384ZM140.794 318.504C138.426 318.504 137.146 317.224 137.146 314.888V306.184H142.586V303.72H137.146V300.072H136.73L131.386 305.704V306.184H134.426V314.984C134.426 318.728 136.73 321 140.442 321H142.682V318.504H140.794ZM153.674 321.384C158.378 321.384 161.354 318.376 161.354 313.736V303.72H158.634V313.288C158.634 316.648 156.778 318.76 153.674 318.76C150.634 318.76 148.746 316.68 148.746 313.288V303.72H146.026V313.736C146.026 318.376 149.034 321.384 153.674 321.384ZM174.437 303.656C171.941 303.656 170.149 304.584 168.901 306.376L168.485 303.72H166.533V321H169.253V311.624C169.253 308.264 171.045 306.216 174.213 306.216H175.973V303.656H174.437ZM194.505 312.456C194.505 307.4 191.049 303.368 185.801 303.368C180.777 303.368 177.001 307.24 177.001 312.36C177.001 317.512 180.777 321.384 185.801 321.384C189.545 321.384 192.585 319.304 194.057 315.752H191.177C190.121 317.608 188.201 318.728 185.801 318.728C182.537 318.728 180.137 316.616 179.721 313.416H194.441C194.473 313.096 194.505 312.776 194.505 312.456ZM185.801 305.928C188.873 305.928 191.209 307.848 191.785 310.92H179.785C180.329 307.912 182.665 305.928 185.801 305.928ZM197.551 321H200.655V317.608H197.551V321Z" fill="white"/>
</svg>
