<svg width="665" height="246" viewBox="0 0 665 246" fill="none" xmlns="http://www.w3.org/2000/svg">
<path d="M21.295 50.39C16.7883 50.39 13.235 49.805 10.635 48.635C8.07833 47.4217 6.12833 45.1033 4.785 41.68C3.485 38.2133 2.835 33.0783 2.835 26.275C2.835 19.515 3.50667 14.38 4.85 10.87C6.23667 7.31666 8.23 4.91166 10.83 3.655C13.43 2.39833 16.9183 1.77 21.295 1.77C25.8017 1.77 29.355 2.39833 31.955 3.655C34.555 4.86833 36.505 7.25166 37.805 10.805C39.105 14.315 39.755 19.4717 39.755 26.275C39.755 33.0783 39.0833 38.2133 37.74 41.68C36.44 45.1033 34.49 47.4217 31.89 48.635C29.3333 49.805 25.8017 50.39 21.295 50.39ZM21.295 45.775C24.7617 45.775 27.405 45.2983 29.225 44.345C31.0883 43.3917 32.4533 41.5283 33.32 38.755C34.1867 35.9817 34.62 31.8217 34.62 26.275C34.62 20.5117 34.1867 16.2217 33.32 13.405C32.4533 10.5883 31.0883 8.725 29.225 7.815C27.405 6.86167 24.7617 6.385 21.295 6.385C18.0017 6.385 15.4233 6.86167 13.56 7.815C11.6967 8.725 10.2883 10.61 9.335 13.47C8.425 16.33 7.97 20.5983 7.97 26.275C7.97 31.865 8.38167 36.0467 9.205 38.82C10.0283 41.55 11.35 43.3917 13.17 44.345C15.0333 45.2983 17.7417 45.775 21.295 45.775ZM58.8355 50.39C51.9022 50.39 48.4355 46.8367 48.4355 39.73V15.29H53.5705V38.43C53.5705 41.2033 54.1772 43.1317 55.3905 44.215C56.6472 45.2983 58.5539 45.84 61.1105 45.84C63.0605 45.84 64.8805 45.58 66.5705 45.06C68.2605 44.4967 70.0372 43.6517 71.9005 42.525V15.29H77.0355V50H73.0055L71.9005 46.165C67.4805 48.9817 63.1255 50.39 58.8355 50.39ZM86.7134 15.29H90.6134L91.8484 21.335C93.5384 19.2983 95.3584 17.7167 97.3084 16.59C99.2584 15.4633 101.403 14.9 103.743 14.9C104.913 14.9 105.997 15.0083 106.993 15.225V20.49C105.043 20.2733 103.787 20.165 103.223 20.165C100.927 20.165 98.9334 20.5767 97.2434 21.4C95.5968 22.2233 93.7984 23.545 91.8484 25.365V50H86.7134V15.29ZM132.905 19.515H127.575V16.2L132.905 15.29V11.325C132.905 7.46833 133.642 4.63 135.115 2.81C136.632 0.946664 139.21 0.0149965 142.85 0.0149965C145.06 0.0149965 147.292 0.231663 149.545 0.664996V4.305H143.76C141.55 4.305 140.033 4.84667 139.21 5.93C138.43 6.97 138.04 8.68166 138.04 11.065V15.29H148.83V19.515H138.04V50H132.905V19.515ZM168.731 50.39C165.177 50.39 162.317 49.8917 160.151 48.895C157.984 47.8983 156.359 46.1217 155.276 43.565C154.236 40.965 153.716 37.3033 153.716 32.58C153.716 27.8133 154.257 24.1517 155.341 21.595C156.424 18.995 158.027 17.2183 160.151 16.265C162.274 15.3117 165.134 14.835 168.731 14.835C172.284 14.835 175.144 15.3333 177.311 16.33C179.477 17.2833 181.102 19.06 182.186 21.66C183.269 24.2167 183.811 27.8567 183.811 32.58C183.811 37.3033 183.269 40.965 182.186 43.565C181.102 46.1217 179.477 47.8983 177.311 48.895C175.187 49.8917 172.327 50.39 168.731 50.39ZM168.731 46.165C171.114 46.165 172.977 45.8617 174.321 45.255C175.707 44.605 176.769 43.305 177.506 41.355C178.242 39.405 178.611 36.48 178.611 32.58C178.611 28.68 178.242 25.7767 177.506 23.87C176.812 21.92 175.772 20.6417 174.386 20.035C172.999 19.385 171.114 19.06 168.731 19.06C166.304 19.06 164.397 19.385 163.011 20.035C161.667 20.6417 160.627 21.92 159.891 23.87C159.197 25.7767 158.851 28.68 158.851 32.58C158.851 36.48 159.197 39.405 159.891 41.355C160.627 43.305 161.667 44.605 163.011 45.255C164.397 45.8617 166.304 46.165 168.731 46.165ZM202.8 50.39C195.867 50.39 192.4 46.8367 192.4 39.73V15.29H197.535V38.43C197.535 41.2033 198.142 43.1317 199.355 44.215C200.612 45.2983 202.519 45.84 205.075 45.84C207.025 45.84 208.845 45.58 210.535 45.06C212.225 44.4967 214.002 43.6517 215.865 42.525V15.29H221V50H216.97L215.865 46.165C211.445 48.9817 207.09 50.39 202.8 50.39ZM230.678 15.29H234.708L235.813 19.125C237.633 17.8683 239.648 16.8283 241.858 16.005C244.068 15.1383 246.278 14.705 248.488 14.705C252.085 14.705 254.772 15.81 256.548 18.02C258.325 20.23 259.213 23.025 259.213 26.405V50H254.078V26.99C254.078 24.7367 253.428 22.9167 252.128 21.53C250.872 20.1 249.117 19.385 246.863 19.385C244.783 19.385 242.92 19.6667 241.273 20.23C239.67 20.75 237.85 21.595 235.813 22.765V50H230.678V15.29ZM280.136 50.39C275.846 50.39 272.683 48.9817 270.646 46.165C268.653 43.3483 267.656 38.9283 267.656 32.905C267.656 28.5717 268.09 25.0833 268.956 22.44C269.823 19.7967 271.21 17.8683 273.116 16.655C275.023 15.4417 277.58 14.835 280.786 14.835C284.08 14.835 287.633 15.5283 291.446 16.915V0.404999H296.581V50H292.421L291.446 46.49C290.406 47.4 288.738 48.2883 286.441 49.155C284.145 49.9783 282.043 50.39 280.136 50.39ZM281.631 46.165C283.451 46.165 285.12 45.905 286.636 45.385C288.196 44.8217 289.8 44.1067 291.446 43.24V20.555C289.41 19.9483 287.741 19.515 286.441 19.255C285.185 18.995 283.755 18.865 282.151 18.865C279.855 18.865 278.035 19.2983 276.691 20.165C275.348 20.9883 274.351 22.3967 273.701 24.39C273.095 26.3833 272.791 29.1567 272.791 32.71C272.791 37.5633 273.463 41.03 274.806 43.11C276.15 45.1467 278.425 46.165 281.631 46.165ZM319.539 50.39C315.812 50.39 312.909 49.8483 310.829 48.765C308.792 47.6817 307.319 45.8617 306.409 43.305C305.499 40.7483 305.044 37.1733 305.044 32.58C305.044 27.9433 305.499 24.3467 306.409 21.79C307.362 19.2333 308.879 17.435 310.959 16.395C313.039 15.355 315.921 14.835 319.604 14.835C322.767 14.835 325.302 15.1817 327.209 15.875C329.116 16.5683 330.524 17.76 331.434 19.45C332.344 21.0967 332.799 23.3933 332.799 26.34C332.799 29.2867 331.932 31.4317 330.199 32.775C328.509 34.075 326.082 34.725 322.919 34.725H310.179C310.222 37.715 310.526 40.0333 311.089 41.68C311.652 43.2833 312.692 44.475 314.209 45.255C315.726 45.9917 317.914 46.36 320.774 46.36H331.954V49.48C329.614 49.7833 327.534 50 325.714 50.13C323.894 50.3033 321.836 50.39 319.539 50.39ZM322.464 31.345C324.457 31.345 325.909 30.9767 326.819 30.24C327.729 29.5033 328.184 28.225 328.184 26.405C328.184 23.5017 327.534 21.5083 326.234 20.425C324.977 19.2983 322.767 18.735 319.604 18.735C317.091 18.735 315.162 19.1033 313.819 19.84C312.476 20.5767 311.522 21.8333 310.959 23.61C310.396 25.3867 310.114 27.965 310.114 31.345H322.464ZM341.445 15.29H345.345L346.58 21.335C348.27 19.2983 350.09 17.7167 352.04 16.59C353.99 15.4633 356.135 14.9 358.475 14.9C359.645 14.9 360.728 15.0083 361.725 15.225V20.49C359.775 20.2733 358.518 20.165 357.955 20.165C355.658 20.165 353.665 20.5767 351.975 21.4C350.328 22.2233 348.53 23.545 346.58 25.365V50H341.445V15.29ZM366.222 55.07C365.832 55.07 365.485 55.0483 365.182 55.005C364.879 54.9617 364.684 54.9183 364.597 54.875V53.25C365.117 53.25 365.464 53.1633 365.637 52.99C365.854 52.86 365.962 52.5783 365.962 52.145V49.675H365.442C365.139 49.675 364.879 49.5883 364.662 49.415C364.489 49.1983 364.402 48.9383 364.402 48.635V43.955C364.402 43.175 364.749 42.785 365.442 42.785H368.237C368.93 42.785 369.277 43.175 369.277 43.955V51.885C369.277 54.0083 368.259 55.07 366.222 55.07ZM411.574 50.39C407.458 50.39 404.208 49.7617 401.824 48.505C399.441 47.205 397.664 44.8 396.494 41.29C395.324 37.78 394.739 32.6667 394.739 25.95C394.739 19.58 395.346 14.6617 396.559 11.195C397.773 7.685 399.614 5.23666 402.084 3.85C404.554 2.46333 407.848 1.77 411.964 1.77C413.958 1.77 416.233 1.94333 418.789 2.29C421.389 2.59333 423.686 3.005 425.679 3.525V7.36C424.163 7.14333 422.213 6.92667 419.829 6.71C417.446 6.49333 415.084 6.385 412.744 6.385C409.494 6.385 406.959 6.92667 405.139 8.01C403.319 9.05 401.976 10.9783 401.109 13.795C400.286 16.5683 399.874 20.6417 399.874 26.015C399.874 31.5617 400.264 35.7433 401.044 38.56C401.868 41.3333 403.168 43.24 404.944 44.28C406.721 45.2767 409.278 45.775 412.614 45.775C418.118 45.775 422.473 45.4933 425.679 44.93V48.83C423.686 49.3067 421.433 49.6967 418.919 50C416.449 50.26 414.001 50.39 411.574 50.39ZM433.613 15.29H437.513L438.748 21.335C440.438 19.2983 442.258 17.7167 444.208 16.59C446.158 15.4633 448.303 14.9 450.643 14.9C451.813 14.9 452.896 15.0083 453.893 15.225V20.49C451.943 20.2733 450.686 20.165 450.123 20.165C447.826 20.165 445.833 20.5767 444.143 21.4C442.496 22.2233 440.698 23.545 438.748 25.365V50H433.613V15.29ZM465.89 50.39C463.29 50.39 461.167 49.61 459.52 48.05C457.917 46.49 457.115 44.3667 457.115 41.68V39.21C457.115 36.3933 458.025 34.1617 459.845 32.515C461.709 30.8683 464.417 30.045 467.97 30.045H479.735V25.755C479.735 23.415 479.085 21.6817 477.785 20.555C476.529 19.4283 474.189 18.865 470.765 18.865H459.975V15.81C464.049 15.1167 468.274 14.77 472.65 14.77C476.854 14.77 479.93 15.6367 481.88 17.37C483.874 19.06 484.87 21.7683 484.87 25.495V50H480.905L479.93 46.035C479.627 46.295 478.674 46.7933 477.07 47.53C475.51 48.2667 473.712 48.9383 471.675 49.545C469.639 50.1083 467.71 50.39 465.89 50.39ZM468.165 46.555C469.335 46.555 470.765 46.3383 472.455 45.905C474.145 45.4717 475.662 45.0167 477.005 44.54C478.392 44.0633 479.302 43.7383 479.735 43.565V32.645L469.14 33.1C466.757 33.1867 465.002 33.7717 463.875 34.855C462.792 35.9383 462.25 37.4117 462.25 39.275V40.835C462.25 42.8283 462.814 44.28 463.94 45.19C465.11 46.1 466.519 46.555 468.165 46.555ZM495.33 9.115C495.027 9.115 494.767 9.02833 494.55 8.855C494.377 8.63833 494.29 8.37833 494.29 8.075V3.005C494.29 2.31166 494.637 1.965 495.33 1.965H498.97C499.62 1.965 499.945 2.31166 499.945 3.005V8.075C499.945 8.76833 499.62 9.115 498.97 9.115H495.33ZM494.55 15.29H499.685V50H494.55V15.29ZM540.599 18.15L532.799 18.8C533.666 19.3633 534.381 19.9483 534.944 20.555C535.551 21.1183 536.071 22.0067 536.504 23.22C536.981 24.39 537.219 25.885 537.219 27.705C537.219 30.7383 536.244 33.2517 534.294 35.245C532.344 37.2383 529.224 38.235 524.934 38.235H519.409C517.459 38.235 515.986 38.5167 514.989 39.08C513.993 39.6433 513.494 40.5967 513.494 41.94C513.494 42.8933 513.841 43.6083 514.534 44.085C515.271 44.5617 516.138 44.8 517.134 44.8H528.639C532.669 44.8 535.659 45.58 537.609 47.14C539.603 48.7 540.599 51.105 540.599 54.355V55.785C540.599 58.9917 539.494 61.4833 537.284 63.26C535.118 65.0367 531.954 65.925 527.794 65.925H518.109C514.599 65.925 511.804 65.1883 509.724 63.715C507.688 62.285 506.669 60.1617 506.669 57.345V55.785C506.669 53.8783 507.189 52.2533 508.229 50.91C509.269 49.5667 510.634 48.5267 512.324 47.79C511.241 47.27 510.418 46.5767 509.854 45.71C509.291 44.8 509.009 43.7817 509.009 42.655C509.009 39.3617 510.959 37.3033 514.859 36.48C512.606 35.57 511.003 34.2267 510.049 32.45C509.139 30.63 508.684 28.615 508.684 26.405C508.684 18.9517 513.148 15.225 522.074 15.225H540.599V18.15ZM524.414 34.27C527.448 34.27 529.549 33.62 530.719 32.32C531.933 31.02 532.539 29.2867 532.539 27.12C532.539 21.8767 530.026 19.255 524.999 19.255H521.294C518.694 19.255 516.723 19.84 515.379 21.01C514.036 22.1367 513.364 24.0217 513.364 26.665C513.364 31.735 515.748 34.27 520.514 34.27H524.414ZM519.019 48.83C516.939 48.83 515.163 49.3283 513.689 50.325C512.259 51.365 511.544 52.9033 511.544 54.94V56.37C511.544 60.2267 514.123 62.155 519.279 62.155H527.339C530.026 62.155 532.084 61.635 533.514 60.595C534.988 59.5983 535.724 58.06 535.724 55.98V54.68C535.724 52.8167 535.139 51.365 533.969 50.325C532.799 49.3283 530.806 48.83 527.989 48.83H519.019ZM4.005 67.16H22.92C28.51 67.16 32.5183 69.1533 34.945 73.14C37.415 77.1267 38.65 83.1067 38.65 91.08C38.65 98.7067 37.3067 104.6 34.62 108.76C31.9767 112.92 28.0767 115 22.92 115H4.005V67.16ZM22.53 110.385C26.2133 110.385 28.965 108.695 30.785 105.315C32.605 101.892 33.515 97.1467 33.515 91.08C33.515 86.3567 33.125 82.5867 32.345 79.77C31.6083 76.9533 30.4383 74.9383 28.835 73.725C27.2317 72.4683 25.13 71.84 22.53 71.84H9.205V110.385H22.53ZM60.0467 115.39C56.32 115.39 53.4167 114.848 51.3367 113.765C49.3 112.682 47.8267 110.862 46.9167 108.305C46.0067 105.748 45.5517 102.173 45.5517 97.58C45.5517 92.9433 46.0067 89.3467 46.9167 86.79C47.87 84.2333 49.3867 82.435 51.4667 81.395C53.5467 80.355 56.4283 79.835 60.1117 79.835C63.275 79.835 65.81 80.1817 67.7167 80.875C69.6233 81.5683 71.0317 82.76 71.9417 84.45C72.8517 86.0967 73.3067 88.3933 73.3067 91.34C73.3067 94.2867 72.44 96.4317 70.7067 97.775C69.0167 99.075 66.59 99.725 63.4267 99.725H50.6867C50.73 102.715 51.0333 105.033 51.5967 106.68C52.16 108.283 53.2 109.475 54.7167 110.255C56.2333 110.992 58.4217 111.36 61.2817 111.36H72.4617V114.48C70.1217 114.783 68.0417 115 66.2217 115.13C64.4017 115.303 62.3433 115.39 60.0467 115.39ZM62.9717 96.345C64.965 96.345 66.4167 95.9767 67.3267 95.24C68.2367 94.5033 68.6917 93.225 68.6917 91.405C68.6917 88.5017 68.0417 86.5083 66.7417 85.425C65.485 84.2983 63.275 83.735 60.1117 83.735C57.5983 83.735 55.67 84.1033 54.3267 84.84C52.9833 85.5767 52.03 86.8333 51.4667 88.61C50.9033 90.3867 50.6217 92.965 50.6217 96.345H62.9717ZM77.6129 80.29H82.8779L91.3929 110.19L100.168 80.29H104.653L113.428 110.19L121.683 80.29H126.948L116.483 115H110.828L102.313 87.18L93.7329 115H88.1429L77.6129 80.29ZM138.605 115.39C136.005 115.39 133.882 114.61 132.235 113.05C130.632 111.49 129.83 109.367 129.83 106.68V104.21C129.83 101.393 130.74 99.1617 132.56 97.515C134.424 95.8683 137.132 95.045 140.685 95.045H152.45V90.755C152.45 88.415 151.8 86.6817 150.5 85.555C149.244 84.4283 146.904 83.865 143.48 83.865H132.69V80.81C136.764 80.1167 140.989 79.77 145.365 79.77C149.569 79.77 152.645 80.6367 154.595 82.37C156.589 84.06 157.585 86.7683 157.585 90.495V115H153.62L152.645 111.035C152.342 111.295 151.389 111.793 149.785 112.53C148.225 113.267 146.427 113.938 144.39 114.545C142.354 115.108 140.425 115.39 138.605 115.39ZM140.88 111.555C142.05 111.555 143.48 111.338 145.17 110.905C146.86 110.472 148.377 110.017 149.72 109.54C151.107 109.063 152.017 108.738 152.45 108.565V97.645L141.855 98.1C139.472 98.1867 137.717 98.7717 136.59 99.855C135.507 100.938 134.965 102.412 134.965 104.275V105.835C134.965 107.828 135.529 109.28 136.655 110.19C137.825 111.1 139.234 111.555 140.88 111.555ZM167.265 80.29H171.165L172.4 86.335C174.09 84.2983 175.91 82.7167 177.86 81.59C179.81 80.4633 181.955 79.9 184.295 79.9C185.465 79.9 186.549 80.0083 187.545 80.225V85.49C185.595 85.2733 184.339 85.165 183.775 85.165C181.479 85.165 179.485 85.5767 177.795 86.4C176.149 87.2233 174.35 88.545 172.4 90.365V115H167.265V80.29ZM206.192 115C202.769 115 200.255 114.133 198.652 112.4C197.049 110.623 196.29 107.742 196.377 103.755L196.572 84.515H191.047V81.2L196.637 80.29L197.482 70.605H201.447V80.29H211.457V84.515H201.447V103.755C201.447 106.398 201.945 108.218 202.942 109.215C203.939 110.168 205.195 110.71 206.712 110.84L210.937 111.23V115H206.192ZM219.464 120.07C219.074 120.07 218.728 120.048 218.424 120.005C218.121 119.962 217.926 119.918 217.839 119.875V118.25C218.359 118.25 218.706 118.163 218.879 117.99C219.096 117.86 219.204 117.578 219.204 117.145V114.675H218.684C218.381 114.675 218.121 114.588 217.904 114.415C217.731 114.198 217.644 113.938 217.644 113.635V108.955C217.644 108.175 217.991 107.785 218.684 107.785H221.479C222.173 107.785 222.519 108.175 222.519 108.955V116.885C222.519 119.008 221.501 120.07 219.464 120.07ZM265.791 115.39C261.805 115.39 257.948 114.09 254.221 111.49L253.246 115H249.086V65.405H254.221V83.475C256.041 82.435 257.97 81.5683 260.006 80.875C262.086 80.1817 263.95 79.835 265.596 79.835C269.843 79.835 272.963 81.2217 274.956 83.995C276.993 86.7683 278.011 91.405 278.011 97.905C278.011 109.562 273.938 115.39 265.791 115.39ZM264.166 111.1C267.026 111.1 269.193 109.995 270.666 107.785C272.14 105.532 272.876 102.173 272.876 97.71C272.876 94.07 272.508 91.275 271.771 89.325C271.078 87.3317 270.103 85.9667 268.846 85.23C267.59 84.4933 266.03 84.125 264.166 84.125C262.346 84.125 260.678 84.3633 259.161 84.84C257.645 85.3167 255.998 86.0533 254.221 87.05V108.305C255.825 109.172 257.406 109.865 258.966 110.385C260.57 110.862 262.303 111.1 264.166 111.1ZM297 115.39C290.066 115.39 286.6 111.837 286.6 104.73V80.29H291.735V103.43C291.735 106.203 292.341 108.132 293.555 109.215C294.811 110.298 296.718 110.84 299.275 110.84C301.225 110.84 303.045 110.58 304.735 110.06C306.425 109.497 308.201 108.652 310.065 107.525V80.29H315.2V115H311.17L310.065 111.165C305.645 113.982 301.29 115.39 297 115.39ZM325.658 74.115C325.354 74.115 325.094 74.0283 324.878 73.855C324.704 73.6383 324.618 73.3783 324.618 73.075V68.005C324.618 67.3117 324.964 66.965 325.658 66.965H329.298C329.948 66.965 330.273 67.3117 330.273 68.005V73.075C330.273 73.7683 329.948 74.115 329.298 74.115H325.658ZM324.878 80.29H330.013V115H324.878V80.29ZM349.021 115.065C345.945 115.065 343.648 114.22 342.131 112.53C340.658 110.84 339.921 107.958 339.921 103.885V65.405H345.056V103.235C345.056 106.095 345.446 108.045 346.226 109.085C347.006 110.125 348.241 110.753 349.931 110.97L353.441 111.36V115.065H349.021ZM370.533 115C367.11 115 364.596 114.133 362.993 112.4C361.39 110.623 360.631 107.742 360.718 103.755L360.913 84.515H355.388V81.2L360.978 80.29L361.823 70.605H365.788V80.29H375.798V84.515H365.788V103.755C365.788 106.398 366.286 108.218 367.283 109.215C368.28 110.168 369.536 110.71 371.053 110.84L375.278 111.23V115H370.533ZM415.625 115.39C408.865 115.39 403.08 115.108 398.27 114.545V110.58H413.935C417.055 110.58 419.46 110.06 421.15 109.02C422.84 107.98 423.685 106.073 423.685 103.3V100.115C423.685 97.775 422.861 96.0633 421.215 94.98C419.611 93.8967 417.661 93.3117 415.365 93.225L403.08 92.77V89L415.17 88.48C420.413 88.2633 423.035 86.1833 423.035 82.24V79.055C423.035 76.6717 422.233 74.8517 420.63 73.595C419.07 72.295 416.708 71.645 413.545 71.645H399.895V67.68C404.531 67.0733 409.71 66.77 415.43 66.77C419.59 66.8133 422.731 67.8317 424.855 69.825C427.021 71.8183 428.105 74.5483 428.105 78.015V82.11C428.105 84.7533 427.39 86.79 425.96 88.22C424.53 89.65 422.948 90.5383 421.215 90.885C422.341 91.145 423.49 91.665 424.66 92.445C425.83 93.225 426.826 94.33 427.65 95.76C428.473 97.1467 428.885 98.815 428.885 100.765V104.08C428.885 107.72 427.715 110.515 425.375 112.465C423.078 114.415 419.828 115.39 415.625 115.39ZM467.917 115.39C465.967 115.39 463.518 115.303 460.572 115.13C457.625 114.957 455.61 114.74 454.527 114.48V111.36H468.762C471.188 111.36 472.965 111.035 474.092 110.385C475.218 109.735 475.782 108.37 475.782 106.29V104.73C475.782 101.48 473.68 99.855 469.477 99.855H464.602C461.265 99.855 458.687 99.205 456.867 97.905C455.09 96.605 454.202 94.395 454.202 91.275V89.455C454.202 86.1617 455.155 83.7567 457.062 82.24C459.012 80.7233 462.132 79.965 466.422 79.965C468.285 79.965 470.473 80.0733 472.987 80.29C475.543 80.4633 477.537 80.68 478.967 80.94V84.06H465.577C463.237 84.06 461.503 84.45 460.377 85.23C459.25 86.01 458.687 87.4183 458.687 89.455V90.885C458.687 92.7483 459.228 94.005 460.312 94.655C461.438 95.2617 463.15 95.565 465.447 95.565H470.387C473.55 95.565 475.998 96.3017 477.732 97.775C479.465 99.2483 480.332 101.372 480.332 104.145V106.55C480.332 109.843 479.27 112.14 477.147 113.44C475.023 114.74 471.947 115.39 467.917 115.39ZM489.237 74.115C488.933 74.115 488.673 74.0283 488.457 73.855C488.283 73.6383 488.197 73.3783 488.197 73.075V68.005C488.197 67.3117 488.543 66.965 489.237 66.965H492.877C493.527 66.965 493.852 67.3117 493.852 68.005V73.075C493.852 73.7683 493.527 74.115 492.877 74.115H489.237ZM488.457 80.29H493.592V115H488.457V80.29ZM517.931 97.905L530.151 115H524.821L514.876 101.09L505.191 115H499.991L512.211 97.385L499.991 80.29H505.256L515.331 94.265L524.821 80.355L530.151 80.29L517.931 97.905ZM33.97 180H28.835V149.515H10.765V180H5.63V149.515H0.3V146.2L5.63 145.29V140.675C5.63 136.948 6.345 134.24 7.775 132.55C9.205 130.86 11.675 130.015 15.185 130.015C17.8283 130.015 20.2767 130.34 22.53 130.99V134.63C20.4933 134.413 18.5433 134.305 16.68 134.305C14.3833 134.305 12.8233 134.868 12 135.995C11.1767 137.078 10.765 138.855 10.765 141.325V145.29H33.97V180ZM33.255 131.965C33.905 131.965 34.23 132.312 34.23 133.005V138.075C34.23 138.768 33.905 139.115 33.255 139.115H29.615C29.3117 139.115 29.0517 139.028 28.835 138.855C28.6617 138.638 28.575 138.378 28.575 138.075V133.005C28.575 132.312 28.9217 131.965 29.615 131.965H33.255ZM74.8718 148.15L67.0718 148.8C67.9384 149.363 68.6534 149.948 69.2168 150.555C69.8234 151.118 70.3434 152.007 70.7768 153.22C71.2534 154.39 71.4918 155.885 71.4918 157.705C71.4918 160.738 70.5168 163.252 68.5668 165.245C66.6168 167.238 63.4968 168.235 59.2068 168.235H53.6818C51.7318 168.235 50.2584 168.517 49.2618 169.08C48.2651 169.643 47.7668 170.597 47.7668 171.94C47.7668 172.893 48.1134 173.608 48.8068 174.085C49.5434 174.562 50.4101 174.8 51.4068 174.8H62.9118C66.9418 174.8 69.9318 175.58 71.8818 177.14C73.8751 178.7 74.8718 181.105 74.8718 184.355V185.785C74.8718 188.992 73.7668 191.483 71.5568 193.26C69.3901 195.037 66.2268 195.925 62.0668 195.925H52.3818C48.8718 195.925 46.0768 195.188 43.9968 193.715C41.9601 192.285 40.9418 190.162 40.9418 187.345V185.785C40.9418 183.878 41.4618 182.253 42.5018 180.91C43.5418 179.567 44.9068 178.527 46.5968 177.79C45.5134 177.27 44.6901 176.577 44.1268 175.71C43.5634 174.8 43.2818 173.782 43.2818 172.655C43.2818 169.362 45.2318 167.303 49.1318 166.48C46.8784 165.57 45.2751 164.227 44.3218 162.45C43.4118 160.63 42.9568 158.615 42.9568 156.405C42.9568 148.952 47.4201 145.225 56.3468 145.225H74.8718V148.15ZM58.6868 164.27C61.7201 164.27 63.8218 163.62 64.9918 162.32C66.2051 161.02 66.8118 159.287 66.8118 157.12C66.8118 151.877 64.2984 149.255 59.2718 149.255H55.5668C52.9668 149.255 50.9951 149.84 49.6518 151.01C48.3084 152.137 47.6368 154.022 47.6368 156.665C47.6368 161.735 50.0201 164.27 54.7868 164.27H58.6868ZM53.2918 178.83C51.2118 178.83 49.4351 179.328 47.9618 180.325C46.5318 181.365 45.8168 182.903 45.8168 184.94V186.37C45.8168 190.227 48.3951 192.155 53.5518 192.155H61.6118C64.2984 192.155 66.3568 191.635 67.7868 190.595C69.2601 189.598 69.9968 188.06 69.9968 185.98V184.68C69.9968 182.817 69.4118 181.365 68.2418 180.325C67.0718 179.328 65.0784 178.83 62.2618 178.83H53.2918ZM91.6529 180.39C84.7196 180.39 81.2529 176.837 81.2529 169.73V145.29H86.3879V168.43C86.3879 171.203 86.9946 173.132 88.2079 174.215C89.4646 175.298 91.3713 175.84 93.9279 175.84C95.8779 175.84 97.6979 175.58 99.3879 175.06C101.078 174.497 102.855 173.652 104.718 172.525V145.29H109.853V180H105.823L104.718 176.165C100.298 178.982 95.9429 180.39 91.6529 180.39ZM119.531 145.29H123.431L124.666 151.335C126.356 149.298 128.176 147.717 130.126 146.59C132.076 145.463 134.221 144.9 136.561 144.9C137.731 144.9 138.814 145.008 139.811 145.225V150.49C137.861 150.273 136.604 150.165 136.041 150.165C133.744 150.165 131.751 150.577 130.061 151.4C128.414 152.223 126.616 153.545 124.666 155.365V180H119.531V145.29ZM159.578 180.39C155.851 180.39 152.948 179.848 150.868 178.765C148.831 177.682 147.358 175.862 146.448 173.305C145.538 170.748 145.083 167.173 145.083 162.58C145.083 157.943 145.538 154.347 146.448 151.79C147.401 149.233 148.918 147.435 150.998 146.395C153.078 145.355 155.96 144.835 159.643 144.835C162.806 144.835 165.341 145.182 167.248 145.875C169.155 146.568 170.563 147.76 171.473 149.45C172.383 151.097 172.838 153.393 172.838 156.34C172.838 159.287 171.971 161.432 170.238 162.775C168.548 164.075 166.121 164.725 162.958 164.725H150.218C150.261 167.715 150.565 170.033 151.128 171.68C151.691 173.283 152.731 174.475 154.248 175.255C155.765 175.992 157.953 176.36 160.813 176.36H171.993V179.48C169.653 179.783 167.573 180 165.753 180.13C163.933 180.303 161.875 180.39 159.578 180.39ZM162.503 161.345C164.496 161.345 165.948 160.977 166.858 160.24C167.768 159.503 168.223 158.225 168.223 156.405C168.223 153.502 167.573 151.508 166.273 150.425C165.016 149.298 162.806 148.735 159.643 148.735C157.13 148.735 155.201 149.103 153.858 149.84C152.515 150.577 151.561 151.833 150.998 153.61C150.435 155.387 150.153 157.965 150.153 161.345H162.503ZM205.763 180.39C203.163 180.39 201.04 179.61 199.393 178.05C197.79 176.49 196.988 174.367 196.988 171.68V169.21C196.988 166.393 197.898 164.162 199.718 162.515C201.582 160.868 204.29 160.045 207.843 160.045H219.608V155.755C219.608 153.415 218.958 151.682 217.658 150.555C216.402 149.428 214.062 148.865 210.638 148.865H199.848V145.81C203.922 145.117 208.147 144.77 212.523 144.77C216.727 144.77 219.803 145.637 221.753 147.37C223.747 149.06 224.743 151.768 224.743 155.495V180H220.778L219.803 176.035C219.5 176.295 218.547 176.793 216.943 177.53C215.383 178.267 213.585 178.938 211.548 179.545C209.512 180.108 207.583 180.39 205.763 180.39ZM208.038 176.555C209.208 176.555 210.638 176.338 212.328 175.905C214.018 175.472 215.535 175.017 216.878 174.54C218.265 174.063 219.175 173.738 219.608 173.565V162.645L209.013 163.1C206.63 163.187 204.875 163.772 203.748 164.855C202.665 165.938 202.123 167.412 202.123 169.275V170.835C202.123 172.828 202.687 174.28 203.813 175.19C204.983 176.1 206.392 176.555 208.038 176.555ZM265.428 148.15L257.628 148.8C258.495 149.363 259.21 149.948 259.773 150.555C260.38 151.118 260.9 152.007 261.333 153.22C261.81 154.39 262.048 155.885 262.048 157.705C262.048 160.738 261.073 163.252 259.123 165.245C257.173 167.238 254.053 168.235 249.763 168.235H244.238C242.288 168.235 240.815 168.517 239.818 169.08C238.822 169.643 238.323 170.597 238.323 171.94C238.323 172.893 238.67 173.608 239.363 174.085C240.1 174.562 240.967 174.8 241.963 174.8H253.468C257.498 174.8 260.488 175.58 262.438 177.14C264.432 178.7 265.428 181.105 265.428 184.355V185.785C265.428 188.992 264.323 191.483 262.113 193.26C259.947 195.037 256.783 195.925 252.623 195.925H242.938C239.428 195.925 236.633 195.188 234.553 193.715C232.517 192.285 231.498 190.162 231.498 187.345V185.785C231.498 183.878 232.018 182.253 233.058 180.91C234.098 179.567 235.463 178.527 237.153 177.79C236.07 177.27 235.247 176.577 234.683 175.71C234.12 174.8 233.838 173.782 233.838 172.655C233.838 169.362 235.788 167.303 239.688 166.48C237.435 165.57 235.832 164.227 234.878 162.45C233.968 160.63 233.513 158.615 233.513 156.405C233.513 148.952 237.977 145.225 246.903 145.225H265.428V148.15ZM249.243 164.27C252.277 164.27 254.378 163.62 255.548 162.32C256.762 161.02 257.368 159.287 257.368 157.12C257.368 151.877 254.855 149.255 249.828 149.255H246.123C243.523 149.255 241.552 149.84 240.208 151.01C238.865 152.137 238.193 154.022 238.193 156.665C238.193 161.735 240.577 164.27 245.343 164.27H249.243ZM243.848 178.83C241.768 178.83 239.992 179.328 238.518 180.325C237.088 181.365 236.373 182.903 236.373 184.94V186.37C236.373 190.227 238.952 192.155 244.108 192.155H252.168C254.855 192.155 256.913 191.635 258.343 190.595C259.817 189.598 260.553 188.06 260.553 185.98V184.68C260.553 182.817 259.968 181.365 258.798 180.325C257.628 179.328 255.635 178.83 252.818 178.83H243.848ZM285.135 180.39C281.408 180.39 278.505 179.848 276.425 178.765C274.388 177.682 272.915 175.862 272.005 173.305C271.095 170.748 270.64 167.173 270.64 162.58C270.64 157.943 271.095 154.347 272.005 151.79C272.958 149.233 274.475 147.435 276.555 146.395C278.635 145.355 281.516 144.835 285.2 144.835C288.363 144.835 290.898 145.182 292.805 145.875C294.711 146.568 296.12 147.76 297.03 149.45C297.94 151.097 298.395 153.393 298.395 156.34C298.395 159.287 297.528 161.432 295.795 162.775C294.105 164.075 291.678 164.725 288.515 164.725H275.775C275.818 167.715 276.121 170.033 276.685 171.68C277.248 173.283 278.288 174.475 279.805 175.255C281.321 175.992 283.51 176.36 286.37 176.36H297.55V179.48C295.21 179.783 293.13 180 291.31 180.13C289.49 180.303 287.431 180.39 285.135 180.39ZM288.06 161.345C290.053 161.345 291.505 160.977 292.415 160.24C293.325 159.503 293.78 158.225 293.78 156.405C293.78 153.502 293.13 151.508 291.83 150.425C290.573 149.298 288.363 148.735 285.2 148.735C282.686 148.735 280.758 149.103 279.415 149.84C278.071 150.577 277.118 151.833 276.555 153.61C275.991 155.387 275.71 157.965 275.71 161.345H288.06ZM307.041 145.29H311.071L312.176 149.125C313.996 147.868 316.011 146.828 318.221 146.005C320.431 145.138 322.641 144.705 324.851 144.705C328.447 144.705 331.134 145.81 332.911 148.02C334.687 150.23 335.576 153.025 335.576 156.405V180H330.441V156.99C330.441 154.737 329.791 152.917 328.491 151.53C327.234 150.1 325.479 149.385 323.226 149.385C321.146 149.385 319.282 149.667 317.636 150.23C316.032 150.75 314.212 151.595 312.176 152.765V180H307.041V145.29ZM357.863 180.39C353.443 180.39 350.02 179.112 347.593 176.555C345.21 173.955 344.018 169.34 344.018 162.71C344.018 158.073 344.56 154.455 345.643 151.855C346.77 149.255 348.352 147.457 350.388 146.46C352.425 145.42 354.96 144.9 357.993 144.9C362.153 144.9 365.988 145.203 369.498 145.81V148.865H359.358C356.975 148.865 355.047 149.255 353.573 150.035C352.143 150.815 351.038 152.223 350.258 154.26C349.522 156.253 349.153 159.113 349.153 162.84C349.153 166.393 349.543 169.167 350.323 171.16C351.147 173.11 352.295 174.475 353.768 175.255C355.242 175.992 357.127 176.36 359.423 176.36H370.018V179.35C365.945 180.043 361.893 180.39 357.863 180.39ZM377.899 139.115C377.595 139.115 377.335 139.028 377.119 138.855C376.945 138.638 376.859 138.378 376.859 138.075V133.005C376.859 132.312 377.205 131.965 377.899 131.965H381.539C382.189 131.965 382.514 132.312 382.514 133.005V138.075C382.514 138.768 382.189 139.115 381.539 139.115H377.899ZM377.119 145.29H382.254V180H377.119V145.29ZM405.423 180.39C401.696 180.39 398.793 179.848 396.713 178.765C394.676 177.682 393.203 175.862 392.293 173.305C391.383 170.748 390.928 167.173 390.928 162.58C390.928 157.943 391.383 154.347 392.293 151.79C393.246 149.233 394.763 147.435 396.843 146.395C398.923 145.355 401.804 144.835 405.488 144.835C408.651 144.835 411.186 145.182 413.093 145.875C414.999 146.568 416.408 147.76 417.318 149.45C418.228 151.097 418.683 153.393 418.683 156.34C418.683 159.287 417.816 161.432 416.083 162.775C414.393 164.075 411.966 164.725 408.803 164.725H396.063C396.106 167.715 396.409 170.033 396.973 171.68C397.536 173.283 398.576 174.475 400.093 175.255C401.609 175.992 403.798 176.36 406.658 176.36H417.838V179.48C415.498 179.783 413.418 180 411.598 180.13C409.778 180.303 407.719 180.39 405.423 180.39ZM408.348 161.345C410.341 161.345 411.793 160.977 412.703 160.24C413.613 159.503 414.068 158.225 414.068 156.405C414.068 153.502 413.418 151.508 412.118 150.425C410.861 149.298 408.651 148.735 405.488 148.735C402.974 148.735 401.046 149.103 399.703 149.84C398.359 150.577 397.406 151.833 396.843 153.61C396.279 155.387 395.998 157.965 395.998 161.345H408.348ZM439.289 180.39C437.339 180.39 434.89 180.303 431.944 180.13C428.997 179.957 426.982 179.74 425.899 179.48V176.36H440.134C442.56 176.36 444.337 176.035 445.464 175.385C446.59 174.735 447.154 173.37 447.154 171.29V169.73C447.154 166.48 445.052 164.855 440.849 164.855H435.974C432.637 164.855 430.059 164.205 428.239 162.905C426.462 161.605 425.574 159.395 425.574 156.275V154.455C425.574 151.162 426.527 148.757 428.434 147.24C430.384 145.723 433.504 144.965 437.794 144.965C439.657 144.965 441.845 145.073 444.359 145.29C446.915 145.463 448.909 145.68 450.339 145.94V149.06H436.949C434.609 149.06 432.875 149.45 431.749 150.23C430.622 151.01 430.059 152.418 430.059 154.455V155.885C430.059 157.748 430.6 159.005 431.684 159.655C432.81 160.262 434.522 160.565 436.819 160.565H441.759C444.922 160.565 447.37 161.302 449.104 162.775C450.837 164.248 451.704 166.372 451.704 169.145V171.55C451.704 174.843 450.642 177.14 448.519 178.44C446.395 179.74 443.319 180.39 439.289 180.39ZM494.053 180.39C490.067 180.39 486.21 179.09 482.483 176.49L481.508 180H477.348V130.405H482.483V148.475C484.303 147.435 486.232 146.568 488.268 145.875C490.348 145.182 492.212 144.835 493.858 144.835C498.105 144.835 501.225 146.222 503.218 148.995C505.255 151.768 506.273 156.405 506.273 162.905C506.273 174.562 502.2 180.39 494.053 180.39ZM492.428 176.1C495.288 176.1 497.455 174.995 498.928 172.785C500.402 170.532 501.138 167.173 501.138 162.71C501.138 159.07 500.77 156.275 500.033 154.325C499.34 152.332 498.365 150.967 497.108 150.23C495.852 149.493 494.292 149.125 492.428 149.125C490.608 149.125 488.94 149.363 487.423 149.84C485.907 150.317 484.26 151.053 482.483 152.05V173.305C484.087 174.172 485.668 174.865 487.228 175.385C488.832 175.862 490.565 176.1 492.428 176.1ZM528.186 180.39C524.46 180.39 521.556 179.848 519.476 178.765C517.44 177.682 515.966 175.862 515.056 173.305C514.146 170.748 513.691 167.173 513.691 162.58C513.691 157.943 514.146 154.347 515.056 151.79C516.01 149.233 517.526 147.435 519.606 146.395C521.686 145.355 524.568 144.835 528.251 144.835C531.415 144.835 533.95 145.182 535.856 145.875C537.763 146.568 539.171 147.76 540.081 149.45C540.991 151.097 541.446 153.393 541.446 156.34C541.446 159.287 540.58 161.432 538.846 162.775C537.156 164.075 534.73 164.725 531.566 164.725H518.826C518.87 167.715 519.173 170.033 519.736 171.68C520.3 173.283 521.34 174.475 522.856 175.255C524.373 175.992 526.561 176.36 529.421 176.36H540.601V179.48C538.261 179.783 536.181 180 534.361 180.13C532.541 180.303 530.483 180.39 528.186 180.39ZM531.111 161.345C533.105 161.345 534.556 160.977 535.466 160.24C536.376 159.503 536.831 158.225 536.831 156.405C536.831 153.502 536.181 151.508 534.881 150.425C533.625 149.298 531.415 148.735 528.251 148.735C525.738 148.735 523.81 149.103 522.466 149.84C521.123 150.577 520.17 151.833 519.606 153.61C519.043 155.387 518.761 157.965 518.761 161.345H531.111ZM551.977 149.515H546.647V146.2L551.977 145.29V141.325C551.977 137.468 552.714 134.63 554.187 132.81C555.704 130.947 558.282 130.015 561.922 130.015C564.132 130.015 566.364 130.232 568.617 130.665V134.305H562.832C560.622 134.305 559.106 134.847 558.282 135.93C557.502 136.97 557.112 138.682 557.112 141.065V145.29H567.902V149.515H557.112V180H551.977V149.515ZM587.803 180.39C584.25 180.39 581.39 179.892 579.223 178.895C577.056 177.898 575.431 176.122 574.348 173.565C573.308 170.965 572.788 167.303 572.788 162.58C572.788 157.813 573.33 154.152 574.413 151.595C575.496 148.995 577.1 147.218 579.223 146.265C581.346 145.312 584.206 144.835 587.803 144.835C591.356 144.835 594.216 145.333 596.383 146.33C598.55 147.283 600.175 149.06 601.258 151.66C602.341 154.217 602.883 157.857 602.883 162.58C602.883 167.303 602.341 170.965 601.258 173.565C600.175 176.122 598.55 177.898 596.383 178.895C594.26 179.892 591.4 180.39 587.803 180.39ZM587.803 176.165C590.186 176.165 592.05 175.862 593.393 175.255C594.78 174.605 595.841 173.305 596.578 171.355C597.315 169.405 597.683 166.48 597.683 162.58C597.683 158.68 597.315 155.777 596.578 153.87C595.885 151.92 594.845 150.642 593.458 150.035C592.071 149.385 590.186 149.06 587.803 149.06C585.376 149.06 583.47 149.385 582.083 150.035C580.74 150.642 579.7 151.92 578.963 153.87C578.27 155.777 577.923 158.68 577.923 162.58C577.923 166.48 578.27 169.405 578.963 171.355C579.7 173.305 580.74 174.605 582.083 175.255C583.47 175.862 585.376 176.165 587.803 176.165ZM611.538 145.29H615.438L616.673 151.335C618.363 149.298 620.183 147.717 622.133 146.59C624.083 145.463 626.228 144.9 628.568 144.9C629.738 144.9 630.821 145.008 631.818 145.225V150.49C629.868 150.273 628.611 150.165 628.048 150.165C625.751 150.165 623.758 150.577 622.068 151.4C620.421 152.223 618.623 153.545 616.673 155.365V180H611.538V145.29ZM651.585 180.39C647.858 180.39 644.955 179.848 642.875 178.765C640.838 177.682 639.365 175.862 638.455 173.305C637.545 170.748 637.09 167.173 637.09 162.58C637.09 157.943 637.545 154.347 638.455 151.79C639.408 149.233 640.925 147.435 643.005 146.395C645.085 145.355 647.966 144.835 651.65 144.835C654.813 144.835 657.348 145.182 659.255 145.875C661.161 146.568 662.57 147.76 663.48 149.45C664.39 151.097 664.845 153.393 664.845 156.34C664.845 159.287 663.978 161.432 662.245 162.775C660.555 164.075 658.128 164.725 654.965 164.725H642.225C642.268 167.715 642.571 170.033 643.135 171.68C643.698 173.283 644.738 174.475 646.255 175.255C647.771 175.992 649.96 176.36 652.82 176.36H664V179.48C661.66 179.783 659.58 180 657.76 180.13C655.94 180.303 653.881 180.39 651.585 180.39ZM654.51 161.345C656.503 161.345 657.955 160.977 658.865 160.24C659.775 159.503 660.23 158.225 660.23 156.405C660.23 153.502 659.58 151.508 658.28 150.425C657.023 149.298 654.813 148.735 651.65 148.735C649.136 148.735 647.208 149.103 645.865 149.84C644.521 150.577 643.568 151.833 643.005 153.61C642.441 155.387 642.16 157.965 642.16 161.345H654.51ZM3.94 195.405H9.075V214.125C10.8517 212.868 12.845 211.828 15.055 211.005C17.3083 210.138 19.5617 209.705 21.815 209.705C25.325 209.705 27.9683 210.788 29.745 212.955C31.565 215.122 32.475 217.917 32.475 221.34V245H27.34V221.925C27.34 219.715 26.69 217.917 25.39 216.53C24.09 215.1 22.335 214.385 20.125 214.385C18.045 214.385 16.1817 214.667 14.535 215.23C12.9317 215.75 11.1117 216.595 9.075 217.765V245H3.94V195.405ZM55.4129 245.39C51.6862 245.39 48.7829 244.848 46.7029 243.765C44.6662 242.682 43.1929 240.862 42.2829 238.305C41.3729 235.748 40.9179 232.173 40.9179 227.58C40.9179 222.943 41.3729 219.347 42.2829 216.79C43.2362 214.233 44.7529 212.435 46.8329 211.395C48.9129 210.355 51.7946 209.835 55.4779 209.835C58.6412 209.835 61.1762 210.182 63.0829 210.875C64.9896 211.568 66.3979 212.76 67.3079 214.45C68.2179 216.097 68.6729 218.393 68.6729 221.34C68.6729 224.287 67.8062 226.432 66.0729 227.775C64.3829 229.075 61.9562 229.725 58.7929 229.725H46.0529C46.0962 232.715 46.3996 235.033 46.9629 236.68C47.5262 238.283 48.5662 239.475 50.0829 240.255C51.5996 240.992 53.7879 241.36 56.6479 241.36H67.8279V244.48C65.4879 244.783 63.4079 245 61.5879 245.13C59.7679 245.303 57.7096 245.39 55.4129 245.39ZM58.3379 226.345C60.3312 226.345 61.7829 225.977 62.6929 225.24C63.6029 224.503 64.0579 223.225 64.0579 221.405C64.0579 218.502 63.4079 216.508 62.1079 215.425C60.8512 214.298 58.6412 213.735 55.4779 213.735C52.9646 213.735 51.0362 214.103 49.6929 214.84C48.3496 215.577 47.3962 216.833 46.8329 218.61C46.2696 220.387 45.9879 222.965 45.9879 226.345H58.3379ZM106.343 245C102.92 245 100.407 244.133 98.8034 242.4C97.2001 240.623 96.4418 237.742 96.5284 233.755L96.7234 214.515H91.1984V211.2L96.7884 210.29L97.6334 200.605H101.598V210.29H111.608V214.515H101.598V233.755C101.598 236.398 102.097 238.218 103.093 239.215C104.09 240.168 105.347 240.71 106.863 240.84L111.088 241.23V245H106.343ZM129.041 245.39C122.107 245.39 118.641 241.837 118.641 234.73V210.29H123.776V233.43C123.776 236.203 124.382 238.132 125.596 239.215C126.852 240.298 128.759 240.84 131.316 240.84C133.266 240.84 135.086 240.58 136.776 240.06C138.466 239.497 140.242 238.652 142.106 237.525V210.29H147.241V245H143.211L142.106 241.165C137.686 243.982 133.331 245.39 129.041 245.39ZM156.919 210.29H160.819L162.054 216.335C163.744 214.298 165.564 212.717 167.514 211.59C169.464 210.463 171.609 209.9 173.949 209.9C175.119 209.9 176.202 210.008 177.199 210.225V215.49C175.249 215.273 173.992 215.165 173.429 215.165C171.132 215.165 169.139 215.577 167.449 216.4C165.802 217.223 164.004 218.545 162.054 220.365V245H156.919V210.29ZM183.706 210.29H187.736L188.841 214.125C190.661 212.868 192.676 211.828 194.886 211.005C197.096 210.138 199.306 209.705 201.516 209.705C205.112 209.705 207.799 210.81 209.576 213.02C211.352 215.23 212.241 218.025 212.241 221.405V245H207.106V221.99C207.106 219.737 206.456 217.917 205.156 216.53C203.899 215.1 202.144 214.385 199.891 214.385C197.811 214.385 195.947 214.667 194.301 215.23C192.697 215.75 190.877 216.595 188.841 217.765V245H183.706V210.29ZM235.179 245.39C231.452 245.39 228.549 244.848 226.469 243.765C224.432 242.682 222.959 240.862 222.049 238.305C221.139 235.748 220.684 232.173 220.684 227.58C220.684 222.943 221.139 219.347 222.049 216.79C223.002 214.233 224.519 212.435 226.599 211.395C228.679 210.355 231.56 209.835 235.244 209.835C238.407 209.835 240.942 210.182 242.849 210.875C244.755 211.568 246.164 212.76 247.074 214.45C247.984 216.097 248.439 218.393 248.439 221.34C248.439 224.287 247.572 226.432 245.839 227.775C244.149 229.075 241.722 229.725 238.559 229.725H225.819C225.862 232.715 226.165 235.033 226.729 236.68C227.292 238.283 228.332 239.475 229.849 240.255C231.365 240.992 233.554 241.36 236.414 241.36H247.594V244.48C245.254 244.783 243.174 245 241.354 245.13C239.534 245.303 237.475 245.39 235.179 245.39ZM238.104 226.345C240.097 226.345 241.549 225.977 242.459 225.24C243.369 224.503 243.824 223.225 243.824 221.405C243.824 218.502 243.174 216.508 241.874 215.425C240.617 214.298 238.407 213.735 235.244 213.735C232.73 213.735 230.802 214.103 229.459 214.84C228.115 215.577 227.162 216.833 226.599 218.61C226.035 220.387 225.754 222.965 225.754 226.345H238.104ZM268.33 245.39C264.04 245.39 260.876 243.982 258.84 241.165C256.846 238.348 255.85 233.928 255.85 227.905C255.85 223.572 256.283 220.083 257.15 217.44C258.016 214.797 259.403 212.868 261.31 211.655C263.216 210.442 265.773 209.835 268.98 209.835C272.273 209.835 275.826 210.528 279.64 211.915V195.405H284.775V245H280.615L279.64 241.49C278.6 242.4 276.931 243.288 274.635 244.155C272.338 244.978 270.236 245.39 268.33 245.39ZM269.825 241.165C271.645 241.165 273.313 240.905 274.83 240.385C276.39 239.822 277.993 239.107 279.64 238.24V215.555C277.603 214.948 275.935 214.515 274.635 214.255C273.378 213.995 271.948 213.865 270.345 213.865C268.048 213.865 266.228 214.298 264.885 215.165C263.541 215.988 262.545 217.397 261.895 219.39C261.288 221.383 260.985 224.157 260.985 227.71C260.985 232.563 261.656 236.03 263 238.11C264.343 240.147 266.618 241.165 269.825 241.165ZM310.562 240.775L328.242 223.81C330.928 221.253 332.813 218.935 333.897 216.855C335.023 214.732 335.587 212.348 335.587 209.705C335.587 207.105 334.828 205.112 333.312 203.725C331.795 202.338 329.108 201.645 325.252 201.645H312.252V197.68C314.332 197.463 316.628 197.268 319.142 197.095C321.698 196.878 324.103 196.77 326.357 196.77C331.513 196.77 335.197 197.853 337.407 200.02C339.617 202.143 340.722 205.155 340.722 209.055C340.722 212.392 340.072 215.36 338.772 217.96C337.472 220.517 335.283 223.268 332.207 226.215L317.582 240.255H342.477V245H310.562V240.775ZM367.552 245.325C361.312 245.325 355.809 245.087 351.042 244.61V240.645H367.617C370.52 240.645 372.86 239.952 374.637 238.565C376.414 237.135 377.302 235.207 377.302 232.78V227.58C377.302 225.283 376.609 223.507 375.222 222.25C373.879 220.993 371.907 220.365 369.307 220.365H364.172C360.142 220.365 357.824 222.185 357.217 225.825H352.342L353.707 197.16H380.877V201.84H358.192L357.347 219.39C357.91 218.437 358.864 217.635 360.207 216.985C361.594 216.292 363.24 215.945 365.147 215.945H370.867C374.507 215.945 377.345 216.942 379.382 218.935C381.419 220.928 382.437 223.507 382.437 226.67V233.755C382.437 237.525 381.094 240.407 378.407 242.4C375.72 244.35 372.102 245.325 367.552 245.325ZM391.594 245.065C391.291 245.065 391.031 244.978 390.814 244.805C390.641 244.588 390.554 244.328 390.554 244.025V238.825C390.554 238.132 390.901 237.785 391.594 237.785H394.454C395.148 237.785 395.494 238.132 395.494 238.825V244.025C395.494 244.718 395.148 245.065 394.454 245.065H391.594Z" fill="#EEC469"/>
</svg>
