<svg width="751" height="314" viewBox="0 0 751 314" fill="none" xmlns="http://www.w3.org/2000/svg">
<path d="M52.2 31.32L58.56 87H91.08L100.8 27H83.52L75.48 83.16H72.84L66.36 27H35.4L28.92 83.16H26.28L18.12 27H0.96L10.68 87H43.2L49.56 31.32H52.2ZM166.985 64.92H150.905C150.905 68.52 147.905 73.44 137.345 73.44C128.945 73.44 123.785 69.24 123.785 63.84C123.785 60 127.025 59.04 133.985 59.04H168.185C169.265 41.64 162.665 25.44 137.465 25.44C117.545 25.44 105.905 38.4 105.905 56.52C105.905 75.72 115.985 88.92 137.345 88.92C158.705 88.92 167.585 77.04 166.985 64.92ZM123.785 51.12C123.785 46.56 127.745 41.52 136.985 41.52C146.465 41.52 150.785 47.04 150.785 56.4H133.985C126.185 56.4 123.785 54.36 123.785 51.12ZM178.508 0.599997V87H195.068V0.599997H178.508ZM265.285 64.08H249.205C249.445 68.04 245.725 73.44 236.245 73.44C227.005 73.44 222.085 66.6 222.085 57.36C222.085 47.76 227.365 41.52 236.965 41.52C247.165 41.52 249.325 48.12 249.085 52.32H265.405C266.485 40.56 261.445 25.44 237.085 25.44C217.885 25.44 205.045 37.68 205.045 56.88C205.045 76.08 216.445 88.92 236.365 88.92C257.965 88.92 266.485 75.6 265.285 64.08ZM337.577 57.12C337.577 39.6 326.897 25.44 305.297 25.44C285.377 25.44 272.897 39 272.897 57.12C272.897 76.2 285.737 88.92 304.697 88.92C329.417 88.92 337.577 71.16 337.577 57.12ZM290.297 57.36C290.297 47.76 296.537 41.88 305.297 41.88C314.297 41.88 320.177 47.76 320.177 57.36C320.177 66.84 314.537 73.32 305.297 73.32C296.537 73.32 290.297 66.84 290.297 57.36ZM374.853 41.52C380.733 41.52 385.773 44.28 385.773 52.8V87H402.333V52.8C402.333 45.12 407.613 41.52 413.013 41.52C418.653 41.52 423.933 44.04 423.933 52.8V87H440.493V49.08C440.493 35.04 435.213 25.8 421.053 25.8C408.453 25.8 404.013 34.08 403.773 42.6H401.253C400.053 31.08 393.213 25.8 382.533 25.8C371.133 25.8 366.213 32.88 365.733 42.6H363.093V27H347.613V87H364.053V52.68C364.053 45 369.573 41.52 374.853 41.52ZM511.047 64.92H494.967C494.967 68.52 491.967 73.44 481.407 73.44C473.007 73.44 467.847 69.24 467.847 63.84C467.847 60 471.087 59.04 478.047 59.04H512.247C513.327 41.64 506.727 25.44 481.527 25.44C461.607 25.44 449.967 38.4 449.967 56.52C449.967 75.72 460.047 88.92 481.407 88.92C502.767 88.92 511.647 77.04 511.047 64.92ZM467.847 51.12C467.847 46.56 471.807 41.52 481.047 41.52C490.527 41.52 494.847 47.04 494.847 56.4H478.047C470.247 56.4 467.847 54.36 467.847 51.12ZM43.32 185.92V170.56C43.32 170.56 40.8 171.64 37.32 171.64C32.28 171.64 29.16 170.2 29.16 165.16V143.68H43.32V127H29.16V111.88H13.2V119.56C13.2 124.36 11.28 127 5.76 127H3.6V143.68H25.44V146.2C16.92 146.2 12.6 150.4 12.6 157.24V164.44C12.6 177.4 18 187.6 33.12 187.6C40.8 187.6 43.32 185.92 43.32 185.92ZM115.272 157.12C115.272 139.6 104.592 125.44 82.9922 125.44C63.0722 125.44 50.5922 139 50.5922 157.12C50.5922 176.2 63.4322 188.92 82.3922 188.92C107.112 188.92 115.272 171.16 115.272 157.12ZM67.9922 157.36C67.9922 147.76 74.2322 141.88 82.9922 141.88C91.9922 141.88 97.8722 147.76 97.8722 157.36C97.8722 166.84 92.2322 173.32 82.9922 173.32C74.2322 173.32 67.9922 166.84 67.9922 157.36ZM186.172 185.92V170.56C186.172 170.56 183.652 171.64 180.172 171.64C175.132 171.64 172.012 170.2 172.012 165.16V143.68H186.172V127H172.012V111.88H156.052V119.56C156.052 124.36 154.132 127 148.612 127H146.452V143.68H168.292V146.2C159.772 146.2 155.452 150.4 155.452 157.24V164.44C155.452 177.4 160.852 187.6 175.972 187.6C183.652 187.6 186.172 185.92 186.172 185.92ZM225.724 141.52C233.524 141.52 237.724 145.48 237.724 153.64V187H254.284V149.2C254.284 134.56 246.724 125.8 233.284 125.8C221.044 125.8 215.884 133 215.404 141.88H212.884V100.6H196.324V187H212.884V153.64C212.884 145.6 218.884 141.52 225.724 141.52ZM324.836 164.92H308.756C308.756 168.52 305.756 173.44 295.196 173.44C286.796 173.44 281.636 169.24 281.636 163.84C281.636 160 284.876 159.04 291.836 159.04H326.036C327.116 141.64 320.516 125.44 295.316 125.44C275.396 125.44 263.756 138.4 263.756 156.52C263.756 175.72 273.836 188.92 295.196 188.92C316.556 188.92 325.436 177.04 324.836 164.92ZM281.636 151.12C281.636 146.56 285.596 141.52 294.836 141.52C304.316 141.52 308.636 147.04 308.636 156.4H291.836C284.036 156.4 281.636 154.36 281.636 151.12ZM388.372 294.68C388.372 286.4 382.732 282.92 373.252 282.8V280.4C381.412 277.16 387.172 271.64 387.172 261.8C387.172 251.72 379.372 246.56 370.732 246.32V243.68H388.372V227H357.292C339.052 227 326.452 239.6 326.452 255.56C326.452 272.36 338.092 283.76 356.692 283.76C358.972 283.76 361.012 283.64 363.052 283.4C364.372 283.16 365.572 283.04 366.652 283.04C370.132 283.04 372.292 284.6 372.292 289.64C372.292 295.28 367.132 298.52 357.892 298.52C347.452 298.52 343.612 294.68 344.212 287.12H328.132C326.692 300.8 332.812 313.76 358.252 313.76C377.332 313.76 388.372 304.52 388.372 294.68ZM343.612 255.8C343.612 247.76 349.852 243.08 357.412 243.08C365.332 243.08 371.092 247.76 371.092 255.8C371.092 263.84 365.092 268.52 357.412 268.52C349.012 268.52 343.612 263.84 343.612 255.8ZM431.112 244.76C433.992 244.76 436.272 245.36 436.272 245.36V226.88C436.272 226.88 435.072 226.16 432.792 226.16C421.512 226.16 416.592 233.12 416.592 245.96H413.952V227H398.472V287H415.032V256.88C415.032 247.04 422.352 244.76 431.112 244.76ZM507.03 257.12C507.03 239.6 496.35 225.44 474.75 225.44C454.83 225.44 442.35 239 442.35 257.12C442.35 276.2 455.19 288.92 474.15 288.92C498.87 288.92 507.03 271.16 507.03 257.12ZM459.75 257.36C459.75 247.76 465.99 241.88 474.75 241.88C483.75 241.88 489.63 247.76 489.63 257.36C489.63 266.84 483.99 273.32 474.75 273.32C465.99 273.32 459.75 266.84 459.75 257.36ZM554.266 273.32H556.786V287H572.386V227H555.826V261.68C555.826 267.68 552.106 273.56 543.706 273.56C536.626 273.56 532.906 269.96 532.906 261.68V227H516.346V264.2C516.346 277.4 522.706 288.32 537.346 288.32C548.986 288.32 553.066 281.84 554.266 273.32ZM604.349 272.72C604.349 272.72 604.589 288.32 622.469 288.32C636.749 288.32 648.149 277.52 648.149 257.12C648.149 235.4 635.789 226.04 622.589 226.04C608.669 226.04 603.509 233.84 603.509 243.92H600.869V227H585.269V312.32H601.829V272.72H604.349ZM601.829 257.6C601.829 247.88 607.949 241.64 616.469 241.64C625.349 241.64 631.109 247.88 631.109 257.6C631.109 267.44 625.589 273.92 616.469 273.92C607.949 273.92 601.829 267.44 601.829 257.6Z" fill="white"/>
<path d="M436.943 156.4H420.263C420.263 164.8 413.423 172 400.103 172C384.743 172 376.343 162.04 376.343 146.2C376.343 130.36 384.743 120.52 400.103 120.52C413.903 120.52 419.783 128.8 419.783 137.44H436.943C438.263 121 429.623 103.72 399.983 103.72C376.703 103.72 358.223 117.76 358.223 146.08C358.223 173.92 375.503 188.68 398.783 188.68C427.343 188.68 438.263 172.6 436.943 156.4ZM477.208 141.52C485.008 141.52 489.208 145.48 489.208 153.64V187H505.768V149.2C505.768 134.56 498.208 125.8 484.768 125.8C472.528 125.8 467.368 133 466.888 141.88H464.368V100.6H447.808V187H464.368V153.64C464.368 145.6 470.368 141.52 477.208 141.52ZM553.521 174.64H556.161C556.161 182.68 560.001 187.72 569.721 187.72C574.521 187.72 577.041 186.4 577.041 186.4V172.48C577.041 172.48 575.841 172.96 574.041 172.96C572.001 172.96 571.041 172.24 571.041 170.56V149.08C571.041 133.24 561.801 125.44 543.201 125.44C525.321 125.44 514.641 135.64 516.321 151.84H532.281C531.681 144.52 536.841 141.4 542.961 141.4C548.601 141.4 553.761 143.68 553.761 149.2C553.761 154.36 549.321 156.88 542.961 156.88H540.681C528.201 156.88 515.241 159.52 515.241 172C515.241 181.24 522.921 188.32 534.561 188.32C546.441 188.32 552.201 182.68 553.521 174.64ZM531.441 166.6C531.441 161.68 536.241 159.28 542.961 159.28C549.921 159.28 554.481 161.68 554.481 166.6C554.481 171.52 550.161 174.04 542.961 174.04C536.241 174.04 531.441 171.52 531.441 166.6ZM616.854 144.76C619.734 144.76 622.014 145.36 622.014 145.36V126.88C622.014 126.88 620.814 126.16 618.534 126.16C607.254 126.16 602.334 133.12 602.334 145.96H599.694V127H584.214V187H600.774V156.88C600.774 147.04 608.094 144.76 616.854 144.76ZM630.852 100.6V187H647.412V100.6H630.852ZM679.709 111.4C679.709 104.92 675.269 100.84 668.909 100.84C662.669 100.84 658.109 104.92 658.109 111.4C658.109 118 662.669 121.96 668.909 121.96C675.269 121.96 679.709 118 679.709 111.4ZM668.909 128.44C664.229 128.44 660.509 126.76 660.509 126.76V187H677.069V126.76C677.069 126.76 673.589 128.44 668.909 128.44ZM748.118 164.92H732.038C732.038 168.52 729.038 173.44 718.478 173.44C710.078 173.44 704.918 169.24 704.918 163.84C704.918 160 708.158 159.04 715.117 159.04H749.318C750.398 141.64 743.798 125.44 718.598 125.44C698.678 125.44 687.038 138.4 687.038 156.52C687.038 175.72 697.118 188.92 718.478 188.92C739.838 188.92 748.718 177.04 748.118 164.92ZM704.918 151.12C704.918 146.56 708.878 141.52 718.118 141.52C727.598 141.52 731.918 147.04 731.918 156.4H715.117C707.318 156.4 704.918 154.36 704.918 151.12ZM83.4 247.52C83.4 222.44 69.72 205.4 40.8 205.4H6.96V287H22.8V269.24H25.44C25.44 277.88 32.4 288.56 47.04 288.56C73.56 288.56 83.4 266.72 83.4 247.52ZM24 251.24V222.32H41.28C55.68 222.32 65.4 230.96 65.4 248.48C65.4 263.84 57.24 272.72 43.08 272.72C33.12 272.72 24 268.52 24 251.24ZM152.453 264.92H136.373C136.373 268.52 133.373 273.44 122.813 273.44C114.413 273.44 109.253 269.24 109.253 263.84C109.253 260 112.493 259.04 119.453 259.04H153.653C154.733 241.64 148.133 225.44 122.933 225.44C103.013 225.44 91.3734 238.4 91.3734 256.52C91.3734 275.72 101.453 288.92 122.813 288.92C144.173 288.92 153.053 277.04 152.453 264.92ZM109.253 251.12C109.253 246.56 113.213 241.52 122.453 241.52C131.933 241.52 136.253 247.04 136.253 256.4H119.453C111.653 256.4 109.253 254.36 109.253 251.12ZM163.977 200.6V287H180.537V200.6H163.977ZM230.234 285.92V270.56C230.234 270.56 227.714 271.64 224.234 271.64C219.194 271.64 216.074 270.2 216.074 265.16V243.68H230.234V227H216.074V211.88H200.114V219.56C200.114 224.36 198.194 227 192.674 227H190.514V243.68H212.354V246.2C203.834 246.2 199.514 250.4 199.514 257.24V264.44C199.514 277.4 204.914 287.6 220.034 287.6C227.714 287.6 230.234 285.92 230.234 285.92ZM274.614 274.64H277.254C277.254 282.68 281.094 287.72 290.814 287.72C295.614 287.72 298.134 286.4 298.134 286.4V272.48C298.134 272.48 296.934 272.96 295.134 272.96C293.094 272.96 292.134 272.24 292.134 270.56V249.08C292.134 233.24 282.894 225.44 264.294 225.44C246.414 225.44 235.734 235.64 237.414 251.84H253.374C252.774 244.52 257.934 241.4 264.054 241.4C269.694 241.4 274.854 243.68 274.854 249.2C274.854 254.36 270.414 256.88 264.054 256.88H261.774C249.294 256.88 236.334 259.52 236.334 272C236.334 281.24 244.014 288.32 255.654 288.32C267.534 288.32 273.294 282.68 274.614 274.64ZM252.534 266.6C252.534 261.68 257.334 259.28 264.054 259.28C271.014 259.28 275.574 261.68 275.574 266.6C275.574 271.52 271.254 274.04 264.054 274.04C257.334 274.04 252.534 271.52 252.534 266.6Z" fill="#2EA5E9"/>
</svg>
