<svg width="214" height="118" viewBox="0 0 214 118" fill="none" xmlns="http://www.w3.org/2000/svg">
<path d="M213.665 62.0816C213.621 61.1116 213.368 60.1626 212.922 59.3C212.477 58.4375 211.849 57.6821 211.082 57.0858C210.633 56.7491 210.184 56.4403 209.679 56.1316C209.34 54.3052 208.341 52.6672 206.873 51.5288C205.341 50.3134 203.587 49.4079 201.709 48.8626C199.487 48.2536 197.192 47.9514 194.889 47.9645C193.416 47.9802 191.945 48.0739 190.482 48.2451C184.139 49.0029 177.937 49.8729 172.099 50.7991L170.359 51.1078C170.892 47.6557 171.454 44.1475 172.015 40.6954V39.9096C172.576 36.4855 173.138 32.9773 173.783 29.5533C174.036 28.2903 174.344 27.0835 174.681 25.7644C175.018 24.4453 175.186 23.884 175.383 22.9578C175.702 21.645 175.538 20.2609 174.919 19.0596C174.301 17.8584 173.269 16.9206 172.015 16.4185H171.65C171.535 15.2045 171.098 14.0434 170.382 13.0562C169.666 12.069 168.699 11.2917 167.581 10.8053C166.8 10.4712 165.96 10.2993 165.111 10.3001C164.055 10.3086 163.016 10.5674 162.079 11.0553C161.142 11.5432 160.334 12.2462 159.722 13.1067C159.417 13.564 159.145 14.0424 158.908 14.5381C158.347 15.6607 157.814 16.8114 157.252 17.906L158.122 18.327L157.533 17.8498H157.28C157.146 16.5548 156.639 15.3265 155.821 14.3136C155.146 13.4778 154.29 12.8062 153.318 12.3492C152.345 11.8922 151.282 11.6618 150.208 11.6754H149.675L146.868 11.8718C146.925 11.4622 146.925 11.0466 146.868 10.6369C146.72 9.59807 146.284 8.62139 145.61 7.81773C144.935 7.01407 144.049 6.41562 143.051 6.09028C143.065 5.95028 143.065 5.80929 143.051 5.66929C142.863 4.40547 142.312 3.22342 141.465 2.2668C140.618 1.31018 139.512 0.620181 138.28 0.280658C137.658 0.107079 137.017 0.0127787 136.371 0C135.389 0.0104892 134.422 0.243172 133.542 0.680614C132.662 1.11806 131.893 1.74891 131.291 2.52592C130.142 4.05359 129.347 5.81742 128.962 7.69003V7.99875C128.12 11.2825 127.278 14.2855 126.464 17.1201L125.482 17.485C124.697 17.7476 123.928 18.0569 123.18 18.4112L122.731 18.6076C120.233 19.8145 117.651 21.0494 115.126 22.4807C114.338 22.9131 113.648 23.5023 113.098 24.2119C112.548 24.9216 112.149 25.7365 111.926 26.6064C111.926 26.6064 111.926 26.6064 111.926 26.7748C111.18 26.4546 110.398 26.2284 109.597 26.1012C108.976 25.9894 108.347 25.9331 107.716 25.9328C104.944 26.0336 102.262 26.9407 99.9981 28.5429C94.5764 32.0351 90.5228 37.2879 88.5191 43.4178C88.0416 43.0651 87.5111 42.7904 86.9475 42.6039C86.8558 41.3907 86.4332 40.2259 85.7256 39.2362C85.0179 38.2465 84.0524 37.4698 82.9341 36.9907C83.5009 33.2666 84.4411 29.6089 85.7406 26.0731C86.1023 25.2152 86.2355 24.2783 86.1273 23.3536C86.0191 22.4289 85.6731 21.548 85.1232 20.7968C84.4228 19.8074 83.4467 19.046 82.3166 18.6076C82.2377 17.4457 81.8179 16.3327 81.1098 15.4081C80.4871 14.5449 79.6694 13.8408 78.7233 13.3531C77.7772 12.8655 76.7294 12.608 75.665 12.6015C74.3067 12.5673 72.9715 12.9569 71.8448 13.7164C70.7181 14.4759 69.856 15.5675 69.3783 16.8395C68.3679 19.197 67.5821 21.6387 66.7962 24.1085C66.263 25.7925 65.7859 27.4764 65.2807 29.1042C64.7755 30.7321 64.1019 33.0615 63.4845 34.97L62.1092 38.9273C61.7804 38.3914 61.3946 37.8927 60.9585 37.4398C60.2207 36.7072 59.3444 36.1288 58.3806 35.7385C57.4169 35.3482 56.3851 35.1537 55.3454 35.1664C53.9819 35.169 52.6373 35.486 51.4162 36.0926C49.0376 37.2812 46.9636 38.9999 45.354 41.1164C44.5681 42.1268 43.8103 43.1652 43.0526 44.3159C42.6304 43.6417 42.0768 43.0594 41.4247 42.6039C40.5699 41.9983 39.5842 41.6032 38.5477 41.4507C37.5113 41.2982 36.4535 41.3927 35.4605 41.7264C34.4675 42.0601 33.5673 42.6237 32.8334 43.3712C32.0994 44.1187 31.5524 45.029 31.2369 46.0279C30.8928 45.8679 30.5361 45.7364 30.1704 45.635C29.562 45.444 28.9275 45.3493 28.2899 45.3543C27.1772 45.3607 26.0858 45.6597 25.1251 46.2213C24.1645 46.7829 23.3685 47.5873 22.8171 48.5538C22.3293 49.4306 21.979 50.3772 21.7787 51.3604C21.6103 52.034 21.4419 52.7356 21.2454 53.4092V54.0267C22.1435 49.6203 23.2381 44.9614 24.6133 39.9938C24.8098 39.2641 25.0343 38.5343 25.2588 37.8046L26.0166 35.1664C26.319 34.2159 26.3798 33.2049 26.1936 32.2249C26.0074 31.2449 25.58 30.3268 24.9501 29.5533C24.2696 28.7554 23.3877 28.1545 22.3961 27.8132C22.2922 26.4363 21.7514 25.1286 20.8525 24.0805C20.2254 23.3469 19.4463 22.7586 18.5691 22.3563C17.6919 21.9541 16.7376 21.7475 15.7726 21.751C14.6264 21.716 13.4933 22.0024 12.5014 22.5777C11.5094 23.153 10.6982 23.9944 10.1594 25.0066C9.45382 26.4237 8.92593 27.9226 8.58776 29.4691L8.08257 31.4337C6.81961 36.4294 5.50052 41.5935 4.32176 46.7296C3.62011 49.7326 3.17106 52.9882 2.46941 56.1316L2.21682 57.563C2.21682 58.1523 2.02036 58.7417 1.9081 59.3311C0.978548 63.5842 0.461613 67.917 0.364478 72.2694C0.24326 74.9827 0.702544 77.6905 1.71164 80.2121C2.19575 81.477 2.9975 82.596 4.03962 83.4612C5.08175 84.3263 6.32913 84.9085 7.66159 85.1516C8.15199 86.2885 8.95636 87.2619 9.98038 87.9579C11.0044 88.6538 12.2056 89.0434 13.4431 89.0808C14.0714 89.0838 14.6963 88.9892 15.2955 88.8002C16.7738 88.2956 18.1177 87.4605 19.2247 86.3585C20.9788 84.6251 22.5842 82.7474 24.0239 80.7453H24.6414C25.0068 81.8661 25.7159 82.8435 26.668 83.5387C27.6201 84.2338 28.7669 84.6116 29.9458 84.6184H30.5913C31.8645 84.4708 33.0489 83.8919 33.9475 82.978C34.8461 82.0641 35.4049 80.8701 35.5309 79.5946C36.0306 80.4047 36.7281 81.0745 37.5578 81.5409C38.3875 82.0073 39.3222 82.255 40.274 82.2609C41.3947 82.2325 42.4846 81.8882 43.4181 81.2675C44.3516 80.6468 45.0907 79.7751 45.5504 78.7526C45.6551 78.5713 45.7489 78.3839 45.8311 78.1913C46.0556 77.7423 46.2521 77.2932 46.4766 76.9003C47.1502 75.6935 47.7957 74.4586 48.4412 73.2517C49.5604 74.3755 51.0029 75.1213 52.5669 75.3847C53.0996 76.5756 53.9666 77.5862 55.0627 78.2936C56.1588 79.0011 57.4368 79.3751 58.7413 79.3701C59.9572 79.3967 61.1612 79.127 62.2496 78.5842L62.6986 78.3316C62.8608 80.0721 63.1516 81.7982 63.5687 83.4958C63.7123 84.1965 63.9886 84.8633 64.3826 85.4604L61.7444 86.3865C59.4991 87.1724 57.1697 87.9582 54.8683 88.8002C50.069 90.5122 43.6419 92.8136 37.3552 95.1992C32.9489 96.8551 28.6267 98.6232 24.9501 100.111C23.7569 100.646 22.6797 101.408 21.7787 102.356C20.8214 103.33 20.2139 104.594 20.0514 105.95C19.8889 107.305 20.1805 108.677 20.8806 109.85C21.3859 110.819 22.131 111.642 23.0448 112.241C23.9586 112.841 25.0107 113.196 26.1008 113.274C26.2177 113.592 26.3584 113.902 26.5218 114.2C27.0043 115.036 27.6943 115.734 28.5252 116.225C29.3561 116.717 30.2997 116.986 31.2649 117.006C31.6754 117.049 32.0893 117.049 32.4998 117.006C33.2151 116.81 33.9105 116.547 34.5767 116.22L35.2783 115.912L39.2075 114.396C43.0526 112.909 47.0098 111.365 50.939 109.906C54.8683 108.446 58.5168 107.099 62.9512 105.499L68.5644 103.507L75.1037 101.205L87.9578 96.5183L95.3391 93.7117L103.001 90.9051L113.245 87.1724L119.251 84.9552C122.816 83.608 126.492 82.1486 130.141 80.9418C136.708 78.6684 143.472 76.5074 149.338 74.655L149.113 80.0156C148.776 84.1413 148.412 88.4353 148.355 92.7294L147.822 92.9259C146.81 93.3517 145.923 94.0288 145.245 94.8932C144.567 95.7576 144.121 96.7806 143.949 97.8654C143.788 99.0016 143.921 100.16 144.333 101.231C144.746 102.302 145.425 103.249 146.307 103.984C147.08 104.703 147.684 105.585 148.075 106.566C148.138 106.739 148.213 106.908 148.299 107.071C148.674 108.045 149.134 108.984 149.675 109.878C150.215 110.707 150.934 111.404 151.779 111.919C152.624 112.434 153.573 112.753 154.558 112.853C154.782 113.274 155.035 113.723 155.316 114.172C155.818 114.945 156.504 115.583 157.312 116.028C158.119 116.474 159.024 116.713 159.947 116.726C160.973 116.725 161.977 116.432 162.843 115.88C163.708 115.328 164.397 114.541 164.83 113.61C165.34 112.425 165.57 111.138 165.504 109.85C165.504 108.109 165.504 106.369 165.504 104.685C165.504 101.879 165.504 98.7355 165.504 95.7886C165.84 87.0321 166.598 78.5 167.693 70.5294C167.704 70.408 167.704 70.2859 167.693 70.1645H168.001C176.673 68.1779 185.454 66.7066 194.299 65.7582C196.005 65.5681 197.719 65.465 199.435 65.4494C200.448 65.4456 201.46 65.5019 202.466 65.6178C202.725 66.468 203.196 67.2384 203.834 67.8569C204.472 68.4755 205.257 68.9218 206.115 69.1541C206.67 69.3201 207.247 69.4052 207.827 69.4067C208.503 69.4111 209.173 69.282 209.799 69.0268C210.426 68.7715 210.995 68.3951 211.475 67.9192C212.252 67.1707 212.852 66.2581 213.23 65.2481C213.609 64.2381 213.758 63.1562 213.665 62.0816ZM94.8901 65.4494C95.945 66.9315 97.3442 68.135 98.9674 68.9564C100.591 69.7777 102.389 70.1923 104.208 70.1645C104.871 70.2212 105.538 70.2212 106.201 70.1645C108.832 69.7249 111.274 68.5137 113.217 66.6843C115.362 64.8293 117.25 62.6962 118.83 60.3415C120.185 61.6073 121.972 62.3098 123.826 62.3061C124.943 62.3045 126.045 62.0553 127.053 61.5764C129.226 60.4968 131.04 58.8102 132.274 56.721L132.891 55.7948C133.365 55.9683 133.854 56.0998 134.351 56.1877C134.341 56.2529 134.341 56.319 134.351 56.3842C135.013 57.7146 136.085 58.7969 137.41 59.4714C134.94 60.2011 132.442 60.9589 130 61.7448C125.398 63.1761 120.823 64.8601 116.417 66.4598L114.873 67.0211C112.263 67.9754 109.681 68.9577 107.155 69.8277L99.9981 72.494C98.0054 73.2517 95.9846 73.9815 93.9639 74.6831C93.7021 73.7135 93.2001 72.8255 92.5045 72.101C92.0407 71.6092 91.5437 71.1497 91.017 70.7258L90.175 70.1645C89.9102 68.8769 89.2877 67.6902 88.3788 66.7405C87.9298 66.2914 87.4527 65.8424 86.8071 65.3091L83.4392 62.5025L87.172 55.9913C87.5443 58.1117 88.4619 60.0988 89.8349 61.7571C91.2078 63.4155 92.9886 64.6879 95.0023 65.4494H94.8901ZM150.208 49.5361C150.968 49.8535 151.773 50.0522 152.593 50.1255C152.341 51.8656 152.088 53.5495 151.836 55.2054H151.611L145.998 56.8613C146.212 56.6325 146.409 56.3886 146.587 56.1316C147.766 54.1389 149.113 51.9498 150.32 49.5361H150.208ZM79.4258 76.367C79.9113 76.7667 80.4496 77.0972 81.0256 77.3493L82.7937 78.8088L81.9798 79.0894L79.5662 79.9875L79.3978 76.367H79.4258Z" fill="#231F20"/>
<path d="M208.949 57.2543C208.906 56.2844 208.653 55.3354 208.207 54.4728C207.761 53.6103 207.134 52.8548 206.367 52.2586C204.923 51.1298 203.275 50.2911 201.512 49.7888C199.382 49.2002 197.182 48.9074 194.973 48.9188C193.537 48.9347 192.104 49.0284 190.679 49.1995C184.336 49.9572 178.161 50.8273 172.324 51.7534C169.685 52.1744 167.047 52.7357 164.493 53.3251C164.746 51.7815 164.998 50.2379 165.223 48.7223C165.896 44.5125 166.57 40.1342 167.272 35.8682V35.0824C167.833 31.6583 168.394 28.1501 169.04 24.698C169.292 23.4631 169.601 22.2563 169.938 20.9372C170.275 19.6181 170.443 19.0568 170.64 18.1306C170.959 16.8178 170.795 15.4337 170.176 14.2324C169.557 13.0312 168.526 12.0934 167.272 11.5913C166.649 11.3371 165.98 11.2129 165.307 11.2264C164.397 11.2489 163.505 11.4871 162.705 11.9213C161.905 12.3556 161.219 12.9735 160.704 13.7243C160.421 14.131 160.177 14.5632 159.975 15.0153C159.413 16.1379 158.852 17.2886 158.319 18.4113C157.168 20.7969 155.989 23.2386 154.698 25.5681C154.867 24.9506 155.035 24.3051 155.231 23.6596C155.428 23.0141 155.793 21.695 156.045 20.6565C156.302 19.6993 156.337 18.6961 156.147 17.7234C155.958 16.7506 155.548 15.834 154.951 15.0434C154.359 14.3164 153.608 13.7338 152.757 13.3399C151.906 12.946 150.977 12.7511 150.039 12.77H149.731C146.757 12.8955 143.8 13.271 140.89 13.8927C141.058 12.9384 141.255 11.9561 141.423 11.0861C141.592 10.2161 141.844 8.9531 142.041 7.8866C142.152 7.2742 142.152 6.64666 142.041 6.03426C141.919 4.90356 141.456 3.83655 140.715 2.97451C139.973 2.11247 138.987 1.49607 137.887 1.20694C137.36 1.04315 136.811 0.958032 136.259 0.954346C135.418 0.965779 134.591 1.16591 133.838 1.53995C133.085 1.914 132.426 2.45241 131.909 3.11541C130.855 4.55021 130.127 6.19763 129.776 7.94273V8.25145C128.85 11.7035 127.98 14.8469 126.969 17.8219L125.538 18.3832C124.782 18.6291 124.042 18.9196 123.321 19.2532L122.872 19.4778C120.374 20.6565 117.792 21.8914 115.322 23.3228C114.638 23.6828 114.035 24.1802 113.552 24.7839C113.069 25.3876 112.716 26.0845 112.515 26.831C112.445 27.3525 112.445 27.8812 112.515 28.4027C111.537 27.6685 110.387 27.1952 109.176 27.0275C108.609 26.9378 108.037 26.8909 107.463 26.8871C104.884 26.9942 102.389 27.8419 100.279 29.3289C94.8706 32.9032 90.8956 38.2695 89.0523 44.4844C87.7951 47.9295 87.4188 51.6342 87.9578 55.2617C88.3082 58.0368 89.6647 60.5869 91.7701 62.4285C93.8755 64.2701 96.5835 65.2751 99.3805 65.2531C100.057 65.2648 100.733 65.2179 101.401 65.1128C104.021 64.7049 106.461 63.5334 108.418 61.7449C110.563 59.8899 112.451 57.7567 114.031 55.402C115.386 56.6678 117.172 57.3703 119.027 57.3666C120.143 57.365 121.246 57.1158 122.254 56.6369C124.377 55.6093 126.166 54.0043 127.418 52.006C127.923 51.2763 128.373 50.5185 128.822 49.7608C129.024 50.4197 129.287 51.0586 129.607 51.6692C130.025 52.5866 130.652 53.393 131.438 54.0233C132.224 54.6537 133.148 55.0903 134.134 55.2979C135.12 55.5055 136.141 55.4783 137.115 55.2185C138.089 54.9587 138.988 54.4735 139.739 53.8022C140.586 53.1619 141.309 52.3725 141.872 51.4728C143.051 49.424 144.286 47.2349 145.605 44.8212C146.557 45.2194 147.576 45.4291 148.608 45.4386C150.618 45.4214 152.575 44.7951 154.221 43.6424L154.726 43.3056C154.025 47.9084 153.407 52.1464 152.818 56.0756L151.92 56.1317L145.886 57.8999C140.721 59.3873 135.417 60.959 130.197 62.5868C125.622 64.0463 121.047 65.7021 116.641 67.3019L115.097 67.8913C112.515 68.8175 109.933 69.7998 107.407 70.6979L100.251 73.5044L90.2592 77.0969L82.2323 79.9034L76.1421 82.3171L75.4404 82.5697C75.5522 81.7408 75.5522 80.9007 75.4404 80.0718C74.9815 77.1184 74.7376 74.1356 74.7107 71.1469L75.9737 72.2134C77.3208 73.336 78.7803 74.4867 80.1555 75.6094C81.1956 76.4765 82.506 76.953 83.8602 76.9565C84.6223 76.9583 85.3762 76.7992 86.0726 76.4897C86.769 76.1802 87.3923 75.7272 87.9016 75.1603C88.905 74.115 89.4654 72.7222 89.4654 71.2732C89.4654 69.8242 88.905 68.4314 87.9016 67.3861C87.4378 66.8942 86.9408 66.4347 86.4141 66.0109L77.9944 59.0786C79.6503 56.272 81.3062 53.2971 82.9059 50.4905L85.2635 46.3648C85.8993 45.3382 86.2027 44.1403 86.1324 42.9348C86.0621 41.7292 85.6214 40.5748 84.8705 39.629C84.3567 38.9784 83.7052 38.4498 82.9627 38.081C82.2202 37.7122 81.4053 37.5124 80.5765 37.496C79.32 37.5097 78.1044 37.9445 77.1244 38.7309C77.405 36.9628 77.6857 35.2227 77.9944 33.4826C77.9944 33.0616 78.1628 32.6406 78.2189 32.2477C78.7681 28.5108 79.7088 24.8421 81.0255 21.3021C81.3872 20.4442 81.5204 19.5072 81.4122 18.5825C81.304 17.6578 80.958 16.7769 80.4081 16.0257C79.8814 15.2648 79.1823 14.6393 78.3677 14.2003C77.5531 13.7613 76.6462 13.5212 75.7211 13.4998C74.5934 13.5187 73.4976 13.8769 72.5764 14.5277C71.6553 15.1785 70.9516 16.0917 70.557 17.1483C69.6027 19.4778 68.8169 21.8914 68.031 24.3332C67.4978 26.0171 66.9926 27.7011 66.5155 29.3289C66.0384 30.9567 65.3367 33.2861 64.7193 35.2227L62.1092 41.734C61.8552 40.3614 61.1896 39.0986 60.2007 38.1135C59.5659 37.4733 58.8091 36.9671 57.9751 36.6248C57.141 36.2825 56.2468 36.1111 55.3453 36.1208C54.1268 36.1286 52.9264 36.4167 51.8371 36.9628C49.6239 38.0877 47.7023 39.7114 46.2239 41.7059C45.0785 43.1935 44.0106 44.7391 43.0244 46.3367C42.709 45.1442 41.9836 44.1008 40.9756 43.3898C40.0066 42.7044 38.8508 42.3322 37.6639 42.3233C36.318 42.3818 35.0314 42.8932 34.0125 43.7745C32.9937 44.6558 32.3024 45.8553 32.0507 47.1787V47.5436C31.501 47.086 30.8599 46.7511 30.1703 46.5613C29.6071 46.3862 29.0199 46.3009 28.4302 46.3087C27.4733 46.3154 26.5357 46.5795 25.716 47.0733C24.8963 47.5671 24.2246 48.2724 23.7713 49.1153C23.322 49.8716 22.9996 50.6964 22.817 51.557C22.6486 52.2586 22.4522 52.9603 22.2838 53.69C21.7225 55.851 21.1612 58.1244 20.7402 60.4258C20.5718 61.2397 20.4314 62.0817 20.3192 62.9236L19.7859 62.7272C19.1919 62.5114 18.5656 62.3976 17.9336 62.3904C17.0647 62.4012 16.2115 62.6242 15.4485 63.0399C14.6854 63.4557 14.0355 64.0517 13.5553 64.776C13.836 63.064 14.1447 61.3239 14.4534 59.668C14.7622 58.0121 15.0709 56.244 15.3796 54.532C16.39 48.582 17.8213 42.2391 19.7579 35.1385C19.9543 34.4088 20.1789 33.651 20.4034 32.9494C20.6279 32.2477 20.9086 31.2093 21.1331 30.3112C21.4418 29.3632 21.5085 28.353 21.3272 27.3726C21.1458 26.3923 20.7221 25.4728 20.0947 24.698C19.5804 24.0121 18.9159 23.4532 18.1521 23.064C17.3883 22.6748 16.5455 22.4657 15.6883 22.4527C14.7288 22.4472 13.7864 22.7062 12.9645 23.2013C12.1426 23.6965 11.473 24.4085 11.0294 25.2593C10.3555 26.6128 9.85565 28.0462 9.54192 29.5253L9.03673 31.4619C7.77377 36.4576 6.48275 41.6217 5.30398 46.7577C4.54621 49.9292 3.98489 53.1567 3.42357 56.3001L3.17098 57.7315L2.83419 59.6119C1.93986 63.7659 1.43251 67.9938 1.31864 72.2415C1.21376 74.8391 1.65352 77.4298 2.60967 79.8473C3.06899 81.0847 3.8846 82.1582 4.95354 82.9325C6.02248 83.7067 7.29684 84.1469 8.61575 84.1975C9.24401 84.2005 9.86892 84.1058 10.4681 83.9168C11.9412 83.4287 13.2846 82.6131 14.3973 81.5313C16.3027 79.659 18.0488 77.6312 19.6175 75.469C19.8742 76.7612 20.5771 77.9219 21.6033 78.748C22.6295 79.5741 23.9136 80.0129 25.2307 79.9876H25.8762C27.1494 79.84 28.3337 79.2612 29.2324 78.3472C30.131 77.4333 30.6897 76.2394 30.8158 74.9639C31.3155 75.774 32.013 76.4437 32.8427 76.9101C33.6724 77.3765 34.6071 77.6243 35.5589 77.6301C36.6796 77.6018 37.7694 77.2575 38.7029 76.6368C39.6364 76.0161 40.3756 75.1443 40.8353 74.1219L41.1159 73.5606C41.3405 73.1115 41.5369 72.6625 41.7615 72.2695C42.7438 70.4733 43.698 68.6771 44.568 66.909L47.543 61.2958V61.7449C47.0875 63.9218 46.9738 66.1565 47.2062 68.3684C47.3599 70.0734 48.1441 71.6597 49.4054 72.8172C50.6667 73.9746 52.3143 74.62 54.0262 74.6271C55.251 74.6156 56.4548 74.3075 57.5344 73.729C59.1338 72.8168 60.5437 71.6069 61.6882 70.1646C62.2495 69.4349 62.8108 68.7052 63.3441 67.9193C63.3441 70.9785 63.3441 74.1219 63.5966 77.2933C63.7145 79.3183 64.0151 81.3285 64.4948 83.2994C64.7221 84.3053 65.2393 85.2225 65.9822 85.9376L62.053 87.2848L55.205 89.8107C50.3777 91.5508 43.9787 93.8241 37.6919 96.2097C33.3137 97.8656 28.9915 99.6337 25.3149 101.121C24.2558 101.604 23.3022 102.291 22.5083 103.142C21.6951 103.957 21.1744 105.019 21.0272 106.161C20.88 107.303 21.1146 108.462 21.6944 109.457C22.1769 110.293 22.8669 110.991 23.6978 111.482C24.5287 111.974 25.4723 112.243 26.4375 112.263C26.848 112.306 27.2619 112.306 27.6724 112.263C28.3877 112.067 29.0831 111.804 29.7493 111.477L30.4509 111.169L34.3802 109.653C38.2252 108.166 42.1824 106.622 46.1117 105.163C50.0409 103.703 53.6894 102.356 58.1238 100.728L63.737 98.7637L70.3044 96.4623L83.1585 91.7753C85.6283 90.8772 88.07 89.951 90.5398 88.9687L98.2018 86.1621L108.446 82.4294C110.438 81.6997 112.487 80.9419 114.424 80.1841C118.016 78.865 121.693 77.3775 125.341 76.1988C131.965 73.9254 138.785 71.7363 144.679 69.8559C146.784 69.1823 148.945 68.5929 151.078 68.0035C150.769 70.1927 150.488 72.4099 150.32 74.6551C150.32 76.4513 150.039 78.2756 149.899 80.0438C149.562 84.4782 149.113 88.9687 149.113 93.4873C148.731 93.5697 148.355 93.6824 147.991 93.8241C147.137 94.198 146.389 94.7786 145.816 95.5136C145.243 96.2486 144.862 97.1148 144.707 98.034C144.564 99.0098 144.681 100.006 145.045 100.923C145.41 101.839 146.009 102.643 146.784 103.254C147.642 104.035 148.322 104.993 148.776 106.061L149.113 106.65C149.474 107.549 149.916 108.413 150.432 109.232C150.935 110.006 151.62 110.643 152.428 111.089C153.236 111.534 154.141 111.774 155.063 111.786C156.089 111.786 157.094 111.492 157.959 110.941C158.824 110.389 159.514 109.601 159.947 108.671C160.445 107.472 160.675 106.179 160.62 104.882C160.62 103.142 160.62 101.402 160.62 99.7179C160.62 96.9113 160.62 93.768 160.62 90.821C160.957 82.0364 161.715 73.5325 162.809 65.5618C162.821 65.4405 162.821 65.3183 162.809 65.197H163.09C171.762 63.2126 180.543 61.7413 189.388 60.7906C191.103 60.6014 192.826 60.4983 194.552 60.4819C195.564 60.4781 196.577 60.5343 197.583 60.6503C197.846 61.498 198.319 62.2659 198.956 62.8837C199.594 63.5016 200.376 63.9495 201.231 64.1866C201.787 64.3526 202.364 64.4377 202.943 64.4392C203.619 64.4436 204.29 64.3145 204.916 64.0592C205.542 63.804 206.112 63.4276 206.592 62.9517C207.38 62.2341 208 61.3513 208.407 60.3665C208.815 59.3816 209 58.319 208.949 57.2543ZM109.989 39.7132L108.755 41.9585C107.038 45.3717 104.959 48.5898 102.552 51.557C101.75 52.4813 100.802 53.2681 99.7454 53.8864L99.3805 54.0268C99.2509 53.8472 99.182 53.6308 99.1841 53.4093C98.9469 50.9834 99.3738 48.5387 100.419 46.3367C101.699 42.9259 104.172 40.0943 107.379 38.3661H107.548C108.204 38.6071 108.897 38.7306 109.596 38.7309C109.951 38.7738 110.309 38.7738 110.663 38.7309L109.989 39.7132ZM122.338 35.6156C121.961 34.6834 121.329 33.8761 120.514 33.2861C120.817 33.1744 121.108 33.0334 121.384 32.8652L123.517 31.7145L122.338 35.6156ZM142.798 26.2136C142.237 28.3746 141.76 30.1989 141.367 31.8267C140.578 32.0637 139.863 32.4984 139.29 33.0897C139.29 32.36 139.29 31.6583 139.29 30.9286L139.459 25.7084L143.051 24.9225C142.995 25.4277 142.883 25.8206 142.798 26.2136Z" fill="#F785B9"/>
<path d="M158.684 34.8296C158.431 35.1383 158.15 35.4471 157.926 35.7839C156.522 37.8802 154.731 39.69 152.65 41.1164C151.444 41.9717 150.002 42.4325 148.524 42.4355C147.936 42.4713 147.349 42.3738 146.804 42.1502C146.26 41.9266 145.773 41.5828 145.38 41.1444C144.707 40.4147 144.482 40.527 144.005 41.397C142.462 44.2036 140.89 47.0102 139.262 49.8168C138.865 50.4342 138.362 50.9759 137.775 51.4165C137.35 51.7794 136.847 52.0383 136.305 52.1727C135.763 52.3071 135.197 52.3132 134.652 52.1906C134.107 52.068 133.598 51.8201 133.166 51.4665C132.734 51.1128 132.39 50.6633 132.161 50.1536C131.417 48.6184 130.997 46.9466 130.927 45.242C130.927 43.2213 130.927 41.1725 130.927 39.1237V37.6923H130.646C130.449 38.3098 130.225 38.9553 130 39.5727C128.893 43.3391 127.259 46.9297 125.145 50.2378C124.14 51.8142 122.723 53.0857 121.047 53.9144C120.402 54.2424 119.687 54.4124 118.963 54.4105C118.239 54.4085 117.525 54.2346 116.881 53.903C116.237 53.5714 115.681 53.0917 115.259 52.5033C114.837 51.9149 114.56 51.2346 114.452 50.5184C114.452 50.2097 114.452 49.901 114.143 49.3116C113.835 49.7887 113.638 50.0413 113.498 50.2939C111.718 53.6946 109.363 56.7617 106.537 59.3591C104.971 60.8092 103.024 61.7828 100.924 62.1657C99.76 62.3856 98.563 62.3629 97.4079 62.0992C96.2529 61.8356 95.1646 61.3365 94.2111 60.6333C93.2576 59.93 92.4594 59.0377 91.8664 58.012C91.2733 56.9863 90.8982 55.8493 90.7644 54.6721C90.3273 51.4955 90.6643 48.2603 91.7467 45.242C93.4128 39.6434 97.0264 34.8252 101.935 31.6582C103.884 30.1603 106.342 29.4853 108.783 29.7778C109.359 29.8328 109.915 30.0244 110.403 30.3368C110.891 30.6491 111.298 31.0732 111.589 31.574C111.867 32.0862 111.978 32.6721 111.908 33.2505C111.837 33.8288 111.589 34.3709 111.196 34.8016C110.866 35.205 110.413 35.4893 109.906 35.6109C109.4 35.7326 108.867 35.6849 108.39 35.4751C107.973 35.3237 107.529 35.2653 107.088 35.3041C106.647 35.3429 106.219 35.4779 105.836 35.6997C102.059 37.7575 99.1345 41.0893 97.5844 45.1017C96.356 47.7775 95.862 50.732 96.1531 53.6618C96.1403 54.2264 96.2827 54.7836 96.5647 55.2729C96.8466 55.7622 97.2574 56.1648 97.7523 56.4369C98.2472 56.7089 98.8072 56.84 99.3715 56.8158C99.9357 56.7917 100.482 56.6133 100.952 56.3C102.381 55.5524 103.657 54.5433 104.713 53.325C107.767 49.5508 110.42 45.4685 112.628 41.1444C113.442 39.7131 114.143 38.3379 114.929 36.7662C115.169 36.1462 115.637 35.6412 116.237 35.3544C116.837 35.0675 117.523 35.0204 118.157 35.2225C118.8 35.4291 119.347 35.8607 119.697 36.4381C120.048 37.0155 120.179 37.7 120.065 38.3659C119.869 41.1725 119.756 43.9791 119.616 46.7857C119.588 47.075 119.588 47.3664 119.616 47.6557H119.841C120.086 47.4328 120.312 47.1886 120.514 46.926C122.331 44.1115 123.73 41.0486 124.668 37.8327C125.847 34.2683 126.885 30.6198 127.952 27.0273C127.973 26.7658 127.973 26.503 127.952 26.2415C126.801 26.7467 125.734 27.1396 124.724 27.6448C123.152 28.4306 121.581 29.2726 120.037 30.1426C119.433 30.5716 118.684 30.7445 117.953 30.6236C117.223 30.5026 116.569 30.0977 116.136 29.4971C115.895 29.1982 115.724 28.8488 115.636 28.4747C115.549 28.1007 115.547 27.7117 115.63 27.3368C115.714 26.9618 115.881 26.6106 116.119 26.3092C116.357 26.0078 116.66 25.764 117.006 25.596C119.532 24.1366 122.17 22.7894 124.808 21.6387C126.071 21.0493 127.446 20.6845 128.709 20.0951C129.232 19.8396 129.642 19.3997 129.86 18.8602C130.842 15.4923 131.769 12.1244 132.667 8.72843C132.906 7.29544 133.462 5.93393 134.294 4.74308C134.606 4.31115 135.04 3.9835 135.541 3.80317C136.042 3.62284 136.586 3.59828 137.101 3.73271C137.634 3.87661 138.112 4.17432 138.477 4.58864C138.841 5.00296 139.075 5.51549 139.15 6.06218C139.205 6.35897 139.205 6.66349 139.15 6.96028C138.617 9.76686 138.027 12.798 137.522 15.7168C137.213 17.513 137.269 17.5411 139.038 17.0078C142.546 15.9997 146.166 15.434 149.815 15.3239C150.361 15.2721 150.912 15.3594 151.416 15.5776C151.92 15.7958 152.36 16.1379 152.696 16.572C153.032 17.0061 153.253 17.5181 153.338 18.0605C153.423 18.6029 153.37 19.1579 153.183 19.6741C152.79 21.33 152.257 22.9297 151.836 24.5856C150.9 28.2155 149.965 31.8359 149.029 35.4471C148.976 35.7951 149.005 36.1505 149.113 36.4855C149.406 36.4076 149.689 36.2945 149.955 36.1487C152.928 33.5665 155.344 30.4056 157.056 26.8589C158.992 23.3507 160.648 19.6741 162.444 16.0817C162.656 15.792 162.891 15.5198 163.146 15.2678C163.458 14.7375 163.948 14.3359 164.53 14.1352C165.111 13.9345 165.745 13.948 166.318 14.1732C166.952 14.4137 167.478 14.8761 167.798 15.4747C168.118 16.0733 168.21 16.7675 168.058 17.4288C167.552 19.7022 166.879 21.9194 166.43 24.1646C165.728 27.8974 165.139 31.6582 164.549 35.3909C163.427 42.2671 162.36 49.1432 161.266 56.0193C161.266 56.6087 161.266 56.9735 161.995 56.8051C165.616 56.0474 169.236 55.1493 172.885 54.5599C178.947 53.6057 185.028 52.7637 191.128 52.034C194.366 51.5549 197.667 51.7267 200.838 52.5391C202.239 52.9301 203.546 53.5982 204.684 54.5038C205.147 54.8801 205.52 55.355 205.777 55.8939C206.034 56.4328 206.167 57.0222 206.167 57.6191C206.167 58.2159 206.034 58.8053 205.777 59.3442C205.52 59.8831 205.147 60.3581 204.684 60.7344C204.36 61.0593 203.949 61.2827 203.5 61.3775C203.051 61.4722 202.585 61.434 202.158 61.2676C201.689 61.1611 201.265 60.9125 200.944 60.5558C200.622 60.1991 200.419 59.7517 200.361 59.2749C200.361 58.2365 199.716 57.8997 198.79 57.7594C195.621 57.3663 192.416 57.3663 189.247 57.7594C180.294 58.7544 171.402 60.2442 162.613 62.2219C159.806 62.8112 160.34 62.699 160.031 65.0284C158.852 73.4482 158.122 82.0924 157.786 90.6525C157.589 95.3676 157.786 100.083 157.786 104.685C157.854 105.553 157.729 106.425 157.421 107.239C157.228 107.664 156.923 108.028 156.538 108.291C156.153 108.554 155.703 108.707 155.238 108.733C154.772 108.759 154.309 108.657 153.897 108.439C153.485 108.22 153.141 107.892 152.902 107.492C152.381 106.593 151.931 105.654 151.555 104.685C150.929 103.18 149.969 101.837 148.748 100.756C148.419 100.488 148.161 100.143 147.995 99.7523C147.83 99.3613 147.762 98.9359 147.798 98.5129C147.834 98.0898 147.972 97.682 148.202 97.3246C148.431 96.9672 148.744 96.6712 149.113 96.4621C149.774 96.2778 150.473 96.2778 151.134 96.4621C151.751 96.4621 151.976 96.4621 151.948 95.8727C151.751 88.8844 152.65 81.8398 153.127 75.0199C153.379 71.7362 153.912 68.4805 154.305 65.2249C154.305 64.411 154.305 64.2707 153.491 64.4671C150.264 65.3933 146.98 66.2353 143.753 67.2737C137.269 69.3506 130.786 71.4274 124.359 73.6446C118.746 75.6373 113.133 77.8264 107.52 79.9033L89.6137 86.3304C82.8499 88.8002 76.1421 91.298 69.3783 93.7397C65.3087 95.1992 61.2111 96.5463 57.1416 98.0057C53.072 99.4652 49.0867 100.812 45.0733 102.44C39.8531 104.405 34.6328 106.454 29.4126 108.474C28.6204 108.845 27.8048 109.164 26.9709 109.429C26.4098 109.549 25.8246 109.472 25.3134 109.211C24.8023 108.95 24.3965 108.522 24.1643 107.997C23.914 107.555 23.8116 107.044 23.8722 106.539C23.9328 106.034 24.1531 105.561 24.5011 105.191C25.0434 104.622 25.6917 104.164 26.4095 103.843C30.4884 102.159 34.586 100.541 38.7024 98.9881C44.5213 96.7989 50.3403 94.6659 56.1593 92.5891C60.734 90.9332 65.3649 89.3895 69.9396 87.7337C74.5143 86.0778 78.8365 84.45 83.2709 82.8222C89.2769 80.633 95.3111 78.5281 101.289 76.339C106.257 74.5147 111.196 72.5501 116.164 70.7258C121.132 68.9015 126.099 67.0772 131.123 65.4775C138.308 63.2042 145.577 61.1554 152.79 59.0224C153.289 58.8926 153.795 58.7895 154.305 58.7136C154.626 58.6865 154.926 58.5431 155.148 58.3105C155.37 58.0779 155.5 57.7721 155.512 57.4507C156.438 51.3043 157.336 45.1859 158.319 39.0395C158.515 37.6923 158.768 36.2329 158.992 35.0261L158.684 34.8296ZM136.231 44.1475C136.474 43.9299 136.69 43.685 136.877 43.4178L140.469 36.4855C140.974 35.5313 141.564 34.6612 142.742 34.6051C143.921 34.549 143.837 34.156 143.977 33.4263C144.482 31.2372 145.016 29.1042 145.577 26.9431C145.97 25.3995 146.475 23.8559 146.896 22.3123C146.924 22.0229 146.924 21.7316 146.896 21.4422C146.579 21.4005 146.258 21.4005 145.942 21.4422L137.887 23.2384C137.708 23.2488 137.534 23.2954 137.374 23.3753C137.214 23.4552 137.072 23.5668 136.956 23.7033C136.841 23.8398 136.754 23.9983 136.702 24.1693C136.65 24.3403 136.633 24.5201 136.652 24.6979C136.484 29.6655 136.343 34.6051 136.203 39.5727C136.175 41.0041 136.203 42.4635 136.203 44.1475H136.231Z" fill="white"/>
<path d="M72.5497 51.4165C73.4478 49.7606 74.374 48.1328 75.3563 46.505C76.3386 44.8772 77.0402 43.2774 78.1629 41.7619C78.3739 41.3772 78.6776 41.0512 79.0463 40.8134C79.4151 40.5757 79.8373 40.4337 80.2748 40.4002C80.7123 40.3668 81.1513 40.443 81.5519 40.6219C81.9525 40.8009 82.3022 41.0769 82.5692 41.4251C82.9226 41.9378 83.1094 42.5469 83.1044 43.1696C83.0994 43.7923 82.9027 44.3983 82.5411 44.9052L74.4863 58.9382C74.0653 59.6398 74.4863 59.9766 74.9072 60.3695L84.3374 68.1437C84.7594 68.4961 85.1622 68.8709 85.5442 69.2664C86.0336 69.7869 86.306 70.4744 86.306 71.1889C86.306 71.9033 86.0336 72.5909 85.5442 73.1114C85.0442 73.6322 84.3627 73.9404 83.6414 73.9717C82.9201 74.0031 82.2144 73.7553 81.6711 73.2798L77.6858 70.1645L72.2129 65.3372C72.0361 65.2166 71.8481 65.1133 71.6516 65.0284C71.5669 65.1347 71.5091 65.2599 71.4832 65.3933C71.516 70.4692 71.844 75.539 72.4655 80.5769C72.6022 81.3817 72.5542 82.207 72.3252 82.9905C72.114 83.5418 71.7202 84.0041 71.2095 84.3003C70.6988 84.5965 70.102 84.7088 69.5186 84.6184C68.9777 84.6003 68.4582 84.403 68.0417 84.0575C67.6251 83.7121 67.3351 83.2381 67.2172 82.7099C66.7593 80.9163 66.4681 79.0842 66.3472 77.2371C66.1507 71.6239 66.0665 65.8704 66.0104 60.2011C66.0517 58.9235 66.1642 57.6492 66.3472 56.3842C66.3612 56.1411 66.3612 55.8975 66.3472 55.6545H66.0946C66.0946 55.879 65.8701 56.1035 65.7859 56.328C64.3512 60.7093 62.1566 64.8038 59.3027 68.4244C58.3791 69.5758 57.2339 70.5302 55.9348 71.231C55.3434 71.5814 54.6724 71.7752 53.9852 71.7941C53.2981 71.8129 52.6175 71.6562 52.0078 71.3387C51.3981 71.0212 50.8794 70.5535 50.5009 69.9797C50.1224 69.4059 49.8964 68.745 49.8445 68.0595C49.6474 66.184 49.7516 64.289 50.1532 62.4464C51.2197 57.2542 52.4827 52.1182 53.6614 46.9821C53.6614 46.7015 53.6614 46.4208 53.6614 46.1401H53.4369C53.1843 46.4208 52.9037 46.6734 52.6791 46.954C50.0911 50.5612 47.783 54.3612 45.7749 58.3207L38.9269 71.0064C38.5901 71.652 38.2814 72.2975 37.9446 72.9711C37.698 73.577 37.2602 74.0858 36.6979 74.4202C36.1356 74.7545 35.4794 74.8961 34.8293 74.8234C34.1755 74.7038 33.5853 74.3561 33.1639 73.8422C32.7424 73.3282 32.517 72.6814 32.5279 72.0168C32.1558 63.9814 32.8447 55.932 34.5767 48.0767C34.5905 47.5527 34.7507 47.0431 35.0392 46.6056C35.3277 46.168 35.733 45.82 36.2092 45.6009C36.6853 45.3818 37.2133 45.3004 37.7333 45.366C38.2533 45.4315 38.7445 45.6414 39.1514 45.9717C39.5849 46.3567 39.9034 46.8541 40.0718 47.4089C40.2402 47.9636 40.2519 48.5541 40.1057 49.1151C39.4601 52.5672 38.8708 56.0474 38.2814 59.4995C38.2683 59.6104 38.2791 59.7229 38.313 59.8294C38.3469 59.9359 38.4031 60.0339 38.4778 60.1169C38.7024 59.7801 38.955 59.4714 39.1514 59.1346C41.7802 53.76 44.8401 48.6071 48.3009 43.7265C49.5431 42.0583 51.1576 40.7033 53.0159 39.7692C53.6628 39.3805 54.4033 39.1754 55.158 39.1759C55.9127 39.1765 56.6529 39.3825 57.2993 39.7721C57.9456 40.1616 58.4737 40.7199 58.8266 41.3869C59.1796 42.054 59.3442 42.8046 59.3027 43.5581C59.26 45.7756 59.0062 47.9841 58.5449 50.1536C57.8994 53.4373 57.0574 56.6648 56.2996 59.9205C56.019 61.1553 55.7102 62.4183 55.4576 63.6532C55.4059 63.7728 55.3792 63.9018 55.3792 64.0321C55.3792 64.1624 55.4059 64.2914 55.4576 64.411C55.6506 64.1989 55.8288 63.9739 55.9909 63.7374C58.5395 59.744 60.594 55.456 62.1092 50.9675C63.7932 46.0279 65.5052 41.0883 67.133 36.1207C68.3118 32.5002 69.3222 28.8235 70.4728 25.2031C71.2026 22.8736 71.9603 20.5161 72.9146 18.2427C73.1106 17.7864 73.4243 17.3903 73.8235 17.0948C74.2227 16.7993 74.6931 16.6151 75.1868 16.5608C75.6805 16.5066 76.1798 16.5844 76.6336 16.7862C77.0874 16.988 77.4795 17.3066 77.77 17.7095C78.0331 18.0694 78.1975 18.4919 78.2468 18.9351C78.296 19.3782 78.2284 19.8265 78.0506 20.2354C76.5785 24.3648 75.5345 28.6345 74.9353 32.9773C74.2056 37.131 73.6162 41.397 72.9707 45.4946C72.7181 47.2628 72.5217 49.0309 72.3252 50.8271C72.3113 50.9952 72.3113 51.1642 72.3252 51.3323L72.5497 51.4165Z" fill="white"/>
<path d="M9.93492 74.0656C10.2406 73.772 10.531 73.4629 10.805 73.1394L15.8007 66.4037C16.0958 65.8942 16.5651 65.5086 17.1221 65.3177C17.6791 65.1269 18.2862 65.1438 18.8318 65.3652C19.3847 65.552 19.8656 65.9064 20.2077 66.3793C20.5498 66.8521 20.7359 67.4198 20.7402 68.0034C20.7391 68.4806 20.6029 68.9476 20.3473 69.3506C18.076 72.9979 15.4126 76.3859 12.4047 79.4542C11.6192 80.2537 10.6583 80.8591 9.59813 81.2224C7.74578 81.7837 6.14603 80.7453 5.24793 78.6684C4.44115 76.6263 4.08686 74.4336 4.20949 72.2413C4.36932 67.5179 4.97067 62.8198 6.0057 58.2084C6.65122 54.588 7.26866 50.9675 8.11064 47.375C9.42973 41.6215 10.9172 35.9242 12.3205 30.1988C12.6057 28.9578 13.0293 27.7528 13.5835 26.6063C13.8015 26.2459 14.1045 25.9442 14.4659 25.7277C14.8274 25.5113 15.2363 25.3865 15.657 25.3643C16.0777 25.3422 16.4975 25.4233 16.8796 25.6007C17.2618 25.7781 17.5948 26.0462 17.8495 26.3818C18.1917 26.8102 18.4137 27.322 18.4926 27.8645C18.5716 28.4071 18.5046 28.9609 18.2985 29.4691C17.8775 31.0969 17.3724 32.6966 16.9233 34.2964C15.1552 40.7796 13.6115 47.3189 12.4889 53.9424C11.5908 58.433 10.833 62.8674 10.1314 67.3579C9.82265 69.4067 9.85072 71.5397 9.73845 73.6166C9.73845 73.7008 9.82265 73.785 9.93492 74.0656Z" fill="white"/>
<path d="M21.9751 71.1187C22.4803 67.6947 22.8732 64.2426 23.5188 60.8466C24.052 58.04 24.8379 55.0651 25.5676 52.1743C25.7058 51.5994 25.9131 51.0434 26.185 50.5184C26.4816 50.0152 26.9401 49.6274 27.4855 49.4184C28.031 49.2094 28.6311 49.1916 29.1881 49.3677C29.732 49.5242 30.2113 49.8516 30.5549 50.3014C30.8986 50.7512 31.0885 51.2996 31.0965 51.8656C31.0784 52.5678 30.9747 53.2653 30.7878 53.9424C29.4887 58.3876 28.5502 62.9303 27.9812 67.5263C27.7887 69.6066 27.7231 71.6967 27.7848 73.785C27.898 74.5582 27.7023 75.3449 27.2402 75.9751C26.778 76.6053 26.0865 77.0284 25.315 77.1529C24.9235 77.1922 24.5282 77.1488 24.1546 77.0255C23.781 76.9022 23.4375 76.7017 23.1464 76.437C22.8553 76.1724 22.623 75.8495 22.4648 75.4893C22.3065 75.1291 22.2258 74.7397 22.2277 74.3463C22.2277 73.3078 22.2277 72.2413 22.0313 71.1748L21.9751 71.1187Z" fill="white"/>
</svg>
