<svg width="228" height="69" viewBox="0 0 228 69" fill="none" xmlns="http://www.w3.org/2000/svg">
<path d="M13.2698 43.9216C5.65045 43.9216 0 39.2418 0 30.4183C0 21.4379 6.04153 16.9935 13.6609 16.9935C23.357 16.9935 26.1889 22.4706 25.7439 27.6863H20.1339C20.1339 24.9412 18.2055 22.3268 13.7013 22.3268C8.67121 22.3268 5.93364 25.451 5.93364 30.4706C5.93364 35.4902 8.68469 38.6536 13.7013 38.6536C18.0572 38.6536 20.2958 36.366 20.2958 33.7124H25.7574C26.1889 38.8235 22.6153 43.9216 13.2698 43.9216Z" fill="#2EA5E9"/>
<path d="M34.7388 32.8105V43.3856H29.3176V16H34.7388V29.085H35.5614C35.7232 26.2745 37.4089 23.9869 41.4141 23.9869C45.8104 23.9869 48.2783 26.7582 48.2783 31.4118V43.3987H42.8571V32.8235C42.8571 30.2353 41.4816 28.9804 38.9328 28.9804C36.7077 28.9673 34.7388 30.2614 34.7388 32.8105Z" fill="#2EA5E9"/>
<path d="M57.7047 43.8039C53.9017 43.8039 51.3799 41.5556 51.3799 38.6275C51.3799 34.6667 55.6144 33.8301 59.7005 33.8301H60.4422C62.519 33.8301 63.9754 33.0327 63.9754 31.3987C63.9754 29.6471 62.2898 28.9281 60.4422 28.9281C58.4464 28.9281 56.7472 29.9216 56.9495 32.2353H51.7306C51.1777 27.098 54.6704 23.8693 60.5231 23.8693C66.6051 23.8693 69.6259 26.3399 69.6259 31.3595V38.1699C69.6259 38.7059 69.9361 38.9281 70.6103 38.9281C71.2037 38.9281 71.5948 38.7712 71.5948 38.7712V43.2026C71.5948 43.2026 70.7722 43.6209 69.1944 43.6209C66.0118 43.6209 64.7576 42.0261 64.7576 39.4771H63.8945C63.4765 42.0261 61.5885 43.8039 57.7047 43.8039ZM60.4557 39.281C62.8157 39.281 64.2182 38.4837 64.2182 36.9281C64.2182 35.3726 62.7213 34.6013 60.4557 34.6013C58.2576 34.6013 56.6932 35.3595 56.6932 36.9281C56.6798 38.4837 58.2576 39.281 60.4557 39.281Z" fill="#2EA5E9"/>
<path d="M79.3759 33.8431V43.3987H73.9547V24.366H79.0253V30.3791H79.8884C79.8884 26.3137 81.4932 24.1046 85.1882 24.1046C85.9299 24.1046 86.321 24.3268 86.321 24.3268V30.183C86.321 30.183 85.5793 29.9869 84.6353 29.9869C81.7629 30 79.3759 30.719 79.3759 33.8431Z" fill="#2EA5E9"/>
<path d="M94.6416 16V43.3987H89.2204V16H94.6416Z" fill="#2EA5E9"/>
<path d="M101.668 22.7712C99.6312 22.7712 98.1343 21.5163 98.1343 19.4248C98.1343 17.3726 99.6312 16.0784 101.668 16.0784C103.744 16.0784 105.201 17.3726 105.201 19.4248C105.201 21.5163 103.744 22.7712 101.668 22.7712ZM104.338 24.2876V43.3856H98.9165V24.2876C98.9165 24.2876 100.13 24.8235 101.668 24.8235C103.205 24.8235 104.338 24.2876 104.338 24.2876Z" fill="#2EA5E9"/>
<path d="M117.877 44C110.892 44 107.588 39.817 107.588 33.7255C107.588 27.9739 111.391 23.8693 117.918 23.8693C126.157 23.8693 128.315 29.0065 127.964 34.5229H116.771C114.492 34.5229 113.44 34.8235 113.44 36.0392C113.44 37.7516 115.126 39.085 117.877 39.085C121.329 39.085 122.314 37.5294 122.314 36.3791H127.573C127.776 40.2353 124.863 44 117.877 44ZM116.785 33.6863H122.287C122.287 30.719 120.871 28.9673 117.769 28.9673C114.749 28.9673 113.454 30.5621 113.454 32.0131C113.44 33.0458 114.236 33.6863 116.785 33.6863Z" fill="#2EA5E9"/>
<path d="M161.301 69C155.444 69 154.04 66.0658 154.374 62.9737H158.078C157.945 64.6842 158.827 65.5526 161.221 65.5526C163.347 65.5526 164.537 64.8158 164.537 63.5395C164.537 62.3947 164.042 62.0395 163.24 62.0395C162.986 62.0395 162.718 62.0658 162.411 62.1184C161.943 62.1711 161.475 62.1974 160.953 62.1974C156.674 62.1974 154 59.6184 154 55.8158C154 52.1974 156.902 49.3553 161.1 49.3553H168.254V53.1316H164.189V53.7237C166.182 53.7763 167.974 54.9474 167.974 57.2237C167.974 59.4474 166.65 60.6974 164.764 61.4342V61.9737C166.944 62 168.241 62.7895 168.241 64.6579C168.228 66.9079 165.687 69 161.301 69ZM161.1 58.75C162.866 58.75 164.243 57.6842 164.243 55.8684C164.243 54.0526 162.919 52.9868 161.1 52.9868C159.362 52.9868 157.931 54.0526 157.931 55.8684C157.931 57.6974 159.175 58.75 161.1 58.75Z" fill="white"/>
<path d="M174.365 56.1184V62.9342H170.554V49.3553H174.111V53.6447H174.713C174.713 50.7368 175.85 49.1579 178.444 49.1579C178.965 49.1579 179.246 49.3158 179.246 49.3158V53.5C179.246 53.5 178.725 53.3684 178.056 53.3684C176.05 53.3684 174.365 53.8947 174.365 56.1184Z" fill="white"/>
<path d="M187.978 63.3684C183.619 63.3684 180.664 60.4868 180.664 56.1711C180.664 52.0658 183.539 49 188.125 49C193.099 49 195.546 52.2105 195.546 56.1711C195.533 59.3553 193.661 63.3684 187.978 63.3684ZM188.112 59.8421C190.238 59.8421 191.535 58.3684 191.535 56.2237C191.535 54.0526 190.184 52.7237 188.112 52.7237C186.093 52.7237 184.662 54.0526 184.662 56.2237C184.662 58.3684 186.093 59.8421 188.112 59.8421Z" fill="white"/>
<path d="M202.527 63.2368C199.157 63.2368 197.699 60.7632 197.699 57.7763V49.3553H201.51V57.2105C201.51 59.079 202.366 59.8947 203.997 59.8947C205.936 59.8947 206.792 58.5658 206.792 57.2105V49.3553H210.603V62.9342H207.02V59.8421H206.445C206.137 61.7632 205.201 63.2368 202.527 63.2368Z" fill="white"/>
<path d="M217.356 59.6974V68.6579H213.545V49.3553H217.129V53.1842H217.73C217.73 50.9079 218.92 49.1316 222.116 49.1316C225.152 49.1316 228 51.25 228 56.1711C228 60.7895 225.379 63.2368 222.09 63.2368C217.971 63.2368 217.918 59.7105 217.918 59.7105H217.356V59.6974ZM220.726 59.9737C222.825 59.9737 224.095 58.5 224.095 56.2763C224.095 54.0789 222.772 52.6579 220.726 52.6579C218.76 52.6579 217.356 54.0658 217.356 56.2763C217.356 58.5132 218.76 59.9737 220.726 59.9737Z" fill="white"/>
<path d="M46.9178 19.6974C43.3772 19.6974 42.1107 17.3816 42.1107 14.4474V12.8158C42.1107 11.2632 43.1184 10.3158 45.1202 10.3158V9.75H40V5.97369H40.5039C41.7975 5.97369 42.2469 5.38158 42.2469 4.28947V2.55263H45.9918V5.97369H49.3145V9.75H45.9918V14.6184C45.9918 15.7632 46.7271 16.0921 47.8982 16.0921C48.7153 16.0921 49.3009 15.8421 49.3009 15.8421V19.3158C49.3009 19.3158 48.7153 19.6974 46.9178 19.6974Z" fill="white"/>
<path d="M55.5786 12.0132V19.5658H51.6976V0H55.5786V9.34211H56.1642C56.2731 7.32895 57.4851 5.69737 60.3584 5.69737C63.5041 5.69737 65.2744 7.68421 65.2744 11V19.5526H61.3933V12C61.3933 10.1579 60.4129 9.25 58.5881 9.25C56.9812 9.26316 55.5786 10.1842 55.5786 12.0132Z" fill="white"/>
<path d="M73.7445 20C68.7332 20 66.3774 17.0132 66.3774 12.6579C66.3774 8.55263 69.1009 5.61842 73.7718 5.61842C79.6818 5.61842 81.2206 9.28947 80.9755 13.2237H72.9683C71.3342 13.2237 70.5716 13.4474 70.5716 14.3158C70.5716 15.5395 71.7836 16.4868 73.7445 16.4868C76.223 16.4868 76.9175 15.3684 76.9175 14.5526H80.6895C80.8257 17.3026 78.7422 20 73.7445 20ZM72.9547 12.6316H76.8902C76.8902 10.5132 75.8825 9.26316 73.6628 9.26316C71.4976 9.26316 70.5716 10.4079 70.5716 11.4342C70.558 12.1711 71.13 12.6316 72.9547 12.6316Z" fill="white"/>
<path d="M146.079 44.8917C141.302 44.8917 139.028 41.3852 139.028 38.542H138.167V44.3772H133V17.584H144.047C153.48 17.584 157.948 23.1755 157.948 31.4206C157.948 37.7162 154.732 44.8917 146.079 44.8917ZM144.788 39.6793C149.403 39.6793 152.067 36.7684 152.067 31.7185C152.067 25.9645 148.892 23.1214 144.195 23.1214H138.557V32.612C138.557 38.3119 141.531 39.6793 144.788 39.6793Z" fill="#2EA5E9"/>
<path d="M170.785 45C163.814 45 160.518 40.6676 160.518 34.3585C160.518 28.4015 164.312 24.1503 170.825 24.1503C179.047 24.1503 181.2 29.4711 180.85 35.1844H169.681C167.407 35.1844 166.358 35.4958 166.358 36.7549C166.358 38.5285 168.04 39.9094 170.785 39.9094C174.229 39.9094 175.212 38.2983 175.212 37.1069H180.46C180.661 41.1008 177.755 45 170.785 45ZM169.695 34.3315H175.185C175.185 31.2582 173.772 29.444 170.677 29.444C167.663 29.444 166.371 31.0957 166.371 32.5985C166.358 33.6545 167.152 34.3315 169.695 34.3315Z" fill="#2EA5E9"/>
<path d="M189.623 16V44.3772H184.214V16H189.623Z" fill="#2EA5E9"/>
<path d="M202.514 44.5668C197.576 44.5668 195.813 41.2227 195.813 36.958V34.5887C195.813 32.3413 197.226 30.9603 199.998 30.9603V30.148H192.866V24.6648H193.566C195.369 24.6648 195.988 23.7983 195.988 22.2278V19.7096H201.195V24.6783H205.811V30.148H201.195V37.2017C201.195 38.8534 202.218 39.3273 203.86 39.3273C204.99 39.3273 205.824 38.9753 205.824 38.9753V44.0252C205.838 44.0252 205.017 44.5668 202.514 44.5668Z" fill="#2EA5E9"/>
<path d="M214.14 44.8105C210.346 44.8105 207.829 42.4818 207.829 39.4491C207.829 35.3469 212.055 34.4804 216.132 34.4804H216.872C218.944 34.4804 220.397 33.6545 220.397 31.9622C220.397 30.148 218.715 29.4034 216.872 29.4034C214.88 29.4034 213.185 30.4323 213.387 32.8287H208.179C207.627 27.5079 211.113 24.1639 216.953 24.1639C223.021 24.1639 226.035 26.7227 226.035 31.9216V38.9753C226.035 39.5303 226.345 39.7605 227.018 39.7605C227.61 39.7605 228 39.598 228 39.598V44.1741C228 44.1741 227.179 44.6074 225.605 44.6074C222.429 44.6074 221.178 42.9556 221.178 40.3156H220.317C219.899 42.9556 218.029 44.8105 214.14 44.8105ZM216.885 40.1125C219.24 40.1125 220.64 39.2866 220.64 37.6755C220.64 36.0644 219.146 35.2656 216.885 35.2656C214.692 35.2656 213.131 36.0509 213.131 37.6755C213.131 39.2866 214.692 40.1125 216.885 40.1125Z" fill="#2EA5E9"/>
</svg>
