<svg width="206" height="118" viewBox="0 0 206 118" fill="none" xmlns="http://www.w3.org/2000/svg">
<path d="M128.201 76.4618H142.043C150.111 76.4618 155.588 82.0872 155.588 89.4892C155.588 96.9651 150.185 102.517 142.043 102.517H135.159V117.172H128.201V76.4618ZM148.482 89.4892C148.482 85.6402 145.966 83.0495 141.229 83.0495H135.233V95.8548H141.229C145.966 95.9288 148.482 93.3382 148.482 89.4892Z" fill="#162E46"/>
<path d="M183.716 99.2597V117.246H177.276V113.768C176.166 115.1 174.833 116.21 173.205 116.95C171.65 117.691 169.874 118.061 168.172 117.987C162.99 117.987 158.253 114.582 158.253 108.734C158.253 103.405 163.138 99.5558 169.06 99.5558C174.093 99.5558 176.758 101.48 176.758 101.48V99.9259C176.758 96.299 173.279 95.1147 170.836 95.1147C167.949 95.2627 165.137 95.9289 162.546 97.1872L160.251 91.4137C163.656 89.8593 167.357 88.9711 171.132 88.8971C179.052 88.8971 183.716 92.9681 183.716 99.2597ZM176.758 108.956V106.07C174.833 105.107 172.613 104.663 170.466 104.663C168.32 104.663 165.359 105.625 165.359 108.512C165.359 111.399 168.246 112.065 170.392 112.065C171.65 112.065 172.835 111.769 173.945 111.177C174.981 110.659 175.944 109.919 176.758 108.956Z" fill="#162E46"/>
<path d="M190.525 73.7971H197.409V116.728H190.525V73.7971Z" fill="#162E46"/>
<path d="M31.6802 59.0673L36.3434 63.6565C34.4189 65.8771 31.9763 67.6535 29.2376 68.8378C26.4989 70.0221 23.6121 70.6143 20.6514 70.6143C8.88231 70.6143 0 61.5839 0 49.5188C0 37.4537 8.88231 28.4233 20.6514 28.4233C23.4641 28.4233 26.2768 28.9415 28.8675 30.0518C31.4582 31.162 33.8268 32.7905 35.7513 34.863L31.0881 39.4522C29.7557 38.0458 28.1273 36.8615 26.3508 36.1213C24.5744 35.3812 22.6499 34.937 20.6514 34.937C12.5833 34.937 7.03182 41.5988 7.03182 49.5188C7.03182 57.3648 12.5833 64.1006 20.6514 64.1006C22.7239 64.1006 24.7964 63.6565 26.7209 62.7683C28.6454 61.88 30.3479 60.6217 31.6802 59.0673Z" fill="white"/>
<path d="M67.6535 56.1066C67.7276 58.9933 66.8393 61.8801 65.2849 64.3227C63.7305 66.7653 61.4359 68.6898 58.6972 69.8741C56.0325 71.0584 53.0718 71.3545 50.185 70.8364C47.2983 70.3182 44.6336 68.9119 42.561 66.8393C40.4885 64.7668 39.0821 62.1761 38.49 59.2894C37.8978 56.4026 38.1939 53.4419 39.3042 50.7772C40.4145 48.0385 42.265 45.7439 44.7076 44.1154C47.1502 42.487 49.963 41.5988 52.9237 41.5988C54.8482 41.5988 56.7727 41.8949 58.5492 42.6351C60.3257 43.3753 61.9541 44.4115 63.3604 45.7439C64.7668 47.0762 65.8031 48.7046 66.5433 50.4811C67.2835 52.2576 67.6535 54.1821 67.6535 56.1066ZM60.5477 56.1066C60.5477 51.8134 57.661 48.1125 52.9237 48.1125C48.1865 48.1125 45.2998 51.8134 45.2998 56.1066C45.2998 60.3997 48.1865 64.1006 52.9237 64.1006C57.5869 64.0266 60.5477 60.3997 60.5477 56.1066Z" fill="white"/>
<path d="M96.8171 51.9615V69.8742H89.8593V53.738C89.8593 49.7409 87.4167 48.1125 84.3819 48.1125C80.755 48.1125 78.9045 51.6654 78.9045 51.6654V69.8742H71.8727V42.265H78.3863V46.262C79.2005 44.8557 80.4589 43.5973 81.8652 42.7831C83.2716 41.9689 84.974 41.5248 86.6025 41.5248C92.0059 41.5988 96.8171 45.3738 96.8171 51.9615Z" fill="white"/>
<path d="M100.74 42.265H106.144V34.0489H113.101V42.265H121.466V48.4826H113.101V59.6595C113.101 63.0644 114.878 64.0266 116.728 64.0266C117.765 63.9526 118.801 63.6566 119.615 63.0644L122.206 68.7639C120.207 69.9482 117.913 70.6144 115.544 70.5403C110.215 70.5403 106.144 66.6913 106.144 60.7698V48.4826H100.74V42.265Z" fill="white"/>
<path d="M152.183 55.9585C152.183 56.4767 152.183 57.5129 152.109 58.5492H131.458C131.976 60.1776 133.013 61.658 134.419 62.6943C135.825 63.7306 137.528 64.2487 139.23 64.1747C142.043 64.2487 144.708 63.2124 146.78 61.3619L150.259 66.6173C147.15 69.134 143.227 70.5403 139.23 70.5403C137.306 70.6143 135.381 70.2442 133.605 69.5041C131.828 68.7639 130.2 67.7276 128.793 66.3953C127.387 65.0629 126.277 63.4345 125.537 61.658C124.796 59.8816 124.426 57.9571 124.426 56.0326C124.426 47.9645 130.274 41.5248 138.268 41.5248C145.818 41.5988 152.183 47.4463 152.183 55.9585ZM145.226 53.5159C145.078 51.1473 142.931 47.8904 138.268 47.8904C133.679 47.8904 131.754 50.9993 131.458 53.5159H145.226Z" fill="white"/>
<path d="M181.347 51.9615V69.8742H174.389V53.738C174.389 49.7409 171.947 48.1125 168.912 48.1125C165.285 48.1125 163.434 51.6654 163.434 51.6654V69.8742H156.477V42.265H162.99V46.262C163.805 44.8557 165.063 43.5973 166.469 42.7831C167.95 41.9689 169.578 41.5248 171.206 41.5248C176.61 41.5988 181.347 45.3738 181.347 51.9615Z" fill="white"/>
<path d="M185.122 42.265H190.525V34.0489H197.409V42.265H205.847V48.4826H197.409V70.3183H190.525V48.4826H185.122V42.265Z" fill="white"/>
<path d="M44.2633 0L53.1456 13.6936L62.0279 0H66.3211V27.165H61.6578V8.88231L53.1456 21.8357L44.6334 8.88231V27.165H39.9702V0H44.2633Z" fill="white"/>
<path d="M71.5764 31.014C72.2426 31.6802 73.1308 32.0503 74.0191 32.1983C75.6475 32.1983 76.2396 31.7542 77.1279 29.4596L77.868 27.5351L68.9117 8.66021H74.0931L80.3107 22.1317L85.196 8.66021H90.2293L81.2729 31.162C79.6445 35.2331 77.0538 36.4174 74.3891 36.4174C72.5387 36.3434 70.8362 35.6772 69.4299 34.4929L71.5764 31.014Z" fill="white"/>
</svg>
