<svg width="190" height="149" viewBox="0 0 190 149" fill="none" xmlns="http://www.w3.org/2000/svg">
<path d="M3.34217 148.395C2.1844 148.071 1.1023 147.521 0.158203 146.778L1.36593 144.036C2.19454 144.675 3.12155 145.175 4.11073 145.516C5.18706 145.893 6.31885 146.088 7.45938 146.092C8.53678 146.154 9.6103 145.917 10.561 145.407C10.8733 145.233 11.1326 144.978 11.3115 144.669C11.4903 144.36 11.5819 144.009 11.5766 143.652C11.5807 143.404 11.5313 143.158 11.4318 142.931C11.3324 142.704 11.1852 142.501 11.0002 142.336C10.5747 141.975 10.0796 141.704 9.54544 141.541C8.95988 141.358 8.1639 141.139 7.15747 140.883C5.9971 140.604 4.8519 140.265 3.72646 139.868C2.84805 139.533 2.06569 138.987 1.44827 138.278C0.785285 137.46 0.452432 136.423 0.515021 135.372C0.518729 134.398 0.804732 133.446 1.33847 132.63C1.97991 131.733 2.86592 131.038 3.89114 130.629C5.19769 130.101 6.59951 129.849 8.00836 129.889C9.13726 129.888 10.262 130.026 11.357 130.3C12.3366 130.549 13.2653 130.967 14.1018 131.534L13.0039 134.275C12.2041 133.808 11.3457 133.448 10.4512 133.206C9.61304 132.96 8.74476 132.831 7.87111 132.822C6.81137 132.762 5.75591 132.999 4.82437 133.508C4.51641 133.704 4.26393 133.976 4.09097 134.298C3.918 134.619 3.8303 134.98 3.83624 135.345C3.82841 135.593 3.87608 135.84 3.97579 136.068C4.0755 136.295 4.22475 136.498 4.41266 136.661C4.83814 137.022 5.33322 137.293 5.86741 137.456C6.45297 137.639 7.24895 137.858 8.25538 138.114C9.40827 138.376 10.5448 138.705 11.659 139.101C12.5323 139.446 13.3125 139.99 13.9371 140.691C14.5642 141.465 14.895 142.437 14.8704 143.433C14.8747 144.408 14.5881 145.362 14.0469 146.174C13.4055 147.072 12.5195 147.767 11.4943 148.176C10.1779 148.703 8.76729 148.955 7.34961 148.916C5.99578 148.934 4.64633 148.758 3.34217 148.395Z" fill="white"/>
<path d="M31.9156 145.955V148.697H17.9446V130.135H31.6686V133.042H21.403V137.867H30.3785V140.609H21.403V145.955H31.9156Z" fill="white"/>
<path d="M38.7228 147.765C37.2269 146.981 35.9811 145.793 35.1271 144.337C34.2414 142.855 33.7853 141.156 33.8096 139.43C33.7861 137.712 34.2423 136.022 35.1271 134.55C35.9728 133.087 37.2207 131.898 38.7228 131.122C40.3008 130.282 42.0674 129.857 43.8555 129.889C45.6429 129.864 47.4078 130.289 48.9883 131.122C50.4696 131.904 51.7048 133.081 52.5566 134.522C53.4188 136.019 53.8725 137.716 53.8725 139.443C53.8725 141.171 53.4188 142.868 52.5566 144.365C51.7048 145.806 50.4696 146.983 48.9883 147.765C47.4078 148.598 45.6429 149.023 43.8555 148.998C42.0674 149.03 40.3008 148.605 38.7228 147.765ZM47.2042 145.023C48.18 144.473 48.9867 143.667 49.5373 142.692C50.1161 141.664 50.4098 140.5 50.3882 139.32C50.4102 138.149 50.1163 136.994 49.5373 135.975C48.9948 134.994 48.1861 134.187 47.2042 133.645C46.1711 133.088 45.0157 132.797 43.8418 132.797C42.668 132.797 41.5125 133.088 40.4794 133.645C39.4976 134.187 38.6888 134.994 38.1463 135.975C37.5673 136.994 37.2734 138.149 37.2955 139.32C37.2739 140.5 37.5676 141.664 38.1463 142.692C38.6969 143.667 39.5037 144.473 40.4794 145.023C41.5125 145.58 42.668 145.871 43.8418 145.871C45.0157 145.871 46.1711 145.58 47.2042 145.023Z" fill="white"/>
<path d="M67.2688 133.042V138.69H76.2718V141.623H67.2688V148.697H63.8103V130.135H77.3971V133.042H67.2688Z" fill="white"/>
<path d="M83.5729 147.765C82.0879 146.966 80.8458 145.782 79.9772 144.337C79.1129 142.847 78.6672 141.152 78.6872 139.43C78.6667 137.716 79.1126 136.03 79.9772 134.55C80.8382 133.099 82.0822 131.913 83.5729 131.122C85.1621 130.311 86.9212 129.889 88.7057 129.889C90.4903 129.889 92.2494 130.311 93.8385 131.122C95.3274 131.904 96.5716 133.08 97.4342 134.522C98.2807 136.025 98.7253 137.719 98.7253 139.443C98.7253 141.167 98.2807 142.862 97.4342 144.365C96.5716 145.807 95.3274 146.983 93.8385 147.765C92.2494 148.576 90.4903 148.998 88.7057 148.998C86.9212 148.998 85.1621 148.576 83.5729 147.765ZM92.0544 145.023C93.0363 144.481 93.845 143.673 94.3875 142.692C94.9662 141.664 95.26 140.5 95.2384 139.32C95.2604 138.149 94.9665 136.994 94.3875 135.975C93.8525 134.989 93.0419 134.179 92.0544 133.645C91.0262 133.088 89.8752 132.797 88.7057 132.797C87.5362 132.797 86.3852 133.088 85.3571 133.645C84.3696 134.179 83.559 134.989 83.024 135.975C82.445 136.994 82.151 138.149 82.1731 139.32C82.1515 140.5 82.4452 141.664 83.024 142.692C83.5665 143.673 84.3752 144.481 85.3571 145.023C86.3852 145.58 87.5362 145.871 88.7057 145.871C89.8752 145.871 91.0262 145.58 92.0544 145.023Z" fill="white"/>
<path d="M114.068 148.697L110.252 143.213H105.339V148.697H101.881V130.135H109.539C110.979 130.105 112.409 130.376 113.738 130.931C114.859 131.413 115.814 132.214 116.483 133.234C117.139 134.295 117.473 135.523 117.444 136.77C117.473 138.046 117.109 139.3 116.401 140.362C115.686 141.41 114.658 142.206 113.464 142.638L117.773 148.697H114.068ZM112.805 133.974C111.812 133.257 110.596 132.917 109.374 133.014H105.339V140.472H109.374C110.594 140.555 111.806 140.216 112.805 139.512C113.196 139.174 113.505 138.751 113.71 138.276C113.914 137.801 114.008 137.287 113.985 136.77C114.015 136.253 113.923 135.736 113.718 135.261C113.514 134.785 113.201 134.363 112.805 134.029V133.974Z" fill="white"/>
<path d="M144.123 130.135V148.697H140.665V140.773H131.058V148.697H127.6V130.135H131.058V137.73H140.665V130.053L144.123 130.135Z" fill="white"/>
<path d="M148.597 130.135H152.056V148.697H148.597V130.135Z" fill="white"/>
<path d="M168.744 148.697L164.929 143.213H160.016V148.697H156.557V130.135H164.215C165.664 130.108 167.103 130.379 168.442 130.931C169.566 131.409 170.522 132.211 171.187 133.234C171.843 134.295 172.177 135.523 172.148 136.77C172.177 138.046 171.813 139.3 171.105 140.362C170.397 141.417 169.367 142.215 168.168 142.638L172.45 148.697H168.744ZM167.482 133.974C166.488 133.257 165.272 132.917 164.051 133.014H160.016V140.472H164.051C165.271 140.555 166.482 140.216 167.482 139.512C167.878 139.178 168.19 138.756 168.395 138.28C168.6 137.804 168.691 137.287 168.662 136.77C168.698 136.253 168.609 135.734 168.404 135.257C168.199 134.78 167.883 134.359 167.482 134.029V133.974Z" fill="white"/>
<path d="M189.44 145.955V148.697H175.469V130.135H189.056V133.042H178.928V137.867H187.903V140.609H178.928V145.955H189.44Z" fill="white"/>
<path d="M95.024 103.537C79.6256 103.838 65.682 94.0779 58.7651 79.876C57.3652 76.9698 54.8949 72.7476 56.9535 70.1156C60.4074 65.5961 65.3624 62.4558 70.9273 61.2597C76.4922 60.0635 82.3017 60.89 87.3111 63.5904C86.3229 56.0781 81.1627 46.1258 90.0559 41.3278C90.6049 40.8892 90.5774 40.5327 90.0559 40.2037C87.213 38.7075 84.4632 37.0412 81.8215 35.2139C81.6167 35.0262 81.4814 34.775 81.4372 34.501C80.5588 28.1403 92.7183 25.2341 97.7139 26.0566C109.764 28.579 95.5729 36.2009 98.4001 39.1893C101.31 40.4231 114.018 45.4129 111.273 49.4981C111.032 49.8639 110.707 50.1668 110.325 50.3815C109.943 50.5961 109.515 50.7162 109.077 50.7318C105.07 51.1157 100.568 50.1561 97.7139 53.8848C97.5808 54.0645 97.3982 54.2016 97.1884 54.2794C96.9785 54.3572 96.7506 54.3724 96.5323 54.3229C96.314 54.2735 96.1148 54.1617 95.9591 54.0011C95.8034 53.8406 95.6978 53.6382 95.6553 53.4187C95.2161 51.0334 98.5648 48.4288 100.678 47.7434C101.337 47.2773 104.054 47.2499 103.094 46.0984C102.248 44.9422 101.084 44.0569 99.7429 43.5505C98.4021 43.0441 96.9426 42.9385 95.5427 43.2467C94.1428 43.5548 92.863 44.2634 91.8594 45.2858C90.8559 46.3083 90.172 47.6004 89.8912 49.0046C89.7265 49.5927 89.6707 50.2059 89.7265 50.8141C90.6323 59.3956 94.1457 67.648 95.2161 76.1473C95.8474 78.3406 92.9654 79.7663 92.0871 77.4359C89.3422 64.6322 71.8304 60.0261 62.9646 69.6495C62.2179 70.1285 61.6461 70.8358 61.3345 71.6658C61.0229 72.4958 60.9882 73.4042 61.2354 74.2555C65.1879 86.0722 80.8882 103.537 92.2792 89.938C92.4334 89.7439 92.6295 89.5871 92.8529 89.4793C93.0763 89.3715 93.3212 89.3155 93.5692 89.3155C93.8173 89.3155 94.0622 89.3715 94.2856 89.4793C94.509 89.5871 94.7051 89.7439 94.8593 89.938C95.9023 93.3925 91.2362 95.9971 88.9305 97.8341C98.4276 100.576 115.857 98.0534 111.328 84.4272C107.897 75.3796 98.2354 69.9785 95.1612 60.7938C95.0377 60.3638 95.0377 59.9078 95.1612 59.4778C96.5885 54.4879 101.337 65.3724 103.149 66.4965C103.244 66.6115 103.363 66.7041 103.499 66.7676C103.634 66.8311 103.781 66.864 103.931 66.864C104.08 66.864 104.228 66.8311 104.363 66.7676C104.498 66.7041 104.618 66.6115 104.713 66.4965C112.371 58.6279 124.393 58.9295 133.232 64.7144C136.196 66.2498 132.655 70.6091 130.487 68.1141C128.417 66.3791 125.964 65.159 123.33 64.5538C120.697 63.9485 117.957 63.9754 115.336 64.6322C95.1063 72.2541 118.959 72.5557 115.336 92.4055C121.019 88.9908 125.565 83.9733 128.401 77.9842C128.84 77.1343 129.746 75.8183 130.844 76.3666C134.055 78.1761 129.828 83.0838 128.373 85.6061C124.704 91.087 119.733 95.5752 113.904 98.6704C108.075 101.766 101.57 103.372 94.9691 103.345L95.024 103.537ZM95.024 29.7305C93.0203 29.7305 85.1152 31.211 86.4327 33.5414C88.3733 34.8464 90.3999 36.0189 92.4988 37.0508C94.6946 37.8185 96.9179 32.4173 97.5218 31.1013C98.1256 29.7853 96.2043 29.5934 94.9691 29.7305H95.024Z" fill="white"/>
<path d="M95.1338 0.723389C96.2519 0.830275 97.3034 1.30247 98.1256 2.06682C100.514 4.23276 102.874 6.45352 105.235 8.67429C107.595 10.8951 109.352 12.7046 111.356 14.7883C113.359 16.8719 114.924 18.7089 116.626 20.7103C118.327 22.7117 119.755 24.5213 121.209 26.5227C122.664 28.5241 123.954 30.3336 125.189 32.3077C126.068 33.7059 126.919 35.0493 127.687 36.6121C128.456 38.1749 128.867 39.1893 129.444 40.4779C129.444 40.6424 129.444 40.8343 129.663 40.9988C129.826 41.3162 129.909 41.6683 129.904 42.0247C129.9 42.3811 129.808 42.731 129.638 43.0443C129.468 43.3575 129.224 43.6245 128.927 43.8223C128.63 44.02 128.289 44.1425 127.934 44.1792C127.458 44.1412 126.999 43.9796 126.605 43.7103C126.21 43.441 125.892 43.0734 125.684 42.6438C124.805 40.944 123.899 39.2441 122.939 37.5717C121.978 35.8993 120.962 33.9801 119.81 32.4173C118.108 29.9498 116.278 27.5371 114.32 25.1793C112.865 23.2875 111.301 21.478 109.681 19.6959C107.376 17.201 104.988 14.7883 102.545 12.4304C100.102 10.0726 98.1256 8.42754 96.0121 6.39869C95.4357 5.87776 95.024 5.85035 94.475 6.39869C90.9501 9.35948 87.5874 12.5079 84.4016 15.8301C81.6568 18.5718 79.2688 21.3135 76.7985 24.2197C75.2888 26.0018 73.8615 27.8935 72.5166 29.7031C70.9246 32.0061 69.3875 34.3365 67.9327 36.7218C66.7799 38.6135 65.8467 40.615 64.7762 42.5342C64.5522 43.108 64.1214 43.5774 63.5685 43.8502C63.1848 44.0025 62.7649 44.0393 62.3605 43.956C61.9562 43.8726 61.5851 43.6728 61.2932 43.3812C61.0012 43.0896 60.8012 42.719 60.7178 42.3151C60.6343 41.9112 60.6711 41.4917 60.8237 41.1085C61.6746 39.2441 62.4431 37.3249 63.4312 35.6251C64.4194 33.9253 65.4898 32.1432 66.6152 30.4433C67.7406 28.7435 68.6464 27.4275 69.7443 26.0018C70.8422 24.5761 72.3519 22.6021 73.7243 20.9845C75.0967 19.3669 76.4965 17.53 78.0336 15.8849C80.0648 13.719 82.1783 11.6353 84.2643 9.57905C86.3504 7.52278 88.4364 5.54877 90.5499 3.57475C91.4039 2.77055 92.3218 2.03702 93.2948 1.3814C93.8782 1.08696 94.4959 0.865934 95.1338 0.723389Z" fill="white"/>
</svg>
