<svg width="134" height="267" viewBox="0 0 134 267" fill="none" xmlns="http://www.w3.org/2000/svg">
<path d="M49.6872 259.562L53.9638 253.344C63.7841 239.228 73.9573 224.584 74.212 208.946C74.3775 208.219 74.7895 207.572 75.378 207.114C75.9665 206.655 76.6952 206.414 77.4403 206.432C78.1854 206.449 78.9009 206.723 79.4652 207.209C80.0294 207.694 80.4077 208.359 80.5356 209.092C80.2677 224.167 72.3693 237.636 63.6338 250.569C130.023 206.237 143.869 147.218 106.067 70.2752C95.4929 48.7691 83.5268 35.9217 72.5728 33.7163C76.2835 39.8185 78.4612 46.7294 78.9205 53.8609C80.2259 72.3223 71.6828 85.4379 62.6686 87.378C59.2868 88.073 50.4656 88.3278 44.9384 73.4574C38.5791 56.3698 45.8971 35.1105 60.343 28.7745C43.6957 12.6427 14.7566 8.11444 3.73276 6.9445C2.87837 6.84409 2.09975 6.40868 1.56818 5.73406C1.03661 5.05943 0.795632 4.20086 0.898262 3.34722C0.949077 2.92454 1.08272 2.51579 1.29156 2.14431C1.50041 1.77282 1.78036 1.44589 2.11543 1.18216C2.79214 0.649551 3.65231 0.40674 4.5067 0.507155C16.824 1.84831 49.9868 7.13009 67.6448 26.967C77.9544 26.2262 94.5184 32.1564 111.91 67.3721C150.827 146.314 137.417 207.23 70.9762 253.348C84.4856 249.093 98.4866 246.698 112.786 249.718C113.494 250.002 114.078 250.527 114.434 251.201C114.79 251.875 114.895 252.654 114.729 253.399C114.564 254.144 114.14 254.808 113.532 255.271C112.924 255.734 112.171 255.967 111.409 255.928C92.4338 251.983 73.0629 258.811 54.9525 266.059C54.0825 266.407 53.1249 266.467 52.2195 266.232C51.3141 265.997 50.5084 265.479 49.9201 264.753C49.3319 264.027 48.992 263.132 48.9501 262.198C48.9082 261.264 49.1665 260.34 49.6872 259.562ZM64.9646 33.774C64.3093 33.9712 63.6645 34.2018 63.0327 34.4649C51.664 39.3841 45.836 57.1447 51.0025 71.0239C53.6655 78.1798 57.4352 81.7751 61.3222 80.9123C66.7294 79.7339 73.6473 69.7832 72.4967 54.1589C72.0394 46.7692 69.4205 39.6812 64.9646 33.774Z" fill="#8F0077"/>
</svg>
