<svg width="684" height="131" viewBox="0 0 684 131" fill="none" xmlns="http://www.w3.org/2000/svg">
<path d="M15.9 34.53L0.95 2.095H7.775L19.28 27.9L30.85 2.095H37.415L22.465 34.53V50H15.9V34.53ZM53.5208 50.39C49.8374 50.39 46.8908 49.87 44.6808 48.83C42.4708 47.79 40.8241 45.9917 39.7408 43.435C38.7008 40.835 38.1808 37.2167 38.1808 32.58C38.1808 27.8133 38.7224 24.1517 39.8058 21.595C40.8891 18.995 42.5141 17.2183 44.6808 16.265C46.8908 15.2683 49.8374 14.77 53.5208 14.77C57.2041 14.77 60.1291 15.2683 62.2958 16.265C64.5058 17.2617 66.1524 19.06 67.2358 21.66C68.3191 24.2167 68.8608 27.8567 68.8608 32.58C68.8608 37.26 68.3191 40.9 67.2358 43.5C66.1958 46.0567 64.5708 47.855 62.3608 48.895C60.1941 49.8917 57.2474 50.39 53.5208 50.39ZM53.5208 45.06C55.6874 45.06 57.3774 44.7783 58.5908 44.215C59.8474 43.6083 60.7791 42.4167 61.3858 40.64C62.0358 38.82 62.3608 36.1117 62.3608 32.515C62.3608 28.9183 62.0358 26.2317 61.3858 24.455C60.7791 22.635 59.8474 21.4433 58.5908 20.88C57.3774 20.3167 55.6874 20.035 53.5208 20.035C51.3108 20.035 49.5991 20.3167 48.3858 20.88C47.2158 21.4433 46.3058 22.635 45.6558 24.455C45.0491 26.2317 44.7458 28.9183 44.7458 32.515C44.7458 36.155 45.0491 38.885 45.6558 40.705C46.3058 42.4817 47.2158 43.6517 48.3858 44.215C49.5991 44.7783 51.3108 45.06 53.5208 45.06ZM87.007 50.39C83.6703 50.39 81.1136 49.5017 79.337 47.725C77.6036 45.9483 76.737 43.2833 76.737 39.73V15.225H83.237V37.975C83.237 40.445 83.8003 42.1783 84.927 43.175C86.0536 44.1283 87.7653 44.605 90.062 44.605C93.2686 44.605 96.4753 43.5867 99.682 41.55V15.225H106.182V50H100.982L99.682 46.23C95.3486 49.0033 91.1236 50.39 87.007 50.39ZM115.142 15.225H120.147L121.642 21.075C123.288 19.0817 125.022 17.5433 126.842 16.46C128.662 15.3333 130.698 14.77 132.952 14.77C134.122 14.77 135.162 14.9 136.072 15.16V21.855C134.685 21.6383 133.385 21.53 132.172 21.53C130.048 21.53 128.185 21.92 126.582 22.7C124.978 23.4367 123.332 24.6283 121.642 26.275V50H115.142V15.225ZM173.682 50.39C169.999 50.39 167.052 49.87 164.842 48.83C162.632 47.79 160.985 45.9917 159.902 43.435C158.862 40.835 158.342 37.2167 158.342 32.58C158.342 27.8133 158.884 24.1517 159.967 21.595C161.05 18.995 162.675 17.2183 164.842 16.265C167.052 15.2683 169.999 14.77 173.682 14.77C177.365 14.77 180.29 15.2683 182.457 16.265C184.667 17.2617 186.314 19.06 187.397 21.66C188.48 24.2167 189.022 27.8567 189.022 32.58C189.022 37.26 188.48 40.9 187.397 43.5C186.357 46.0567 184.732 47.855 182.522 48.895C180.355 49.8917 177.409 50.39 173.682 50.39ZM173.682 45.06C175.849 45.06 177.539 44.7783 178.752 44.215C180.009 43.6083 180.94 42.4167 181.547 40.64C182.197 38.82 182.522 36.1117 182.522 32.515C182.522 28.9183 182.197 26.2317 181.547 24.455C180.94 22.635 180.009 21.4433 178.752 20.88C177.539 20.3167 175.849 20.035 173.682 20.035C171.472 20.035 169.76 20.3167 168.547 20.88C167.377 21.4433 166.467 22.635 165.817 24.455C165.21 26.2317 164.907 28.9183 164.907 32.515C164.907 36.155 165.21 38.885 165.817 40.705C166.467 42.4817 167.377 43.6517 168.547 44.215C169.76 44.7783 171.472 45.06 173.682 45.06ZM196.963 15.225H202.163L203.463 18.995C205.153 17.7383 207.06 16.6983 209.183 15.875C211.35 15.0517 213.516 14.64 215.683 14.64C219.366 14.64 222.075 15.7667 223.808 18.02C225.541 20.23 226.408 23.09 226.408 26.6V50H219.908V27.38C219.908 25.3 219.323 23.6533 218.153 22.44C216.983 21.1833 215.38 20.555 213.343 20.555C211.523 20.555 209.855 20.815 208.338 21.335C206.865 21.855 205.24 22.635 203.463 23.675V50H196.963V15.225ZM249.018 50.39C245.248 50.39 242.28 49.8483 240.113 48.765C237.99 47.6817 236.451 45.8617 235.498 43.305C234.588 40.7483 234.133 37.1733 234.133 32.58C234.133 27.9 234.588 24.2817 235.498 21.725C236.451 19.1683 237.99 17.37 240.113 16.33C242.236 15.29 245.183 14.77 248.953 14.77C252.246 14.77 254.868 15.1167 256.818 15.81C258.768 16.5033 260.198 17.695 261.108 19.385C262.018 21.075 262.473 23.415 262.473 26.405C262.473 29.4817 261.585 31.7133 259.808 33.1C258.031 34.4433 255.475 35.115 252.138 35.115H240.633C240.676 37.7583 240.958 39.8167 241.478 41.29C242.041 42.72 243.038 43.76 244.468 44.41C245.898 45.06 247.956 45.385 250.643 45.385H261.498V49.285C259.115 49.6317 257.013 49.8917 255.193 50.065C253.373 50.2817 251.315 50.39 249.018 50.39ZM251.553 31.02C253.33 31.02 254.608 30.695 255.388 30.045C256.211 29.3517 256.623 28.16 256.623 26.47C256.623 23.87 256.038 22.0717 254.868 21.075C253.741 20.0783 251.77 19.58 248.953 19.58C246.743 19.58 245.031 19.905 243.818 20.555C242.648 21.205 241.803 22.3533 241.283 24C240.806 25.6033 240.568 27.9433 240.568 31.02H251.553ZM299.89 50.39C297.723 50.39 295.231 50.2817 292.415 50.065C289.641 49.8917 287.67 49.6317 286.5 49.285V45.385H301.125C303.205 45.385 304.743 45.1033 305.74 44.54C306.736 43.9333 307.235 42.7417 307.235 40.965V39.535C307.235 36.7617 305.371 35.375 301.645 35.375H296.575C293.238 35.375 290.66 34.7033 288.84 33.36C287.02 31.9733 286.11 29.6983 286.11 26.535V24.65C286.11 21.3133 287.085 18.865 289.035 17.305C291.028 15.7017 294.3 14.9 298.85 14.9C300.756 14.9 302.988 15.03 305.545 15.29C308.101 15.5067 310.073 15.7667 311.46 16.07V19.97H297.68C295.643 19.97 294.148 20.3167 293.195 21.01C292.241 21.7033 291.765 22.9167 291.765 24.65V25.95C291.765 27.5967 292.22 28.68 293.13 29.2C294.083 29.72 295.6 29.98 297.68 29.98H302.88C306.13 29.98 308.6 30.7383 310.29 32.255C312.023 33.7717 312.89 35.9383 312.89 38.755V41.42C312.89 44.7567 311.785 47.0967 309.575 48.44C307.408 49.74 304.18 50.39 299.89 50.39ZM332.323 50C328.726 50 326.105 49.1117 324.458 47.335C322.811 45.5583 322.031 42.59 322.118 38.43L322.378 20.555H316.853V16.33L322.508 15.225L323.483 5.475H328.618V15.225H338.043V20.555H328.618V38.365C328.618 40.705 329.051 42.33 329.918 43.24C330.828 44.15 331.955 44.67 333.298 44.8L337.588 45.19V50H332.323ZM358.78 50.39C355.096 50.39 352.15 49.87 349.94 48.83C347.73 47.79 346.083 45.9917 345 43.435C343.96 40.835 343.44 37.2167 343.44 32.58C343.44 27.8133 343.981 24.1517 345.065 21.595C346.148 18.995 347.773 17.2183 349.94 16.265C352.15 15.2683 355.096 14.77 358.78 14.77C362.463 14.77 365.388 15.2683 367.555 16.265C369.765 17.2617 371.411 19.06 372.495 21.66C373.578 24.2167 374.12 27.8567 374.12 32.58C374.12 37.26 373.578 40.9 372.495 43.5C371.455 46.0567 369.83 47.855 367.62 48.895C365.453 49.8917 362.506 50.39 358.78 50.39ZM358.78 45.06C360.946 45.06 362.636 44.7783 363.85 44.215C365.106 43.6083 366.038 42.4167 366.645 40.64C367.295 38.82 367.62 36.1117 367.62 32.515C367.62 28.9183 367.295 26.2317 366.645 24.455C366.038 22.635 365.106 21.4433 363.85 20.88C362.636 20.3167 360.946 20.035 358.78 20.035C356.57 20.035 354.858 20.3167 353.645 20.88C352.475 21.4433 351.565 22.635 350.915 24.455C350.308 26.2317 350.005 28.9183 350.005 32.515C350.005 36.155 350.308 38.885 350.915 40.705C351.565 42.4817 352.475 43.6517 353.645 44.215C354.858 44.7783 356.57 45.06 358.78 45.06ZM382.061 15.225H387.391L388.561 18.735C389.991 17.695 391.681 16.785 393.631 16.005C395.581 15.1817 397.509 14.77 399.416 14.77C403.662 14.77 406.782 16.395 408.776 19.645C410.812 22.895 411.831 27.2067 411.831 32.58C411.831 38.5167 410.834 42.98 408.841 45.97C406.891 48.96 403.749 50.455 399.416 50.455C397.639 50.455 395.776 50.195 393.826 49.675C391.919 49.1117 390.164 48.375 388.561 47.465V65.405H382.061V15.225ZM397.466 44.995C402.709 44.995 405.331 40.8567 405.331 32.58C405.331 28.29 404.594 25.1483 403.121 23.155C401.691 21.1183 399.827 20.1 397.531 20.1C394.757 20.1 391.767 20.9667 388.561 22.7V42.525C389.904 43.305 391.334 43.9117 392.851 44.345C394.411 44.7783 395.949 44.995 397.466 44.995ZM449.25 50.39C447.083 50.39 444.592 50.2817 441.775 50.065C439.002 49.8917 437.03 49.6317 435.86 49.285V45.385H450.485C452.565 45.385 454.103 45.1033 455.1 44.54C456.097 43.9333 456.595 42.7417 456.595 40.965V39.535C456.595 36.7617 454.732 35.375 451.005 35.375H445.935C442.598 35.375 440.02 34.7033 438.2 33.36C436.38 31.9733 435.47 29.6983 435.47 26.535V24.65C435.47 21.3133 436.445 18.865 438.395 17.305C440.388 15.7017 443.66 14.9 448.21 14.9C450.117 14.9 452.348 15.03 454.905 15.29C457.462 15.5067 459.433 15.7667 460.82 16.07V19.97H447.04C445.003 19.97 443.508 20.3167 442.555 21.01C441.602 21.7033 441.125 22.9167 441.125 24.65V25.95C441.125 27.5967 441.58 28.68 442.49 29.2C443.443 29.72 444.96 29.98 447.04 29.98H452.24C455.49 29.98 457.96 30.7383 459.65 32.255C461.383 33.7717 462.25 35.9383 462.25 38.755V41.42C462.25 44.7567 461.145 47.0967 458.935 48.44C456.768 49.74 453.54 50.39 449.25 50.39ZM469.658 0.404999H476.158V18.995C477.805 17.7817 479.712 16.7633 481.878 15.94C484.045 15.0733 486.212 14.64 488.378 14.64C491.975 14.64 494.662 15.745 496.438 17.955C498.215 20.1217 499.103 22.9817 499.103 26.535V50H492.603V27.315C492.603 25.2783 491.997 23.6533 490.783 22.44C489.613 21.1833 488.032 20.555 486.038 20.555C484.218 20.555 482.55 20.815 481.033 21.335C479.56 21.855 477.935 22.635 476.158 23.675V50H469.658V0.404999ZM522.168 50.39C518.485 50.39 515.538 49.87 513.328 48.83C511.118 47.79 509.472 45.9917 508.388 43.435C507.348 40.835 506.828 37.2167 506.828 32.58C506.828 27.8133 507.37 24.1517 508.453 21.595C509.537 18.995 511.162 17.2183 513.328 16.265C515.538 15.2683 518.485 14.77 522.168 14.77C525.852 14.77 528.777 15.2683 530.943 16.265C533.153 17.2617 534.8 19.06 535.883 21.66C536.967 24.2167 537.508 27.8567 537.508 32.58C537.508 37.26 536.967 40.9 535.883 43.5C534.843 46.0567 533.218 47.855 531.008 48.895C528.842 49.8917 525.895 50.39 522.168 50.39ZM522.168 45.06C524.335 45.06 526.025 44.7783 527.238 44.215C528.495 43.6083 529.427 42.4167 530.033 40.64C530.683 38.82 531.008 36.1117 531.008 32.515C531.008 28.9183 530.683 26.2317 530.033 24.455C529.427 22.635 528.495 21.4433 527.238 20.88C526.025 20.3167 524.335 20.035 522.168 20.035C519.958 20.035 518.247 20.3167 517.033 20.88C515.863 21.4433 514.953 22.635 514.303 24.455C513.697 26.2317 513.393 28.9183 513.393 32.515C513.393 36.155 513.697 38.885 514.303 40.705C514.953 42.4817 515.863 43.6517 517.033 44.215C518.247 44.7783 519.958 45.06 522.168 45.06ZM545.449 15.225H550.779L551.949 18.735C553.379 17.695 555.069 16.785 557.019 16.005C558.969 15.1817 560.898 14.77 562.804 14.77C567.051 14.77 570.171 16.395 572.164 19.645C574.201 22.895 575.219 27.2067 575.219 32.58C575.219 38.5167 574.223 42.98 572.229 45.97C570.279 48.96 567.138 50.455 562.804 50.455C561.028 50.455 559.164 50.195 557.214 49.675C555.308 49.1117 553.553 48.375 551.949 47.465V65.405H545.449V15.225ZM560.854 44.995C566.098 44.995 568.719 40.8567 568.719 32.58C568.719 28.29 567.983 25.1483 566.509 23.155C565.079 21.1183 563.216 20.1 560.919 20.1C558.146 20.1 555.156 20.9667 551.949 22.7V42.525C553.293 43.305 554.723 43.9117 556.239 44.345C557.799 44.7783 559.338 44.995 560.854 44.995ZM602.564 20.555H597.364V16.33L602.564 15.225V11.78C602.564 7.75 603.344 4.78166 604.904 2.875C606.507 0.968331 609.215 0.0149965 613.029 0.0149965C615.195 0.0149965 617.47 0.253331 619.854 0.729999V5.41H614.199C612.205 5.41 610.84 5.88666 610.104 6.84C609.41 7.79333 609.064 9.33166 609.064 11.455V15.225H619.269V20.555H609.064V50H602.564V20.555ZM639.029 50.39C635.345 50.39 632.399 49.87 630.189 48.83C627.979 47.79 626.332 45.9917 625.249 43.435C624.209 40.835 623.689 37.2167 623.689 32.58C623.689 27.8133 624.23 24.1517 625.314 21.595C626.397 18.995 628.022 17.2183 630.189 16.265C632.399 15.2683 635.345 14.77 639.029 14.77C642.712 14.77 645.637 15.2683 647.804 16.265C650.014 17.2617 651.66 19.06 652.744 21.66C653.827 24.2167 654.369 27.8567 654.369 32.58C654.369 37.26 653.827 40.9 652.744 43.5C651.704 46.0567 650.079 47.855 647.869 48.895C645.702 49.8917 642.755 50.39 639.029 50.39ZM639.029 45.06C641.195 45.06 642.885 44.7783 644.099 44.215C645.355 43.6083 646.287 42.4167 646.894 40.64C647.544 38.82 647.869 36.1117 647.869 32.515C647.869 28.9183 647.544 26.2317 646.894 24.455C646.287 22.635 645.355 21.4433 644.099 20.88C642.885 20.3167 641.195 20.035 639.029 20.035C636.819 20.035 635.107 20.3167 633.894 20.88C632.724 21.4433 631.814 22.635 631.164 24.455C630.557 26.2317 630.254 28.9183 630.254 32.515C630.254 36.155 630.557 38.885 631.164 40.705C631.814 42.4817 632.724 43.6517 633.894 44.215C635.107 44.7783 636.819 45.06 639.029 45.06ZM662.31 15.225H667.315L668.81 21.075C670.456 19.0817 672.19 17.5433 674.01 16.46C675.83 15.3333 677.866 14.77 680.12 14.77C681.29 14.77 682.33 14.9 683.24 15.16V21.855C681.853 21.6383 680.553 21.53 679.34 21.53C677.216 21.53 675.353 21.92 673.75 22.7C672.146 23.4367 670.5 24.6283 668.81 26.275V50H662.31V15.225ZM10.505 115.39C7.905 115.39 5.78167 114.61 4.135 113.05C2.48833 111.49 1.665 109.367 1.665 106.68V103.95C1.665 101.177 2.59667 98.9667 4.46 97.32C6.36667 95.63 9.14 94.785 12.78 94.785H23.635V91.145C23.635 89.715 23.3967 88.5667 22.92 87.7C22.4433 86.79 21.5767 86.0967 20.32 85.62C19.1067 85.1433 17.3517 84.905 15.055 84.905H4.395V81.07C8.20833 80.2033 12.4983 79.7483 17.265 79.705C21.685 79.705 24.935 80.5717 27.015 82.305C29.1383 83.995 30.2 86.79 30.2 90.69V115H25.065L23.96 111.1C23.57 111.447 22.6383 111.967 21.165 112.66C19.735 113.353 18.045 113.982 16.095 114.545C14.1883 115.108 12.325 115.39 10.505 115.39ZM13.625 110.645C14.665 110.645 15.9217 110.472 17.395 110.125C18.8683 109.735 20.2333 109.323 21.49 108.89C22.79 108.413 23.505 108.132 23.635 108.045V98.035L14.535 98.425C10.3317 98.685 8.23 100.548 8.23 104.015V105.575C8.23 107.352 8.75 108.652 9.79 109.475C10.83 110.255 12.1083 110.645 13.625 110.645ZM48.7184 115.065C45.4251 115.065 42.9767 114.198 41.3734 112.465C39.8134 110.732 39.0334 107.85 39.0334 103.82V65.405H45.5334V102.975C45.5334 105.532 45.8801 107.287 46.5734 108.24C47.3101 109.193 48.4584 109.778 50.0184 109.995L53.2684 110.385V115.065H48.7184ZM68.2057 115.065C64.9124 115.065 62.464 114.198 60.8607 112.465C59.3007 110.732 58.5207 107.85 58.5207 103.82V65.405H65.0207V102.975C65.0207 105.532 65.3674 107.287 66.0607 108.24C66.7974 109.193 67.9457 109.778 69.5057 109.995L72.7557 110.385V115.065H68.2057ZM109.377 115C107.124 114.957 105.152 114.263 103.462 112.92C101.772 111.577 100.515 109.432 99.6921 106.485L91.8921 80.225H98.7171L105.737 105.12C106.69 108.067 108.315 109.54 110.612 109.54L118.737 80.225H125.432L113.472 123.97L110.352 130.405H105.152L109.377 115ZM145.244 115.39C141.561 115.39 138.614 114.87 136.404 113.83C134.194 112.79 132.548 110.992 131.464 108.435C130.424 105.835 129.904 102.217 129.904 97.58C129.904 92.8133 130.446 89.1517 131.529 86.595C132.613 83.995 134.238 82.2183 136.404 81.265C138.614 80.2683 141.561 79.77 145.244 79.77C148.928 79.77 151.853 80.2683 154.019 81.265C156.229 82.2617 157.876 84.06 158.959 86.66C160.043 89.2167 160.584 92.8567 160.584 97.58C160.584 102.26 160.043 105.9 158.959 108.5C157.919 111.057 156.294 112.855 154.084 113.895C151.918 114.892 148.971 115.39 145.244 115.39ZM145.244 110.06C147.411 110.06 149.101 109.778 150.314 109.215C151.571 108.608 152.503 107.417 153.109 105.64C153.759 103.82 154.084 101.112 154.084 97.515C154.084 93.9183 153.759 91.2317 153.109 89.455C152.503 87.635 151.571 86.4433 150.314 85.88C149.101 85.3167 147.411 85.035 145.244 85.035C143.034 85.035 141.323 85.3167 140.109 85.88C138.939 86.4433 138.029 87.635 137.379 89.455C136.773 91.2317 136.469 93.9183 136.469 97.515C136.469 101.155 136.773 103.885 137.379 105.705C138.029 107.482 138.939 108.652 140.109 109.215C141.323 109.778 143.034 110.06 145.244 110.06ZM178.731 115.39C175.394 115.39 172.837 114.502 171.061 112.725C169.327 110.948 168.461 108.283 168.461 104.73V80.225H174.961V102.975C174.961 105.445 175.524 107.178 176.651 108.175C177.777 109.128 179.489 109.605 181.786 109.605C184.992 109.605 188.199 108.587 191.406 106.55V80.225H197.906V115H192.706L191.406 111.23C187.072 114.003 182.847 115.39 178.731 115.39ZM206.865 80.225H211.87L213.365 86.075C215.012 84.0817 216.745 82.5433 218.565 81.46C220.385 80.3333 222.422 79.77 224.675 79.77C225.845 79.77 226.885 79.9 227.795 80.16V86.855C226.409 86.6383 225.109 86.53 223.895 86.53C221.772 86.53 219.909 86.92 218.305 87.7C216.702 88.4367 215.055 89.6283 213.365 91.275V115H206.865V80.225ZM265.276 115.39C263.066 115.39 260.487 115.26 257.541 115C254.637 114.783 252.341 114.48 250.651 114.09V109.02C254.247 109.367 259.036 109.54 265.016 109.54C268.092 109.54 270.476 109.085 272.166 108.175C273.856 107.222 274.701 105.51 274.701 103.04V100.245C274.701 96.215 272.556 94.2 268.266 94.2H263.391C259.101 94.2 255.851 93.2683 253.641 91.405C251.431 89.4983 250.326 86.4 250.326 82.11V79.445C250.326 75.025 251.517 71.7967 253.901 69.76C256.327 67.7233 259.924 66.705 264.691 66.705C266.771 66.705 269.154 66.8567 271.841 67.16C274.527 67.4633 276.824 67.7883 278.731 68.135V73.205L277.366 73.14C271.819 72.75 267.832 72.555 265.406 72.555C262.459 72.555 260.249 73.075 258.776 74.115C257.302 75.155 256.566 77.04 256.566 79.77V81.72C256.566 83.9733 257.151 85.5767 258.321 86.53C259.534 87.4833 261.332 87.96 263.716 87.96H268.981C272.881 87.96 275.849 89.0217 277.886 91.145C279.922 93.225 280.941 95.9983 280.941 99.465V102.845C280.941 107.568 279.576 110.84 276.846 112.66C274.116 114.48 270.259 115.39 265.276 115.39ZM299.533 115.26C296.673 115.26 294.246 114.61 292.253 113.31C290.259 112.01 289.263 109.432 289.263 105.575V77.105C289.263 73.595 290.216 71.06 292.123 69.5C294.029 67.8967 296.326 67.095 299.013 67.095C304.169 67.095 309.998 67.2683 316.498 67.615L319.423 67.745V73.14H300.963C297.539 73.14 295.828 74.8517 295.828 78.275V88.22L316.498 88.61V93.68L295.828 94.135V103.95C295.828 105.987 296.304 107.373 297.258 108.11C298.211 108.803 299.489 109.15 301.093 109.15H319.423V114.545C311.969 115.022 305.339 115.26 299.533 115.26ZM345.282 115.39C340.732 115.39 337.136 114.783 334.492 113.57C331.849 112.357 329.834 110.017 328.447 106.55C327.104 103.083 326.432 97.97 326.432 91.21C326.432 84.45 327.126 79.315 328.512 75.805C329.899 72.2517 331.914 69.8467 334.557 68.59C337.201 67.3333 340.776 66.705 345.282 66.705C349.876 66.705 353.494 67.3333 356.137 68.59C358.781 69.8467 360.774 72.2517 362.117 75.805C363.504 79.315 364.197 84.45 364.197 91.21C364.197 97.97 363.504 103.083 362.117 106.55C360.774 110.017 358.781 112.357 356.137 113.57C353.494 114.783 349.876 115.39 345.282 115.39ZM345.282 109.54C348.489 109.54 350.959 109.085 352.692 108.175C354.426 107.265 355.682 105.51 356.462 102.91C357.242 100.31 357.632 96.41 357.632 91.21C357.632 85.7933 357.242 81.7633 356.462 79.12C355.682 76.4767 354.426 74.7217 352.692 73.855C351.002 72.9883 348.532 72.555 345.282 72.555C342.162 72.555 339.736 73.01 338.002 73.92C336.312 74.7867 335.034 76.5417 334.167 79.185C333.344 81.8283 332.932 85.8367 332.932 91.21C332.932 96.4533 333.301 100.375 334.037 102.975C334.817 105.532 336.052 107.265 337.742 108.175C339.476 109.085 341.989 109.54 345.282 109.54ZM389.614 80.225H394.814L396.114 83.995C397.804 82.7383 399.711 81.6983 401.834 80.875C404.001 80.0517 406.168 79.64 408.334 79.64C412.018 79.64 414.726 80.7667 416.459 83.02C418.193 85.23 419.059 88.09 419.059 91.6V115H412.559V92.38C412.559 90.3 411.974 88.6533 410.804 87.44C409.634 86.1833 408.031 85.555 405.994 85.555C404.174 85.555 402.506 85.815 400.989 86.335C399.516 86.855 397.891 87.635 396.114 88.675V115H389.614V80.225ZM441.669 115.39C437.899 115.39 434.931 114.848 432.764 113.765C430.641 112.682 429.103 110.862 428.149 108.305C427.239 105.748 426.784 102.173 426.784 97.58C426.784 92.9 427.239 89.2817 428.149 86.725C429.103 84.1683 430.641 82.37 432.764 81.33C434.888 80.29 437.834 79.77 441.604 79.77C444.898 79.77 447.519 80.1167 449.469 80.81C451.419 81.5033 452.849 82.695 453.759 84.385C454.669 86.075 455.124 88.415 455.124 91.405C455.124 94.4817 454.236 96.7133 452.459 98.1C450.683 99.4433 448.126 100.115 444.789 100.115H433.284C433.328 102.758 433.609 104.817 434.129 106.29C434.693 107.72 435.689 108.76 437.119 109.41C438.549 110.06 440.608 110.385 443.294 110.385H454.149V114.285C451.766 114.632 449.664 114.892 447.844 115.065C446.024 115.282 443.966 115.39 441.669 115.39ZM444.204 96.02C445.981 96.02 447.259 95.695 448.039 95.045C448.863 94.3517 449.274 93.16 449.274 91.47C449.274 88.87 448.689 87.0717 447.519 86.075C446.393 85.0783 444.421 84.58 441.604 84.58C439.394 84.58 437.683 84.905 436.469 85.555C435.299 86.205 434.454 87.3533 433.934 89C433.458 90.6033 433.219 92.9433 433.219 96.02H444.204ZM476.772 115.39C473.002 115.39 470.034 114.848 467.867 113.765C465.744 112.682 464.205 110.862 463.252 108.305C462.342 105.748 461.887 102.173 461.887 97.58C461.887 92.9 462.342 89.2817 463.252 86.725C464.205 84.1683 465.744 82.37 467.867 81.33C469.99 80.29 472.937 79.77 476.707 79.77C480 79.77 482.622 80.1167 484.572 80.81C486.522 81.5033 487.952 82.695 488.862 84.385C489.772 86.075 490.227 88.415 490.227 91.405C490.227 94.4817 489.339 96.7133 487.562 98.1C485.785 99.4433 483.229 100.115 479.892 100.115H468.387C468.43 102.758 468.712 104.817 469.232 106.29C469.795 107.72 470.792 108.76 472.222 109.41C473.652 110.06 475.71 110.385 478.397 110.385H489.252V114.285C486.869 114.632 484.767 114.892 482.947 115.065C481.127 115.282 479.069 115.39 476.772 115.39ZM479.307 96.02C481.084 96.02 482.362 95.695 483.142 95.045C483.965 94.3517 484.377 93.16 484.377 91.47C484.377 88.87 483.792 87.0717 482.622 86.075C481.495 85.0783 479.524 84.58 476.707 84.58C474.497 84.58 472.785 84.905 471.572 85.555C470.402 86.205 469.557 87.3533 469.037 89C468.56 90.6033 468.322 92.9433 468.322 96.02H479.307ZM509.469 115.39C505.223 115.39 502.081 114.003 500.044 111.23C498.008 108.413 496.989 103.972 496.989 97.905C496.989 93.5283 497.401 90.04 498.224 87.44C499.091 84.7967 500.478 82.8683 502.384 81.655C504.291 80.3983 506.869 79.77 510.119 79.77C513.109 79.77 516.489 80.3983 520.259 81.655V65.405H526.759V115H521.429L520.259 111.555C519.176 112.508 517.551 113.397 515.384 114.22C513.261 115 511.289 115.39 509.469 115.39ZM511.549 110.06C514.236 110.06 517.139 109.193 520.259 107.46V86.335C519.999 86.2483 519.306 86.0533 518.179 85.75C517.053 85.4033 515.991 85.165 514.994 85.035C513.998 84.8617 513.023 84.775 512.069 84.775C509.946 84.775 508.278 85.165 507.064 85.945C505.851 86.6817 504.963 87.9817 504.399 89.845C503.836 91.665 503.554 94.2433 503.554 97.58C503.554 100.7 503.814 103.17 504.334 104.99C504.854 106.767 505.699 108.067 506.869 108.89C508.039 109.67 509.599 110.06 511.549 110.06ZM547.829 115.39C545.662 115.39 543.171 115.282 540.354 115.065C537.581 114.892 535.609 114.632 534.439 114.285V110.385H549.064C551.144 110.385 552.682 110.103 553.679 109.54C554.676 108.933 555.174 107.742 555.174 105.965V104.535C555.174 101.762 553.311 100.375 549.584 100.375H544.514C541.177 100.375 538.599 99.7033 536.779 98.36C534.959 96.9733 534.049 94.6983 534.049 91.535V89.65C534.049 86.3133 535.024 83.865 536.974 82.305C538.967 80.7017 542.239 79.9 546.789 79.9C548.696 79.9 550.927 80.03 553.484 80.29C556.041 80.5067 558.012 80.7667 559.399 81.07V84.97H545.619C543.582 84.97 542.087 85.3167 541.134 86.01C540.181 86.7033 539.704 87.9167 539.704 89.65V90.95C539.704 92.5967 540.159 93.68 541.069 94.2C542.022 94.72 543.539 94.98 545.619 94.98H550.819C554.069 94.98 556.539 95.7383 558.229 97.255C559.962 98.7717 560.829 100.938 560.829 103.755V106.42C560.829 109.757 559.724 112.097 557.514 113.44C555.347 114.74 552.119 115.39 547.829 115.39Z" fill="#EAE2B7"/>
</svg>
