<svg width="438" height="39" viewBox="0 0 438 39" fill="none" xmlns="http://www.w3.org/2000/svg">
<path d="M21.9163 20.04C21.9163 14.2 18.3563 9.48 11.1563 9.48C4.51625 9.48 0.35625 14 0.35625 20.04C0.35625 26.4 4.63625 30.64 10.9563 30.64C19.1963 30.64 21.9163 24.72 21.9163 20.04ZM6.15625 20.12C6.15625 16.92 8.23625 14.96 11.1563 14.96C14.1563 14.96 16.1163 16.92 16.1163 20.12C16.1163 23.28 14.2363 25.44 11.1563 25.44C8.23625 25.44 6.15625 23.28 6.15625 20.12ZM37.6616 25.44H38.5016V30H43.7016V10H38.1816V21.56C38.1816 23.56 36.9416 25.52 34.1416 25.52C31.7816 25.52 30.5416 24.32 30.5416 21.56V10H25.0216V22.4C25.0216 26.8 27.1416 30.44 32.0216 30.44C35.9016 30.44 37.2616 28.28 37.6616 25.44ZM58.8759 15.92C59.8359 15.92 60.5959 16.12 60.5959 16.12V9.96C60.5959 9.96 60.1959 9.72 59.4359 9.72C55.6759 9.72 54.0359 12.04 54.0359 16.32H53.1559V10H47.9959V30H53.5159V19.96C53.5159 16.68 55.9559 15.92 58.8759 15.92ZM91.2697 32.56C91.2697 29.8 89.3897 28.64 86.2297 28.6V27.8C88.9497 26.72 90.8697 24.88 90.8697 21.6C90.8697 18.24 88.2697 16.52 85.3897 16.44V15.56H91.2697V10H80.9097C74.8297 10 70.6297 14.2 70.6297 19.52C70.6297 25.12 74.5097 28.92 80.7097 28.92C81.4697 28.92 82.1497 28.88 82.8297 28.8C83.2697 28.72 83.6697 28.68 84.0297 28.68C85.1897 28.68 85.9097 29.2 85.9097 30.88C85.9097 32.76 84.1897 33.84 81.1097 33.84C77.6297 33.84 76.3497 32.56 76.5497 30.04H71.1897C70.7097 34.6 72.7497 38.92 81.2297 38.92C87.5897 38.92 91.2697 35.84 91.2697 32.56ZM76.3497 19.6C76.3497 16.92 78.4297 15.36 80.9497 15.36C83.5897 15.36 85.5097 16.92 85.5097 19.6C85.5097 22.28 83.5097 23.84 80.9497 23.84C78.1497 23.84 76.3497 22.28 76.3497 19.6ZM105.517 15.92C106.477 15.92 107.237 16.12 107.237 16.12V9.96C107.237 9.96 106.837 9.72 106.077 9.72C102.317 9.72 100.677 12.04 100.677 16.32H99.7966V10H94.6366V30H100.157V19.96C100.157 16.68 102.597 15.92 105.517 15.92ZM130.823 20.04C130.823 14.2 127.263 9.48 120.063 9.48C113.423 9.48 109.263 14 109.263 20.04C109.263 26.4 113.543 30.64 119.863 30.64C128.103 30.64 130.823 24.72 130.823 20.04ZM115.063 20.12C115.063 16.92 117.143 14.96 120.063 14.96C123.063 14.96 125.023 16.92 125.023 20.12C125.023 23.28 123.143 25.44 120.063 25.44C117.143 25.44 115.063 23.28 115.063 20.12ZM146.568 25.44H147.408V30H152.608V10H147.088V21.56C147.088 23.56 145.848 25.52 143.048 25.52C140.688 25.52 139.448 24.32 139.448 21.56V10H133.928V22.4C133.928 26.8 136.048 30.44 140.928 30.44C144.808 30.44 146.168 28.28 146.568 25.44ZM163.262 25.24C163.262 25.24 163.342 30.44 169.302 30.44C174.062 30.44 177.862 26.84 177.862 20.04C177.862 12.8 173.742 9.68 169.342 9.68C164.702 9.68 162.982 12.28 162.982 15.64H162.102V10H156.902V38.44H162.422V25.24H163.262ZM162.422 20.2C162.422 16.96 164.462 14.88 167.302 14.88C170.262 14.88 172.182 16.96 172.182 20.2C172.182 23.48 170.342 25.64 167.302 25.64C164.462 25.64 162.422 23.48 162.422 20.2ZM209.846 20.04C209.846 14.2 206.286 9.48 199.086 9.48C192.446 9.48 188.286 14 188.286 20.04C188.286 26.4 192.566 30.64 198.886 30.64C207.126 30.64 209.846 24.72 209.846 20.04ZM194.086 20.12C194.086 16.92 196.166 14.96 199.086 14.96C202.086 14.96 204.046 16.92 204.046 20.12C204.046 23.28 202.166 25.44 199.086 25.44C196.166 25.44 194.086 23.28 194.086 20.12ZM224.768 15.56V10H219.928V8.6C219.928 7.2 220.928 6.48 222.608 6.48C223.968 6.48 224.768 6.84 224.768 6.84V1.52C224.768 1.52 223.808 0.919998 221.488 0.919998C216.248 0.919998 214.408 4.08 214.408 8.6V10H211.568V15.56H218.648V16.4C216.288 16.4 214.408 17.36 214.408 20.08V30H219.928L219.968 15.56H224.768ZM255.241 22.36H249.881C249.961 23.68 248.721 25.48 245.561 25.48C242.481 25.48 240.841 23.2 240.841 20.12C240.841 16.92 242.601 14.84 245.801 14.84C249.201 14.84 249.921 17.04 249.841 18.44H255.281C255.641 14.52 253.961 9.48 245.841 9.48C239.441 9.48 235.161 13.56 235.161 19.96C235.161 26.36 238.961 30.64 245.601 30.64C252.801 30.64 255.641 26.2 255.241 22.36ZM279.338 20.04C279.338 14.2 275.778 9.48 268.578 9.48C261.938 9.48 257.778 14 257.778 20.04C257.778 26.4 262.058 30.64 268.378 30.64C276.618 30.64 279.338 24.72 279.338 20.04ZM263.578 20.12C263.578 16.92 265.658 14.96 268.578 14.96C271.578 14.96 273.538 16.92 273.538 20.12C273.538 23.28 271.658 25.44 268.578 25.44C265.658 25.44 263.578 23.28 263.578 20.12ZM291.763 14.84C293.723 14.84 295.403 15.76 295.403 18.6V30H300.923V18.6C300.923 16.04 302.683 14.84 304.483 14.84C306.363 14.84 308.123 15.68 308.123 18.6V30H313.643V17.36C313.643 12.68 311.883 9.6 307.163 9.6C302.963 9.6 301.483 12.36 301.403 15.2H300.563C300.163 11.36 297.883 9.6 294.323 9.6C290.523 9.6 288.883 11.96 288.723 15.2H287.843V10H282.683V30H288.163V18.56C288.163 16 290.003 14.84 291.763 14.84ZM324.122 25.24C324.122 25.24 324.202 30.44 330.162 30.44C334.922 30.44 338.722 26.84 338.722 20.04C338.722 12.8 334.602 9.68 330.202 9.68C325.562 9.68 323.842 12.28 323.842 15.64H322.962V10H317.762V38.44H323.282V25.24H324.122ZM323.282 20.2C323.282 16.96 325.322 14.88 328.162 14.88C331.122 14.88 333.042 16.96 333.042 20.2C333.042 23.48 331.202 25.64 328.162 25.64C325.322 25.64 323.282 23.48 323.282 20.2ZM353.898 25.88H354.778C354.778 28.56 356.058 30.24 359.298 30.24C360.898 30.24 361.738 29.8 361.738 29.8V25.16C361.738 25.16 361.338 25.32 360.738 25.32C360.058 25.32 359.738 25.08 359.738 24.52V17.36C359.738 12.08 356.658 9.48 350.458 9.48C344.498 9.48 340.938 12.88 341.498 18.28H346.818C346.618 15.84 348.338 14.8 350.378 14.8C352.258 14.8 353.978 15.56 353.978 17.4C353.978 19.12 352.498 19.96 350.378 19.96H349.618C345.458 19.96 341.138 20.84 341.138 25C341.138 28.08 343.698 30.44 347.578 30.44C351.538 30.44 353.458 28.56 353.898 25.88ZM346.538 23.2C346.538 21.56 348.138 20.76 350.378 20.76C352.698 20.76 354.218 21.56 354.218 23.2C354.218 24.84 352.778 25.68 350.378 25.68C348.138 25.68 346.538 24.84 346.538 23.2ZM373.849 14.84C376.409 14.84 377.809 16.08 377.809 18.84V30H383.329V17.4C383.329 12.52 380.769 9.6 376.249 9.6C371.569 9.6 370.289 12.44 370.169 15.28H369.289V10H364.129V30H369.649V18.84C369.649 16.16 371.649 14.84 373.849 14.84ZM393.89 4.8C393.89 2.64 392.41 1.28 390.29 1.28C388.21 1.28 386.69 2.64 386.69 4.8C386.69 7 388.21 8.32 390.29 8.32C392.41 8.32 393.89 7 393.89 4.8ZM390.29 10.48C388.73 10.48 387.49 9.92 387.49 9.92V30H393.01V9.92C393.01 9.92 391.85 10.48 390.29 10.48ZM416.693 22.64H411.333C411.333 23.84 410.333 25.48 406.813 25.48C404.013 25.48 402.293 24.08 402.293 22.28C402.293 21 403.373 20.68 405.693 20.68H417.093C417.453 14.88 415.253 9.48 406.853 9.48C400.213 9.48 396.333 13.8 396.333 19.84C396.333 26.24 399.693 30.64 406.813 30.64C413.933 30.64 416.893 26.68 416.693 22.64ZM402.293 18.04C402.293 16.52 403.613 14.84 406.693 14.84C409.853 14.84 411.293 16.68 411.293 19.8H405.693C403.093 19.8 402.293 19.12 402.293 18.04ZM437.583 24.8C437.583 21.6 435.863 20 431.023 20H428.103C426.183 20 424.783 19.28 424.783 17.52C424.783 15.88 426.303 14.8 428.463 14.8C431.183 14.8 432.343 16.2 432.183 18.08H437.343C437.743 14.88 437.023 9.48 428.703 9.48C424.063 9.48 419.423 11.4 419.423 15.92C419.423 19.2 421.703 20.84 426.183 20.84H429.023C430.703 20.84 432.223 21.28 432.223 23.28C432.223 25.08 430.703 25.8 428.583 25.8C426.143 25.8 424.703 24.8 424.783 22.8H419.663C419.223 27.16 421.663 30.64 428.703 30.64C434.623 30.64 437.583 27.96 437.583 24.8Z" fill="white"/>
</svg>
