<svg width="549" height="656" viewBox="0 0 549 656" fill="none" xmlns="http://www.w3.org/2000/svg">
<g filter="url(#filter0_d_51_137)">
<path fill-rule="evenodd" clip-rule="evenodd" d="M225.684 624.484C200.813 593.63 230.027 553.368 251.706 523.642C261.754 509.818 272.14 495.521 268.7 491.385C268.16 490.566 267.426 489.894 266.563 489.427C265.7 488.961 264.736 488.714 263.755 488.71C256.522 489.337 247.037 505.779 238.631 520.349L238.43 520.696C229.679 535.848 221.418 550.153 213.38 552.19C212.342 552.474 211.256 552.539 210.192 552.38C209.128 552.221 208.108 551.843 207.198 551.269C205.856 550.484 204.695 549.427 203.789 548.164C202.882 546.902 202.252 545.463 201.938 543.941C199.403 532.254 212.314 513.023 227.29 490.717L227.384 490.576C244.94 464.455 264.834 434.828 255.438 420.487C255.272 420.242 255.156 419.966 255.097 419.677C255.038 419.387 255.037 419.089 255.093 418.798C255.149 418.508 255.262 418.232 255.426 417.985C255.589 417.739 255.799 417.527 256.045 417.362C256.543 417.039 257.149 416.926 257.73 417.048C258.311 417.17 258.821 417.517 259.147 418.014C270.251 434.851 250.358 464.455 231.116 493.071L230.865 493.445C217.703 513.042 204.155 533.213 206.389 542.997C206.577 543.93 206.96 544.814 207.514 545.589C208.068 546.364 208.78 547.013 209.603 547.492C210.004 547.745 210.453 547.911 210.921 547.98C211.389 548.05 211.867 548.022 212.323 547.897C218.417 546.341 226.712 532.152 234.228 519.296C234.42 518.968 234.611 518.641 234.802 518.315L234.818 518.287C244.658 501.213 253.937 485.113 263.53 484.282C265.238 484.2 266.939 484.551 268.475 485.301C270.012 486.052 271.334 487.178 272.319 488.575C277.984 495.319 268.565 508.357 255.505 526.317L255.502 526.321C234.728 554.885 206.562 593.614 229.556 621.974C226.156 612.083 223.565 602.006 225.99 592.158C226.152 591.6 226.523 591.126 227.026 590.835C227.53 590.545 228.126 590.46 228.69 590.6C229.254 590.74 229.742 591.092 230.052 591.584C230.362 592.075 230.469 592.668 230.351 593.237C227.752 603.838 231.945 615.444 236.002 626.675L236.039 626.776C236.645 628.439 237.252 630.102 237.814 631.743C238.035 632.354 238.052 633.019 237.861 633.64C237.671 634.26 237.283 634.802 236.758 635.183C236.235 635.583 235.596 635.804 234.937 635.812C234.281 635.81 233.642 635.598 233.116 635.205C222.214 627.09 210.48 619.11 196.858 618.368C196.262 618.333 195.704 618.062 195.308 617.615C194.912 617.168 194.709 616.582 194.745 615.986C194.781 615.39 195.052 614.832 195.499 614.436C195.945 614.039 196.531 613.837 197.128 613.873C207.686 614.467 217.031 618.903 225.684 624.484ZM231.895 628.729C231.927 628.752 231.96 628.775 231.992 628.799L231.955 628.695C231.935 628.707 231.915 628.718 231.895 628.729Z" fill="white"/>
<path d="M28.0002 364H10.0002V417H63.0002V399L28.0002 399V364Z" fill="#8F0077"/>
<path d="M123.825 232.775L128.625 281H150.45L157.425 230H146.175L139.875 278.45H138.15L133.35 230H112.65L107.85 278.45H106.125L99.9002 230H88.6502L95.5502 281H117.375L122.1 232.775H123.825ZM213.631 255.425C213.631 240.95 205.006 228.95 187.306 228.95C169.456 228.95 160.231 240.875 160.231 255.425C160.231 270.875 169.306 282.05 186.781 282.05C207.331 282.05 213.631 267.05 213.631 255.425ZM171.481 255.5C171.481 245.6 178.006 239.45 186.931 239.45C196.381 239.45 202.381 245.6 202.381 255.5C202.381 265.325 196.606 271.625 186.931 271.625C178.006 271.625 171.481 265.325 171.481 255.5ZM240.365 265.925C245.015 265.925 246.74 270.125 248.165 272.9L252.14 281H264.365L256.715 265.775C254.765 261.875 253.415 259.025 248.24 258.5V256.775C257.69 255.65 261.14 250.625 261.14 243.875C261.14 234.2 252.965 230 241.115 230H219.89V281H230.54V265.925H240.365ZM230.54 240.875H241.115C246.74 240.875 250.19 243.5 250.19 248.45C250.19 253.4 246.89 256.175 241.115 256.175H230.465L230.54 240.875ZM285.428 261.575C291.128 261.575 292.253 263.975 293.978 267.275L301.253 281H313.403L304.553 263.3C300.878 255.95 298.178 253.475 292.103 253.475V251.675H301.028L310.928 230H298.928L289.253 251.675H277.928V230H267.353V281H277.928V261.575H285.428ZM130.65 315.8V305H88.5752V315.8H112.35V317.525C106.8 317.525 104.325 319.625 104.325 324.65V356H114.9V315.8H130.65ZM185.945 330.425C185.945 315.95 177.32 303.95 159.62 303.95C141.77 303.95 132.545 315.875 132.545 330.425C132.545 345.875 141.62 357.05 159.095 357.05C179.645 357.05 185.945 342.05 185.945 330.425ZM143.795 330.5C143.795 320.6 150.32 314.45 159.245 314.45C168.695 314.45 174.695 320.6 174.695 330.5C174.695 340.325 168.92 346.625 159.245 346.625C150.32 346.625 143.795 340.325 143.795 330.5ZM241.612 343.85C241.612 338.9 237.712 337.85 232.462 337.85V336.2H242.962V327.05H217.987V336.2H224.662C228.562 336.2 230.812 337.175 230.812 340.1C230.812 343.85 226.162 346.625 218.212 346.625C207.337 346.625 202.537 339.875 202.537 330.95C202.537 321.95 207.262 314.525 217.837 314.525C226.762 314.525 230.512 318.95 230.512 323.3H241.237C241.687 313.4 235.162 303.95 218.062 303.95C202.087 303.95 191.287 313.325 191.287 330.425C191.287 347.45 201.187 357.05 217.987 357.05C232.312 357.05 241.612 351.05 241.612 343.85ZM260.645 345.725V335.975H282.77V325.925H260.645V315.8H288.02V305H249.995V324.275H258.095V325.925C252.77 325.925 249.995 328.475 249.995 333.8V356H288.095V345.725H260.645ZM334.41 315.8V305H292.335V315.8H316.11V317.525C310.56 317.525 308.085 319.625 308.085 324.65V356H318.66V315.8H334.41ZM373.225 335.45V356H383.875V305H373.225V324.95H360.4C354.55 324.95 352.675 328.775 352.675 333.05H351.025V305H340.375V356H351.025V335.45H373.225ZM403.394 345.725V335.975H425.519V325.925H403.394V315.8H430.769V305H392.744V324.275H400.844V325.925C395.519 325.925 392.744 328.475 392.744 333.8V356H430.844V345.725H403.394ZM458.334 340.925C462.984 340.925 464.709 345.125 466.134 347.9L470.109 356H482.334L474.684 340.775C472.734 336.875 471.384 334.025 466.209 333.5V331.775C475.659 330.65 479.109 325.625 479.109 318.875C479.109 309.2 470.934 305 459.084 305H437.859V356H448.509V340.925H458.334ZM448.509 315.875H459.084C464.709 315.875 468.159 318.5 468.159 323.45C468.159 328.4 464.859 331.175 459.084 331.175H448.434L448.509 315.875Z" fill="#2EA5E9"/>
<path d="M89.5502 74.8005H95.7002L107.55 121.825L121.2 74.8005H127.2L140.775 121.825L152.625 74.8005H158.775L144.6 130H138.15L124.2 83.1255L110.175 130H103.725L89.5502 74.8005ZM167.041 72.7755H172.966V94.3755C175.016 92.9255 177.316 91.7255 179.866 90.7755C182.466 89.7755 185.066 89.2755 187.666 89.2755C191.716 89.2755 194.766 90.5255 196.816 93.0255C198.916 95.5255 199.966 98.7505 199.966 102.7V130H194.041V103.375C194.041 100.825 193.291 98.7505 191.791 97.1505C190.291 95.5005 188.266 94.6755 185.716 94.6755C183.316 94.6755 181.166 95.0005 179.266 95.6505C177.416 96.2505 175.316 97.2255 172.966 98.5755V130H167.041V72.7755ZM226.433 130.45C222.133 130.45 218.783 129.825 216.383 128.575C214.033 127.325 212.333 125.225 211.283 122.275C210.233 119.325 209.708 115.2 209.708 109.9C209.708 104.55 210.233 100.4 211.283 97.4505C212.383 94.5005 214.133 92.4255 216.533 91.2255C218.933 90.0255 222.258 89.4255 226.508 89.4255C230.158 89.4255 233.083 89.8255 235.283 90.6255C237.483 91.4255 239.108 92.8005 240.158 94.7505C241.208 96.6505 241.733 99.3005 241.733 102.7C241.733 106.1 240.733 108.575 238.733 110.125C236.783 111.625 233.983 112.375 230.333 112.375H215.633C215.683 115.825 216.033 118.5 216.683 120.4C217.333 122.25 218.533 123.625 220.283 124.525C222.033 125.375 224.558 125.8 227.858 125.8H240.758V129.4C238.058 129.75 235.658 130 233.558 130.15C231.458 130.35 229.083 130.45 226.433 130.45ZM229.808 108.475C232.108 108.475 233.783 108.05 234.833 107.2C235.883 106.35 236.408 104.875 236.408 102.775C236.408 99.4255 235.658 97.1255 234.158 95.8755C232.708 94.5755 230.158 93.9255 226.508 93.9255C223.608 93.9255 221.383 94.3505 219.833 95.2005C218.283 96.0505 217.183 97.5005 216.533 99.5505C215.883 101.6 215.558 104.575 215.558 108.475H229.808ZM251.709 89.9505H256.359L257.634 94.3755C259.734 92.9255 262.059 91.7255 264.609 90.7755C267.159 89.7755 269.709 89.2755 272.259 89.2755C276.409 89.2755 279.509 90.5505 281.559 93.1005C283.609 95.6505 284.634 98.8755 284.634 102.775V130H278.709V103.45C278.709 100.85 277.959 98.7505 276.459 97.1505C275.009 95.5005 272.984 94.6755 270.384 94.6755C267.984 94.6755 265.834 95.0005 263.934 95.6505C262.084 96.2505 259.984 97.2255 257.634 98.5755V130H251.709V89.9505ZM331.766 130.45C329.416 130.45 326.491 130.3 322.991 130C319.541 129.75 316.891 129.45 315.041 129.1V124.525C318.941 124.925 324.441 125.125 331.541 125.125C335.341 125.125 338.291 124.525 340.391 123.325C342.491 122.125 343.541 119.95 343.541 116.8V113.05C343.541 107.85 340.791 105.25 335.291 105.25H329.366C324.616 105.25 320.991 104.225 318.491 102.175C316.041 100.075 314.816 96.6505 314.816 91.9005V88.7505C314.816 83.7005 316.166 80.0505 318.866 77.8005C321.566 75.5005 325.566 74.3505 330.866 74.3505C333.116 74.3505 335.816 74.5255 338.966 74.8755C342.166 75.1755 344.766 75.5255 346.766 75.9255V80.4255C340.016 79.9755 334.916 79.7505 331.466 79.7505C327.766 79.7505 325.016 80.4255 323.216 81.7755C321.416 83.0755 320.516 85.4755 320.516 88.9755V91.5255C320.516 94.4255 321.266 96.5005 322.766 97.7505C324.316 98.9505 326.591 99.5505 329.591 99.5505H335.966C340.316 99.5505 343.616 100.725 345.866 103.075C348.116 105.375 349.241 108.475 349.241 112.375V116.65C349.241 121.8 347.666 125.4 344.516 127.45C341.416 129.45 337.166 130.45 331.766 130.45ZM370.7 130.3C367.55 130.3 364.875 129.575 362.675 128.125C360.525 126.625 359.45 123.775 359.45 119.575V85.9005C359.45 82.0005 360.5 79.1755 362.6 77.4255C364.7 75.6755 367.275 74.8005 370.325 74.8005C378.325 74.9505 384.55 75.1255 389 75.3255L393.425 75.4755V80.2755H371.825C367.575 80.2755 365.45 82.4755 365.45 86.8755V99.9255L390.125 100.3V104.875L365.45 105.25V118.225C365.45 120.775 366.05 122.5 367.25 123.4C368.45 124.3 370.075 124.75 372.125 124.75H393.425V129.55C383.925 130.05 376.35 130.3 370.7 130.3ZM423.419 130.45C418.219 130.45 414.119 129.775 411.119 128.425C408.169 127.025 405.919 124.35 404.369 120.4C402.869 116.4 402.119 110.475 402.119 102.625C402.119 94.8255 402.894 88.9005 404.444 84.8505C406.044 80.7505 408.344 77.9755 411.344 76.5255C414.344 75.0755 418.369 74.3505 423.419 74.3505C428.619 74.3505 432.719 75.0755 435.719 76.5255C438.719 77.9255 440.969 80.6755 442.469 84.7755C443.969 88.8255 444.719 94.7755 444.719 102.625C444.719 110.475 443.944 116.4 442.394 120.4C440.894 124.35 438.644 127.025 435.644 128.425C432.694 129.775 428.619 130.45 423.419 130.45ZM423.419 125.125C427.419 125.125 430.469 124.575 432.569 123.475C434.719 122.375 436.294 120.225 437.294 117.025C438.294 113.825 438.794 109.025 438.794 102.625C438.794 95.9755 438.294 91.0255 437.294 87.7755C436.294 84.5255 434.719 82.3755 432.569 81.3255C430.469 80.2255 427.419 79.6755 423.419 79.6755C419.619 79.6755 416.644 80.2255 414.494 81.3255C412.344 82.3755 410.719 84.5505 409.619 87.8505C408.569 91.1505 408.044 96.0755 408.044 102.625C408.044 109.075 408.519 113.9 409.469 117.1C410.419 120.25 411.944 122.375 414.044 123.475C416.194 124.575 419.319 125.125 423.419 125.125ZM126.6 180.775H112.275V195.1H107.325V180.775H93.0002V175.825H107.325V161.5H112.275V175.825H126.6V180.775ZM173.168 205.45C168.068 205.45 164.118 203.975 161.318 201.025C158.568 198.025 157.193 192.7 157.193 185.05C157.193 179.7 157.818 175.525 159.068 172.525C160.368 169.525 162.193 167.45 164.543 166.3C166.893 165.1 169.818 164.5 173.318 164.5C178.118 164.5 182.543 164.85 186.593 165.55V169.075H174.893C172.143 169.075 169.918 169.525 168.218 170.425C166.568 171.325 165.293 172.95 164.393 175.3C163.543 177.6 163.118 180.9 163.118 185.2C163.118 189.3 163.568 192.5 164.468 194.8C165.418 197.05 166.743 198.625 168.443 199.525C170.143 200.375 172.318 200.8 174.968 200.8H187.193V204.25C182.493 205.05 177.818 205.45 173.168 205.45ZM211.286 205.45C207.186 205.45 203.886 204.875 201.386 203.725C198.886 202.575 197.011 200.525 195.761 197.575C194.561 194.575 193.961 190.35 193.961 184.9C193.961 179.4 194.586 175.175 195.836 172.225C197.086 169.225 198.936 167.175 201.386 166.075C203.836 164.975 207.136 164.425 211.286 164.425C215.386 164.425 218.686 165 221.186 166.15C223.686 167.25 225.561 169.3 226.811 172.3C228.061 175.25 228.686 179.45 228.686 184.9C228.686 190.35 228.061 194.575 226.811 197.575C225.561 200.525 223.686 202.575 221.186 203.725C218.736 204.875 215.436 205.45 211.286 205.45ZM211.286 200.575C214.036 200.575 216.186 200.225 217.736 199.525C219.336 198.775 220.561 197.275 221.411 195.025C222.261 192.775 222.686 189.4 222.686 184.9C222.686 180.4 222.261 177.05 221.411 174.85C220.611 172.6 219.411 171.125 217.811 170.425C216.211 169.675 214.036 169.3 211.286 169.3C208.486 169.3 206.286 169.675 204.686 170.425C203.136 171.125 201.936 172.6 201.086 174.85C200.286 177.05 199.886 180.4 199.886 184.9C199.886 189.4 200.286 192.775 201.086 195.025C201.936 197.275 203.136 198.775 204.686 199.525C206.286 200.225 208.486 200.575 211.286 200.575ZM238.672 164.95H243.322L244.597 169.375C246.697 167.925 249.022 166.725 251.572 165.775C254.122 164.775 256.672 164.275 259.222 164.275C263.372 164.275 266.472 165.55 268.522 168.1C270.572 170.65 271.597 173.875 271.597 177.775V205H265.672V178.45C265.672 175.85 264.922 173.75 263.422 172.15C261.972 170.5 259.947 169.675 257.347 169.675C254.947 169.675 252.797 170 250.897 170.65C249.047 171.25 246.947 172.225 244.597 173.575V205H238.672V164.95ZM296.039 205C292.089 205 289.189 204 287.339 202C285.489 199.95 284.614 196.625 284.714 192.025L284.939 169.825H278.564V166L285.014 164.95L285.989 153.775H290.564V164.95H302.114V169.825H290.564V192.025C290.564 195.075 291.139 197.175 292.289 198.325C293.439 199.425 294.889 200.05 296.639 200.2L301.514 200.65V205H296.039ZM325.603 205.45C321.303 205.45 317.953 204.825 315.553 203.575C313.203 202.325 311.503 200.225 310.453 197.275C309.403 194.325 308.878 190.2 308.878 184.9C308.878 179.55 309.403 175.4 310.453 172.45C311.553 169.5 313.303 167.425 315.703 166.225C318.103 165.025 321.428 164.425 325.678 164.425C329.328 164.425 332.253 164.825 334.453 165.625C336.653 166.425 338.278 167.8 339.328 169.75C340.378 171.65 340.903 174.3 340.903 177.7C340.903 181.1 339.903 183.575 337.903 185.125C335.953 186.625 333.153 187.375 329.503 187.375H314.803C314.853 190.825 315.203 193.5 315.853 195.4C316.503 197.25 317.703 198.625 319.453 199.525C321.203 200.375 323.728 200.8 327.028 200.8H339.928V204.4C337.228 204.75 334.828 205 332.728 205.15C330.628 205.35 328.253 205.45 325.603 205.45ZM328.978 183.475C331.278 183.475 332.953 183.05 334.003 182.2C335.053 181.35 335.578 179.875 335.578 177.775C335.578 174.425 334.828 172.125 333.328 170.875C331.878 169.575 329.328 168.925 325.678 168.925C322.778 168.925 320.553 169.35 319.003 170.2C317.453 171.05 316.353 172.5 315.703 174.55C315.053 176.6 314.728 179.575 314.728 183.475H328.978ZM350.879 164.95H355.529L356.804 169.375C358.904 167.925 361.229 166.725 363.779 165.775C366.329 164.775 368.879 164.275 371.429 164.275C375.579 164.275 378.679 165.55 380.729 168.1C382.779 170.65 383.804 173.875 383.804 177.775V205H377.879V178.45C377.879 175.85 377.129 173.75 375.629 172.15C374.179 170.5 372.154 169.675 369.554 169.675C367.154 169.675 365.004 170 363.104 170.65C361.254 171.25 359.154 172.225 356.804 173.575V205H350.879V164.95ZM408.246 205C404.296 205 401.396 204 399.546 202C397.696 199.95 396.821 196.625 396.921 192.025L397.146 169.825H390.771V166L397.221 164.95L398.196 153.775H402.771V164.95H414.321V169.825H402.771V192.025C402.771 195.075 403.346 197.175 404.496 198.325C405.646 199.425 407.096 200.05 408.846 200.2L413.721 200.65V205H408.246Z" fill="white"/>
<path d="M521 53.0005L539 53.0005L539 0.000488281L486 0.000483648L486 18.0005L521 18.0005L521 53.0005Z" fill="#8F0077"/>
</g>
<defs>
<filter id="filter0_d_51_137" x="0.000244141" y="0.000488281" width="549" height="655.812" filterUnits="userSpaceOnUse" color-interpolation-filters="sRGB">
<feFlood flood-opacity="0" result="BackgroundImageFix"/>
<feColorMatrix in="SourceAlpha" type="matrix" values="0 0 0 0 0 0 0 0 0 0 0 0 0 0 0 0 0 0 127 0" result="hardAlpha"/>
<feOffset dy="10"/>
<feGaussianBlur stdDeviation="5"/>
<feComposite in2="hardAlpha" operator="out"/>
<feColorMatrix type="matrix" values="0 0 0 0 0 0 0 0 0 0 0 0 0 0 0 0 0 0 0.25 0"/>
<feBlend mode="normal" in2="BackgroundImageFix" result="effect1_dropShadow_51_137"/>
<feBlend mode="normal" in="SourceGraphic" in2="effect1_dropShadow_51_137" result="shape"/>
</filter>
</defs>
</svg>
