<svg width="576" height="389" viewBox="0 0 576 389" fill="none" xmlns="http://www.w3.org/2000/svg">
<path d="M390.02 31.3193L396.38 86.9993H428.9L438.62 26.9993H421.34L413.3 83.1593H410.66L404.18 26.9993H373.22L366.74 83.1593H364.1L355.94 26.9993H338.78L348.5 86.9993H381.02L387.38 31.3193H390.02ZM476.591 41.5193C484.391 41.5193 488.591 45.4793 488.591 53.6393V86.9993H505.151V49.1993C505.151 34.5593 497.591 25.7993 484.151 25.7993C471.911 25.7993 466.751 32.9993 466.271 41.8793H463.751V0.599264H447.191V86.9993H463.751V53.6393C463.751 45.5993 469.751 41.5193 476.591 41.5193ZM558.332 26.9993L544.772 79.7993H542.252L528.452 26.9993H511.172L526.532 83.6393H542.252C550.052 83.6393 556.292 79.6793 556.292 79.6793L557.612 81.9593C544.772 88.0793 541.412 92.5193 537.692 104.039L534.932 112.319H553.172L575.852 26.9993H558.332ZM243.646 174.639H246.286C246.286 182.679 250.126 187.719 259.846 187.719C264.646 187.719 267.166 186.399 267.166 186.399V172.479C267.166 172.479 265.966 172.959 264.166 172.959C262.126 172.959 261.166 172.239 261.166 170.559V149.079C261.166 133.239 251.926 125.439 233.326 125.439C215.446 125.439 204.766 135.639 206.446 151.839H222.406C221.806 144.519 226.966 141.399 233.086 141.399C238.726 141.399 243.886 143.679 243.886 149.199C243.886 154.359 239.446 156.879 233.086 156.879H230.806C218.326 156.879 205.366 159.519 205.366 171.999C205.366 181.239 213.046 188.319 224.686 188.319C236.566 188.319 242.326 182.679 243.646 174.639ZM221.566 166.599C221.566 161.679 226.366 159.279 233.086 159.279C240.046 159.279 244.606 161.679 244.606 166.599C244.606 171.519 240.286 174.039 233.086 174.039C226.366 174.039 221.566 171.519 221.566 166.599ZM306.979 144.759C309.859 144.759 312.139 145.359 312.139 145.359V126.879C312.139 126.879 310.939 126.159 308.659 126.159C297.379 126.159 292.459 133.119 292.459 145.959H289.819V126.999H274.339V186.999H290.899V156.879C290.899 147.039 298.219 144.759 306.979 144.759ZM379.297 164.919H363.217C363.217 168.519 360.217 173.439 349.657 173.439C341.257 173.439 336.097 169.239 336.097 163.839C336.097 159.999 339.337 159.039 346.297 159.039H380.497C381.577 141.639 374.977 125.439 349.777 125.439C329.857 125.439 318.217 138.399 318.217 156.519C318.217 175.719 328.297 188.919 349.657 188.919C371.017 188.919 379.897 177.039 379.297 164.919ZM336.097 151.119C336.097 146.559 340.057 141.519 349.297 141.519C358.777 141.519 363.097 147.039 363.097 156.399H346.297C338.497 156.399 336.097 154.359 336.097 151.119ZM457.052 131.319L463.412 186.999H495.932L505.652 126.999H488.372L480.332 183.159H477.692L471.212 126.999H440.252L433.772 183.159H431.132L422.972 126.999H405.812L415.532 186.999H448.052L454.412 131.319H457.052ZM571.836 164.919H555.756C555.756 168.519 552.756 173.439 542.196 173.439C533.796 173.439 528.636 169.239 528.636 163.839C528.636 159.999 531.876 159.039 538.836 159.039H573.036C574.116 141.639 567.516 125.439 542.316 125.439C522.396 125.439 510.756 138.399 510.756 156.519C510.756 175.719 520.836 188.919 542.196 188.919C563.556 188.919 572.436 177.039 571.836 164.919ZM528.636 151.119C528.636 146.559 532.596 141.519 541.836 141.519C551.316 141.519 555.636 147.039 555.636 156.399H538.836C531.036 156.399 528.636 154.359 528.636 151.119Z" fill="white"/>
<path d="M99.655 257.119C99.655 239.599 88.975 225.439 67.375 225.439C47.455 225.439 34.975 238.999 34.975 257.119C34.975 276.199 47.815 288.919 66.775 288.919C91.495 288.919 99.655 271.159 99.655 257.119ZM52.375 257.359C52.375 247.759 58.615 241.879 67.375 241.879C76.375 241.879 82.255 247.759 82.255 257.359C82.255 266.839 76.615 273.319 67.375 273.319C58.615 273.319 52.375 266.839 52.375 257.359ZM172.451 257.119C172.451 235.519 160.091 226.039 146.891 226.039C135.011 226.039 128.651 232.879 128.651 243.319H126.131V200.599H109.571V286.999H125.171V271.159L127.691 271.039C127.691 271.039 128.291 288.319 146.891 288.319C161.051 288.319 172.451 277.639 172.451 257.119ZM126.131 257.719C126.131 247.759 132.251 241.639 140.771 241.639C149.651 241.639 155.291 247.759 155.291 257.719C155.291 267.559 149.891 273.919 140.771 273.919C132.251 273.919 126.131 267.559 126.131 257.719ZM234.782 271.399C234.782 261.799 229.622 256.999 215.102 256.999H206.342C200.582 256.999 196.382 254.839 196.382 249.559C196.382 244.639 200.942 241.399 207.422 241.399C215.582 241.399 219.062 245.599 218.582 251.239H234.062C235.262 241.639 233.102 225.439 208.142 225.439C194.222 225.439 180.302 231.199 180.302 244.759C180.302 254.599 187.142 259.519 200.582 259.519H209.102C214.142 259.519 218.702 260.839 218.702 266.839C218.702 272.239 214.142 274.399 207.782 274.399C200.462 274.399 196.142 271.399 196.382 265.399H181.022C179.702 278.479 187.022 288.919 208.142 288.919C225.902 288.919 234.782 280.879 234.782 271.399ZM303.711 264.919H287.631C287.631 268.519 284.631 273.439 274.071 273.439C265.671 273.439 260.511 269.239 260.511 263.839C260.511 259.999 263.751 259.039 270.711 259.039H304.911C305.991 241.639 299.391 225.439 274.191 225.439C254.271 225.439 242.631 238.399 242.631 256.519C242.631 275.719 252.711 288.919 274.071 288.919C295.431 288.919 304.311 277.039 303.711 264.919ZM260.511 251.119C260.511 246.559 264.471 241.519 273.711 241.519C283.191 241.519 287.511 247.039 287.511 256.399H270.711C262.911 256.399 260.511 254.359 260.511 251.119ZM366.383 271.399C366.383 261.799 361.223 256.999 346.703 256.999H337.943C332.183 256.999 327.983 254.839 327.983 249.559C327.983 244.639 332.543 241.399 339.023 241.399C347.183 241.399 350.663 245.599 350.183 251.239H365.663C366.863 241.639 364.703 225.439 339.743 225.439C325.823 225.439 311.903 231.199 311.903 244.759C311.903 254.599 318.743 259.519 332.183 259.519H340.703C345.743 259.519 350.303 260.839 350.303 266.839C350.303 272.239 345.743 274.399 339.383 274.399C332.063 274.399 327.743 271.399 327.983 265.399H312.623C311.303 278.479 318.623 288.919 339.743 288.919C357.503 288.919 366.383 280.879 366.383 271.399ZM429.313 271.399C429.313 261.799 424.153 256.999 409.633 256.999H400.873C395.113 256.999 390.913 254.839 390.913 249.559C390.913 244.639 395.473 241.399 401.953 241.399C410.113 241.399 413.593 245.599 413.113 251.239H428.593C429.793 241.639 427.633 225.439 402.673 225.439C388.753 225.439 374.833 231.199 374.833 244.759C374.833 254.599 381.673 259.519 395.113 259.519H403.633C408.673 259.519 413.233 260.839 413.233 266.839C413.233 272.239 408.673 274.399 402.313 274.399C394.993 274.399 390.673 271.399 390.913 265.399H375.553C374.233 278.479 381.553 288.919 402.673 288.919C420.433 288.919 429.313 280.879 429.313 271.399ZM498.243 264.919H482.163C482.163 268.519 479.163 273.439 468.603 273.439C460.203 273.439 455.043 269.239 455.043 263.839C455.043 259.999 458.283 259.039 465.242 259.039H499.443C500.523 241.639 493.923 225.439 468.723 225.439C448.803 225.439 437.163 238.399 437.163 256.519C437.163 275.719 447.243 288.919 468.603 288.919C489.963 288.919 498.843 277.039 498.243 264.919ZM455.043 251.119C455.043 246.559 459.003 241.519 468.243 241.519C477.723 241.519 482.043 247.039 482.043 256.399H465.242C457.443 256.399 455.043 254.359 455.043 251.119ZM552.366 271.639H554.886V286.999H570.486L570.606 200.599H553.926V242.959H551.286C551.286 233.239 545.646 226.039 533.286 226.039C519.966 226.039 507.726 235.519 507.726 257.239C507.726 277.639 519.006 288.319 533.286 288.319C552.006 288.319 552.366 271.639 552.366 271.639ZM524.766 257.479C524.766 247.759 530.406 241.399 539.286 241.399C547.806 241.399 553.926 247.759 553.926 257.479C553.926 267.319 547.806 273.679 539.286 273.679C530.166 273.679 524.766 267.319 524.766 257.479ZM51.9344 331.319L58.2944 386.999H90.8144L100.534 326.999H83.2544L75.2144 383.159H72.5744L66.0944 326.999H35.1344L28.6544 383.159H26.0144L17.8544 326.999H0.694375L10.4144 386.999H42.9344L49.2944 331.319H51.9344ZM127.959 311.399C127.959 304.919 123.519 300.839 117.159 300.839C110.919 300.839 106.359 304.919 106.359 311.399C106.359 317.999 110.919 321.959 117.159 321.959C123.519 321.959 127.959 317.999 127.959 311.399ZM117.159 328.439C112.479 328.439 108.759 326.759 108.759 326.759V386.999H125.319V326.759C125.319 326.759 121.839 328.439 117.159 328.439ZM175.593 385.919V370.559C175.593 370.559 173.073 371.639 169.593 371.639C164.553 371.639 161.433 370.199 161.433 365.159V343.679H175.593V326.999H161.433V311.879H145.473V319.559C145.473 324.359 143.553 326.999 138.033 326.999H135.873V343.679H157.713V346.199C149.193 346.199 144.873 350.399 144.873 357.239V364.439C144.873 377.399 150.273 387.599 165.393 387.599C173.073 387.599 175.593 385.919 175.593 385.919ZM215.146 341.519C222.946 341.519 227.146 345.479 227.146 353.639V386.999H243.706V349.199C243.706 334.559 236.146 325.799 222.706 325.799C210.466 325.799 205.306 332.999 204.826 341.879H202.306V300.599H185.746V386.999H202.306V353.639C202.306 345.599 208.306 341.519 215.146 341.519ZM345.242 364.439C345.242 350.759 337.682 345.959 323.282 345.839H311.882C300.722 345.839 294.962 341.879 294.962 333.719C294.962 324.839 302.882 320.399 311.282 320.399C322.442 320.399 327.482 326.159 327.002 335.759H343.682C345.362 323.279 342.842 303.719 311.522 303.719C295.322 303.719 277.922 311.759 277.922 328.919C277.922 341.999 286.082 348.719 303.002 348.719H311.762C323.042 348.719 327.842 353.039 327.842 360.479C327.842 368.519 322.322 372.479 311.642 372.479C299.522 372.479 294.602 366.599 295.202 358.799H278.762C276.962 376.319 287.522 388.679 311.642 388.679C333.122 388.679 345.242 378.359 345.242 364.439ZM373.542 370.559V354.959H408.942V338.879H373.542V322.679H417.342V305.399H356.502V336.239H369.462V338.879C360.942 338.879 356.502 342.959 356.502 351.479V386.999H417.462V370.559H373.542ZM509.023 346.079C509.023 322.919 495.223 303.719 466.903 303.719C438.343 303.719 423.583 322.799 423.583 346.079C423.583 370.799 438.103 388.679 466.063 388.679C498.943 388.679 509.023 364.679 509.023 346.079ZM441.583 346.199C441.583 330.359 452.023 320.519 466.303 320.519C481.423 320.519 491.023 330.359 491.023 346.199C491.023 361.919 481.783 371.999 466.303 371.999C452.023 371.999 441.583 361.919 441.583 346.199ZM572.106 326.279C572.106 310.559 559.746 304.199 543.666 304.199C517.386 304.199 512.466 321.719 514.266 334.679H530.946C530.466 325.079 535.266 321.479 543.066 321.479C548.946 321.479 554.466 324.239 554.466 332.399C554.466 340.439 549.426 345.599 535.746 345.599V348.239L540.666 361.319H543.426L548.586 348.119C564.186 345.119 572.106 337.919 572.106 326.279ZM552.906 377.759C552.906 371.279 548.346 367.199 542.106 367.199C535.866 367.199 531.306 371.279 531.306 377.759C531.306 384.239 535.866 388.319 542.106 388.319C548.346 388.319 552.906 384.239 552.906 377.759Z" fill="#2EA5E9"/>
</svg>
