<svg xmlns="http://www.w3.org/2000/svg" viewBox="0 0 1080 1080"><defs><style>.cls-1{isolation:isolate;}.cls-2{fill:#eeb373;}.cls-3,.cls-4,.cls-5{fill:#fbdea7;}.cls-10,.cls-14,.cls-17,.cls-18,.cls-4{mix-blend-mode:multiply;}.cls-10,.cls-14,.cls-16,.cls-17,.cls-18,.cls-4,.cls-5,.cls-9{opacity:0.5;}.cls-16,.cls-5,.cls-9{mix-blend-mode:screen;}.cls-6,.cls-9{fill:#fff;}.cls-7{fill:#fade07;}.cls-10,.cls-8{fill:#f1d15f;}.cls-11,.cls-18{fill:#f0b573;}.cls-12{fill:#fde0aa;}.cls-13,.cls-14{fill:#5452c6;}.cls-15{fill:#348ba4;}.cls-16,.cls-17{fill:#1d2936;}.cls-19{fill:#231f20;}.cls-20{fill:#f785b9;}</style></defs><g class="cls-1"><g id="Layer_1" data-name="Layer 1"><polygon class="cls-2" points="585.34 400.41 585.34 428.25 462.49 428.25 462.49 397.46 585.34 400.41"/><path d="M458.36,428.25V397.46a4.12,4.12,0,0,1,4.23-4.13l122.84,2.95a4.12,4.12,0,0,1,4,4.13v27.84a4.12,4.12,0,0,1-4.13,4.13H462.49A4.13,4.13,0,0,1,458.36,428.25ZM581.2,404.44l-114.58-2.75v22.43H581.2Z"/><rect class="cls-3" x="426.54" y="172.45" width="194.6" height="227.43" rx="39.63"/><path class="cls-4" d="M620.35,286.74V285c-9.58,2.7-21.56,4.41-36.58,4.41-72.53,0-156-38.47-156-38.47s83.46,48.94,156,48.94a166.8,166.8,0,0,0,18-.91c-.67,31.59-1.39,64.06-1.39,74.15,0,21.48-28.71,26.94-38.83,28.2a39.07,39.07,0,0,1-6,.25c-13.65-.48-78.69-2.85-107.25-5a37.49,37.49,0,0,0,13.5,4.23c.49.06,1,.11,1.51.15,25.62,2.21,97.23,4.81,111.62,5.32a36.72,36.72,0,0,0,6-.25c10.13-1.26,38.84-6.72,38.84-28.2,0-12,1-55.35,1.76-91.47Z"/><path class="cls-5" d="M478.87,398.64c-19.51-2.24-34-28-33.77-47.67l1.39-124A38.79,38.79,0,0,1,450,211.86c-2-3.21-4.1-4.77-6.13-3.14A38.73,38.73,0,0,0,429.36,238L428,362c-.22,19.64,14.26,36.61,33.77,38.85.49.06,1,.11,1.51.15C488.87,403.22,479.37,398.7,478.87,398.64Z"/><path d="M584.9,405.7H462.77a42.11,42.11,0,0,1-42.06-42.06V208.69a42.11,42.11,0,0,1,42.06-42.06H584.9A42.11,42.11,0,0,1,627,208.69v155A42.11,42.11,0,0,1,584.9,405.7ZM462.77,178.28a30.44,30.44,0,0,0-30.41,30.41v155a30.45,30.45,0,0,0,30.41,30.42H584.9a30.46,30.46,0,0,0,30.42-30.42V208.69a30.45,30.45,0,0,0-30.42-30.41Z"/><path class="cls-6" d="M478.72,348.18a98.76,98.76,0,0,0,46.37,1.13,249.76,249.76,0,0,0,30.65-9.19,5.64,5.64,0,0,1,7.56,5.19,18.35,18.35,0,0,1-2.83,8.92c-6.55,11.46-22.28,17.36-37.35,17.36C490.73,371.59,470.85,348.83,478.72,348.18Z"/><path d="M561.69,342.39s-7.42,10-24.41,16.38l25-6Z"/><path d="M482.35,353.53s10.26,7.05,28.4,7.6l-25.57,2.39Z"/><path d="M523.12,375.72c-28.41,0-49.88-16.89-50.25-25.68a5.66,5.66,0,0,1,5.5-6,4.34,4.34,0,0,1,1.57.17,95.43,95.43,0,0,0,44.24,1.06,232.74,232.74,0,0,0,28.22-8.37l2-.7a9.89,9.89,0,0,1,9,1.28,9.44,9.44,0,0,1,4.06,7.82,22.6,22.6,0,0,1-3.37,11C557.31,368.09,541.24,375.72,523.12,375.72Zm-38.64-21.93c6,5.55,19.62,13.67,38.64,13.67,15,0,28.54-6.14,33.76-15.28a14.79,14.79,0,0,0,2.29-6.88,1.31,1.31,0,0,0-.58-1.07,1.63,1.63,0,0,0-1.49-.22l-1.93.69A240.37,240.37,0,0,1,526,353.34,103.26,103.26,0,0,1,484.48,353.79Z"/><ellipse cx="491.74" cy="311.1" rx="8.85" ry="11.56"/><ellipse class="cls-6" cx="490.39" cy="308.4" rx="3.86" ry="5.05"/><ellipse cx="544.16" cy="313.17" rx="8.85" ry="11.56"/><path class="cls-7" d="M476.66,301.24s6.27-10.54,15.39-10.54"/><path d="M479.5,304.73a4.14,4.14,0,0,1-4.7-5.43c.2-.56,5-13.8,16.13-16a4.13,4.13,0,1,1,1.61,8.1c-5.39,1.07-9,8.07-10,10.68A4.16,4.16,0,0,1,479.5,304.73Z"/><path class="cls-7" d="M561.81,301.24s-6.28-10.54-15.4-10.54"/><path d="M559.48,305.13a4.13,4.13,0,0,1-3.55-2c-1.43-2.37-6.36-8.53-11.85-8.53a4.13,4.13,0,0,1,0-8.26c11.33,0,18.64,12,18.94,12.56a4.12,4.12,0,0,1-1.43,5.66A4.17,4.17,0,0,1,559.48,305.13Z"/><ellipse class="cls-6" cx="542.84" cy="310.37" rx="3.86" ry="5.05"/><path class="cls-8" d="M621.07,337.12v-76h22.64C638.43,300.2,621.07,337.12,621.07,337.12Z"/><path class="cls-8" d="M474.77,188.8s70.83,39.53,132.39,39.53c85.24,0,47.08-78.19,47.08-78.19s-6.74,17.92-28.67,17.92c-37.38,0-41.47-34.61-105.55-34.61-28.87,0-73.17,27-72.86,56.59C447.16,195,474.77,188.8,474.77,188.8Z"/><path class="cls-9" d="M662.15,177.17a98,98,0,0,0-7.91-27s-6.74,17.92-28.67,17.92c-12.68,0-21.53-4-30.18-9.25l-3.45,1.76S631.1,187.2,662.15,177.17Z"/><path class="cls-8" d="M454.44,220.72s83.46,49.67,156,49.67,55.47-75.84,55.47-75.84-7.95,22.52-33.78,22.52c-44,0-74.35-65.9-149.86-65.9-34,0-52.32,33.88-52,71.11C430.3,228.5,454.44,220.72,454.44,220.72Z"/><path class="cls-10" d="M431.53,224.09c4.63-29.77,22.12-53.74,50.73-53.74,75.51,0,105.81,65.9,149.86,65.9,25.83,0,33.78-22.52,33.78-22.52a79.12,79.12,0,0,1,1.26,8.53,95.22,95.22,0,0,0-1.26-27.71s-7.95,22.52-33.78,22.52c-44,0-74.35-65.9-149.86-65.9-34,0-52.32,33.88-52,71.11A2,2,0,0,0,431.53,224.09Z"/><path class="cls-8" d="M427.78,337.12V251s83.46,38.47,156,38.47,74.51-39.75,74.51-39.75S642.2,260.2,616.37,260.2c-69.32,0-85.26-90-160.77-90-34,0-52.32,33.88-52,71.11C404.09,286.73,427.78,337.12,427.78,337.12Z"/><path class="cls-10" d="M656.81,251.54s-12.33,26.7-67.75,23S514,224.07,467.3,220.16s-61.82,18-61.82,18L407.35,201s18.74-31.84,45.74-29.81,63.23,21.07,81.8,44.8,46.37,41.06,73.69,45A77.23,77.23,0,0,0,656.81,251.54Z"/><path class="cls-9" d="M412.69,209.14S440.3,154.62,532.82,215l-29.73-31-39.92-14.77s-28.5,5.45-29.2,5.8-17.06,15.13-17.06,15.13Z"/><path d="M668.34,194a2.51,2.51,0,0,0-3.51-1.72c1-9-.31-18.64-3-27.72a100.33,100.33,0,0,0-5.7-15.37,2.12,2.12,0,0,0-3.84,0A27.63,27.63,0,0,1,647.9,156c-7.25,8.11-16.93,10.26-27.39,9-18.17-1.63-31.24-15.7-47-23.57-17.29-9-37.11-12.2-56.46-11.83-13.64.86-26.8,5.73-38.61,12.42a112,112,0,0,0-9.41,6.14A50.45,50.45,0,0,0,443.22,165c-19,4.48-33.16,19.54-40.14,39.21a103.29,103.29,0,0,0-5.62,42.4A184.65,184.65,0,0,0,402.8,281a280.52,280.52,0,0,0,20.45,56.36l.39.77a5.55,5.55,0,0,0,1.23,1.78,5.1,5.1,0,0,0,3.81,1.3c.13-2.71.26-5.43.4-8.14a3.3,3.3,0,0,1,2.21,1.78l-.06-.17-.3-.76c-.58-1.45-1.12-2.92-1.67-4.38,1-18.53,2.2-37.2,2.48-55.78.1-5.54.13-11,.15-16.52q4.5,1.86,9,3.61,7.45,2.88,15,5.54c45.06,15.48,92.64,27.83,140.66,24.63a131.59,131.59,0,0,0,20.4-3.3v49.45a4.14,4.14,0,0,0,3.22,4,4.76,4.76,0,0,0,.91.09,4.12,4.12,0,0,0,3.73-2.37c.65-1.37,14.37-30.83,21-65.25a43.56,43.56,0,0,0,7.69-8.67,38.48,38.48,0,0,0,3.8-7.21,34.52,34.52,0,0,0,1.43-4.64,56,56,0,0,0,10.08-23.7A95.13,95.13,0,0,0,668.34,194ZM497.55,142c7.71-2.83,15.72-4.79,24-4.64l4.23,0c18.3.37,36.35,4.57,52,14.17,13.52,8,25.62,17.87,42.23,19,12.07,1.11,23.45-2.08,31.41-11.65a42.87,42.87,0,0,0,2.66-3.74,103.57,103.57,0,0,1,3.47,10.57c4,14.81,4,28.38-1.39,38.79-11.22,11.15-28.4,11.84-44,4.33-18-8.66-32.15-22.39-48.77-33.8-20.14-14.42-44-25.73-69.05-27.94-2.07-.22-4.61-.4-7-.52A98.41,98.41,0,0,1,497.55,142ZM625.19,316V285.18c.91-.32,1.82-.64,2.72-1a68.2,68.2,0,0,0,8-3.73A304.79,304.79,0,0,1,625.19,316Zm-13.43-30.79c-52.65,8.63-119.16-11.79-167.91-31.71-4.83-2-9.69-4.11-14.33-6.28a4.16,4.16,0,0,0-5.87,3.75c0,6.85,0,13.62.18,20.34.31,16.69,1.52,33.24,2.45,49.94-2-5.72-3.84-11.49-5.56-17.22-6-20.39-10.45-41.55-10.63-62.82,0-25.42,9.88-57.72,37.83-63.66,7.93-1.4,16.32-.69,24.24.78,16.76,3.14,31.33,12.5,44.26,23.62,24.65,21.09,45.13,53.57,78.89,58.82,38.32,6,60-7.45,59.89-6.91C649.44,273.22,630.3,282,611.76,285.21ZM653.06,251a73.22,73.22,0,0,1-7.56,2.69,89.08,89.08,0,0,1-32.5,3.4,70.57,70.57,0,0,1-24.73-6.59,89.48,89.48,0,0,1-13.77-8.31c-19-14-33-33-50.49-48.84-17.26-16.35-39.26-28.53-63.58-29.54-.7-.06-1.39-.1-2.07-.14a37.69,37.69,0,0,1,17.95-7.41,45.75,45.75,0,0,1,7.12-.41,114.32,114.32,0,0,1,15,1c22,2.68,42,12.43,60.25,25,16.73,11.12,32.08,25,50.6,33.38,19.94,9.18,43.23,6.11,55.22-12.56C666.37,220.22,663.53,238.53,653.06,251Z"/><rect class="cls-11" x="675.85" y="603.87" width="49.41" height="53.16" transform="translate(-124.03 174.04) rotate(-13.02)"/><path d="M682.47,667.16a5.25,5.25,0,0,1-5.11-4.07l-12-51.79a5.24,5.24,0,0,1,3.93-6.3l48.14-11.13a5.2,5.2,0,0,1,4,.66,5.28,5.28,0,0,1,2.34,3.27l12,51.79a5.25,5.25,0,0,1-3.93,6.3L683.66,667A5.37,5.37,0,0,1,682.47,667.16Zm-5.67-53.11,9.61,41.56,37.91-8.77-9.61-41.56Z"/><path class="cls-11" d="M711.53,642.9c-24.86,0-45,35.76-45,60.62a45,45,0,0,0,28.08,41.71V718.29c-10.64-5.95-17.84-1.71-17.84-14.77a34.78,34.78,0,0,1,69.56,0c0,8.36-2.95-2.84-7.86,3.16l2.11,31.22a44.88,44.88,0,0,0,16-34.38C756.54,678.66,736.39,642.9,711.53,642.9Z"/><path d="M694.59,750.48a5.16,5.16,0,0,1-2-.39,50.08,50.08,0,0,1-31.36-46.57c0-13.41,5.4-29.73,14.09-42.58,10.16-15,23-23.29,36.18-23.29s26,8.27,36.18,23.29c8.69,12.85,14.08,29.17,14.08,42.58A50.18,50.18,0,0,1,744,741.91a5.25,5.25,0,0,1-8.63-3.65L733.21,707a5.27,5.27,0,0,1,1.17-3.68,9.77,9.77,0,0,1,6.42-3.74,29.53,29.53,0,0,0-58.8,3.91c0,4.85,0,4.85,4.88,6.21a43.33,43.33,0,0,1,10.27,4,5.23,5.23,0,0,1,2.7,4.58v26.94a5.26,5.26,0,0,1-5.26,5.25Zm-22.27-40.29a39.55,39.55,0,0,0,17,26.34v-15a42.92,42.92,0,0,0-5.27-1.72C679.63,718.61,674.33,717.13,672.32,710.19Zm71.74,1.6.9,13.26a39.86,39.86,0,0,0,6.1-17.2,5.83,5.83,0,0,1-3,3.56A5.45,5.45,0,0,1,744.06,711.79Zm-32.53-48.31a40.12,40.12,0,0,1,38.55,29.22A75.34,75.34,0,0,0,739,666.83c-8-11.87-18-18.68-27.48-18.68s-19.46,6.81-27.48,18.68A75.24,75.24,0,0,0,673,692.68,40.13,40.13,0,0,1,711.53,663.48Z"/><path d="M694.59,731.61a5.15,5.15,0,0,1-2-.38A50.27,50.27,0,1,1,744,723.05a5.26,5.26,0,0,1-8.57-3.12l-2.12-12.37a5.26,5.26,0,0,1,1.11-4.21,29.52,29.52,0,1,0-37.23,7.1,5.24,5.24,0,0,1,2.7,4.58v11.33a5.24,5.24,0,0,1-5.26,5.25Z"/><path class="cls-12" d="M711.53,639.64a45,45,0,0,0-16.94,86.72V715a34.78,34.78,0,1,1,43.86-8.35L740.56,719a45,45,0,0,0-29-79.4Z"/><path class="cls-13" d="M661.13,632.28,736,619.86l-17.28-96.15-25.57-45.82a66.65,66.65,0,0,0-50.89-33.75l-15-1.28Z"/><path class="cls-14" d="M677,494l25.57,45.81,14.94,83.08L736,619.86l-17.28-96.15-25.57-45.82a66.65,66.65,0,0,0-50.89-33.75l-15-1.28,3.22,18.05A66.62,66.62,0,0,1,677,494Z"/><path d="M661.12,637.53a5.24,5.24,0,0,1-5.16-4.32L622.11,443.78a5.25,5.25,0,0,1,5.61-6.15l15,1.28h.13a72,72,0,0,1,54.89,36.41l25.57,45.81a5.28,5.28,0,0,1,.59,1.64l17.28,96.15a5.23,5.23,0,0,1-4.31,6.11L662,637.46A5.1,5.1,0,0,1,661.12,637.53ZM633.65,448.67l31.74,177.58,64.53-10.7-16.19-90-25.14-45.05a61.47,61.47,0,0,0-46.81-31.08Z"/><rect class="cls-15" x="513.88" y="691.16" width="24.06" height="115.45"/><path d="M538,811.87H513.88a5.25,5.25,0,0,1-5.25-5.26V691.16a5.25,5.25,0,0,1,5.25-5.25H538a5.25,5.25,0,0,1,5.25,5.25V806.61A5.25,5.25,0,0,1,538,811.87Zm-18.81-10.51h13.55v-105H519.14Z"/><rect class="cls-15" x="537.72" y="689.63" width="121.92" height="259.2"/><path d="M659.64,954.08H537.72a5.25,5.25,0,0,1-5.25-5.25V689.63a5.25,5.25,0,0,1,5.25-5.25H659.64a5.25,5.25,0,0,1,5.25,5.25v259.2A5.25,5.25,0,0,1,659.64,954.08ZM543,943.58H654.39V694.88H543Z"/><rect class="cls-16" x="554.56" y="704.26" width="4.67" height="81.93"/><rect class="cls-17" x="563.09" y="704.26" width="79.72" height="81.93"/><rect class="cls-15" x="398.29" y="690.81" width="121.92" height="259.2" transform="translate(5.46 -3.03) rotate(0.38)"/><path d="M519.31,955.66l-121.91-.81a5.25,5.25,0,0,1-5.22-5.29l1.72-259.19a5.25,5.25,0,0,1,5.29-5.21L521.1,686a5.24,5.24,0,0,1,5.22,5.28L524.6,950.44A5.26,5.26,0,0,1,519.31,955.66ZM402.72,944.38l111.41.74,1.65-248.69-111.41-.74Z"/><rect class="cls-17" x="424.15" y="705.47" width="79.72" height="81.93" transform="translate(4.97 -3.06) rotate(0.38)"/><rect class="cls-16" x="415.62" y="705.17" width="4.67" height="81.93" transform="translate(4.96 -2.76) rotate(0.38)"/><path d="M572,804.63l65.9-3.3a5,5,0,0,1,5.25,4.74c0,.13,0,.38,0,.51v33.49a5,5,0,0,1-5.25,5.25l-63.2-2.8a2.45,2.45,0,0,1,0-4.9l63.2-2.8-5.25,5.25V806.58l5.25,5.25-65.9-3.3a2,2,0,0,1,0-3.9Z"/><path d="M425.82,805.59l65.92-2.87A5,5,0,0,1,497,807.5c0,.13,0,.38,0,.51l-.22,33.49a5.05,5.05,0,0,1-5.29,5.22l-63.18-3.23a2.45,2.45,0,0,1,0-4.9l63.22-2.38-5.29,5.22.23-33.49,5.21,5.29-65.87-3.74a2,2,0,0,1,0-3.9Z"/><path d="M659.45,891.06H539.78a5.25,5.25,0,0,1,0-10.5H659.45a5.25,5.25,0,0,1,0,10.5Z"/><path d="M519.58,892.64l-118.77-.79a5.25,5.25,0,0,1,.07-10.5l118.77.79a5.25,5.25,0,0,1-.07,10.5Z"/><rect class="cls-11" x="322.99" y="602.87" width="49.41" height="53.16" transform="translate(544.63 1321.05) rotate(-166.98)"/><rect class="cls-18" x="357.52" y="606.81" width="14.42" height="53.16" transform="translate(577.39 1332.67) rotate(-166.98)"/><path d="M364.59,666l-48.14-11.14a5.24,5.24,0,0,1-3.93-6.3l12-51.79a5.27,5.27,0,0,1,2.34-3.27,5.2,5.2,0,0,1,4-.66L378.93,604a5.28,5.28,0,0,1,3.27,2.34,5.2,5.2,0,0,1,.66,4l-12,51.79a5.28,5.28,0,0,1-6.3,3.94Zm-31-61.74-9.61,41.55,37.91,8.77,9.61-41.56Z"/><path class="cls-11" d="M336.72,641.9c24.86,0,45,35.76,45,60.62a45,45,0,0,1-28.09,41.71V717.29c10.65-5.94,17.85-1.71,17.85-14.77a34.78,34.78,0,1,0-69.56,0c0,8.36,2.95-2.84,7.86,3.16l-2.12,31.23a44.92,44.92,0,0,1-16-34.39C291.7,677.66,311.86,641.9,336.72,641.9Z"/><path class="cls-18" d="M353.61,647.46l-5.77,22.1a34.8,34.8,0,0,1,23.66,33c0,13.06-7.2,8.83-17.85,14.77v26.94a45,45,0,0,0,28.09-41.71C381.74,683.63,370.1,658.47,353.61,647.46Z"/><path d="M350.72,748.59a5.26,5.26,0,0,1-2.32-4.36V717.29a5.25,5.25,0,0,1,2.69-4.58,43.49,43.49,0,0,1,10.27-4c4.89-1.36,4.89-1.36,4.89-6.21a29.53,29.53,0,0,0-58.8-3.91,9.74,9.74,0,0,1,6.41,3.74A5.26,5.26,0,0,1,315,706l-2.12,31.22a5.25,5.25,0,0,1-8.63,3.66,50.23,50.23,0,0,1-17.84-38.4c0-13.41,5.4-29.72,14.09-42.57,10.16-15,23-23.3,36.18-23.3s26,8.27,36.18,23.3C381.59,672.8,387,689.11,387,702.52a50.1,50.1,0,0,1-31.36,46.58,5.44,5.44,0,0,1-2,.38A5.25,5.25,0,0,1,350.72,748.59Zm13.46-29.74a44.7,44.7,0,0,0-5.27,1.72v15a39.53,39.53,0,0,0,17-26.34C373.92,716.14,368.62,717.61,364.18,718.85Zm-64-8.44a5.78,5.78,0,0,1-3-3.56,39.82,39.82,0,0,0,6.1,17.2l.9-13.25A5.45,5.45,0,0,1,300.16,710.41Zm75.1-18.72a75.27,75.27,0,0,0-11.06-25.86c-8-11.87-18-18.68-27.48-18.68s-19.45,6.81-27.48,18.68a75.34,75.34,0,0,0-11.07,25.87,40,40,0,0,1,77.09,0Z"/><path d="M353.65,730.62a5.25,5.25,0,0,0,2-.39,50.28,50.28,0,1,0-51.34-8.18,5.25,5.25,0,0,0,8.57-3.12L315,706.57a5.24,5.24,0,0,0-1.12-4.22,29.53,29.53,0,1,1,37.23,7.1A5.26,5.26,0,0,0,348.4,714v11.33a5.26,5.26,0,0,0,5.25,5.25Z"/><path class="cls-12" d="M336.72,638.64a45,45,0,0,1,16.93,86.73V714a34.78,34.78,0,1,0-43.85-8.36L307.68,718a45,45,0,0,1,29-79.4Z"/><path class="cls-13" d="M387.12,631.29l-74.91-12.43,17.29-96.15,25.57-45.81A66.6,66.6,0,0,1,406,443.15l15-1.29Z"/><polygon class="cls-14" points="358.91 626.61 384.92 633.39 420.97 441.86 358.91 626.61"/><path d="M386.26,636.47,311.35,624a5.25,5.25,0,0,1-3.43-2.15,5.3,5.3,0,0,1-.88-4l17.29-96.15a5.3,5.3,0,0,1,.58-1.63l25.58-45.81a72,72,0,0,1,54.89-36.41l.13,0,15-1.28a5.25,5.25,0,0,1,5.62,6.16L392.29,632.21a5.25,5.25,0,0,1-5.16,4.33A6.38,6.38,0,0,1,386.26,636.47Zm20.21-188.1a61.48,61.48,0,0,0-46.81,31.09l-25.15,45-16.19,90,64.54,10.71L414.6,447.68Z"/><rect class="cls-13" x="398.16" y="659.11" width="255.51" height="32.41"/><path d="M653.67,696.77H398.16a5.25,5.25,0,0,1-5.25-5.25V659.11a5.25,5.25,0,0,1,5.25-5.25H653.67a5.25,5.25,0,0,1,5.25,5.25v32.41A5.25,5.25,0,0,1,653.67,696.77Zm-250.26-10.5h245V664.36h-245Z"/><polygon class="cls-13" points="666.71 663.94 385.12 663.94 427.14 427.13 624.79 427.13 666.71 663.94"/><polygon class="cls-14" points="486.56 428.47 444.25 448.67 417.35 639.64 662.36 639.64 666.5 663.94 386.7 662.32 429.06 427.13 486.56 428.47"/><path d="M666.71,669.2H385.12A5.26,5.26,0,0,1,380,663l42-236.82a5.25,5.25,0,0,1,5.17-4.33H624.79a5.26,5.26,0,0,1,5.17,4.34L671.88,663a5.26,5.26,0,0,1-5.17,6.17ZM391.39,658.69H660.44L620.38,432.38H431.54Z"/><path class="cls-19" d="M633.55,543.24a6.26,6.26,0,0,0-2.41-4.64,12.33,12.33,0,0,0-1.32-.91,7.15,7.15,0,0,0-2.63-4.29,14.11,14.11,0,0,0-4.83-2.48,23,23,0,0,0-6.35-.83,33.43,33.43,0,0,0-4.1.26c-5.93.71-11.7,1.51-17.16,2.37l-1.61.28c.51-3.21,1-6.48,1.54-9.7l.12-.74c.51-3.18,1-6.46,1.64-9.66.22-1.15.52-2.3.84-3.51.22-.87.46-1.77.66-2.68a5.35,5.35,0,0,0-3.15-6.1l-.35-.13a6.28,6.28,0,0,0-3.79-5.19,5.76,5.76,0,0,0-2.3-.49,6.2,6.2,0,0,0-5,2.71,8.87,8.87,0,0,0-.76,1.31c-.53,1.06-1,2.13-1.54,3.17l.8.38L581,502l-.06.12-.22-.09a6.49,6.49,0,0,0-1.36-3.31,6.68,6.68,0,0,0-5.26-2.46h-.35q-1.32.06-2.55.18a4.4,4.4,0,0,0,0-1.15,5.21,5.21,0,0,0-3.57-4.23c0-.14,0-.28,0-.41a6.12,6.12,0,0,0-4.42-5,6.24,6.24,0,0,0-1.8-.27,6.12,6.12,0,0,0-4.73,2.35,11.91,11.91,0,0,0-2.16,4.82l-.07.29c-.8,3.07-1.57,5.85-2.35,8.49-.28.12-.58.23-.9.34-.69.25-1.4.51-2.15.86l-.41.2c-2.34,1.11-4.76,2.27-7.1,3.61a6.1,6.1,0,0,0-3,3.84s0,.11,0,.17a8.45,8.45,0,0,0-2.17-.64,10.14,10.14,0,0,0-1.74-.15,13.26,13.26,0,0,0-7.19,2.42,26.35,26.35,0,0,0-10.71,13.88,5.22,5.22,0,0,0-1.46-.76,6.25,6.25,0,0,0-1.34-3.34,6.17,6.17,0,0,0-2.4-1.83A49.88,49.88,0,0,1,514,509.73a5.05,5.05,0,0,0-.57-4.93,5.78,5.78,0,0,0-2.66-2.05,6,6,0,0,0-1.12-3,6.32,6.32,0,0,0-5.1-2.72,6.12,6.12,0,0,0-5.63,4c-.92,2.2-1.65,4.46-2.38,6.77-.5,1.57-1,3.15-1.42,4.68-.54,1.8-1.09,3.67-1.68,5.46-.42,1.28-.84,2.56-1.24,3.73a6.91,6.91,0,0,0-1.08-1.39,7.24,7.24,0,0,0-5.17-2.11,8.35,8.35,0,0,0-3.65.86,16,16,0,0,0-5.66,4.69c-.72.93-1.43,1.91-2.14,3a5.59,5.59,0,0,0-1.54-1.6,6.24,6.24,0,0,0-3.59-1.16,6.33,6.33,0,0,0-5.92,4.36,7,7,0,0,0-1-.38,6.12,6.12,0,0,0-1.75-.25,5.88,5.88,0,0,0-5.13,3,9.33,9.33,0,0,0-1,2.52c-.15.64-.32,1.28-.48,1.91v.06c0,.19-.1.37-.14.56.84-4.1,1.88-8.43,3.16-13.12.18-.68.39-1.38.59-2.06s.47-1.62.7-2.45a5.61,5.61,0,0,0-1-5.32,5.3,5.3,0,0,0-2.37-1.6,6,6,0,0,0-1.45-3.48,6.22,6.22,0,0,0-4.72-2.19,5.74,5.74,0,0,0-5.14,3,17.73,17.73,0,0,0-1.47,4.17l-.46,1.82c-1.18,4.66-2.4,9.48-3.51,14.27-.68,3-1.22,6-1.74,8.94l-.24,1.34-.3,1.64,0,.1a64.26,64.26,0,0,0-1.42,12,18,18,0,0,0,1.26,7.42,7.31,7.31,0,0,0,5.54,4.59,6.12,6.12,0,0,0,5.4,3.67,6,6,0,0,0,1.71-.26,9.57,9.57,0,0,0,3.69-2.28,43,43,0,0,0,4.46-5.12,5,5,0,0,0,.56.07,5.24,5.24,0,0,0,4.95,3.62c.21,0,.41,0,.62,0a5.28,5.28,0,0,0,4.6-4.69,5.13,5.13,0,0,0,3.53,2.41,4.4,4.4,0,0,0,.89.08,5.56,5.56,0,0,0,4.93-3.27l.25-.52c.21-.43.4-.83.61-1.21l1.83-3.39a7.14,7.14,0,0,0,3.83,2,6.31,6.31,0,0,0,5.77,3.71,6.91,6.91,0,0,0,3.26-.84l.42-.23a35.8,35.8,0,0,0,.82,4.81,5.8,5.8,0,0,0,.75,1.84l-2.45.85c-2.1.73-4.27,1.48-6.41,2.25-4.49,1.61-10.4,3.75-16.34,6-4.09,1.54-8.13,3.18-11.55,4.58a9,9,0,0,0-3,2.09,5.75,5.75,0,0,0-.85,7,6,6,0,0,0,4.88,3.2,5.52,5.52,0,0,0,4.81,3.62,4.56,4.56,0,0,0,1.16-.15,10.9,10.9,0,0,0,1.92-.71c.24-.11.46-.21.67-.29l3.65-1.41c3.58-1.39,7.29-2.83,10.93-4.21,3.4-1.28,7.07-2.63,11.21-4.11,1.76-.63,3.56-1.25,5.3-1.85,2-.69,4.08-1.4,6.11-2.13,4-1.45,8.07-2.94,12-4.39l6.86-2.51,7.16-2.61c3.13-1.14,6.37-2.31,9.55-3.48,1.86-.68,3.75-1.39,5.58-2.08,3.33-1.25,6.77-2.54,10.17-3.72,6.11-2.12,12.42-4.14,17.88-5.88-.12,1.61-.26,3.25-.39,4.84v0c-.33,3.85-.67,7.83-.72,11.85a4.29,4.29,0,0,0-.5.19,6.06,6.06,0,0,0-3.61,4.62,6.31,6.31,0,0,0,2.24,5.67,6.48,6.48,0,0,1,1.63,2.41c.07.15.14.3.21.47a17,17,0,0,0,1.3,2.53,6.09,6.09,0,0,0,4.55,2.77,11.1,11.1,0,0,0,.7,1.24,5.18,5.18,0,0,0,4.32,2.39,5.06,5.06,0,0,0,4.56-2.92,8,8,0,0,0,.62-3.51v0c0-1.61,0-3.24,0-4.81,0-2.73,0-5.55.06-8.28.33-8.18,1-16.13,2.06-23.64,0-.12,0-.23.05-.34l.27-.06a218.41,218.41,0,0,1,24.52-4.11c1.54-.14,3.19-.28,4.79-.28a20.9,20.9,0,0,1,2.83.17,5,5,0,0,0,3.4,3.29,5.71,5.71,0,0,0,1.61.24,4.79,4.79,0,0,0,3.39-1.39A6.85,6.85,0,0,0,633.55,543.24ZM522.8,546.39a10.46,10.46,0,0,0,8.62,4.32,13,13,0,0,0,1.86-.14,12.6,12.6,0,0,0,6.52-3.24,28.29,28.29,0,0,0,5.13-5.93,6.8,6.8,0,0,0,4.68,1.84,7.07,7.07,0,0,0,3-.68,11.71,11.71,0,0,0,4.81-4.32c.2-.29.38-.58.57-.87a6.45,6.45,0,0,0,1.37.37c0,.07,0,.13.08.19a6.53,6.53,0,0,0,2.86,2.88c-2.3.69-4.61,1.39-6.9,2.11-4.29,1.35-8.56,2.91-12.68,4.41l-1.43.53c-2.42.88-4.85,1.8-7.2,2.7-2.18.83-4.44,1.69-6.66,2.51l-5.63,2a5.61,5.61,0,0,0-1.36-2.42,13.82,13.82,0,0,0-1.38-1.27l-.8-.66a6.47,6.47,0,0,0-1.67-3.18,14.24,14.24,0,0,0-1.46-1.35l-3.15-2.6c1.17-2,2.34-4.07,3.48-6.07A11.64,11.64,0,0,0,522.8,546.39Zm51.58-14.84a6.7,6.7,0,0,0,2.23.54c-.24,1.63-.48,3.2-.71,4.73l-.22.07-5.23,1.53a6.74,6.74,0,0,0,.46-.68C572,535.84,573.15,533.8,574.38,531.55Zm-66.11,25a7.14,7.14,0,0,0,1.51.91c.53.45,1.08.9,1.63,1.35l-.76.28-2.23.81c-.07-1.1-.12-2.22-.15-3.35Z"/><path class="cls-20" d="M629.05,538.74a6.31,6.31,0,0,0-2.42-4.65,13.35,13.35,0,0,0-4.52-2.31,22,22,0,0,0-6.1-.8,33.89,33.89,0,0,0-4,.26c-5.91.71-11.67,1.5-17.12,2.37-2.47.39-4.91.93-7.29,1.46.23-1.43.45-2.86.68-4.29.62-3.93,1.26-8,1.9-12l.12-.74c.51-3.18,1-6.47,1.64-9.66.22-1.15.52-2.3.83-3.51.23-.87.46-1.77.67-2.68a5.35,5.35,0,0,0-3.16-6.1,4.81,4.81,0,0,0-1.93-.41,5.31,5.31,0,0,0-4.28,2.33,7.42,7.42,0,0,0-.69,1.19c-.53,1.06-1,2.13-1.54,3.17-1.07,2.22-2.18,4.52-3.37,6.68.15-.58.32-1.17.5-1.78.25-.9.52-1.83.74-2.79a6,6,0,0,0-1-5.22,5.77,5.77,0,0,0-4.56-2.12h-.31a46.39,46.39,0,0,0-8.23,1.06c.17-.91.34-1.81.5-2.7s.38-2,.56-3a5.14,5.14,0,0,0,.05-1.74,5.23,5.23,0,0,0-3.8-4.31,5.14,5.14,0,0,0-1.54-.23,5.21,5.21,0,0,0-4,2,11.08,11.08,0,0,0-2,4.47l-.07.29c-.85,3.23-1.66,6.16-2.48,8.94-.41.18-.86.34-1.33.51a21.28,21.28,0,0,0-2.07.83l-.42.2c-2.32,1.1-4.73,2.25-7,3.58a5.17,5.17,0,0,0-2.56,3.27,4.83,4.83,0,0,0-.12,1.47,6.9,6.9,0,0,0-3.1-1.27,9.59,9.59,0,0,0-1.6-.13,12.54,12.54,0,0,0-6.71,2.27,25.61,25.61,0,0,0-10.58,14.12,20.82,20.82,0,0,0-1,10.06,10.67,10.67,0,0,0,10.66,9.32,13,13,0,0,0,1.86-.14,12.6,12.6,0,0,0,6.52-3.24,28.89,28.89,0,0,0,5.13-5.93,6.84,6.84,0,0,0,4.68,1.83,7.09,7.09,0,0,0,3-.67,11.77,11.77,0,0,0,4.81-4.32c.46-.69.89-1.38,1.29-2.08a12.43,12.43,0,0,0,.73,1.77,6,6,0,0,0,9.46,2,8.46,8.46,0,0,0,2-2.19c1.11-1.9,2.25-4,3.47-6.2a7.1,7.1,0,0,0,2.82.58h.09a9.27,9.27,0,0,0,5.24-1.68l.46-.32c-.64,4.31-1.23,8.24-1.78,11.93l-.77.19-5.64,1.66c-4.8,1.39-9.75,2.84-14.61,4.37-4.27,1.35-8.53,2.9-12.64,4.4l-1.44.53c-2.41.88-4.83,1.8-7.18,2.7-2.18.83-4.44,1.69-6.67,2.51-3.09,1.13-6.25,2.26-9.31,3.35-2.45.88-5,1.78-7.48,2.69-1.95.7-3.91,1.44-5.81,2.15l-.67.25a7.53,7.53,0,0,0-.05-2.32,59.77,59.77,0,0,1-.68-8.34l1.19,1q1.86,1.56,3.89,3.17a5.55,5.55,0,0,0,3.45,1.24,5.24,5.24,0,0,0,3.67-8.93,13.82,13.82,0,0,0-1.38-1.27l-7.84-6.46c1.54-2.68,3.09-5.39,4.59-8l2.2-3.84a5.52,5.52,0,0,0-.36-6.29,5.08,5.08,0,0,0-7.22-.83c.25-1.64.52-3.28.81-4.9.07-.38.14-.77.2-1.15a50.48,50.48,0,0,1,2.53-10.19,5.05,5.05,0,0,0-.57-4.93,5.43,5.43,0,0,0-4.38-2.35,5.22,5.22,0,0,0-4.8,3.4c-.9,2.17-1.63,4.41-2.36,6.7-.49,1.56-1,3.14-1.41,4.66-.54,1.81-1.1,3.68-1.69,5.49-.66,2-1.34,4-2,6.06a6.6,6.6,0,0,0-1.77-3.37,6.36,6.36,0,0,0-4.54-1.85,7.37,7.37,0,0,0-3.26.78,15.09,15.09,0,0,0-5.35,4.43,49.56,49.56,0,0,0-3,4.32,4.86,4.86,0,0,0-1.91-2.76,5.37,5.37,0,0,0-3.08-1,5.57,5.57,0,0,0-5.31,4.53c0,.11-.05.22-.08.33a5.07,5.07,0,0,0-1.77-.92,5.5,5.5,0,0,0-1.5-.22,5,5,0,0,0-4.36,2.53,8.62,8.62,0,0,0-.88,2.29c-.16.65-.33,1.31-.49,2-.52,2-1,4.14-1.44,6.28-.15.78-.28,1.56-.4,2.34a4.94,4.94,0,0,0-.49-.19,5.44,5.44,0,0,0-1.74-.3,5,5,0,0,0-4.08,2.2h0c.27-1.6.56-3.2.85-4.77s.58-3.18.85-4.78c.95-5.55,2.29-11.46,4.1-18.07.18-.68.39-1.38.59-2.06s.47-1.62.69-2.45a5.6,5.6,0,0,0-1-5.32,5.33,5.33,0,0,0-4-1.88,4.86,4.86,0,0,0-4.35,2.57,16.73,16.73,0,0,0-1.39,4l-.46,1.82c-1.18,4.66-2.41,9.47-3.51,14.25-.68,3-1.21,6-1.73,8.89l-.24,1.34c-.11.59-.21,1.17-.32,1.75a63,63,0,0,0-1.4,11.79,17.15,17.15,0,0,0,1.18,7.08c1.14,2.57,3.23,4.11,5.62,4.11a6,6,0,0,0,1.71-.26,9.44,9.44,0,0,0,3.68-2.28,43.75,43.75,0,0,0,4.86-5.65,5.27,5.27,0,0,0,5.12,4.22l.62,0a5.28,5.28,0,0,0,4.6-4.69,5.11,5.11,0,0,0,3.52,2.41,5.47,5.47,0,0,0,.9.08,5.56,5.56,0,0,0,4.93-3.27c.08-.18.17-.35.25-.52.21-.43.4-.84.61-1.22.9-1.66,1.8-3.33,2.71-5l2.77-5.12-.09.42a20,20,0,0,0-.33,6.16A6.43,6.43,0,0,0,484.5,555a7,7,0,0,0,3.26-.84,13.11,13.11,0,0,0,4-3.35c.54-.67,1.05-1.37,1.54-2.09.06,2.86.13,5.79.23,8.74a31.26,31.26,0,0,0,.86,5.58,4.86,4.86,0,0,0,1.38,2.47l-3.66,1.27c-2.1.72-4.27,1.48-6.4,2.24-4.48,1.61-10.39,3.75-16.32,6-4.08,1.54-8.12,3.17-11.53,4.57a7.86,7.86,0,0,0-2.66,1.89,4.87,4.87,0,0,0-.72,5.9,5.11,5.11,0,0,0,4.42,2.76A4.56,4.56,0,0,0,460,590a10.78,10.78,0,0,0,1.91-.71l.68-.29,3.65-1.42c3.58-1.38,7.28-2.82,10.93-4.2,3.4-1.29,7.07-2.63,11.21-4.11,1.76-.63,3.56-1.25,5.3-1.85,2-.69,4.07-1.4,6.11-2.14,4-1.44,8.07-2.93,12-4.38l6.86-2.51c2.38-.88,4.77-1.74,7.16-2.61,3.13-1.14,6.36-2.31,9.54-3.48l5.59-2.08c3.33-1.25,6.77-2.54,10.17-3.72,6.16-2.14,12.54-4.18,18-5.93,2-.62,4-1.18,6-1.71-.27,2-.54,4.1-.7,6.2-.12,1.66-.26,3.36-.4,5-.35,4.06-.72,8.25-.73,12.47a4.25,4.25,0,0,0-1,.31,5.16,5.16,0,0,0-3.08,3.93,5.42,5.42,0,0,0,1.93,4.86,7.33,7.33,0,0,1,1.87,2.72l.21.48a16.6,16.6,0,0,0,1.23,2.4,5.16,5.16,0,0,0,4.32,2.39,5.06,5.06,0,0,0,4.56-2.92,7.84,7.84,0,0,0,.61-3.52v0c0-1.61,0-3.24,0-4.81,0-2.73,0-5.55.06-8.28.33-8.19,1-16.14,2.06-23.64,0-.12,0-.23.05-.34l.27-.06a216.15,216.15,0,0,1,24.52-4.11c1.54-.15,3.18-.28,4.79-.28a22.74,22.74,0,0,1,2.83.16,4.93,4.93,0,0,0,3.4,3.29,5.35,5.35,0,0,0,1.61.25,4.79,4.79,0,0,0,3.39-1.39A6.85,6.85,0,0,0,629.05,538.74ZM536.77,522.4c-.39.69-.77,1.39-1.14,2.07a49.83,49.83,0,0,1-5.79,8.95,10.16,10.16,0,0,1-2.66,2.18,1.84,1.84,0,0,1-.36.14,1.63,1.63,0,0,1-.18-.6,12.61,12.61,0,0,1,1.15-6.58,14.14,14.14,0,0,1,6.49-7.43l.16-.07h0a5.48,5.48,0,0,0,1.92.36,4.62,4.62,0,0,0,1-.11C537.17,521.69,537,522.05,536.77,522.4Zm11.51-3.84a5,5,0,0,0-1.69-2.17,6.73,6.73,0,0,0,.82-.38l2-1.08C549,516.14,548.66,517.36,548.28,518.56Zm19.07-8.75c-.52,2-.94,3.72-1.31,5.32a4.56,4.56,0,0,0-1.94,1.18l.06-2,.15-4.86,3.35-.76C567.55,509.06,567.45,509.44,567.35,509.81Z"/><path class="cls-6" d="M582.18,517.83c-.23.3-.49.58-.7.89a18.43,18.43,0,0,1-4.94,5,6.64,6.64,0,0,1-3.82,1.23,3.76,3.76,0,0,1-3-1.22c-.62-.67-.84-.55-1.27.25-1.43,2.66-2.9,5.32-4.41,7.94a5.91,5.91,0,0,1-1.4,1.47,3.35,3.35,0,0,1-5.34-1.16,11.34,11.34,0,0,1-1.14-4.59c-.1-1.89-.06-3.79-.08-5.69,0-.45,0-.89,0-1.34l-.26-.06c-.2.58-.41,1.16-.6,1.75a38.1,38.1,0,0,1-4.55,9.94,9.26,9.26,0,0,1-3.72,3.41,4.26,4.26,0,0,1-6-3.06c-.06-.29-.14-.58-.28-1.14-.3.45-.47.68-.61.93a30.4,30.4,0,0,1-6.5,8.44,10.21,10.21,0,0,1-5.17,2.61,8,8,0,0,1-9.47-7,18.37,18.37,0,0,1,.92-8.8A22.93,22.93,0,0,1,529.31,515a8.9,8.9,0,0,1,6.41-1.75,3.45,3.45,0,0,1,2.7,1.69,2.51,2.51,0,0,1-.35,3,2.23,2.23,0,0,1-2.68.64,2.74,2.74,0,0,0-2.37.21,17,17,0,0,0-7.71,8.77,15.41,15.41,0,0,0-1.33,8c.32,2.49,2.28,3.66,4.48,2.47a12.61,12.61,0,0,0,3.4-2.77c3-3.43,5-7.53,7.25-11.47.75-1.34,1.42-2.72,2.14-4.07a2.45,2.45,0,0,1,3-1.45,2.62,2.62,0,0,1,1.78,2.94c-.17,2.66-.29,5.32-.42,8a7.26,7.26,0,0,0,0,.8l.21.09a8.05,8.05,0,0,0,.63-.68,33,33,0,0,0,3.88-8.48c1.09-3.34,2-6.72,3-10.09a3.08,3.08,0,0,0,.06-.72c-1.09.47-2.08.84-3,1.31q-2.19,1.11-4.35,2.31a2.67,2.67,0,0,1-3.64-.58,2.39,2.39,0,0,1,.81-3.66c2.35-1.35,4.82-2.51,7.27-3.67,1.17-.56,2.45-.9,3.63-1.45a2.18,2.18,0,0,0,1.08-1.16c.92-3.12,1.79-6.27,2.61-9.42A9.26,9.26,0,0,1,559.4,490a2.42,2.42,0,0,1,2.72-.92,2.55,2.55,0,0,1,1.92,2.16,2.32,2.32,0,0,1,0,.83c-.5,2.73-1,5.45-1.51,8.18-.29,1.68-.24,1.7,1.41,1.21a41.25,41.25,0,0,1,10-1.6c1.85-.09,3.77,1.28,3.14,4.06-.35,1.55-.85,3.06-1.24,4.59q-1.29,5.07-2.53,10.14a3.1,3.1,0,0,0,0,.8,2.91,2.91,0,0,0,.79-.32c3-2.32,4.87-5.46,6.63-8.66s3.35-6.68,5-10a6.48,6.48,0,0,1,.46-.81,2.42,2.42,0,0,1,3-1,2.68,2.68,0,0,1,1.62,3.05c-.47,2.1-1.11,4.16-1.51,6.28-.67,3.47-1.22,7-1.78,10.47-1,6.41-2,12.83-3,19.24-.08.55,0,.9.68.74,3.38-.72,6.75-1.55,10.16-2.09q8.48-1.35,17-2.36a22.76,22.76,0,0,1,9,.47,10.42,10.42,0,0,1,3.59,1.82A3.77,3.77,0,0,1,625,542a2.23,2.23,0,0,1-2.36.5,2.18,2.18,0,0,1-1.67-1.86c-.11-1-.62-1.28-1.47-1.42a34.51,34.51,0,0,0-8.91,0,221.94,221.94,0,0,0-24.82,4.15c-2.63.56-2.11.43-2.42,2.67-1.09,7.92-1.76,15.9-2.08,23.89-.18,4.39,0,8.79,0,13.18a5.74,5.74,0,0,1-.35,2.39,2.38,2.38,0,0,1-4.22.23,18.82,18.82,0,0,1-1.23-2.51,10.08,10.08,0,0,0-2.56-3.65,2.46,2.46,0,0,1,.48-4.31,3.38,3.38,0,0,1,1.87,0c.59.12.8,0,.78-.57-.18-6.51.64-13,1.1-19.44.22-3,.71-6.08,1.09-9.12.1-.75,0-.9-.75-.69-3,.84-6.08,1.62-9.08,2.57-6,1.93-12.1,3.87-18.1,6-5.3,1.84-10.53,3.89-15.8,5.82-5.56,2-11.14,4.05-16.7,6.08-6.29,2.3-12.56,4.63-18.85,6.9-3.79,1.37-7.61,2.63-11.4,4s-7.52,2.71-11.26,4.13c-4.88,1.85-9.74,3.74-14.6,5.63a21.85,21.85,0,0,1-2.27.9,2.34,2.34,0,0,1-2.6-1.35,2.21,2.21,0,0,1,.3-2.68,5.8,5.8,0,0,1,1.76-1.29c3.81-1.55,7.62-3.09,11.46-4.54q8.12-3,16.29-6c4.27-1.53,8.57-3,12.83-4.5s8.29-3.09,12.45-4.6c5.59-2,11.21-4,16.8-6,4.63-1.7,9.21-3.52,13.84-5.21s9.26-3.41,14-4.89c6.71-2.11,13.47-4,20.21-6a9.83,9.83,0,0,1,1.41-.3,1.23,1.23,0,0,0,1.12-1.19q1.28-8.57,2.57-17.15c.19-1.24.41-2.49.61-3.73Zm-20.95,8.69a4.21,4.21,0,0,0,.59-.68c1.13-2.15,2.24-4.32,3.38-6.47.46-.87,1-1.69,2.12-1.76.73,0,1-.41,1.16-1.1.45-2,.95-4,1.47-6,.38-1.45.83-2.88,1.23-4.33a4.36,4.36,0,0,0,.07-.81,3.72,3.72,0,0,0-.88,0c-2.51.56-5,1.17-7.54,1.69a1.28,1.28,0,0,0-1.18,1.39c-.13,4.62-.29,9.24-.42,13.85C561.2,523.6,561.23,525,561.23,526.52Z"/><path class="cls-6" d="M501.87,533.29l2.55-4.58c.84-1.48,1.59-3,2.53-4.42a2.47,2.47,0,0,1,4.11-.31,2.86,2.86,0,0,1,.13,3.27c-2.51,4.38-5,8.76-7.52,13.13-.38.65-.05,1,.39,1.35l8.8,7.25a11,11,0,0,1,1.13,1,2.53,2.53,0,0,1,.11,3.6,2.56,2.56,0,0,1-3.61.15q-1.94-1.53-3.82-3.12c-1.71-1.44-3.4-2.91-5.11-4.36a2.75,2.75,0,0,0-.52-.3c-.07.15-.17.25-.16.34.26,4.72.1,9.47.91,14.16a4.88,4.88,0,0,1-.14,2.25,2.36,2.36,0,0,1-2.51,1.52,2.28,2.28,0,0,1-2.15-1.76,28.86,28.86,0,0,1-.79-5.11c-.2-5.3-.27-10.6-.33-15.9a30.45,30.45,0,0,1,.34-3.55c0-.23,0-.46,0-.68l-.22,0a5.75,5.75,0,0,0-.29.62,37.15,37.15,0,0,1-6.06,11.34,10.29,10.29,0,0,1-3.15,2.65,3.75,3.75,0,0,1-5.69-2.95,17.23,17.23,0,0,1,.29-5.31c1-4.83,2.17-9.62,3.27-14.42a6.85,6.85,0,0,0,.07-.78l-.2-.1a8.51,8.51,0,0,0-.71.76,81.12,81.12,0,0,0-6.42,10.61c-2.12,3.94-4.27,7.87-6.4,11.81-.32.6-.6,1.22-.9,1.83a2.82,2.82,0,0,1-2.93,1.73,2.57,2.57,0,0,1-2.13-2.7A84.47,84.47,0,0,1,466.65,530c.53-2.22,2.56-3.14,4.25-2a2.84,2.84,0,0,1,.9,2.91c-.58,3.23-1.13,6.47-1.69,9.71a.64.64,0,0,0,.19.56c.2-.3.43-.59.6-.91,2.72-4.87,5.08-9.95,8.54-14.38a12.6,12.6,0,0,1,4.4-3.68c2.93-1.41,5.87.28,5.86,3.53a32,32,0,0,1-.71,6.15c-.59,3.05-1.38,6.07-2.09,9.11-.27,1.16-.54,2.31-.79,3.48a1,1,0,0,0,.1.7,6,6,0,0,0,.51-.62,55.41,55.41,0,0,0,5.42-11.69c1.55-4.62,3.17-9.22,4.68-13.86,1.1-3.37,2-6.79,3.11-10.16.69-2.19,1.4-4.38,2.28-6.49a2.48,2.48,0,0,1,4.52-.5,2.32,2.32,0,0,1,.26,2.35,58.57,58.57,0,0,0-2.88,11.87c-.7,3.88-1.25,7.78-1.84,11.67-.24,1.65-.42,3.31-.62,5a2.09,2.09,0,0,0,.05.49Z"/><path class="cls-6" d="M443.5,554.41c.31-.33.58-.57.8-.85,1.55-2.09,3.09-4.2,4.66-6.28a2.28,2.28,0,0,1,2.82-1,2.63,2.63,0,0,1,1.78,2.44,2.5,2.5,0,0,1-.36,1.28,55.18,55.18,0,0,1-7.4,9.41,6.91,6.91,0,0,1-2.61,1.64c-1.73.53-3.24-.44-4.08-2.36a14.83,14.83,0,0,1-1-6c0-4.42.91-8.73,1.68-13.05.61-3.38,1.18-6.77,1.95-10.11,1.23-5.35,2.6-10.68,4-16a14.36,14.36,0,0,1,1.16-3.36,2.42,2.42,0,0,1,4-.22,2.92,2.92,0,0,1,.44,2.89c-.4,1.5-.87,3-1.28,4.5-1.65,6-3.09,12.14-4.15,18.32-.72,4.16-1.55,8.31-2.19,12.48-.29,1.93-.26,3.9-.36,5.85C443.31,554.07,443.38,554.15,443.5,554.41Z"/><path class="cls-6" d="M454.72,551.66c.47-3.19.85-6.4,1.44-9.56.5-2.73,1.24-5.41,1.9-8.1a6.12,6.12,0,0,1,.59-1.58,2.35,2.35,0,0,1,2.79-1.08,2.44,2.44,0,0,1,1.77,2.34,7,7,0,0,1-.27,1.92,77.07,77.07,0,0,0-2.51,12.66,45.47,45.47,0,0,0-.19,5.84c0,1.66-.82,3-2.29,3.14a2.66,2.66,0,0,1-2.9-2.58c-.1-1-.12-2-.18-3Z"/></g></g></svg>