<svg xmlns="http://www.w3.org/2000/svg" viewBox="0 0 1080 1080"><defs><style>.cls-1{isolation:isolate;}.cls-2{fill:#eeb373;}.cls-3,.cls-4,.cls-5{fill:#fbdea7;}.cls-10,.cls-14,.cls-17,.cls-18,.cls-4{mix-blend-mode:multiply;}.cls-10,.cls-14,.cls-16,.cls-17,.cls-18,.cls-4,.cls-5,.cls-9{opacity:0.5;}.cls-16,.cls-5,.cls-9{mix-blend-mode:screen;}.cls-6,.cls-9{fill:#fff;}.cls-7{fill:#fade07;}.cls-10,.cls-8{fill:#f1d15f;}.cls-11,.cls-18{fill:#f0b573;}.cls-12{fill:#fde0aa;}.cls-13,.cls-14{fill:#f4911e;}.cls-15{fill:#979797;}.cls-16,.cls-17{fill:#1d2936;}.cls-19{fill:#1f2935;}</style></defs><g class="cls-1"><g id="Layer_1" data-name="Layer 1"><polygon class="cls-2" points="585.34 400.41 585.34 428.25 462.49 428.25 462.49 397.46 585.34 400.41"/><path d="M458.36,428.25V397.46a4.12,4.12,0,0,1,4.23-4.13l122.84,2.95a4.12,4.12,0,0,1,4,4.13v27.84a4.12,4.12,0,0,1-4.13,4.13H462.49A4.13,4.13,0,0,1,458.36,428.25ZM581.2,404.44l-114.58-2.75v22.43H581.2Z"/><rect class="cls-3" x="426.54" y="172.45" width="194.6" height="227.43" rx="39.63"/><path class="cls-4" d="M620.35,286.74V285c-9.58,2.7-21.56,4.41-36.58,4.41-72.53,0-156-38.47-156-38.47s83.46,48.94,156,48.94a166.8,166.8,0,0,0,18-.91c-.67,31.59-1.39,64.06-1.39,74.15,0,21.48-28.71,26.94-38.83,28.2a39.07,39.07,0,0,1-6,.25c-13.65-.48-78.69-2.85-107.25-5a37.49,37.49,0,0,0,13.5,4.23c.49.06,1,.11,1.51.15,25.62,2.21,97.23,4.81,111.62,5.32a36.72,36.72,0,0,0,6-.25c10.13-1.26,38.84-6.72,38.84-28.2,0-12,1-55.35,1.76-91.47Z"/><path class="cls-5" d="M478.87,398.64c-19.51-2.24-34-28-33.77-47.67l1.39-124A38.79,38.79,0,0,1,450,211.86c-2-3.21-4.1-4.77-6.13-3.14A38.73,38.73,0,0,0,429.36,238L428,362c-.22,19.64,14.26,36.61,33.77,38.85.49.06,1,.11,1.51.15C488.87,403.22,479.37,398.7,478.87,398.64Z"/><path d="M584.9,405.7H462.77a42.11,42.11,0,0,1-42.06-42.06V208.69a42.11,42.11,0,0,1,42.06-42.06H584.9A42.11,42.11,0,0,1,627,208.69v155A42.11,42.11,0,0,1,584.9,405.7ZM462.77,178.28a30.44,30.44,0,0,0-30.41,30.41v155a30.45,30.45,0,0,0,30.41,30.42H584.9a30.46,30.46,0,0,0,30.42-30.42V208.69a30.45,30.45,0,0,0-30.42-30.41Z"/><path class="cls-6" d="M478.72,348.18a98.76,98.76,0,0,0,46.37,1.13,249.76,249.76,0,0,0,30.65-9.19,5.64,5.64,0,0,1,7.56,5.19,18.35,18.35,0,0,1-2.83,8.92c-6.55,11.46-22.28,17.36-37.35,17.36C490.73,371.59,470.85,348.83,478.72,348.18Z"/><path d="M561.69,342.39s-7.42,10-24.41,16.38l25-6Z"/><path d="M482.35,353.53s10.26,7.05,28.4,7.6l-25.57,2.39Z"/><path d="M523.12,375.72c-28.41,0-49.88-16.89-50.25-25.68a5.66,5.66,0,0,1,5.5-6,4.34,4.34,0,0,1,1.57.17,95.43,95.43,0,0,0,44.24,1.06,232.74,232.74,0,0,0,28.22-8.37l2-.7a9.89,9.89,0,0,1,9,1.28,9.44,9.44,0,0,1,4.06,7.82,22.6,22.6,0,0,1-3.37,11C557.31,368.09,541.24,375.72,523.12,375.72Zm-38.64-21.93c6,5.55,19.62,13.67,38.64,13.67,15,0,28.54-6.14,33.76-15.28a14.79,14.79,0,0,0,2.29-6.88,1.31,1.31,0,0,0-.58-1.07,1.63,1.63,0,0,0-1.49-.22l-1.93.69A240.37,240.37,0,0,1,526,353.34,103.26,103.26,0,0,1,484.48,353.79Z"/><ellipse cx="491.74" cy="311.1" rx="8.85" ry="11.56"/><ellipse class="cls-6" cx="490.39" cy="308.4" rx="3.86" ry="5.05"/><ellipse cx="544.16" cy="313.17" rx="8.85" ry="11.56"/><path class="cls-7" d="M476.66,301.24s6.27-10.54,15.39-10.54"/><path d="M479.5,304.73a4.14,4.14,0,0,1-4.7-5.43c.2-.56,5-13.8,16.13-16a4.13,4.13,0,1,1,1.61,8.1c-5.39,1.07-9,8.07-10,10.68A4.16,4.16,0,0,1,479.5,304.73Z"/><path class="cls-7" d="M561.81,301.24s-6.28-10.54-15.4-10.54"/><path d="M559.48,305.13a4.13,4.13,0,0,1-3.55-2c-1.43-2.37-6.36-8.53-11.85-8.53a4.13,4.13,0,0,1,0-8.26c11.33,0,18.64,12,18.94,12.56a4.12,4.12,0,0,1-1.43,5.66A4.17,4.17,0,0,1,559.48,305.13Z"/><ellipse class="cls-6" cx="542.84" cy="310.37" rx="3.86" ry="5.05"/><path class="cls-8" d="M621.07,337.12v-76h22.64C638.43,300.2,621.07,337.12,621.07,337.12Z"/><path class="cls-8" d="M474.77,188.8s70.83,39.53,132.39,39.53c85.24,0,47.08-78.19,47.08-78.19s-6.74,17.92-28.67,17.92c-37.38,0-41.47-34.61-105.55-34.61-28.87,0-73.17,27-72.86,56.59C447.16,195,474.77,188.8,474.77,188.8Z"/><path class="cls-9" d="M662.15,177.17a98,98,0,0,0-7.91-27s-6.74,17.92-28.67,17.92c-12.68,0-21.53-4-30.18-9.25l-3.45,1.76S631.1,187.2,662.15,177.17Z"/><path class="cls-8" d="M454.44,220.72s83.46,49.67,156,49.67,55.47-75.84,55.47-75.84-7.95,22.52-33.78,22.52c-44,0-74.35-65.9-149.86-65.9-34,0-52.32,33.88-52,71.11C430.3,228.5,454.44,220.72,454.44,220.72Z"/><path class="cls-10" d="M431.53,224.09c4.63-29.77,22.12-53.74,50.73-53.74,75.51,0,105.81,65.9,149.86,65.9,25.83,0,33.78-22.52,33.78-22.52a79.12,79.12,0,0,1,1.26,8.53,95.22,95.22,0,0,0-1.26-27.71s-7.95,22.52-33.78,22.52c-44,0-74.35-65.9-149.86-65.9-34,0-52.32,33.88-52,71.11A2,2,0,0,0,431.53,224.09Z"/><path class="cls-8" d="M427.78,337.12V251s83.46,38.47,156,38.47,74.51-39.75,74.51-39.75S642.2,260.2,616.37,260.2c-69.32,0-85.26-90-160.77-90-34,0-52.32,33.88-52,71.11C404.09,286.73,427.78,337.12,427.78,337.12Z"/><path class="cls-10" d="M656.81,251.54s-12.33,26.7-67.75,23S514,224.07,467.3,220.16s-61.82,18-61.82,18L407.35,201s18.74-31.84,45.74-29.81,63.23,21.07,81.8,44.8,46.37,41.06,73.69,45A77.23,77.23,0,0,0,656.81,251.54Z"/><path class="cls-9" d="M412.69,209.14S440.3,154.62,532.82,215l-29.73-31-39.92-14.77s-28.5,5.45-29.2,5.8-17.06,15.13-17.06,15.13Z"/><path d="M668.34,194a2.51,2.51,0,0,0-3.51-1.72c1-9-.31-18.64-3-27.72a100.33,100.33,0,0,0-5.7-15.37,2.12,2.12,0,0,0-3.84,0A27.63,27.63,0,0,1,647.9,156c-7.25,8.11-16.93,10.26-27.39,9-18.17-1.63-31.24-15.7-47-23.57-17.29-9-37.11-12.2-56.46-11.83-13.64.86-26.8,5.73-38.61,12.42a112,112,0,0,0-9.41,6.14A50.45,50.45,0,0,0,443.22,165c-19,4.48-33.16,19.54-40.14,39.21a103.29,103.29,0,0,0-5.62,42.4A184.65,184.65,0,0,0,402.8,281a280.52,280.52,0,0,0,20.45,56.36l.39.77a5.55,5.55,0,0,0,1.23,1.78,5.1,5.1,0,0,0,3.81,1.3c.13-2.71.26-5.43.4-8.14a3.3,3.3,0,0,1,2.21,1.78l-.06-.17-.3-.76c-.58-1.45-1.12-2.92-1.67-4.38,1-18.53,2.2-37.2,2.48-55.78.1-5.54.13-11,.15-16.52q4.5,1.86,9,3.61,7.45,2.88,15,5.54c45.06,15.48,92.64,27.83,140.66,24.63a131.59,131.59,0,0,0,20.4-3.3v49.45a4.14,4.14,0,0,0,3.22,4,4.76,4.76,0,0,0,.91.09,4.12,4.12,0,0,0,3.73-2.37c.65-1.37,14.37-30.83,21-65.25a43.56,43.56,0,0,0,7.69-8.67,38.48,38.48,0,0,0,3.8-7.21,34.52,34.52,0,0,0,1.43-4.64,56,56,0,0,0,10.08-23.7A95.13,95.13,0,0,0,668.34,194ZM497.55,142c7.71-2.83,15.72-4.79,24-4.64l4.23,0c18.3.37,36.35,4.57,52,14.17,13.52,8,25.62,17.87,42.23,19,12.07,1.11,23.45-2.08,31.41-11.65a42.87,42.87,0,0,0,2.66-3.74,103.57,103.57,0,0,1,3.47,10.57c4,14.81,4,28.38-1.39,38.79-11.22,11.15-28.4,11.84-44,4.33-18-8.66-32.15-22.39-48.77-33.8-20.14-14.42-44-25.73-69.05-27.94-2.07-.22-4.61-.4-7-.52A98.41,98.41,0,0,1,497.55,142ZM625.19,316V285.18c.91-.32,1.82-.64,2.72-1a68.2,68.2,0,0,0,8-3.73A304.79,304.79,0,0,1,625.19,316Zm-13.43-30.79c-52.65,8.63-119.16-11.79-167.91-31.71-4.83-2-9.69-4.11-14.33-6.28a4.16,4.16,0,0,0-5.87,3.75c0,6.85,0,13.62.18,20.34.31,16.69,1.52,33.24,2.45,49.94-2-5.72-3.84-11.49-5.56-17.22-6-20.39-10.45-41.55-10.63-62.82,0-25.42,9.88-57.72,37.83-63.66,7.93-1.4,16.32-.69,24.24.78,16.76,3.14,31.33,12.5,44.26,23.62,24.65,21.09,45.13,53.57,78.89,58.82,38.32,6,60-7.45,59.89-6.91C649.44,273.22,630.3,282,611.76,285.21ZM653.06,251a73.22,73.22,0,0,1-7.56,2.69,89.08,89.08,0,0,1-32.5,3.4,70.57,70.57,0,0,1-24.73-6.59,89.48,89.48,0,0,1-13.77-8.31c-19-14-33-33-50.49-48.84-17.26-16.35-39.26-28.53-63.58-29.54-.7-.06-1.39-.1-2.07-.14a37.69,37.69,0,0,1,17.95-7.41,45.75,45.75,0,0,1,7.12-.41,114.32,114.32,0,0,1,15,1c22,2.68,42,12.43,60.25,25,16.73,11.12,32.08,25,50.6,33.38,19.94,9.18,43.23,6.11,55.22-12.56C666.37,220.22,663.53,238.53,653.06,251Z"/><rect class="cls-11" x="675.85" y="603.87" width="49.41" height="53.16" transform="translate(-124.03 174.04) rotate(-13.02)"/><path d="M682.47,667.16a5.25,5.25,0,0,1-5.11-4.07l-12-51.79a5.24,5.24,0,0,1,3.93-6.3l48.14-11.13a5.2,5.2,0,0,1,4,.66,5.28,5.28,0,0,1,2.34,3.27l12,51.79a5.25,5.25,0,0,1-3.93,6.3L683.66,667A5.37,5.37,0,0,1,682.47,667.16Zm-5.67-53.11,9.61,41.56,37.91-8.77-9.61-41.56Z"/><path class="cls-11" d="M711.53,642.9c-24.86,0-45,35.76-45,60.62a45,45,0,0,0,28.08,41.71V718.29c-10.64-5.95-17.84-1.71-17.84-14.77a34.78,34.78,0,0,1,69.56,0c0,8.36-2.95-2.84-7.86,3.16l2.11,31.22a44.88,44.88,0,0,0,16-34.38C756.54,678.66,736.39,642.9,711.53,642.9Z"/><path d="M694.59,750.48a5.16,5.16,0,0,1-2-.39,50.08,50.08,0,0,1-31.36-46.57c0-13.41,5.4-29.73,14.09-42.58,10.16-15,23-23.29,36.18-23.29s26,8.27,36.18,23.29c8.69,12.85,14.08,29.17,14.08,42.58A50.18,50.18,0,0,1,744,741.91a5.25,5.25,0,0,1-8.63-3.65L733.21,707a5.27,5.27,0,0,1,1.17-3.68,9.77,9.77,0,0,1,6.42-3.74,29.53,29.53,0,0,0-58.8,3.91c0,4.85,0,4.85,4.88,6.21a43.33,43.33,0,0,1,10.27,4,5.23,5.23,0,0,1,2.7,4.58v26.94a5.26,5.26,0,0,1-5.26,5.25Zm-22.27-40.29a39.55,39.55,0,0,0,17,26.34v-15a42.92,42.92,0,0,0-5.27-1.72C679.63,718.61,674.33,717.13,672.32,710.19Zm71.74,1.6.9,13.26a39.86,39.86,0,0,0,6.1-17.2,5.83,5.83,0,0,1-3,3.56A5.45,5.45,0,0,1,744.06,711.79Zm-32.53-48.31a40.12,40.12,0,0,1,38.55,29.22A75.34,75.34,0,0,0,739,666.83c-8-11.87-18-18.68-27.48-18.68s-19.46,6.81-27.48,18.68A75.24,75.24,0,0,0,673,692.68,40.13,40.13,0,0,1,711.53,663.48Z"/><path d="M694.59,731.61a5.15,5.15,0,0,1-2-.38A50.27,50.27,0,1,1,744,723.05a5.26,5.26,0,0,1-8.57-3.12l-2.12-12.37a5.26,5.26,0,0,1,1.11-4.21,29.52,29.52,0,1,0-37.23,7.1,5.24,5.24,0,0,1,2.7,4.58v11.33a5.24,5.24,0,0,1-5.26,5.25Z"/><path class="cls-12" d="M711.53,639.64a45,45,0,0,0-16.94,86.72V715a34.78,34.78,0,1,1,43.86-8.35L740.56,719a45,45,0,0,0-29-79.4Z"/><path class="cls-13" d="M661.13,632.28,736,619.86l-17.28-96.15-25.57-45.82a66.65,66.65,0,0,0-50.89-33.75l-15-1.28Z"/><path class="cls-14" d="M677,494l25.57,45.81,14.94,83.08L736,619.86l-17.28-96.15-25.57-45.82a66.65,66.65,0,0,0-50.89-33.75l-15-1.28,3.22,18.05A66.62,66.62,0,0,1,677,494Z"/><path d="M661.12,637.53a5.24,5.24,0,0,1-5.16-4.32L622.11,443.78a5.25,5.25,0,0,1,5.61-6.15l15,1.28h.13a72,72,0,0,1,54.89,36.41l25.57,45.81a5.28,5.28,0,0,1,.59,1.64l17.28,96.15a5.23,5.23,0,0,1-4.31,6.11L662,637.46A5.1,5.1,0,0,1,661.12,637.53ZM633.65,448.67l31.74,177.58,64.53-10.7-16.19-90-25.14-45.05a61.47,61.47,0,0,0-46.81-31.08Z"/><rect class="cls-15" x="513.88" y="691.16" width="24.06" height="115.45"/><path d="M538,811.87H513.88a5.25,5.25,0,0,1-5.25-5.26V691.16a5.25,5.25,0,0,1,5.25-5.25H538a5.25,5.25,0,0,1,5.25,5.25V806.61A5.25,5.25,0,0,1,538,811.87Zm-18.81-10.51h13.55v-105H519.14Z"/><rect class="cls-15" x="537.72" y="689.63" width="121.92" height="259.2"/><path d="M659.64,954.08H537.72a5.25,5.25,0,0,1-5.25-5.25V689.63a5.25,5.25,0,0,1,5.25-5.25H659.64a5.25,5.25,0,0,1,5.25,5.25v259.2A5.25,5.25,0,0,1,659.64,954.08ZM543,943.58H654.39V694.88H543Z"/><rect class="cls-16" x="554.56" y="704.26" width="4.67" height="81.93"/><rect class="cls-17" x="563.09" y="704.26" width="79.72" height="81.93"/><rect class="cls-15" x="398.29" y="690.81" width="121.92" height="259.2" transform="translate(5.46 -3.03) rotate(0.38)"/><path d="M519.31,955.66l-121.91-.81a5.25,5.25,0,0,1-5.22-5.29l1.72-259.19a5.25,5.25,0,0,1,5.29-5.21L521.1,686a5.24,5.24,0,0,1,5.22,5.28L524.6,950.44A5.26,5.26,0,0,1,519.31,955.66ZM402.72,944.38l111.41.74,1.65-248.69-111.41-.74Z"/><rect class="cls-17" x="424.15" y="705.47" width="79.72" height="81.93" transform="translate(4.97 -3.06) rotate(0.38)"/><rect class="cls-16" x="415.62" y="705.17" width="4.67" height="81.93" transform="translate(4.96 -2.76) rotate(0.38)"/><path d="M572,804.63l65.9-3.3a5,5,0,0,1,5.25,4.74c0,.13,0,.38,0,.51v33.49a5,5,0,0,1-5.25,5.25l-63.2-2.8a2.45,2.45,0,0,1,0-4.9l63.2-2.8-5.25,5.25V806.58l5.25,5.25-65.9-3.3a2,2,0,0,1,0-3.9Z"/><path d="M425.82,805.59l65.92-2.87A5,5,0,0,1,497,807.5c0,.13,0,.38,0,.51l-.22,33.49a5.05,5.05,0,0,1-5.29,5.22l-63.18-3.23a2.45,2.45,0,0,1,0-4.9l63.22-2.38-5.29,5.22.23-33.49,5.21,5.29-65.87-3.74a2,2,0,0,1,0-3.9Z"/><path d="M659.45,891.06H539.78a5.25,5.25,0,0,1,0-10.5H659.45a5.25,5.25,0,0,1,0,10.5Z"/><path d="M519.58,892.64l-118.77-.79a5.25,5.25,0,0,1,.07-10.5l118.77.79a5.25,5.25,0,0,1-.07,10.5Z"/><rect class="cls-11" x="322.99" y="602.87" width="49.41" height="53.16" transform="translate(544.63 1321.05) rotate(-166.98)"/><rect class="cls-18" x="357.52" y="606.81" width="14.42" height="53.16" transform="translate(577.39 1332.67) rotate(-166.98)"/><path d="M364.59,666l-48.14-11.14a5.24,5.24,0,0,1-3.93-6.3l12-51.79a5.27,5.27,0,0,1,2.34-3.27,5.2,5.2,0,0,1,4-.66L378.93,604a5.28,5.28,0,0,1,3.27,2.34,5.2,5.2,0,0,1,.66,4l-12,51.79a5.28,5.28,0,0,1-6.3,3.94Zm-31-61.74-9.61,41.55,37.91,8.77,9.61-41.56Z"/><path class="cls-11" d="M336.72,641.9c24.86,0,45,35.76,45,60.62a45,45,0,0,1-28.09,41.71V717.29c10.65-5.94,17.85-1.71,17.85-14.77a34.78,34.78,0,1,0-69.56,0c0,8.36,2.95-2.84,7.86,3.16l-2.12,31.23a44.92,44.92,0,0,1-16-34.39C291.7,677.66,311.86,641.9,336.72,641.9Z"/><path class="cls-18" d="M353.61,647.46l-5.77,22.1a34.8,34.8,0,0,1,23.66,33c0,13.06-7.2,8.83-17.85,14.77v26.94a45,45,0,0,0,28.09-41.71C381.74,683.63,370.1,658.47,353.61,647.46Z"/><path d="M350.72,748.59a5.26,5.26,0,0,1-2.32-4.36V717.29a5.25,5.25,0,0,1,2.69-4.58,43.49,43.49,0,0,1,10.27-4c4.89-1.36,4.89-1.36,4.89-6.21a29.53,29.53,0,0,0-58.8-3.91,9.74,9.74,0,0,1,6.41,3.74A5.26,5.26,0,0,1,315,706l-2.12,31.22a5.25,5.25,0,0,1-8.63,3.66,50.23,50.23,0,0,1-17.84-38.4c0-13.41,5.4-29.72,14.09-42.57,10.16-15,23-23.3,36.18-23.3s26,8.27,36.18,23.3C381.59,672.8,387,689.11,387,702.52a50.1,50.1,0,0,1-31.36,46.58,5.44,5.44,0,0,1-2,.38A5.25,5.25,0,0,1,350.72,748.59Zm13.46-29.74a44.7,44.7,0,0,0-5.27,1.72v15a39.53,39.53,0,0,0,17-26.34C373.92,716.14,368.62,717.61,364.18,718.85Zm-64-8.44a5.78,5.78,0,0,1-3-3.56,39.82,39.82,0,0,0,6.1,17.2l.9-13.25A5.45,5.45,0,0,1,300.16,710.41Zm75.1-18.72a75.27,75.27,0,0,0-11.06-25.86c-8-11.87-18-18.68-27.48-18.68s-19.45,6.81-27.48,18.68a75.34,75.34,0,0,0-11.07,25.87,40,40,0,0,1,77.09,0Z"/><path d="M353.65,730.62a5.25,5.25,0,0,0,2-.39,50.28,50.28,0,1,0-51.34-8.18,5.25,5.25,0,0,0,8.57-3.12L315,706.57a5.24,5.24,0,0,0-1.12-4.22,29.53,29.53,0,1,1,37.23,7.1A5.26,5.26,0,0,0,348.4,714v11.33a5.26,5.26,0,0,0,5.25,5.25Z"/><path class="cls-12" d="M336.72,638.64a45,45,0,0,1,16.93,86.73V714a34.78,34.78,0,1,0-43.85-8.36L307.68,718a45,45,0,0,1,29-79.4Z"/><path class="cls-13" d="M387.12,631.29l-74.91-12.43,17.29-96.15,25.57-45.81A66.6,66.6,0,0,1,406,443.15l15-1.29Z"/><polygon class="cls-14" points="358.91 626.61 384.92 633.39 420.97 441.86 358.91 626.61"/><path d="M386.26,636.47,311.35,624a5.25,5.25,0,0,1-3.43-2.15,5.3,5.3,0,0,1-.88-4l17.29-96.15a5.3,5.3,0,0,1,.58-1.63l25.58-45.81a72,72,0,0,1,54.89-36.41l.13,0,15-1.28a5.25,5.25,0,0,1,5.62,6.16L392.29,632.21a5.25,5.25,0,0,1-5.16,4.33A6.38,6.38,0,0,1,386.26,636.47Zm20.21-188.1a61.48,61.48,0,0,0-46.81,31.09l-25.15,45-16.19,90,64.54,10.71L414.6,447.68Z"/><rect class="cls-13" x="398.16" y="659.11" width="255.51" height="32.41"/><path d="M653.67,696.77H398.16a5.25,5.25,0,0,1-5.25-5.25V659.11a5.25,5.25,0,0,1,5.25-5.25H653.67a5.25,5.25,0,0,1,5.25,5.25v32.41A5.25,5.25,0,0,1,653.67,696.77Zm-250.26-10.5h245V664.36h-245Z"/><polygon class="cls-13" points="666.71 663.94 385.12 663.94 427.14 427.13 624.79 427.13 666.71 663.94"/><polygon class="cls-14" points="486.56 428.47 444.25 448.67 417.35 639.64 662.36 639.64 666.5 663.94 386.7 662.32 429.06 427.13 486.56 428.47"/><path d="M666.71,669.2H385.12A5.26,5.26,0,0,1,380,663l42-236.82a5.25,5.25,0,0,1,5.17-4.33H624.79a5.26,5.26,0,0,1,5.17,4.34L671.88,663a5.26,5.26,0,0,1-5.17,6.17ZM391.39,658.69H660.44L620.38,432.38H431.54Z"/><path class="cls-6" d="M512.53,487.05l-5.44,12.72-5.41-12.72h-4.19L505,504.31l-.29.68a4.72,4.72,0,0,1-1.28,1.83,2.69,2.69,0,0,1-1.75.55,4.22,4.22,0,0,1-1.59-.32,4.46,4.46,0,0,1-1.37-.87l-1.61,3a5.69,5.69,0,0,0,2.06,1.16,8,8,0,0,0,2.54.42,6.52,6.52,0,0,0,3.9-1.15,8.62,8.62,0,0,0,2.73-3.94l8.05-18.58Zm-17.93,17.2,0-22.54h-3.45l-8.79,14.94-8.95-14.94h-3.44v22.54h4V489.5l7.4,12.17h1.87l7.4-12.36,0,14.94Z"/><path class="cls-19" d="M608.38,583.74h5.55V548.31h-5.55Zm-16-4a5.2,5.2,0,0,1-3.33-1,3.11,3.11,0,0,1-1.2-2.58c0-2.25,1.6-3.39,4.8-3.39h5.72v3a5.46,5.46,0,0,1-2.28,2.93,6.75,6.75,0,0,1-3.71,1m.75-21.78a18.4,18.4,0,0,0-5.55.82,13.07,13.07,0,0,0-4.48,2.34l2.17,4.34a9.64,9.64,0,0,1,3.27-1.86,11.85,11.85,0,0,1,3.93-.67,6.17,6.17,0,0,1,4.42,1.43,5.46,5.46,0,0,1,1.48,4.11v.38h-6.12c-3.41,0-5.9.69-7.49,2.08a7,7,0,0,0-2.37,5.51,7.23,7.23,0,0,0,1.09,3.94,7.33,7.33,0,0,0,3.08,2.73,10.52,10.52,0,0,0,4.66,1,10.69,10.69,0,0,0,4.56-.88,6.65,6.65,0,0,0,2.91-2.55v3.1h5.24v-15c0-3.62-.93-6.34-2.78-8.14s-4.52-2.7-8-2.7m-26.68,9.61h-7.33V553.15h7.33c2.73,0,4.81.62,6.22,1.87a7.79,7.79,0,0,1,0,10.68c-1.41,1.24-3.49,1.86-6.22,1.86m.29-20.11H552.86v36.29h6.27V573.27h7.62a17.51,17.51,0,0,0,7.64-1.56,11.28,11.28,0,0,0,5-4.48,14.49,14.49,0,0,0,0-13.77,11.42,11.42,0,0,0-5-4.46,17.66,17.66,0,0,0-7.64-1.55"/><path class="cls-6" d="M441.52,529.53a14.27,14.27,0,0,1,0-13.51,12.13,12.13,0,0,1,4.74-4.66,14,14,0,0,1,6.86-1.67,13,13,0,0,1,9.95,4.36l4.47-4.2a17,17,0,0,0-6.38-4.63,22.38,22.38,0,0,0-18.55.88,18.42,18.42,0,0,0-7.15,6.83,20,20,0,0,0,0,19.69,18.26,18.26,0,0,0,7.13,6.84,21,21,0,0,0,10.19,2.47,21.54,21.54,0,0,0,8.38-1.59,17.06,17.06,0,0,0,6.41-4.63l-4.47-4.26a12.94,12.94,0,0,1-9.95,4.42,13.92,13.92,0,0,1-6.86-1.68,12.13,12.13,0,0,1-4.74-4.66m48.51-.88a7.87,7.87,0,0,1-2.15,5.78,7.31,7.31,0,0,1-5.44,2.2,7.22,7.22,0,0,1-5.42-2.2,8.91,8.91,0,0,1,0-11.56,7.21,7.21,0,0,1,5.42-2.19,7.3,7.3,0,0,1,5.44,2.19,7.89,7.89,0,0,1,2.15,5.78m4.28,6.76a13.16,13.16,0,0,0,1.74-6.76,13,13,0,0,0-1.74-6.73,12.22,12.22,0,0,0-4.85-4.63,15.4,15.4,0,0,0-14,0,12.15,12.15,0,0,0-4.85,4.63,13,13,0,0,0-1.74,6.73,13.16,13.16,0,0,0,1.74,6.76,12.13,12.13,0,0,0,4.85,4.65,15.4,15.4,0,0,0,14,0,12.2,12.2,0,0,0,4.85-4.65m24.71,6h6V526.79q0-5.53-2.92-8.36a10.64,10.64,0,0,0-7.73-2.82,13.55,13.55,0,0,0-5.07.91,9.42,9.42,0,0,0-3.72,2.68v-3.3h-5.68v25.5h6V528.51a7.87,7.87,0,0,1,1.91-5.71,6.89,6.89,0,0,1,5.2-2,5.83,5.83,0,0,1,4.49,1.7,7.14,7.14,0,0,1,1.58,5Zm24.42-.09A7.18,7.18,0,0,0,546,540l-1.67-4.25a5.28,5.28,0,0,1-3.35,1.05,3.4,3.4,0,0,1-2.62-1,4,4,0,0,1-.91-2.84V520.87h6.83v-4.78h-6.83v-5.82h-6v5.82h-4.2v4.78h4.2v12.27c0,2.8.77,4.94,2.29,6.4a9.05,9.05,0,0,0,6.5,2.2,11.72,11.72,0,0,0,3.17-.43m23-14.71H552a7.14,7.14,0,0,1,2.41-4.52,7.25,7.25,0,0,1,4.85-1.69,7,7,0,0,1,7.21,6.21m5.58,4c.07-.76.1-1.35.1-1.77a14,14,0,0,0-1.65-6.9,11.72,11.72,0,0,0-4.58-4.63,13.37,13.37,0,0,0-6.66-1.65,13.7,13.7,0,0,0-6.79,1.68,12,12,0,0,0-4.7,4.65,13.35,13.35,0,0,0-1.69,6.71,13.16,13.16,0,0,0,1.74,6.76,12,12,0,0,0,4.94,4.65,17.1,17.1,0,0,0,13.32.62,10.71,10.71,0,0,0,4.35-3.1l-3.2-3.68a9.27,9.27,0,0,1-6.92,2.77,9.06,9.06,0,0,1-5.52-1.64,7,7,0,0,1-2.75-4.47Zm23.07,10.84h6V526.79c0-3.69-1-6.48-2.92-8.36a10.64,10.64,0,0,0-7.73-2.82,13.46,13.46,0,0,0-5.06.91,9.39,9.39,0,0,0-3.73,2.68v-3.3h-5.68v25.5h6V528.51a7.87,7.87,0,0,1,1.91-5.71,6.89,6.89,0,0,1,5.2-2,5.83,5.83,0,0,1,4.49,1.7,7.14,7.14,0,0,1,1.58,5Zm18.43-20.53h6.83v-4.78h-6.83v-5.82h-6v5.82h-4.2v4.78h4.2v20.87h6Z"/></g></g></svg>