<svg width="553" height="369" viewBox="0 0 553 369" fill="none" xmlns="http://www.w3.org/2000/svg">
<path d="M28.4318 2.6H12.0158V5.256H18.8318V25H21.6158V5.256H28.4318V2.6ZM37.3405 25.384C42.5565 25.384 46.4925 21.544 46.4925 16.36C46.4925 11.208 42.5565 7.368 37.3405 7.368C32.0925 7.368 28.1565 11.176 28.1565 16.36C28.1565 21.544 32.0925 25.384 37.3405 25.384ZM37.3405 22.76C33.6285 22.76 30.9405 20.072 30.9405 16.36C30.9405 12.68 33.6285 9.992 37.3405 9.992C41.0205 9.992 43.7085 12.68 43.7085 16.392C43.7085 20.072 41.0205 22.76 37.3405 22.76ZM58.4343 25.384C63.6503 25.384 67.5863 21.544 67.5863 16.36C67.5863 11.208 63.6503 7.368 58.4343 7.368C53.1863 7.368 49.2503 11.176 49.2503 16.36C49.2503 21.544 53.1863 25.384 58.4343 25.384ZM58.4343 22.76C54.7223 22.76 52.0343 20.072 52.0343 16.36C52.0343 12.68 54.7223 9.992 58.4343 9.992C62.1143 9.992 64.8022 12.68 64.8022 16.392C64.8022 20.072 62.1143 22.76 58.4343 22.76ZM99.199 7.368C96.831 7.368 94.623 8.616 93.343 10.632C92.383 8.616 90.495 7.368 88.031 7.368C85.855 7.368 83.839 8.392 82.495 10.12L82.047 7.72H80.095V25H82.815V15.432C82.815 12.264 84.895 9.832 87.423 9.832C89.919 9.832 91.359 11.688 91.359 14.824V25H94.047V15.432C94.047 12.264 96.127 9.832 98.655 9.832C101.119 9.832 102.559 11.688 102.559 14.824V25H105.279V13.96C105.279 10.088 102.847 7.368 99.199 7.368ZM125.253 7.72L124.901 10.376C123.301 8.488 120.901 7.368 118.085 7.368C112.965 7.368 109.125 11.208 109.125 16.392C109.125 21.512 112.965 25.384 118.085 25.384C120.901 25.384 123.269 24.264 124.869 22.408L125.157 25H127.397V7.72H125.253ZM118.277 22.76C114.629 22.76 111.909 20.008 111.909 16.36C111.909 12.744 114.629 9.992 118.277 9.992C121.957 9.992 124.613 12.712 124.613 16.36C124.613 20.04 121.957 22.76 118.277 22.76ZM141.516 7.368C138.86 7.368 136.652 8.52 135.34 10.44L134.828 7.72H132.876V25H135.596V15.592C135.596 12.36 137.868 9.832 140.844 9.832C143.82 9.832 145.484 11.816 145.484 15.304V25H148.204V14.664C148.204 10.44 145.644 7.368 141.516 7.368ZM165.485 7.72L159.693 20.808L153.549 7.72H150.605L158.285 23.848L157.677 25.128C156.269 28.008 155.469 28.712 153.133 28.712H151.757V31.176H153.389C156.653 31.176 158.285 29.832 160.141 25.736L168.397 7.72H165.485ZM181.43 0.775999C179.478 1.32 178.294 2.728 178.294 5.256V8.36H181.59V5H179.766C179.766 3.656 180.246 2.696 181.462 2.248L181.43 0.775999ZM186.934 0.775999C184.982 1.32 183.83 2.728 183.83 5.256V8.36H187.126V5H185.27C185.27 3.656 185.75 2.696 186.966 2.248L186.934 0.775999ZM207.068 16.456C207.068 11.4 203.612 7.368 198.364 7.368C193.34 7.368 189.564 11.24 189.564 16.36C189.564 21.512 193.34 25.384 198.364 25.384C202.108 25.384 205.148 23.304 206.62 19.752H203.74C202.684 21.608 200.764 22.728 198.364 22.728C195.1 22.728 192.7 20.616 192.284 17.416H207.003C207.036 17.096 207.068 16.776 207.068 16.456ZM198.364 9.928C201.436 9.928 203.772 11.848 204.347 14.92H192.348C192.891 11.912 195.228 9.928 198.364 9.928ZM224.067 25L217.699 15.912L223.587 7.72H220.579L216.099 14.12L211.683 7.72H208.643L214.435 16.04L208.099 25H211.107L216.067 17.832L221.027 25H224.067ZM236.185 7.368C233.401 7.368 231.033 8.488 229.433 10.376L228.889 7.72H227.001V31.176H229.721V22.696C231.321 24.392 233.593 25.384 236.185 25.384C241.337 25.384 245.049 21.512 245.049 16.36C245.049 11.208 241.337 7.368 236.185 7.368ZM235.993 22.76C232.313 22.76 229.625 20.008 229.625 16.36C229.625 12.744 232.313 9.992 235.993 9.992C239.641 9.992 242.329 12.712 242.329 16.36C242.329 20.04 239.641 22.76 235.993 22.76ZM265.349 16.456C265.349 11.4 261.893 7.368 256.645 7.368C251.621 7.368 247.845 11.24 247.845 16.36C247.845 21.512 251.621 25.384 256.645 25.384C260.389 25.384 263.429 23.304 264.901 19.752H262.021C260.965 21.608 259.045 22.728 256.645 22.728C253.381 22.728 250.981 20.616 250.565 17.416H265.285C265.317 17.096 265.349 16.776 265.349 16.456ZM256.645 9.928C259.717 9.928 262.053 11.848 262.629 14.92H250.629C251.173 11.912 253.509 9.928 256.645 9.928ZM277.312 7.656C274.816 7.656 273.024 8.584 271.776 10.376L271.36 7.72H269.408V25H272.128V15.624C272.128 12.264 273.92 10.216 277.088 10.216H278.848V7.656H277.312ZM288.919 22.504C286.551 22.504 285.271 21.224 285.271 18.888V10.184H290.711V7.72H285.271V4.072H284.855L279.511 9.704V10.184H282.551V18.984C282.551 22.728 284.855 25 288.567 25H290.807V22.504H288.919ZM299.911 25.384C304.007 25.384 306.759 23.304 306.759 20.072C306.759 15.848 303.239 15.272 300.263 14.792C297.959 14.44 295.975 14.088 295.975 12.264C295.975 10.76 297.447 9.8 299.783 9.8C302.215 9.8 303.687 10.824 303.783 12.712H306.343C306.247 9.448 303.751 7.368 299.847 7.368C295.943 7.368 293.319 9.384 293.319 12.36C293.319 16.264 296.647 16.872 299.591 17.384C301.927 17.768 304.071 18.152 304.071 20.2C304.071 21.864 302.375 22.888 300.007 22.888C297.575 22.888 295.815 21.768 295.687 19.72H292.999C293.159 23.208 295.815 25.384 299.911 25.384ZM309.958 9.64C311.91 9.064 313.094 7.688 313.094 5.16V2.024H309.798V5.416H311.622C311.622 6.76 311.174 7.72 309.958 8.136V9.64ZM315.494 9.64C317.446 9.064 318.598 7.688 318.598 5.16V2.024H315.302V5.416H317.126C317.126 6.76 316.678 7.72 315.462 8.136L315.494 9.64ZM338.705 25.384C343.409 25.384 346.385 22.376 346.385 17.736V7.72H343.665V17.288C343.665 20.648 341.809 22.76 338.705 22.76C335.665 22.76 333.777 20.68 333.777 17.288V7.72H331.057V17.736C331.057 22.376 334.065 25.384 338.705 25.384ZM357.036 25.384C361.132 25.384 363.884 23.304 363.884 20.072C363.884 15.848 360.364 15.272 357.388 14.792C355.084 14.44 353.1 14.088 353.1 12.264C353.1 10.76 354.572 9.8 356.908 9.8C359.34 9.8 360.812 10.824 360.908 12.712H363.468C363.372 9.448 360.876 7.368 356.972 7.368C353.068 7.368 350.444 9.384 350.444 12.36C350.444 16.264 353.772 16.872 356.716 17.384C359.052 17.768 361.196 18.152 361.196 20.2C361.196 21.864 359.5 22.888 357.132 22.888C354.7 22.888 352.94 21.768 352.812 19.72H350.124C350.284 23.208 352.94 25.384 357.036 25.384ZM384.13 16.456C384.13 11.4 380.674 7.368 375.426 7.368C370.402 7.368 366.626 11.24 366.626 16.36C366.626 21.512 370.402 25.384 375.426 25.384C379.17 25.384 382.21 23.304 383.682 19.752H380.802C379.746 21.608 377.826 22.728 375.426 22.728C372.162 22.728 369.762 20.616 369.346 17.416H384.066C384.098 17.096 384.13 16.776 384.13 16.456ZM375.426 9.928C378.498 9.928 380.834 11.848 381.41 14.92H369.41C369.954 11.912 372.29 9.928 375.426 9.928ZM405.684 7.368C403.124 7.368 400.884 8.328 399.284 9.928V1.576H396.564V25H398.676L399.06 22.568C400.66 24.328 402.996 25.384 405.684 25.384C410.9 25.384 414.612 21.512 414.612 16.36C414.612 11.208 410.9 7.368 405.684 7.368ZM405.492 22.76C401.812 22.76 399.124 19.976 399.124 16.36C399.124 12.744 401.812 9.992 405.492 9.992C409.14 9.992 411.828 12.712 411.828 16.36C411.828 20.04 409.14 22.76 405.492 22.76ZM418.624 4.744H421.568V1.64H418.624V4.744ZM418.72 25H421.44V7.72H418.72V25ZM441.18 7.72L440.764 10.408C439.196 8.52 436.828 7.368 434.044 7.368C429.244 7.368 425.564 11.112 425.564 15.912C425.564 20.744 429.244 24.456 434.044 24.456C436.604 24.456 438.812 23.496 440.347 21.896V22.952C440.347 26.792 437.98 29.064 434.524 29.064C432.028 29.064 429.852 27.848 429.084 25.704H426.364C427.292 29.352 430.3 31.56 434.524 31.56C439.804 31.56 443.003 28.168 443.003 22.6V7.752L441.18 7.72ZM434.332 21.864C430.876 21.864 428.316 19.304 428.316 15.912C428.316 12.52 430.876 9.96 434.332 9.96C437.788 9.96 440.316 12.488 440.316 15.912C440.316 19.336 437.82 21.864 434.332 21.864ZM477.401 7.72L473.017 20.584L467.673 8.008H466.681L461.401 20.456L457.081 7.72H454.265L460.089 25H462.297L467.193 13.256L472.057 25H474.265L480.153 7.72H477.401ZM491.059 25.384C496.275 25.384 500.211 21.544 500.211 16.36C500.211 11.208 496.275 7.368 491.059 7.368C485.811 7.368 481.875 11.176 481.875 16.36C481.875 21.544 485.811 25.384 491.059 25.384ZM491.059 22.76C487.347 22.76 484.659 20.072 484.659 16.36C484.659 12.68 487.347 9.992 491.059 9.992C494.739 9.992 497.427 12.68 497.427 16.392C497.427 20.072 494.739 22.76 491.059 22.76ZM512.249 7.656C509.753 7.656 507.961 8.584 506.713 10.376L506.297 7.72H504.345V25H507.065V15.624C507.065 12.264 508.857 10.216 512.025 10.216H513.785V7.656H512.249ZM530.11 1.576V9.928C528.51 8.328 526.27 7.368 523.71 7.368C518.526 7.368 514.782 11.208 514.782 16.392C514.782 21.512 518.526 25.384 523.71 25.384C526.43 25.384 528.766 24.328 530.366 22.568L530.718 25.032H532.83V1.576H530.11ZM523.902 22.76C520.254 22.76 517.566 20.04 517.566 16.392C517.566 12.712 520.254 9.992 523.902 9.992C527.582 9.992 530.27 12.744 530.27 16.392C530.27 20.008 527.582 22.76 523.902 22.76ZM543.786 25.384C547.882 25.384 550.634 23.304 550.634 20.072C550.634 15.848 547.114 15.272 544.138 14.792C541.834 14.44 539.85 14.088 539.85 12.264C539.85 10.76 541.322 9.8 543.658 9.8C546.09 9.8 547.562 10.824 547.658 12.712H550.218C550.122 9.448 547.626 7.368 543.722 7.368C539.818 7.368 537.194 9.384 537.194 12.36C537.194 16.264 540.522 16.872 543.466 17.384C545.802 17.768 547.946 18.152 547.946 20.2C547.946 21.864 546.25 22.888 543.882 22.888C541.45 22.888 539.69 21.768 539.562 19.72H536.874C537.034 23.208 539.69 25.384 543.786 25.384ZM24.9408 48.72L24.5888 51.376C22.9888 49.488 20.5888 48.368 17.7728 48.368C12.6528 48.368 8.81275 52.208 8.81275 57.392C8.81275 62.512 12.6528 66.384 17.7728 66.384C20.5888 66.384 22.9568 65.264 24.5568 63.408L24.8448 66H27.0848V48.72H24.9408ZM17.9648 63.76C14.3168 63.76 11.5968 61.008 11.5968 57.36C11.5968 53.744 14.3168 50.992 17.9648 50.992C21.6448 50.992 24.3008 53.712 24.3008 57.36C24.3008 61.04 21.6448 63.76 17.9648 63.76ZM41.2038 48.368C38.5478 48.368 36.3398 49.52 35.0278 51.44L34.5158 48.72H32.5638V66H35.2838V56.592C35.2838 53.36 37.5558 50.832 40.5318 50.832C43.5078 50.832 45.1718 52.816 45.1718 56.304V66H47.8918V55.664C47.8918 51.44 45.3318 48.368 41.2038 48.368ZM67.047 42.576V50.928C65.447 49.328 63.207 48.368 60.647 48.368C55.463 48.368 51.719 52.208 51.719 57.392C51.719 62.512 55.463 66.384 60.647 66.384C63.367 66.384 65.703 65.328 67.303 63.568L67.655 66.032H69.767V42.576H67.047ZM60.839 63.76C57.191 63.76 54.503 61.04 54.503 57.392C54.503 53.712 57.191 50.992 60.839 50.992C64.519 50.992 67.207 53.744 67.207 57.392C67.207 61.008 64.519 63.76 60.839 63.76ZM83.9463 45.744H86.8903V42.64H83.9463V45.744ZM79.5622 72.176H80.9703C84.4263 72.176 86.7303 69.904 86.7303 66.448V48.72H84.0103V66.224C84.0103 68.432 82.7943 69.712 80.5862 69.712H79.5622V72.176ZM106.941 48.72L106.589 51.376C104.989 49.488 102.589 48.368 99.7728 48.368C94.6528 48.368 90.8128 52.208 90.8128 57.392C90.8128 62.512 94.6528 66.384 99.7728 66.384C102.589 66.384 104.957 65.264 106.557 63.408L106.845 66H109.085V48.72H106.941ZM99.9648 63.76C96.3168 63.76 93.5968 61.008 93.5968 57.36C93.5968 53.744 96.3168 50.992 99.9648 50.992C103.645 50.992 106.301 53.712 106.301 57.36C106.301 61.04 103.645 63.76 99.9648 63.76ZM122.468 48.656C119.972 48.656 118.18 49.584 116.932 51.376L116.516 48.72H114.564V66H117.284V56.624C117.284 53.264 119.076 51.216 122.244 51.216H124.004V48.656H122.468ZM140.773 48.72L140.357 51.408C138.789 49.52 136.421 48.368 133.637 48.368C128.837 48.368 125.157 52.112 125.157 56.912C125.157 61.744 128.837 65.456 133.637 65.456C136.197 65.456 138.405 64.496 139.941 62.896V63.952C139.941 67.792 137.573 70.064 134.117 70.064C131.621 70.064 129.445 68.848 128.677 66.704H125.957C126.885 70.352 129.893 72.56 134.117 72.56C139.397 72.56 142.597 69.168 142.597 63.6V48.752L140.773 48.72ZM133.925 62.864C130.469 62.864 127.909 60.304 127.909 56.912C127.909 53.52 130.469 50.96 133.925 50.96C137.381 50.96 139.909 53.488 139.909 56.912C139.909 60.336 137.413 62.864 133.925 62.864ZM155.872 66.384C161.088 66.384 165.024 62.544 165.024 57.36C165.024 52.208 161.088 48.368 155.872 48.368C150.624 48.368 146.688 52.176 146.688 57.36C146.688 62.544 150.624 66.384 155.872 66.384ZM155.872 63.76C152.16 63.76 149.472 61.072 149.472 57.36C149.472 53.68 152.16 50.992 155.872 50.992C159.552 50.992 162.24 53.68 162.24 57.392C162.24 61.072 159.552 63.76 155.872 63.76ZM177.798 48.368C175.142 48.368 172.934 49.52 171.622 51.44L171.11 48.72H169.158V66H171.878V56.592C171.878 53.36 174.15 50.832 177.126 50.832C180.102 50.832 181.766 52.816 181.766 56.304V66H184.486V55.664C184.486 51.44 181.926 48.368 177.798 48.368ZM204.701 63.504C202.333 63.504 201.053 62.224 201.053 59.888V51.184H206.493V48.72H201.053V45.072H200.637L195.293 50.704V51.184H198.333V59.984C198.333 63.728 200.637 66 204.349 66H206.589V63.504H204.701ZM217.809 66.384C223.025 66.384 226.961 62.544 226.961 57.36C226.961 52.208 223.025 48.368 217.809 48.368C212.561 48.368 208.625 52.176 208.625 57.36C208.625 62.544 212.561 66.384 217.809 66.384ZM217.809 63.76C214.097 63.76 211.409 61.072 211.409 57.36C211.409 53.68 214.097 50.992 217.809 50.992C221.489 50.992 224.177 53.68 224.177 57.392C224.177 61.072 221.489 63.76 217.809 63.76ZM247.086 66.384C251.182 66.384 254.478 63.92 255.534 60.112H252.782C251.726 62.416 249.614 63.76 247.086 63.76C243.566 63.76 240.878 60.976 240.878 57.36C240.878 53.776 243.534 50.992 247.086 50.992C249.646 50.992 251.79 52.336 252.782 54.576H255.502C254.446 50.8 251.214 48.368 247.086 48.368C241.966 48.368 238.094 52.208 238.094 57.36C238.094 62.512 241.966 66.384 247.086 66.384ZM267.122 66.384C272.338 66.384 276.274 62.544 276.274 57.36C276.274 52.208 272.338 48.368 267.122 48.368C261.874 48.368 257.938 52.176 257.938 57.36C257.938 62.544 261.874 66.384 267.122 66.384ZM267.122 63.76C263.41 63.76 260.722 61.072 260.722 57.36C260.722 53.68 263.41 50.992 267.122 50.992C270.802 50.992 273.49 53.68 273.49 57.392C273.49 61.072 270.802 63.76 267.122 63.76ZM289.048 48.368C286.392 48.368 284.184 49.52 282.872 51.44L282.36 48.72H280.408V66H283.128V56.592C283.128 53.36 285.4 50.832 288.376 50.832C291.352 50.832 293.016 52.816 293.016 56.304V66H295.736V55.664C295.736 51.44 293.176 48.368 289.048 48.368ZM309.968 48.848H304.592V47.504C304.592 45.072 305.552 44.144 307.984 44.144H309.936V41.936H307.504C303.632 41.936 301.936 43.76 301.936 47.44V48.848H298.544V51.12H301.936V66H304.656V51.12H309.968V48.848ZM320.455 66.384C325.159 66.384 328.135 63.376 328.135 58.736V48.72H325.415V58.288C325.415 61.648 323.559 63.76 320.455 63.76C317.415 63.76 315.527 61.68 315.527 58.288V48.72H312.807V58.736C312.807 63.376 315.815 66.384 320.455 66.384ZM338.786 66.384C342.882 66.384 345.634 64.304 345.634 61.072C345.634 56.848 342.114 56.272 339.138 55.792C336.834 55.44 334.85 55.088 334.85 53.264C334.85 51.76 336.322 50.8 338.658 50.8C341.09 50.8 342.562 51.824 342.658 53.712H345.218C345.122 50.448 342.626 48.368 338.722 48.368C334.818 48.368 332.194 50.384 332.194 53.36C332.194 57.264 335.522 57.872 338.466 58.384C340.802 58.768 342.946 59.152 342.946 61.2C342.946 62.864 341.25 63.888 338.882 63.888C336.45 63.888 334.69 62.768 334.562 60.72H331.874C332.034 64.208 334.69 66.384 338.786 66.384ZM365.88 57.456C365.88 52.4 362.424 48.368 357.176 48.368C352.152 48.368 348.376 52.24 348.376 57.36C348.376 62.512 352.152 66.384 357.176 66.384C360.92 66.384 363.96 64.304 365.432 60.752H362.552C361.496 62.608 359.576 63.728 357.176 63.728C353.912 63.728 351.512 61.616 351.096 58.416H365.816C365.848 58.096 365.88 57.776 365.88 57.456ZM357.176 50.928C360.248 50.928 362.584 52.848 363.16 55.92H351.16C351.704 52.912 354.04 50.928 357.176 50.928ZM385.93 66.384C390.026 66.384 393.322 63.92 394.378 60.112H391.626C390.57 62.416 388.458 63.76 385.93 63.76C382.41 63.76 379.722 60.976 379.722 57.36C379.722 53.776 382.378 50.992 385.93 50.992C388.49 50.992 390.634 52.336 391.626 54.576H394.346C393.29 50.8 390.058 48.368 385.93 48.368C380.81 48.368 376.938 52.208 376.938 57.36C376.938 62.512 380.81 66.384 385.93 66.384ZM398.158 66H400.878V42.576H398.158V66ZM406.249 45.744H409.193V42.64H406.249V45.744ZM406.345 66H409.065V48.72H406.345V66ZM430.693 57.456C430.693 52.4 427.237 48.368 421.989 48.368C416.965 48.368 413.189 52.24 413.189 57.36C413.189 62.512 416.965 66.384 421.989 66.384C425.733 66.384 428.773 64.304 430.245 60.752H427.365C426.309 62.608 424.389 63.728 421.989 63.728C418.725 63.728 416.325 61.616 415.909 58.416H430.628C430.661 58.096 430.693 57.776 430.693 57.456ZM421.989 50.928C425.061 50.928 427.397 52.848 427.972 55.92H415.973C416.516 52.912 418.853 50.928 421.989 50.928ZM443.391 48.368C440.735 48.368 438.527 49.52 437.215 51.44L436.703 48.72H434.751V66H437.471V56.592C437.471 53.36 439.743 50.832 442.719 50.832C445.695 50.832 447.359 52.816 447.359 56.304V66H450.079V55.664C450.079 51.44 447.519 48.368 443.391 48.368ZM462.294 63.504C459.926 63.504 458.646 62.224 458.646 59.888V51.184H464.086V48.72H458.646V45.072H458.23L452.886 50.704V51.184H455.926V59.984C455.926 63.728 458.23 66 461.942 66H464.182V63.504H462.294ZM473.286 66.384C477.382 66.384 480.134 64.304 480.134 61.072C480.134 56.848 476.614 56.272 473.638 55.792C471.334 55.44 469.35 55.088 469.35 53.264C469.35 51.76 470.822 50.8 473.158 50.8C475.59 50.8 477.062 51.824 477.158 53.712H479.718C479.622 50.448 477.126 48.368 473.222 48.368C469.318 48.368 466.694 50.384 466.694 53.36C466.694 57.264 470.022 57.872 472.966 58.384C475.302 58.768 477.446 59.152 477.446 61.2C477.446 62.864 475.75 63.888 473.382 63.888C470.95 63.888 469.19 62.768 469.062 60.72H466.374C466.534 64.208 469.19 66.384 473.286 66.384ZM492.499 45.744H495.443V42.64H492.499V45.744ZM492.595 66H495.315V48.72H492.595V66ZM509.423 48.368C506.767 48.368 504.559 49.52 503.247 51.44L502.735 48.72H500.783V66H503.503V56.592C503.503 53.36 505.775 50.832 508.751 50.832C511.727 50.832 513.391 52.816 513.391 56.304V66H516.111V55.664C516.111 51.44 513.551 48.368 509.423 48.368ZM528.326 63.504C525.958 63.504 524.678 62.224 524.678 59.888V51.184H530.118V48.72H524.678V45.072H524.262L518.918 50.704V51.184H521.958V59.984C521.958 63.728 524.262 66 527.974 66H530.214V63.504H528.326ZM541.434 66.384C546.65 66.384 550.586 62.544 550.586 57.36C550.586 52.208 546.65 48.368 541.434 48.368C536.186 48.368 532.25 52.176 532.25 57.36C532.25 62.544 536.186 66.384 541.434 66.384ZM541.434 63.76C537.722 63.76 535.034 61.072 535.034 57.36C535.034 53.68 537.722 50.992 541.434 50.992C545.114 50.992 547.802 53.68 547.802 57.392C547.802 61.072 545.114 63.76 541.434 63.76ZM7.1295 107.384C11.2255 107.384 13.9775 105.304 13.9775 102.072C13.9775 97.848 10.4575 97.272 7.4815 96.792C5.1775 96.44 3.1935 96.088 3.1935 94.264C3.1935 92.76 4.6655 91.8 7.0015 91.8C9.4335 91.8 10.9055 92.824 11.0015 94.712H13.5615C13.4655 91.448 10.9695 89.368 7.0655 89.368C3.1615 89.368 0.5375 91.384 0.5375 94.36C0.5375 98.264 3.8655 98.872 6.8095 99.384C9.1455 99.768 11.2895 100.152 11.2895 102.2C11.2895 103.864 9.5935 104.888 7.2255 104.888C4.7935 104.888 3.0335 103.768 2.9055 101.72H0.2175C0.3775 105.208 3.0335 107.384 7.1295 107.384ZM27.2478 89.368C24.4638 89.368 22.0958 90.488 20.4958 92.376L19.9518 89.72H18.0638V113.176H20.7838V104.696C22.3838 106.392 24.6558 107.384 27.2478 107.384C32.3998 107.384 36.1118 103.512 36.1118 98.36C36.1118 93.208 32.3998 89.368 27.2478 89.368ZM27.0558 104.76C23.3758 104.76 20.6878 102.008 20.6878 98.36C20.6878 94.744 23.3758 91.992 27.0558 91.992C30.7038 91.992 33.3918 94.712 33.3918 98.36C33.3918 102.04 30.7038 104.76 27.0558 104.76ZM56.4113 98.456C56.4113 93.4 52.9553 89.368 47.7073 89.368C42.6833 89.368 38.9073 93.24 38.9073 98.36C38.9073 103.512 42.6833 107.384 47.7073 107.384C51.4513 107.384 54.4913 105.304 55.9633 101.752H53.0833C52.0273 103.608 50.1073 104.728 47.7073 104.728C44.4433 104.728 42.0433 102.616 41.6273 99.416H56.3472C56.3793 99.096 56.4113 98.776 56.4113 98.456ZM47.7073 91.928C50.7793 91.928 53.1153 93.848 53.6912 96.92H41.6913C42.2352 93.912 44.5713 91.928 47.7073 91.928ZM69.11 89.368C66.454 89.368 64.246 90.52 62.934 92.44L62.422 89.72H60.47V107H63.19V97.592C63.19 94.36 65.462 91.832 68.438 91.832C71.414 91.832 73.078 93.816 73.078 97.304V107H75.798V96.664C75.798 92.44 73.238 89.368 69.11 89.368ZM94.9533 83.576V91.928C93.3533 90.328 91.1133 89.368 88.5533 89.368C83.3693 89.368 79.6253 93.208 79.6253 98.392C79.6253 103.512 83.3693 107.384 88.5533 107.384C91.2733 107.384 93.6093 106.328 95.2093 104.568L95.5613 107.032H97.6733V83.576H94.9533ZM88.7453 104.76C85.0973 104.76 82.4093 102.04 82.4093 98.392C82.4093 94.712 85.0973 91.992 88.7453 91.992C92.4253 91.992 95.1133 94.744 95.1133 98.392C95.1133 102.008 92.4253 104.76 88.7453 104.76ZM103.062 86.744H106.006V83.64H103.062V86.744ZM103.158 107H105.878V89.72H103.158V107ZM119.985 89.368C117.329 89.368 115.121 90.52 113.809 92.44L113.297 89.72H111.345V107H114.065V97.592C114.065 94.36 116.337 91.832 119.313 91.832C122.289 91.832 123.953 93.816 123.953 97.304V107H126.673V96.664C126.673 92.44 124.113 89.368 119.985 89.368ZM146.148 89.72L145.732 92.408C144.164 90.52 141.796 89.368 139.012 89.368C134.212 89.368 130.532 93.112 130.532 97.912C130.532 102.744 134.212 106.456 139.012 106.456C141.572 106.456 143.78 105.496 145.316 103.896V104.952C145.316 108.792 142.948 111.064 139.492 111.064C136.996 111.064 134.82 109.848 134.052 107.704H131.332C132.26 111.352 135.268 113.56 139.492 113.56C144.772 113.56 147.972 110.168 147.972 104.6V89.752L146.148 89.72ZM139.3 103.864C135.844 103.864 133.284 101.304 133.284 97.912C133.284 94.52 135.844 91.96 139.3 91.96C142.756 91.96 145.284 94.488 145.284 97.912C145.284 101.336 142.788 103.864 139.3 103.864ZM170.934 89.368C168.374 89.368 166.134 90.328 164.534 91.928V83.576H161.814V107H163.926L164.31 104.568C165.91 106.328 168.246 107.384 170.934 107.384C176.15 107.384 179.862 103.512 179.862 98.36C179.862 93.208 176.15 89.368 170.934 89.368ZM170.742 104.76C167.062 104.76 164.374 101.976 164.374 98.36C164.374 94.744 167.062 91.992 170.742 91.992C174.39 91.992 177.078 94.712 177.078 98.36C177.078 102.04 174.39 104.76 170.742 104.76ZM183.874 86.744H186.818V83.64H183.874V86.744ZM183.97 107H186.69V89.72H183.97V107ZM206.43 89.72L206.014 92.408C204.446 90.52 202.078 89.368 199.294 89.368C194.494 89.368 190.814 93.112 190.814 97.912C190.814 102.744 194.494 106.456 199.294 106.456C201.854 106.456 204.062 105.496 205.597 103.896V104.952C205.597 108.792 203.23 111.064 199.774 111.064C197.278 111.064 195.102 109.848 194.334 107.704H191.614C192.542 111.352 195.55 113.56 199.774 113.56C205.054 113.56 208.253 110.168 208.253 104.6V89.752L206.43 89.72ZM199.582 103.864C196.126 103.864 193.566 101.304 193.566 97.912C193.566 94.52 196.126 91.96 199.582 91.96C203.038 91.96 205.566 94.488 205.566 97.912C205.566 101.336 203.07 103.864 199.582 103.864ZM231.215 89.368C228.655 89.368 226.415 90.328 224.815 91.928V83.576H222.095V107H224.207L224.591 104.568C226.191 106.328 228.527 107.384 231.215 107.384C236.431 107.384 240.143 103.512 240.143 98.36C240.143 93.208 236.431 89.368 231.215 89.368ZM231.023 104.76C227.343 104.76 224.655 101.976 224.655 98.36C224.655 94.744 227.343 91.992 231.023 91.992C234.671 91.992 237.359 94.712 237.359 98.36C237.359 102.04 234.671 104.76 231.023 104.76ZM251.611 107.384C256.315 107.384 259.291 104.376 259.291 99.736V89.72H256.571V99.288C256.571 102.648 254.715 104.76 251.611 104.76C248.571 104.76 246.683 102.68 246.683 99.288V89.72H243.963V99.736C243.963 104.376 246.971 107.384 251.611 107.384ZM278.422 83.576V91.928C276.822 90.328 274.582 89.368 272.022 89.368C266.838 89.368 263.094 93.208 263.094 98.392C263.094 103.512 266.838 107.384 272.022 107.384C274.742 107.384 277.078 106.328 278.678 104.568L279.03 107.032H281.142V83.576H278.422ZM272.214 104.76C268.566 104.76 265.878 102.04 265.878 98.392C265.878 94.712 268.566 91.992 272.214 91.992C275.894 91.992 278.582 94.744 278.582 98.392C278.582 102.008 275.894 104.76 272.214 104.76ZM300.898 89.72L300.482 92.408C298.914 90.52 296.546 89.368 293.762 89.368C288.962 89.368 285.282 93.112 285.282 97.912C285.282 102.744 288.962 106.456 293.762 106.456C296.322 106.456 298.53 105.496 300.066 103.896V104.952C300.066 108.792 297.698 111.064 294.242 111.064C291.746 111.064 289.57 109.848 288.802 107.704H286.082C287.01 111.352 290.018 113.56 294.242 113.56C299.522 113.56 302.722 110.168 302.722 104.6V89.752L300.898 89.72ZM294.05 103.864C290.594 103.864 288.034 101.304 288.034 97.912C288.034 94.52 290.594 91.96 294.05 91.96C297.506 91.96 300.034 94.488 300.034 97.912C300.034 101.336 297.538 103.864 294.05 103.864ZM324.349 98.456C324.349 93.4 320.893 89.368 315.645 89.368C310.621 89.368 306.845 93.24 306.845 98.36C306.845 103.512 310.621 107.384 315.645 107.384C319.389 107.384 322.429 105.304 323.901 101.752H321.021C319.965 103.608 318.045 104.728 315.645 104.728C312.381 104.728 309.981 102.616 309.565 99.416H324.285C324.317 99.096 324.349 98.776 324.349 98.456ZM315.645 91.928C318.717 91.928 321.053 93.848 321.629 96.92H309.629C310.173 93.912 312.509 91.928 315.645 91.928ZM335.388 104.504C333.02 104.504 331.74 103.224 331.74 100.888V92.184H337.18V89.72H331.74V86.072H331.324L325.98 91.704V92.184H329.02V100.984C329.02 104.728 331.324 107 335.036 107H337.276V104.504H335.388ZM346.38 107.384C350.476 107.384 353.228 105.304 353.228 102.072C353.228 97.848 349.708 97.272 346.732 96.792C344.428 96.44 342.444 96.088 342.444 94.264C342.444 92.76 343.916 91.8 346.252 91.8C348.684 91.8 350.156 92.824 350.252 94.712H352.812C352.716 91.448 350.22 89.368 346.316 89.368C342.411 89.368 339.788 91.384 339.788 94.36C339.788 98.264 343.116 98.872 346.06 99.384C348.396 99.768 350.54 100.152 350.54 102.2C350.54 103.864 348.844 104.888 346.476 104.888C344.044 104.888 342.284 103.768 342.156 101.72H339.468C339.628 105.208 342.284 107.384 346.38 107.384ZM373.497 107.384C378.713 107.384 382.649 103.544 382.649 98.36C382.649 93.208 378.713 89.368 373.497 89.368C368.249 89.368 364.313 93.176 364.313 98.36C364.313 103.544 368.249 107.384 373.497 107.384ZM373.497 104.76C369.785 104.76 367.097 102.072 367.097 98.36C367.097 94.68 369.785 91.992 373.497 91.992C377.177 91.992 379.865 94.68 379.865 98.392C379.865 102.072 377.177 104.76 373.497 104.76ZM395.423 89.368C392.767 89.368 390.559 90.52 389.247 92.44L388.735 89.72H386.783V107H389.503V97.592C389.503 94.36 391.775 91.832 394.751 91.832C397.727 91.832 399.391 93.816 399.391 97.304V107H402.111V96.664C402.111 92.44 399.551 89.368 395.423 89.368ZM422.697 107.288C427.145 107.288 430.601 104.888 430.601 100.664C430.601 95.992 426.633 95.064 423.113 94.2C420.233 93.528 417.641 92.888 417.641 90.456C417.641 88.312 419.689 87.032 422.409 87.032C425.129 87.032 427.177 88.472 427.177 90.968H429.961C429.961 86.904 427.113 84.344 422.473 84.344C417.833 84.344 414.857 86.68 414.857 90.552C414.857 95.032 418.665 95.96 422.121 96.76C425.033 97.464 427.689 98.072 427.689 100.696C427.689 103.064 425.481 104.536 422.665 104.536C419.561 104.536 417.289 102.904 417.289 100.12H414.409C414.409 104.536 417.769 107.288 422.697 107.288ZM437.919 104.312V96.792H446.943V94.2H437.919V87.288H447.775V84.6H435.103V107H448.127V104.312H437.919ZM462.592 107.384C469.376 107.384 474.304 102.424 474.304 95.832C474.304 89.208 469.376 84.248 462.592 84.248C455.808 84.248 450.848 89.208 450.848 95.832C450.848 102.424 455.808 107.384 462.592 107.384ZM462.592 104.632C457.504 104.632 453.728 100.824 453.728 95.832C453.728 90.808 457.504 87 462.592 87C467.68 87 471.456 90.776 471.456 95.832C471.456 100.856 467.68 104.632 462.592 104.632ZM493.607 104.504C491.239 104.504 489.959 103.224 489.959 100.888V92.184H495.399V89.72H489.959V86.072H489.543L484.199 91.704V92.184H487.239V100.984C487.239 104.728 489.543 107 493.255 107H495.495V104.504H493.607ZM507.766 89.368C505.27 89.368 503.19 90.392 501.846 92.088V83.576H499.126V107H501.846V97.592C501.846 94.36 504.118 91.832 507.094 91.832C510.07 91.832 511.734 93.816 511.734 97.304V107H514.454V96.664C514.454 92.184 511.894 89.368 507.766 89.368ZM534.41 89.72L534.058 92.376C532.458 90.488 530.058 89.368 527.242 89.368C522.122 89.368 518.282 93.208 518.282 98.392C518.282 103.512 522.122 107.384 527.242 107.384C530.058 107.384 532.426 106.264 534.026 104.408L534.314 107H536.554V89.72H534.41ZM527.434 104.76C523.786 104.76 521.066 102.008 521.066 98.36C521.066 94.744 523.786 91.992 527.434 91.992C531.114 91.992 533.77 94.712 533.77 98.36C533.77 102.04 531.114 104.76 527.434 104.76ZM549.201 104.504C546.833 104.504 545.553 103.224 545.553 100.888V92.184H550.993V89.72H545.553V86.072H545.137L539.793 91.704V92.184H542.833V100.984C542.833 104.728 545.137 107 548.849 107H551.089V104.504H549.201ZM163.453 124.576V132.928C161.853 131.328 159.613 130.368 157.053 130.368C151.869 130.368 148.125 134.208 148.125 139.392C148.125 144.512 151.869 148.384 157.053 148.384C159.773 148.384 162.109 147.328 163.709 145.568L164.061 148.032H166.173V124.576H163.453ZM157.245 145.76C153.597 145.76 150.909 143.04 150.909 139.392C150.909 135.712 153.597 132.992 157.245 132.992C160.925 132.992 163.613 135.744 163.613 139.392C163.613 143.008 160.925 145.76 157.245 145.76ZM179.466 148.384C184.682 148.384 188.618 144.544 188.618 139.36C188.618 134.208 184.682 130.368 179.466 130.368C174.218 130.368 170.282 134.176 170.282 139.36C170.282 144.544 174.218 148.384 179.466 148.384ZM179.466 145.76C175.754 145.76 173.066 143.072 173.066 139.36C173.066 135.68 175.754 132.992 179.466 132.992C183.146 132.992 185.833 135.68 185.833 139.392C185.833 143.072 183.146 145.76 179.466 145.76ZM208.911 139.456C208.911 134.4 205.455 130.368 200.207 130.368C195.183 130.368 191.407 134.24 191.407 139.36C191.407 144.512 195.183 148.384 200.207 148.384C203.951 148.384 206.991 146.304 208.463 142.752H205.583C204.527 144.608 202.607 145.728 200.207 145.728C196.943 145.728 194.543 143.616 194.127 140.416H208.847C208.879 140.096 208.911 139.776 208.911 139.456ZM200.207 132.928C203.279 132.928 205.615 134.848 206.191 137.92H194.191C194.735 134.912 197.071 132.928 200.207 132.928ZM218.442 148.384C222.538 148.384 225.29 146.304 225.29 143.072C225.29 138.848 221.77 138.272 218.794 137.792C216.49 137.44 214.506 137.088 214.506 135.264C214.506 133.76 215.978 132.8 218.314 132.8C220.746 132.8 222.218 133.824 222.314 135.712H224.874C224.778 132.448 222.282 130.368 218.378 130.368C214.474 130.368 211.85 132.384 211.85 135.36C211.85 139.264 215.178 139.872 218.122 140.384C220.458 140.768 222.602 141.152 222.602 143.2C222.602 144.864 220.906 145.888 218.538 145.888C216.106 145.888 214.346 144.768 214.218 142.72H211.53C211.69 146.208 214.346 148.384 218.442 148.384ZM238.016 130.368C235.36 130.368 233.152 131.52 231.84 133.44L231.328 130.72H229.376V148H232.096V138.592C232.096 135.36 234.368 132.832 237.344 132.832C240.32 132.832 241.984 134.816 241.984 138.304V148H244.704V137.664C244.704 133.44 242.144 130.368 238.016 130.368ZM248.896 132.64C250.88 132.096 252.032 130.72 252.032 128.16V125.024H248.736V128.384H250.56C250.56 129.792 250.112 130.72 248.896 131.136V132.64ZM263.576 145.504C261.208 145.504 259.928 144.224 259.928 141.888V133.184H265.368V130.72H259.928V127.072H259.512L254.168 132.704V133.184H257.208V141.984C257.208 145.728 259.512 148 263.224 148H265.464V145.504H263.576ZM296.574 130.368C294.206 130.368 291.998 131.616 290.718 133.632C289.758 131.616 287.87 130.368 285.406 130.368C283.23 130.368 281.214 131.392 279.87 133.12L279.422 130.72H277.47V148H280.19V138.432C280.19 135.264 282.27 132.832 284.798 132.832C287.294 132.832 288.734 134.688 288.734 137.824V148H291.422V138.432C291.422 135.264 293.502 132.832 296.03 132.832C298.494 132.832 299.934 134.688 299.934 137.824V148H302.654V136.96C302.654 133.088 300.222 130.368 296.574 130.368ZM315.684 148.384C320.9 148.384 324.836 144.544 324.836 139.36C324.836 134.208 320.9 130.368 315.684 130.368C310.436 130.368 306.5 134.176 306.5 139.36C306.5 144.544 310.436 148.384 315.684 148.384ZM315.684 145.76C311.972 145.76 309.284 143.072 309.284 139.36C309.284 135.68 311.972 132.992 315.684 132.992C319.364 132.992 322.052 135.68 322.052 139.392C322.052 143.072 319.364 145.76 315.684 145.76ZM340.662 130.72L334.934 144.48L329.046 130.72H326.23L333.686 148H336.182L343.446 130.72H340.662ZM362.443 139.456C362.443 134.4 358.987 130.368 353.739 130.368C348.715 130.368 344.939 134.24 344.939 139.36C344.939 144.512 348.715 148.384 353.739 148.384C357.483 148.384 360.523 146.304 361.995 142.752H359.115C358.059 144.608 356.139 145.728 353.739 145.728C350.475 145.728 348.075 143.616 347.659 140.416H362.378C362.411 140.096 362.443 139.776 362.443 139.456ZM353.739 132.928C356.811 132.928 359.147 134.848 359.722 137.92H347.723C348.266 134.912 350.603 132.928 353.739 132.928ZM381.513 145.504C379.145 145.504 377.865 144.224 377.865 141.888V133.184H383.305V130.72H377.865V127.072H377.449L372.105 132.704V133.184H375.145V141.984C375.145 145.728 377.449 148 381.161 148H383.401V145.504H381.513ZM395.673 130.368C393.177 130.368 391.097 131.392 389.753 133.088V124.576H387.033V148H389.753V138.592C389.753 135.36 392.025 132.832 395.001 132.832C397.977 132.832 399.641 134.816 399.641 138.304V148H402.361V137.664C402.361 133.184 399.801 130.368 395.673 130.368ZM423.724 139.456C423.724 134.4 420.268 130.368 415.02 130.368C409.996 130.368 406.22 134.24 406.22 139.36C406.22 144.512 409.996 148.384 415.02 148.384C418.764 148.384 421.804 146.304 423.276 142.752H420.396C419.34 144.608 417.42 145.728 415.02 145.728C411.756 145.728 409.356 143.616 408.94 140.416H423.66C423.692 140.096 423.724 139.776 423.724 139.456ZM415.02 132.928C418.092 132.928 420.428 134.848 421.004 137.92H409.004C409.548 134.912 411.884 132.928 415.02 132.928ZM444.798 130.368C442.142 130.368 439.934 131.52 438.622 133.44L438.11 130.72H436.158V148H438.878V138.592C438.878 135.36 441.15 132.832 444.126 132.832C447.102 132.832 448.766 134.816 448.766 138.304V148H451.486V137.664C451.486 133.44 448.926 130.368 444.798 130.368ZM472.849 139.456C472.849 134.4 469.393 130.368 464.145 130.368C459.121 130.368 455.345 134.24 455.345 139.36C455.345 144.512 459.121 148.384 464.145 148.384C467.889 148.384 470.929 146.304 472.401 142.752H469.521C468.465 144.608 466.545 145.728 464.145 145.728C460.881 145.728 458.481 143.616 458.065 140.416H472.785C472.817 140.096 472.849 139.776 472.849 139.456ZM464.145 132.928C467.217 132.928 469.553 134.848 470.129 137.92H458.129C458.673 134.912 461.009 132.928 464.145 132.928ZM493.068 139.456C493.068 134.4 489.612 130.368 484.364 130.368C479.34 130.368 475.564 134.24 475.564 139.36C475.564 144.512 479.34 148.384 484.364 148.384C488.108 148.384 491.148 146.304 492.62 142.752H489.74C488.684 144.608 486.764 145.728 484.364 145.728C481.1 145.728 478.7 143.616 478.284 140.416H493.003C493.036 140.096 493.068 139.776 493.068 139.456ZM484.364 132.928C487.436 132.928 489.772 134.848 490.347 137.92H478.348C478.891 134.912 481.228 132.928 484.364 132.928ZM511.078 124.576V132.928C509.478 131.328 507.238 130.368 504.678 130.368C499.494 130.368 495.75 134.208 495.75 139.392C495.75 144.512 499.494 148.384 504.678 148.384C507.398 148.384 509.734 147.328 511.334 145.568L511.686 148.032H513.798V124.576H511.078ZM504.87 145.76C501.222 145.76 498.534 143.04 498.534 139.392C498.534 135.712 501.222 132.992 504.87 132.992C508.55 132.992 511.238 135.744 511.238 139.392C511.238 143.008 508.55 145.76 504.87 145.76ZM519.283 148H522.003V124.576H519.283V148ZM543.63 139.456C543.63 134.4 540.174 130.368 534.926 130.368C529.902 130.368 526.126 134.24 526.126 139.36C526.126 144.512 529.902 148.384 534.926 148.384C538.67 148.384 541.71 146.304 543.182 142.752H540.302C539.246 144.608 537.326 145.728 534.926 145.728C531.662 145.728 529.262 143.616 528.846 140.416H543.566C543.598 140.096 543.63 139.776 543.63 139.456ZM534.926 132.928C537.998 132.928 540.334 134.848 540.91 137.92H528.91C529.454 134.912 531.79 132.928 534.926 132.928ZM546.676 148H549.78V144.608H546.676V148ZM16.7373 227.384C18.4013 226.392 19.4893 224.344 19.4893 222.328C19.4893 219.064 16.8333 216.6 13.1853 216.6H4.32125V239H13.2813C17.1533 239 20.0653 236.312 20.0653 232.856C20.0653 230.392 18.8173 228.28 16.7373 227.384ZM16.6093 222.712C16.6093 224.568 15.1373 226.072 13.1213 226.072H7.10525V219.352H13.1213C15.0733 219.352 16.6093 220.824 16.6093 222.712ZM13.2493 236.248H7.10525V228.824H13.2813C15.4893 228.824 17.1853 230.424 17.1853 232.536C17.1853 234.68 15.4893 236.248 13.2493 236.248ZM31.83 239.384C36.534 239.384 39.51 236.376 39.51 231.736V221.72H36.79V231.288C36.79 234.648 34.934 236.76 31.83 236.76C28.79 236.76 26.902 234.68 26.902 231.288V221.72H24.182V231.736C24.182 236.376 27.19 239.384 31.83 239.384ZM50.1608 239.384C54.2568 239.384 57.0088 237.304 57.0088 234.072C57.0088 229.848 53.4888 229.272 50.5128 228.792C48.2088 228.44 46.2248 228.088 46.2248 226.264C46.2248 224.76 47.6968 223.8 50.0328 223.8C52.4648 223.8 53.9368 224.824 54.0328 226.712H56.5928C56.4968 223.448 54.0008 221.368 50.0968 221.368C46.1927 221.368 43.5688 223.384 43.5688 226.36C43.5688 230.264 46.8968 230.872 49.8408 231.384C52.1768 231.768 54.3208 232.152 54.3208 234.2C54.3208 235.864 52.6248 236.888 50.2568 236.888C47.8248 236.888 46.0648 235.768 45.9368 233.72H43.2488C43.4088 237.208 46.0648 239.384 50.1608 239.384ZM60.999 218.744H63.943V215.64H60.999V218.744ZM61.095 239H63.815V221.72H61.095V239ZM77.9225 221.368C75.2665 221.368 73.0585 222.52 71.7465 224.44L71.2345 221.72H69.2825V239H72.0025V229.592C72.0025 226.36 74.2745 223.832 77.2505 223.832C80.2265 223.832 81.8905 225.816 81.8905 229.304V239H84.6105V228.664C84.6105 224.44 82.0505 221.368 77.9225 221.368ZM105.974 230.456C105.974 225.4 102.518 221.368 97.2698 221.368C92.2458 221.368 88.4698 225.24 88.4698 230.36C88.4698 235.512 92.2458 239.384 97.2698 239.384C101.014 239.384 104.054 237.304 105.526 233.752H102.646C101.59 235.608 99.6698 236.728 97.2698 236.728C94.0058 236.728 91.6058 234.616 91.1898 231.416H105.91C105.942 231.096 105.974 230.776 105.974 230.456ZM97.2698 223.928C100.342 223.928 102.678 225.848 103.254 228.92H91.2538C91.7977 225.912 94.1338 223.928 97.2698 223.928ZM115.505 239.384C119.601 239.384 122.353 237.304 122.353 234.072C122.353 229.848 118.833 229.272 115.857 228.792C113.553 228.44 111.569 228.088 111.569 226.264C111.569 224.76 113.041 223.8 115.377 223.8C117.809 223.8 119.281 224.824 119.377 226.712H121.937C121.841 223.448 119.345 221.368 115.441 221.368C111.536 221.368 108.913 223.384 108.913 226.36C108.913 230.264 112.241 230.872 115.185 231.384C117.521 231.768 119.665 232.152 119.665 234.2C119.665 235.864 117.969 236.888 115.601 236.888C113.169 236.888 111.409 235.768 111.281 233.72H108.593C108.753 237.208 111.409 239.384 115.505 239.384ZM131.911 239.384C136.007 239.384 138.759 237.304 138.759 234.072C138.759 229.848 135.239 229.272 132.263 228.792C129.959 228.44 127.975 228.088 127.975 226.264C127.975 224.76 129.447 223.8 131.783 223.8C134.215 223.8 135.687 224.824 135.783 226.712H138.343C138.247 223.448 135.751 221.368 131.847 221.368C127.943 221.368 125.319 223.384 125.319 226.36C125.319 230.264 128.647 230.872 131.591 231.384C133.927 231.768 136.071 232.152 136.071 234.2C136.071 235.864 134.375 236.888 132.007 236.888C129.575 236.888 127.815 235.768 127.687 233.72H124.999C125.159 237.208 127.815 239.384 131.911 239.384ZM159.86 221.368C157.364 221.368 155.284 222.392 153.94 224.088V215.576H151.22V239H153.94V229.592C153.94 226.36 156.212 223.832 159.188 223.832C162.164 223.832 163.828 225.816 163.828 229.304V239H166.548V228.664C166.548 224.184 163.988 221.368 159.86 221.368ZM186.503 221.72L186.151 224.376C184.551 222.488 182.151 221.368 179.335 221.368C174.215 221.368 170.375 225.208 170.375 230.392C170.375 235.512 174.215 239.384 179.335 239.384C182.151 239.384 184.519 238.264 186.119 236.408L186.407 239H188.647V221.72H186.503ZM179.527 236.76C175.879 236.76 173.159 234.008 173.159 230.36C173.159 226.744 175.879 223.992 179.527 223.992C183.207 223.992 185.863 226.712 185.863 230.36C185.863 234.04 183.207 236.76 179.527 236.76ZM203.31 221.368C200.526 221.368 198.158 222.488 196.558 224.376L196.014 221.72H194.126V245.176H196.846V236.696C198.446 238.392 200.718 239.384 203.31 239.384C208.462 239.384 212.174 235.512 212.174 230.36C212.174 225.208 208.462 221.368 203.31 221.368ZM203.118 236.76C199.438 236.76 196.75 234.008 196.75 230.36C196.75 226.744 199.438 223.992 203.118 223.992C206.766 223.992 209.454 226.712 209.454 230.36C209.454 234.04 206.766 236.76 203.118 236.76ZM225.498 221.368C222.714 221.368 220.346 222.488 218.746 224.376L218.202 221.72H216.314V245.176H219.034V236.696C220.634 238.392 222.906 239.384 225.498 239.384C230.65 239.384 234.362 235.512 234.362 230.36C234.362 225.208 230.65 221.368 225.498 221.368ZM225.306 236.76C221.626 236.76 218.938 234.008 218.938 230.36C218.938 226.744 221.626 223.992 225.306 223.992C228.954 223.992 231.642 226.712 231.642 230.36C231.642 234.04 228.954 236.76 225.306 236.76ZM254.661 230.456C254.661 225.4 251.205 221.368 245.957 221.368C240.933 221.368 237.157 225.24 237.157 230.36C237.157 235.512 240.933 239.384 245.957 239.384C249.701 239.384 252.741 237.304 254.213 233.752H251.333C250.277 235.608 248.357 236.728 245.957 236.728C242.693 236.728 240.293 234.616 239.877 231.416H254.597C254.629 231.096 254.661 230.776 254.661 230.456ZM245.957 223.928C249.029 223.928 251.365 225.848 251.941 228.92H239.941C240.485 225.912 242.821 223.928 245.957 223.928ZM267.36 221.368C264.704 221.368 262.496 222.52 261.184 224.44L260.672 221.72H258.72V239H261.44V229.592C261.44 226.36 263.712 223.832 266.688 223.832C269.664 223.832 271.328 225.816 271.328 229.304V239H274.048V228.664C274.048 224.44 271.488 221.368 267.36 221.368ZM284.723 239.384C288.819 239.384 291.571 237.304 291.571 234.072C291.571 229.848 288.051 229.272 285.075 228.792C282.771 228.44 280.787 228.088 280.787 226.264C280.787 224.76 282.259 223.8 284.595 223.8C287.027 223.8 288.499 224.824 288.595 226.712H291.155C291.059 223.448 288.563 221.368 284.659 221.368C280.755 221.368 278.131 223.384 278.131 226.36C278.131 230.264 281.459 230.872 284.403 231.384C286.739 231.768 288.883 232.152 288.883 234.2C288.883 235.864 287.187 236.888 284.819 236.888C282.387 236.888 280.627 235.768 280.499 233.72H277.811C277.971 237.208 280.627 239.384 284.723 239.384ZM311.841 239.384C317.057 239.384 320.993 235.544 320.993 230.36C320.993 225.208 317.057 221.368 311.841 221.368C306.593 221.368 302.657 225.176 302.657 230.36C302.657 235.544 306.593 239.384 311.841 239.384ZM311.841 236.76C308.129 236.76 305.441 234.072 305.441 230.36C305.441 226.68 308.129 223.992 311.841 223.992C315.521 223.992 318.208 226.68 318.208 230.392C318.208 234.072 315.521 236.76 311.841 236.76ZM333.766 221.368C331.11 221.368 328.902 222.52 327.59 224.44L327.078 221.72H325.126V239H327.846V229.592C327.846 226.36 330.118 223.832 333.094 223.832C336.07 223.832 337.734 225.816 337.734 229.304V239H340.454V228.664C340.454 224.44 337.894 221.368 333.766 221.368ZM345.658 239H348.378V215.576H345.658V239ZM353.749 218.744H356.693V215.64H353.749V218.744ZM353.845 239H356.565V221.72H353.845V239ZM370.673 221.368C368.017 221.368 365.809 222.52 364.497 224.44L363.985 221.72H362.033V239H364.753V229.592C364.753 226.36 367.025 223.832 370.001 223.832C372.977 223.832 374.641 225.816 374.641 229.304V239H377.361V228.664C377.361 224.44 374.801 221.368 370.673 221.368ZM398.724 230.456C398.724 225.4 395.268 221.368 390.02 221.368C384.996 221.368 381.22 225.24 381.22 230.36C381.22 235.512 384.996 239.384 390.02 239.384C393.764 239.384 396.804 237.304 398.276 233.752H395.396C394.34 235.608 392.42 236.728 390.02 236.728C386.756 236.728 384.356 234.616 383.94 231.416H398.66C398.692 231.096 398.724 230.776 398.724 230.456ZM390.02 223.928C393.092 223.928 395.428 225.848 396.004 228.92H384.004C384.548 225.912 386.884 223.928 390.02 223.928ZM425.91 221.72L425.558 224.376C423.958 222.488 421.558 221.368 418.742 221.368C413.622 221.368 409.782 225.208 409.782 230.392C409.782 235.512 413.622 239.384 418.742 239.384C421.558 239.384 423.926 238.264 425.526 236.408L425.814 239H428.054V221.72H425.91ZM418.934 236.76C415.286 236.76 412.566 234.008 412.566 230.36C412.566 226.744 415.286 223.992 418.934 223.992C422.614 223.992 425.27 226.712 425.27 230.36C425.27 234.04 422.614 236.76 418.934 236.76ZM442.173 221.368C439.517 221.368 437.309 222.52 435.997 224.44L435.485 221.72H433.533V239H436.253V229.592C436.253 226.36 438.525 223.832 441.501 223.832C444.477 223.832 446.141 225.816 446.141 229.304V239H448.861V228.664C448.861 224.44 446.301 221.368 442.173 221.368ZM468.016 215.576V223.928C466.416 222.328 464.176 221.368 461.616 221.368C456.432 221.368 452.688 225.208 452.688 230.392C452.688 235.512 456.432 239.384 461.616 239.384C464.336 239.384 466.672 238.328 468.272 236.568L468.624 239.032H470.736V215.576H468.016ZM461.808 236.76C458.16 236.76 455.472 234.04 455.472 230.392C455.472 226.712 458.16 223.992 461.808 223.992C465.488 223.992 468.176 226.744 468.176 230.392C468.176 234.008 465.488 236.76 461.808 236.76ZM496.454 221.72L490.662 234.808L484.518 221.72H481.574L489.254 237.848L488.646 239.128C487.238 242.008 486.438 242.712 484.102 242.712H482.726V245.176H484.358C487.622 245.176 489.254 243.832 491.11 239.736L499.366 221.72H496.454ZM509.778 239.384C514.994 239.384 518.93 235.544 518.93 230.36C518.93 225.208 514.994 221.368 509.778 221.368C504.53 221.368 500.594 225.176 500.594 230.36C500.594 235.544 504.53 239.384 509.778 239.384ZM509.778 236.76C506.066 236.76 503.378 234.072 503.378 230.36C503.378 226.68 506.066 223.992 509.778 223.992C513.458 223.992 516.146 226.68 516.146 230.392C516.146 234.072 513.458 236.76 509.778 236.76ZM530.424 239.384C535.128 239.384 538.104 236.376 538.104 231.736V221.72H535.384V231.288C535.384 234.648 533.528 236.76 530.424 236.76C527.384 236.76 525.496 234.68 525.496 231.288V221.72H522.776V231.736C522.776 236.376 525.784 239.384 530.424 239.384ZM551.187 221.656C548.691 221.656 546.899 222.584 545.651 224.376L545.235 221.72H543.283V239H546.003V229.624C546.003 226.264 547.795 224.216 550.963 224.216H552.723V221.656H551.187ZM38.8673 280.384C42.9633 280.384 46.2593 277.92 47.3153 274.112H44.5633C43.5073 276.416 41.3953 277.76 38.8673 277.76C35.3473 277.76 32.6593 274.976 32.6593 271.36C32.6593 267.776 35.3153 264.992 38.8673 264.992C41.4273 264.992 43.5713 266.336 44.5633 268.576H47.2833C46.2273 264.8 42.9953 262.368 38.8673 262.368C33.7473 262.368 29.8753 266.208 29.8753 271.36C29.8753 276.512 33.7473 280.384 38.8673 280.384ZM58.903 280.384C64.119 280.384 68.055 276.544 68.055 271.36C68.055 266.208 64.119 262.368 58.903 262.368C53.655 262.368 49.719 266.176 49.719 271.36C49.719 276.544 53.655 280.384 58.903 280.384ZM58.903 277.76C55.191 277.76 52.503 275.072 52.503 271.36C52.503 267.68 55.191 264.992 58.903 264.992C62.583 264.992 65.271 267.68 65.271 271.392C65.271 275.072 62.583 277.76 58.903 277.76ZM91.2928 262.368C88.9248 262.368 86.7168 263.616 85.4368 265.632C84.4768 263.616 82.5888 262.368 80.1248 262.368C77.9488 262.368 75.9328 263.392 74.5888 265.12L74.1408 262.72H72.1888V280H74.9088V270.432C74.9088 267.264 76.9888 264.832 79.5168 264.832C82.0128 264.832 83.4528 266.688 83.4528 269.824V280H86.1408V270.432C86.1408 267.264 88.2208 264.832 90.7488 264.832C93.2128 264.832 94.6528 266.688 94.6528 269.824V280H97.3728V268.96C97.3728 265.088 94.9408 262.368 91.2928 262.368ZM111.779 262.368C108.995 262.368 106.627 263.488 105.027 265.376L104.483 262.72H102.595V286.176H105.315V277.696C106.915 279.392 109.187 280.384 111.779 280.384C116.931 280.384 120.643 276.512 120.643 271.36C120.643 266.208 116.931 262.368 111.779 262.368ZM111.587 277.76C107.907 277.76 105.219 275.008 105.219 271.36C105.219 267.744 107.907 264.992 111.587 264.992C115.235 264.992 117.923 267.712 117.923 271.36C117.923 275.04 115.235 277.76 111.587 277.76ZM139.535 262.72L139.183 265.376C137.583 263.488 135.183 262.368 132.367 262.368C127.247 262.368 123.407 266.208 123.407 271.392C123.407 276.512 127.247 280.384 132.367 280.384C135.183 280.384 137.551 279.264 139.151 277.408L139.439 280H141.679V262.72H139.535ZM132.559 277.76C128.911 277.76 126.191 275.008 126.191 271.36C126.191 267.744 128.911 264.992 132.559 264.992C136.239 264.992 138.895 267.712 138.895 271.36C138.895 275.04 136.239 277.76 132.559 277.76ZM155.798 262.368C153.142 262.368 150.934 263.52 149.622 265.44L149.11 262.72H147.158V280H149.878V270.592C149.878 267.36 152.15 264.832 155.126 264.832C158.102 264.832 159.766 266.816 159.766 270.304V280H162.486V269.664C162.486 265.44 159.926 262.368 155.798 262.368ZM179.766 262.72L173.974 275.808L167.83 262.72H164.886L172.566 278.848L171.958 280.128C170.55 283.008 169.75 283.712 167.414 283.712H166.038V286.176H167.67C170.934 286.176 172.566 284.832 174.422 280.736L182.678 262.72H179.766ZM207.36 256.576V264.928C205.76 263.328 203.52 262.368 200.96 262.368C195.776 262.368 192.032 266.208 192.032 271.392C192.032 276.512 195.776 280.384 200.96 280.384C203.68 280.384 206.016 279.328 207.616 277.568L207.968 280.032H210.08V256.576H207.36ZM201.152 277.76C197.504 277.76 194.816 275.04 194.816 271.392C194.816 267.712 197.504 264.992 201.152 264.992C204.832 264.992 207.52 267.744 207.52 271.392C207.52 275.008 204.832 277.76 201.152 277.76ZM231.724 271.456C231.724 266.4 228.268 262.368 223.02 262.368C217.996 262.368 214.22 266.24 214.22 271.36C214.22 276.512 217.996 280.384 223.02 280.384C226.764 280.384 229.804 278.304 231.276 274.752H228.396C227.34 276.608 225.42 277.728 223.02 277.728C219.756 277.728 217.356 275.616 216.94 272.416H231.66C231.692 272.096 231.724 271.776 231.724 271.456ZM223.02 264.928C226.092 264.928 228.428 266.848 229.004 269.92H217.004C217.548 266.912 219.884 264.928 223.02 264.928ZM241.255 280.384C245.351 280.384 248.103 278.304 248.103 275.072C248.103 270.848 244.583 270.272 241.607 269.792C239.303 269.44 237.319 269.088 237.319 267.264C237.319 265.76 238.791 264.8 241.127 264.8C243.559 264.8 245.031 265.824 245.127 267.712H247.687C247.591 264.448 245.095 262.368 241.191 262.368C237.286 262.368 234.663 264.384 234.663 267.36C234.663 271.264 237.991 271.872 240.935 272.384C243.271 272.768 245.415 273.152 245.415 275.2C245.415 276.864 243.719 277.888 241.351 277.888C238.919 277.888 237.159 276.768 237.031 274.72H234.343C234.503 278.208 237.159 280.384 241.255 280.384ZM268.349 271.456C268.349 266.4 264.893 262.368 259.645 262.368C254.621 262.368 250.845 266.24 250.845 271.36C250.845 276.512 254.621 280.384 259.645 280.384C263.389 280.384 266.429 278.304 267.901 274.752H265.021C263.965 276.608 262.045 277.728 259.645 277.728C256.381 277.728 253.981 275.616 253.565 272.416H268.285C268.317 272.096 268.349 271.776 268.349 271.456ZM259.645 264.928C262.717 264.928 265.053 266.848 265.629 269.92H253.629C254.173 266.912 256.509 264.928 259.645 264.928ZM280.312 262.656C277.816 262.656 276.024 263.584 274.776 265.376L274.36 262.72H272.408V280H275.128V270.624C275.128 267.264 276.92 265.216 280.088 265.216H281.848V262.656H280.312ZM296.943 262.72L291.215 276.48L285.327 262.72H282.511L289.967 280H292.463L299.727 262.72H296.943ZM318.724 271.456C318.724 266.4 315.268 262.368 310.02 262.368C304.996 262.368 301.22 266.24 301.22 271.36C301.22 276.512 304.996 280.384 310.02 280.384C313.764 280.384 316.804 278.304 318.276 274.752H315.396C314.34 276.608 312.42 277.728 310.02 277.728C306.756 277.728 304.356 275.616 303.94 272.416H318.66C318.692 272.096 318.724 271.776 318.724 271.456ZM310.02 264.928C313.092 264.928 315.428 266.848 316.004 269.92H304.004C304.548 266.912 306.884 264.928 310.02 264.928ZM328.255 280.384C332.351 280.384 335.103 278.304 335.103 275.072C335.103 270.848 331.583 270.272 328.607 269.792C326.303 269.44 324.319 269.088 324.319 267.264C324.319 265.76 325.791 264.8 328.127 264.8C330.559 264.8 332.031 265.824 332.127 267.712H334.687C334.591 264.448 332.095 262.368 328.191 262.368C324.286 262.368 321.663 264.384 321.663 267.36C321.663 271.264 324.991 271.872 327.935 272.384C330.271 272.768 332.415 273.152 332.415 275.2C332.415 276.864 330.719 277.888 328.351 277.888C325.919 277.888 324.159 276.768 324.031 274.72H321.343C321.503 278.208 324.159 280.384 328.255 280.384ZM362.316 262.72L361.964 265.376C360.364 263.488 357.964 262.368 355.148 262.368C350.028 262.368 346.188 266.208 346.188 271.392C346.188 276.512 350.028 280.384 355.148 280.384C357.964 280.384 360.332 279.264 361.932 277.408L362.22 280H364.46V262.72H362.316ZM355.34 277.76C351.692 277.76 348.972 275.008 348.972 271.36C348.972 267.744 351.692 264.992 355.34 264.992C359.02 264.992 361.676 267.712 361.676 271.36C361.676 275.04 359.02 277.76 355.34 277.76ZM383.786 280.384C387.882 280.384 390.634 278.304 390.634 275.072C390.634 270.848 387.114 270.272 384.138 269.792C381.834 269.44 379.85 269.088 379.85 267.264C379.85 265.76 381.322 264.8 383.658 264.8C386.09 264.8 387.562 265.824 387.658 267.712H390.218C390.122 264.448 387.626 262.368 383.722 262.368C379.818 262.368 377.194 264.384 377.194 267.36C377.194 271.264 380.522 271.872 383.466 272.384C385.802 272.768 387.946 273.152 387.946 275.2C387.946 276.864 386.25 277.888 383.882 277.888C381.45 277.888 379.69 276.768 379.562 274.72H376.874C377.034 278.208 379.69 280.384 383.786 280.384ZM410.88 271.456C410.88 266.4 407.424 262.368 402.176 262.368C397.152 262.368 393.376 266.24 393.376 271.36C393.376 276.512 397.152 280.384 402.176 280.384C405.92 280.384 408.96 278.304 410.432 274.752H407.552C406.496 276.608 404.576 277.728 402.176 277.728C398.912 277.728 396.512 275.616 396.096 272.416H410.816C410.848 272.096 410.88 271.776 410.88 271.456ZM402.176 264.928C405.248 264.928 407.584 266.848 408.16 269.92H396.16C396.704 266.912 399.04 264.928 402.176 264.928ZM429.691 262.72L429.339 265.376C427.739 263.488 425.339 262.368 422.523 262.368C417.403 262.368 413.563 266.208 413.563 271.392C413.563 276.512 417.403 280.384 422.523 280.384C425.339 280.384 427.707 279.264 429.307 277.408L429.595 280H431.835V262.72H429.691ZM422.715 277.76C419.067 277.76 416.347 275.008 416.347 271.36C416.347 267.744 419.067 264.992 422.715 264.992C426.395 264.992 429.051 267.712 429.051 271.36C429.051 275.04 426.395 277.76 422.715 277.76ZM444.482 277.504C442.114 277.504 440.834 276.224 440.834 273.888V265.184H446.274V262.72H440.834V259.072H440.418L435.074 264.704V265.184H438.114V273.984C438.114 277.728 440.418 280 444.13 280H446.37V277.504H444.482ZM473.128 262.72L472.776 265.376C471.176 263.488 468.776 262.368 465.96 262.368C460.84 262.368 457 266.208 457 271.392C457 276.512 460.84 280.384 465.96 280.384C468.776 280.384 471.144 279.264 472.744 277.408L473.032 280H475.272V262.72H473.128ZM466.152 277.76C462.504 277.76 459.784 275.008 459.784 271.36C459.784 267.744 462.504 264.992 466.152 264.992C469.832 264.992 472.488 267.712 472.488 271.36C472.488 275.04 469.832 277.76 466.152 277.76ZM487.919 277.504C485.551 277.504 484.271 276.224 484.271 273.888V265.184H489.711V262.72H484.271V259.072H483.855L478.511 264.704V265.184H481.551V273.984C481.551 277.728 483.855 280 487.567 280H489.807V277.504H487.919ZM508.451 277.504C506.083 277.504 504.803 276.224 504.803 273.888V265.184H510.243V262.72H504.803V259.072H504.387L499.043 264.704V265.184H502.083V273.984C502.083 277.728 504.387 280 508.099 280H510.339V277.504H508.451ZM522.61 262.368C520.114 262.368 518.034 263.392 516.69 265.088V256.576H513.97V280H516.69V270.592C516.69 267.36 518.962 264.832 521.938 264.832C524.914 264.832 526.578 266.816 526.578 270.304V280H529.298V269.664C529.298 265.184 526.738 262.368 522.61 262.368ZM550.661 271.456C550.661 266.4 547.205 262.368 541.957 262.368C536.933 262.368 533.157 266.24 533.157 271.36C533.157 276.512 536.933 280.384 541.957 280.384C545.701 280.384 548.741 278.304 550.213 274.752H547.333C546.277 276.608 544.357 277.728 541.957 277.728C538.693 277.728 536.293 275.616 535.877 272.416H550.597C550.629 272.096 550.661 271.776 550.661 271.456ZM541.957 264.928C545.029 264.928 547.365 266.848 547.941 269.92H535.941C536.485 266.912 538.821 264.928 541.957 264.928ZM12.4193 318.504C10.0513 318.504 8.77125 317.224 8.77125 314.888V306.184H14.2113V303.72H8.77125V300.072H8.35525L3.01125 305.704V306.184H6.05125V314.984C6.05125 318.728 8.35525 321 12.0673 321H14.3073V318.504H12.4193ZM32.472 303.72L32.12 306.376C30.52 304.488 28.12 303.368 25.304 303.368C20.184 303.368 16.344 307.208 16.344 312.392C16.344 317.512 20.184 321.384 25.304 321.384C28.12 321.384 30.488 320.264 32.088 318.408L32.376 321H34.616V303.72H32.472ZM25.496 318.76C21.848 318.76 19.128 316.008 19.128 312.36C19.128 308.744 21.848 305.992 25.496 305.992C29.176 305.992 31.832 308.712 31.832 312.36C31.832 316.04 29.176 318.76 25.496 318.76ZM49.215 303.368C46.655 303.368 44.415 304.328 42.815 305.928V297.576H40.095V321H42.207L42.591 318.568C44.191 320.328 46.527 321.384 49.215 321.384C54.431 321.384 58.143 317.512 58.143 312.36C58.143 307.208 54.431 303.368 49.215 303.368ZM49.023 318.76C45.343 318.76 42.655 315.976 42.655 312.36C42.655 308.744 45.343 305.992 49.023 305.992C52.671 305.992 55.359 308.712 55.359 312.36C55.359 316.04 52.671 318.76 49.023 318.76ZM62.2513 321H64.9713V297.576H62.2513V321ZM86.5988 312.456C86.5988 307.4 83.1428 303.368 77.8948 303.368C72.8708 303.368 69.0948 307.24 69.0948 312.36C69.0948 317.512 72.8708 321.384 77.8948 321.384C81.6388 321.384 84.6788 319.304 86.1508 315.752H83.2708C82.2148 317.608 80.2948 318.728 77.8948 318.728C74.6308 318.728 72.2308 316.616 71.8148 313.416H86.5347C86.5668 313.096 86.5988 312.776 86.5988 312.456ZM77.8948 305.928C80.9668 305.928 83.3028 307.848 83.8787 310.92H71.8788C72.4227 307.912 74.7588 305.928 77.8948 305.928ZM89.6448 321H92.7488V317.608H89.6448V321ZM131.839 298.6L126.399 316.424L119.647 299.048H118.527L111.967 316.424L106.399 298.6H103.423L110.623 321H113.087L119.103 305.096L125.279 321H127.743L134.815 298.6H131.839ZM153.255 312.456C153.255 307.4 149.799 303.368 144.551 303.368C139.527 303.368 135.751 307.24 135.751 312.36C135.751 317.512 139.527 321.384 144.551 321.384C148.295 321.384 151.335 319.304 152.807 315.752H149.927C148.871 317.608 146.951 318.728 144.551 318.728C141.287 318.728 138.887 316.616 138.471 313.416H153.191C153.223 313.096 153.255 312.776 153.255 312.456ZM144.551 305.928C147.623 305.928 149.959 307.848 150.535 310.92H138.535C139.079 307.912 141.415 305.928 144.551 305.928ZM156.208 305.64C158.192 305.096 159.344 303.72 159.344 301.16V298.024H156.048V301.384H157.872C157.872 302.792 157.424 303.72 156.208 304.136V305.64ZM171.624 303.656C169.128 303.656 167.336 304.584 166.088 306.376L165.672 303.72H163.72V321H166.44V311.624C166.44 308.264 168.232 306.216 171.4 306.216H173.16V303.656H171.624ZM191.693 312.456C191.693 307.4 188.237 303.368 182.989 303.368C177.965 303.368 174.189 307.24 174.189 312.36C174.189 317.512 177.965 321.384 182.989 321.384C186.733 321.384 189.773 319.304 191.245 315.752H188.365C187.309 317.608 185.389 318.728 182.989 318.728C179.725 318.728 177.325 316.616 176.909 313.416H191.628C191.661 313.096 191.693 312.776 191.693 312.456ZM182.989 305.928C186.061 305.928 188.397 307.848 188.972 310.92H176.973C177.516 307.912 179.853 305.928 182.989 305.928ZM212.766 303.368C210.27 303.368 208.19 304.392 206.846 306.088V297.576H204.126V321H206.846V311.592C206.846 308.36 209.118 305.832 212.094 305.832C215.07 305.832 216.734 307.816 216.734 311.304V321H219.454V310.664C219.454 306.184 216.894 303.368 212.766 303.368ZM240.818 312.456C240.818 307.4 237.362 303.368 232.114 303.368C227.09 303.368 223.314 307.24 223.314 312.36C223.314 317.512 227.09 321.384 232.114 321.384C235.858 321.384 238.898 319.304 240.37 315.752H237.49C236.434 317.608 234.514 318.728 232.114 318.728C228.85 318.728 226.45 316.616 226.034 313.416H240.753C240.786 313.096 240.818 312.776 240.818 312.456ZM232.114 305.928C235.186 305.928 237.522 307.848 238.097 310.92H226.098C226.641 307.912 228.978 305.928 232.114 305.928ZM252.78 303.656C250.284 303.656 248.492 304.584 247.244 306.376L246.828 303.72H244.876V321H247.596V311.624C247.596 308.264 249.388 306.216 252.556 306.216H254.316V303.656H252.78ZM272.849 312.456C272.849 307.4 269.393 303.368 264.145 303.368C259.121 303.368 255.345 307.24 255.345 312.36C255.345 317.512 259.121 321.384 264.145 321.384C267.889 321.384 270.929 319.304 272.401 315.752H269.521C268.465 317.608 266.545 318.728 264.145 318.728C260.881 318.728 258.481 316.616 258.065 313.416H272.785C272.817 313.096 272.849 312.776 272.849 312.456ZM264.145 305.928C267.217 305.928 269.553 307.848 270.129 310.92H258.129C258.673 307.912 261.009 305.928 264.145 305.928ZM291.919 318.504C289.551 318.504 288.271 317.224 288.271 314.888V306.184H293.711V303.72H288.271V300.072H287.855L282.511 305.704V306.184H285.551V314.984C285.551 318.728 287.855 321 291.567 321H293.807V318.504H291.919ZM305.028 321.384C310.244 321.384 314.18 317.544 314.18 312.36C314.18 307.208 310.244 303.368 305.028 303.368C299.78 303.368 295.844 307.176 295.844 312.36C295.844 317.544 299.78 321.384 305.028 321.384ZM305.028 318.76C301.316 318.76 298.628 316.072 298.628 312.36C298.628 308.68 301.316 305.992 305.028 305.992C308.708 305.992 311.396 308.68 311.396 312.392C311.396 316.072 308.708 318.76 305.028 318.76ZM335.873 303.368C333.089 303.368 330.721 304.488 329.121 306.376L328.577 303.72H326.689V327.176H329.409V318.696C331.009 320.392 333.281 321.384 335.873 321.384C341.025 321.384 344.737 317.512 344.737 312.36C344.737 307.208 341.025 303.368 335.873 303.368ZM335.681 318.76C332.001 318.76 329.313 316.008 329.313 312.36C329.313 308.744 332.001 305.992 335.681 305.992C339.329 305.992 342.017 308.712 342.017 312.36C342.017 316.04 339.329 318.76 335.681 318.76ZM356.236 321.384C360.94 321.384 363.916 318.376 363.916 313.736V303.72H361.196V313.288C361.196 316.648 359.34 318.76 356.236 318.76C353.196 318.76 351.308 316.68 351.308 313.288V303.72H348.588V313.736C348.588 318.376 351.596 321.384 356.236 321.384ZM369.095 321H371.815V297.576H369.095V321ZM377.283 321H380.003V297.576H377.283V321ZM405.704 303.72L399.912 316.808L393.768 303.72H390.824L398.504 319.848L397.896 321.128C396.488 324.008 395.688 324.712 393.352 324.712H391.976V327.176H393.608C396.872 327.176 398.504 325.832 400.36 321.736L408.616 303.72H405.704ZM419.028 321.384C424.244 321.384 428.18 317.544 428.18 312.36C428.18 307.208 424.244 303.368 419.028 303.368C413.78 303.368 409.844 307.176 409.844 312.36C409.844 317.544 413.78 321.384 419.028 321.384ZM419.028 318.76C415.316 318.76 412.628 316.072 412.628 312.36C412.628 308.68 415.316 305.992 419.028 305.992C422.708 305.992 425.396 308.68 425.396 312.392C425.396 316.072 422.708 318.76 419.028 318.76ZM439.674 321.384C444.378 321.384 447.354 318.376 447.354 313.736V303.72H444.634V313.288C444.634 316.648 442.778 318.76 439.674 318.76C436.634 318.76 434.746 316.68 434.746 313.288V303.72H432.026V313.736C432.026 318.376 435.034 321.384 439.674 321.384ZM460.437 303.656C457.941 303.656 456.149 304.584 454.901 306.376L454.485 303.72H452.533V321H455.253V311.624C455.253 308.264 457.045 306.216 460.213 306.216H461.973V303.656H460.437ZM479.961 321.384C484.057 321.384 487.353 318.92 488.409 315.112H485.657C484.601 317.416 482.489 318.76 479.961 318.76C476.441 318.76 473.753 315.976 473.753 312.36C473.753 308.776 476.409 305.992 479.961 305.992C482.521 305.992 484.665 307.336 485.657 309.576H488.377C487.321 305.8 484.089 303.368 479.961 303.368C474.841 303.368 470.969 307.208 470.969 312.36C470.969 317.512 474.841 321.384 479.961 321.384ZM500.829 303.368C498.333 303.368 496.253 304.392 494.909 306.088V297.576H492.189V321H494.909V311.592C494.909 308.36 497.181 305.832 500.157 305.832C503.133 305.832 504.797 307.816 504.797 311.304V321H507.517V310.664C507.517 306.184 504.957 303.368 500.829 303.368ZM527.472 303.72L527.12 306.376C525.52 304.488 523.12 303.368 520.304 303.368C515.184 303.368 511.344 307.208 511.344 312.392C511.344 317.512 515.184 321.384 520.304 321.384C523.12 321.384 525.488 320.264 527.088 318.408L527.376 321H529.616V303.72H527.472ZM520.496 318.76C516.848 318.76 514.128 316.008 514.128 312.36C514.128 308.744 516.848 305.992 520.496 305.992C524.176 305.992 526.832 308.712 526.832 312.36C526.832 316.04 524.176 318.76 520.496 318.76ZM534.999 300.744H537.943V297.64H534.999V300.744ZM535.095 321H537.815V303.72H535.095V321ZM551.187 303.656C548.691 303.656 546.899 304.584 545.651 306.376L545.235 303.72H543.283V321H546.003V311.624C546.003 308.264 547.795 306.216 550.963 306.216H552.723V303.656H551.187ZM18.9343 362.384C24.1503 362.384 28.0863 358.544 28.0863 353.36C28.0863 348.208 24.1503 344.368 18.9343 344.368C13.6863 344.368 9.75025 348.176 9.75025 353.36C9.75025 358.544 13.6863 362.384 18.9343 362.384ZM18.9343 359.76C15.2223 359.76 12.5343 357.072 12.5343 353.36C12.5343 349.68 15.2223 346.992 18.9343 346.992C22.6143 346.992 25.3022 349.68 25.3022 353.392C25.3022 357.072 22.6143 359.76 18.9343 359.76ZM39.58 362.384C44.284 362.384 47.26 359.376 47.26 354.736V344.72H44.54V354.288C44.54 357.648 42.684 359.76 39.58 359.76C36.54 359.76 34.652 357.68 34.652 354.288V344.72H31.932V354.736C31.932 359.376 34.94 362.384 39.58 362.384ZM59.6068 359.504C57.2388 359.504 55.9588 358.224 55.9588 355.888V347.184H61.3988V344.72H55.9588V341.072H55.5428L50.1988 346.704V347.184H53.2388V355.984C53.2388 359.728 55.5428 362 59.2548 362H61.4948V359.504H59.6068ZM64.7423 366.256C66.7263 365.712 67.8783 364.336 67.8783 361.776V358.64H64.5823V362H66.4062C66.4062 363.408 65.9583 364.336 64.7423 364.752V366.256ZM87.8568 359.504C85.4888 359.504 84.2088 358.224 84.2088 355.888V347.184H89.6488V344.72H84.2088V341.072H83.7928L78.4488 346.704V347.184H81.4888V355.984C81.4888 359.728 83.7928 362 87.5048 362H89.7448V359.504H87.8568ZM107.91 344.72L107.558 347.376C105.958 345.488 103.558 344.368 100.742 344.368C95.6215 344.368 91.7815 348.208 91.7815 353.392C91.7815 358.512 95.6215 362.384 100.742 362.384C103.558 362.384 105.926 361.264 107.526 359.408L107.814 362H110.054V344.72H107.91ZM100.934 359.76C97.2855 359.76 94.5655 357.008 94.5655 353.36C94.5655 349.744 97.2855 346.992 100.934 346.992C104.614 346.992 107.27 349.712 107.27 353.36C107.27 357.04 104.614 359.76 100.934 359.76ZM126.925 362H130.349L123.405 353.008L129.708 344.72H126.381L121.069 351.76H118.541V338.576H115.821V362H118.541V354.256H121.036L126.925 362ZM148.911 353.456C148.911 348.4 145.455 344.368 140.207 344.368C135.183 344.368 131.407 348.24 131.407 353.36C131.407 358.512 135.183 362.384 140.207 362.384C143.951 362.384 146.991 360.304 148.463 356.752H145.583C144.527 358.608 142.607 359.728 140.207 359.728C136.943 359.728 134.543 357.616 134.127 354.416H148.847C148.879 354.096 148.911 353.776 148.911 353.456ZM140.207 346.928C143.279 346.928 145.615 348.848 146.191 351.92H134.191C134.735 348.912 137.071 346.928 140.207 346.928ZM173.204 344.72L167.412 357.808L161.268 344.72H158.324L166.004 360.848L165.396 362.128C163.988 365.008 163.188 365.712 160.852 365.712H159.476V368.176H161.108C164.372 368.176 166.004 366.832 167.86 362.736L176.116 344.72H173.204ZM186.528 362.384C191.744 362.384 195.68 358.544 195.68 353.36C195.68 348.208 191.744 344.368 186.528 344.368C181.28 344.368 177.344 348.176 177.344 353.36C177.344 358.544 181.28 362.384 186.528 362.384ZM186.528 359.76C182.816 359.76 180.128 357.072 180.128 353.36C180.128 349.68 182.816 346.992 186.528 346.992C190.208 346.992 192.896 349.68 192.896 353.392C192.896 357.072 190.208 359.76 186.528 359.76ZM207.174 362.384C211.878 362.384 214.854 359.376 214.854 354.736V344.72H212.134V354.288C212.134 357.648 210.278 359.76 207.174 359.76C204.134 359.76 202.246 357.68 202.246 354.288V344.72H199.526V354.736C199.526 359.376 202.534 362.384 207.174 362.384ZM227.937 344.656C225.441 344.656 223.649 345.584 222.401 347.376L221.985 344.72H220.033V362H222.753V352.624C222.753 349.264 224.545 347.216 227.713 347.216H229.473V344.656H227.937ZM247.653 362.384C252.869 362.384 256.805 358.544 256.805 353.36C256.805 348.208 252.869 344.368 247.653 344.368C242.405 344.368 238.469 348.176 238.469 353.36C238.469 358.544 242.405 362.384 247.653 362.384ZM247.653 359.76C243.941 359.76 241.253 357.072 241.253 353.36C241.253 349.68 243.941 346.992 247.653 346.992C251.333 346.992 254.021 349.68 254.021 353.392C254.021 357.072 251.333 359.76 247.653 359.76ZM268.843 344.656C266.347 344.656 264.555 345.584 263.307 347.376L262.891 344.72H260.939V362H263.659V352.624C263.659 349.264 265.451 347.216 268.619 347.216H270.379V344.656H268.843ZM286.703 338.576V346.928C285.103 345.328 282.863 344.368 280.303 344.368C275.119 344.368 271.375 348.208 271.375 353.392C271.375 358.512 275.119 362.384 280.303 362.384C283.023 362.384 285.359 361.328 286.959 359.568L287.311 362.032H289.423V338.576H286.703ZM280.495 359.76C276.847 359.76 274.159 357.04 274.159 353.392C274.159 349.712 276.847 346.992 280.495 346.992C284.175 346.992 286.863 349.744 286.863 353.392C286.863 357.008 284.175 359.76 280.495 359.76ZM311.068 353.456C311.068 348.4 307.612 344.368 302.364 344.368C297.34 344.368 293.564 348.24 293.564 353.36C293.564 358.512 297.34 362.384 302.364 362.384C306.108 362.384 309.148 360.304 310.62 356.752H307.74C306.684 358.608 304.764 359.728 302.364 359.728C299.1 359.728 296.7 357.616 296.284 354.416H311.003C311.036 354.096 311.068 353.776 311.068 353.456ZM302.364 346.928C305.436 346.928 307.772 348.848 308.347 351.92H296.348C296.891 348.912 299.228 346.928 302.364 346.928ZM323.03 344.656C320.534 344.656 318.742 345.584 317.494 347.376L317.078 344.72H315.126V362H317.846V352.624C317.846 349.264 319.638 347.216 322.806 347.216H324.566V344.656H323.03ZM349.691 344.72L349.339 347.376C347.739 345.488 345.339 344.368 342.523 344.368C337.403 344.368 333.563 348.208 333.563 353.392C333.563 358.512 337.403 362.384 342.523 362.384C345.339 362.384 347.707 361.264 349.307 359.408L349.595 362H351.835V344.72H349.691ZM342.715 359.76C339.067 359.76 336.347 357.008 336.347 353.36C336.347 349.744 339.067 346.992 342.715 346.992C346.395 346.992 349.051 349.712 349.051 353.36C349.051 357.04 346.395 359.76 342.715 359.76ZM365.954 344.368C363.298 344.368 361.09 345.52 359.778 347.44L359.266 344.72H357.314V362H360.034V352.592C360.034 349.36 362.306 346.832 365.282 346.832C368.258 346.832 369.922 348.816 369.922 352.304V362H372.642V351.664C372.642 347.44 370.082 344.368 365.954 344.368ZM391.797 338.576V346.928C390.197 345.328 387.957 344.368 385.397 344.368C380.213 344.368 376.469 348.208 376.469 353.392C376.469 358.512 380.213 362.384 385.397 362.384C388.117 362.384 390.453 361.328 392.053 359.568L392.405 362.032H394.517V338.576H391.797ZM385.589 359.76C381.941 359.76 379.253 357.04 379.253 353.392C379.253 349.712 381.941 346.992 385.589 346.992C389.269 346.992 391.957 349.744 391.957 353.392C391.957 357.008 389.269 359.76 385.589 359.76ZM422.328 338.576V346.928C420.728 345.328 418.488 344.368 415.928 344.368C410.744 344.368 407 348.208 407 353.392C407 358.512 410.744 362.384 415.928 362.384C418.648 362.384 420.984 361.328 422.584 359.568L422.936 362.032H425.048V338.576H422.328ZM416.12 359.76C412.472 359.76 409.784 357.04 409.784 353.392C409.784 349.712 412.472 346.992 416.12 346.992C419.8 346.992 422.488 349.744 422.488 353.392C422.488 357.008 419.8 359.76 416.12 359.76ZM446.693 353.456C446.693 348.4 443.237 344.368 437.989 344.368C432.965 344.368 429.189 348.24 429.189 353.36C429.189 358.512 432.965 362.384 437.989 362.384C441.733 362.384 444.773 360.304 446.245 356.752H443.365C442.309 358.608 440.389 359.728 437.989 359.728C434.725 359.728 432.325 357.616 431.909 354.416H446.628C446.661 354.096 446.693 353.776 446.693 353.456ZM437.989 346.928C441.061 346.928 443.397 348.848 443.972 351.92H431.973C432.516 348.912 434.853 346.928 437.989 346.928ZM450.751 362H453.471V338.576H450.751V362ZM458.843 341.744H461.787V338.64H458.843V341.744ZM458.939 362H461.659V344.72H458.939V362ZM479.318 344.72L473.59 358.48L467.702 344.72H464.886L472.342 362H474.838L482.102 344.72H479.318ZM501.099 353.456C501.099 348.4 497.643 344.368 492.395 344.368C487.371 344.368 483.595 348.24 483.595 353.36C483.595 358.512 487.371 362.384 492.395 362.384C496.139 362.384 499.179 360.304 500.651 356.752H497.771C496.715 358.608 494.795 359.728 492.395 359.728C489.131 359.728 486.731 357.616 486.315 354.416H501.035C501.067 354.096 501.099 353.776 501.099 353.456ZM492.395 346.928C495.467 346.928 497.803 348.848 498.379 351.92H486.379C486.923 348.912 489.259 346.928 492.395 346.928ZM513.062 344.656C510.566 344.656 508.774 345.584 507.526 347.376L507.11 344.72H505.158V362H507.878V352.624C507.878 349.264 509.67 347.216 512.838 347.216H514.598V344.656H513.062ZM524.874 341.744H527.818V338.64H524.874V341.744ZM524.97 362H527.69V344.72H524.97V362ZM540.326 359.504C537.958 359.504 536.678 358.224 536.678 355.888V347.184H542.118V344.72H536.678V341.072H536.262L530.918 346.704V347.184H533.958V355.984C533.958 359.728 536.262 362 539.974 362H542.214V359.504H540.326ZM546.165 355.856H548.917V338.96H546.165V355.856ZM546.005 362H549.109V358.608H546.005V362Z" fill="white"/>
</svg>
