<svg xmlns="http://www.w3.org/2000/svg" viewBox="0 0 1080 1080"><defs><style>.cls-1{isolation:isolate;}.cls-2{fill:#eeb373;}.cls-3,.cls-4,.cls-5{fill:#fbdea7;}.cls-10,.cls-14,.cls-17,.cls-18,.cls-4{mix-blend-mode:multiply;}.cls-10,.cls-14,.cls-16,.cls-17,.cls-18,.cls-4,.cls-5,.cls-9{opacity:0.5;}.cls-16,.cls-5,.cls-9{mix-blend-mode:screen;}.cls-6,.cls-9{fill:#fff;}.cls-7{fill:#fade07;}.cls-10,.cls-8{fill:#f1d15f;}.cls-11,.cls-18{fill:#f0b573;}.cls-12{fill:#fde0aa;}.cls-13,.cls-14{fill:#210f78;}.cls-15,.cls-16,.cls-17{fill:#1d2936;}</style></defs><g class="cls-1"><g id="Layer_1" data-name="Layer 1"><polygon class="cls-2" points="602.14 400.41 602.14 428.25 479.29 428.25 479.29 397.46 602.14 400.41"/><path d="M475.16,428.25V397.46a4.12,4.12,0,0,1,4.23-4.13l122.85,2.95a4.13,4.13,0,0,1,4,4.13v27.84a4.13,4.13,0,0,1-4.13,4.13H479.29A4.13,4.13,0,0,1,475.16,428.25ZM598,404.44l-114.59-2.75v22.43H598Z"/><rect class="cls-3" x="443.34" y="172.45" width="194.6" height="227.43" rx="39.63"/><path class="cls-4" d="M637.15,286.74V285c-9.58,2.7-21.56,4.41-36.58,4.41-72.53,0-156-38.47-156-38.47s83.45,48.94,156,48.94a167.13,167.13,0,0,0,18-.91c-.68,31.59-1.39,64.06-1.39,74.15,0,21.48-28.71,26.94-38.84,28.2a39.07,39.07,0,0,1-6,.25c-13.65-.48-78.69-2.85-107.25-5a37.49,37.49,0,0,0,13.5,4.23c.5.06,1,.11,1.51.15,25.62,2.21,97.23,4.81,111.62,5.32a36.63,36.63,0,0,0,6-.25c10.13-1.26,38.84-6.72,38.84-28.2,0-12,1-55.35,1.76-91.47Z"/><path class="cls-5" d="M495.67,398.64c-19.51-2.24-34-28-33.77-47.67l1.39-124a38.79,38.79,0,0,1,3.47-15.09c-2-3.21-4.1-4.77-6.13-3.14A38.73,38.73,0,0,0,446.16,238l-1.39,124c-.22,19.64,14.26,36.61,33.77,38.85.5.06,1,.11,1.51.15C505.67,403.22,496.17,398.7,495.67,398.64Z"/><path d="M601.71,405.7H479.57a42.11,42.11,0,0,1-42.06-42.06V208.69a42.11,42.11,0,0,1,42.06-42.06H601.71a42.1,42.1,0,0,1,42,42.06v155A42.1,42.1,0,0,1,601.71,405.7ZM479.57,178.28a30.44,30.44,0,0,0-30.41,30.41v155a30.45,30.45,0,0,0,30.41,30.42H601.71a30.46,30.46,0,0,0,30.41-30.42V208.69a30.45,30.45,0,0,0-30.41-30.41Z"/><path class="cls-6" d="M495.52,348.18a98.76,98.76,0,0,0,46.37,1.13,249.76,249.76,0,0,0,30.65-9.19,5.64,5.64,0,0,1,7.56,5.19c0,2.29-.72,5.23-2.83,8.92-6.55,11.46-22.28,17.36-37.34,17.36C507.54,371.59,487.65,348.83,495.52,348.18Z"/><path d="M578.49,342.39s-7.42,10-24.41,16.38l25-6Z"/><path d="M499.15,353.53s10.26,7.05,28.4,7.6L502,363.52Z"/><path d="M539.93,375.72c-28.42,0-49.89-16.89-50.26-25.68a5.66,5.66,0,0,1,5.5-6,4.34,4.34,0,0,1,1.57.17A95.44,95.44,0,0,0,541,345.29a232.74,232.74,0,0,0,28.22-8.37l2-.7a9.92,9.92,0,0,1,9,1.28,9.45,9.45,0,0,1,4.05,7.82,22.6,22.6,0,0,1-3.37,11C574.11,368.09,558,375.72,539.93,375.72Zm-38.65-21.93c6,5.55,19.62,13.67,38.65,13.67,15,0,28.53-6.14,33.76-15.28A14.76,14.76,0,0,0,576,345.3a1.28,1.28,0,0,0-.58-1.07,1.63,1.63,0,0,0-1.49-.22l-1.93.69a240.37,240.37,0,0,1-29.17,8.64A103.27,103.27,0,0,1,501.28,353.79Z"/><ellipse cx="508.54" cy="311.1" rx="8.85" ry="11.56"/><ellipse class="cls-6" cx="507.19" cy="308.4" rx="3.86" ry="5.05"/><ellipse cx="560.96" cy="313.17" rx="8.85" ry="11.56"/><path class="cls-7" d="M493.46,301.24s6.28-10.54,15.39-10.54"/><path d="M496.3,304.73a4.14,4.14,0,0,1-4.7-5.43c.2-.56,5-13.8,16.13-16a4.13,4.13,0,1,1,1.61,8.1c-5.39,1.07-9,8.07-9.95,10.68A4.17,4.17,0,0,1,496.3,304.73Z"/><path class="cls-7" d="M578.61,301.24s-6.28-10.54-15.4-10.54"/><path d="M576.28,305.13a4.14,4.14,0,0,1-3.55-2c-1.43-2.37-6.35-8.53-11.85-8.53a4.13,4.13,0,0,1,0-8.26c11.34,0,18.64,12,18.94,12.56a4.12,4.12,0,0,1-1.43,5.66A4.17,4.17,0,0,1,576.28,305.13Z"/><ellipse class="cls-6" cx="559.64" cy="310.37" rx="3.86" ry="5.05"/><path class="cls-8" d="M637.87,337.12v-76h22.64C655.23,300.2,637.87,337.12,637.87,337.12Z"/><path class="cls-8" d="M491.57,188.8S562.41,228.33,624,228.33c85.24,0,47.08-78.19,47.08-78.19s-6.74,17.92-28.67,17.92c-37.38,0-41.46-34.61-105.55-34.61-28.87,0-73.17,27-72.86,56.59C464,195,491.57,188.8,491.57,188.8Z"/><path class="cls-9" d="M679,177.17a98,98,0,0,0-7.91-27s-6.74,17.92-28.67,17.92c-12.68,0-21.52-4-30.18-9.25l-3.44,1.76S647.9,187.2,679,177.17Z"/><path class="cls-8" d="M471.25,220.72s83.45,49.67,156,49.67,55.47-75.84,55.47-75.84-8,22.52-33.78,22.52c-44,0-74.35-65.9-149.86-65.9-34,0-52.32,33.88-51.95,71.11C447.11,228.5,471.25,220.72,471.25,220.72Z"/><path class="cls-10" d="M448.34,224.09c4.62-29.77,22.11-53.74,50.72-53.74,75.51,0,105.82,65.9,149.86,65.9,25.83,0,33.78-22.52,33.78-22.52a79.12,79.12,0,0,1,1.26,8.53,94.81,94.81,0,0,0-1.26-27.71s-8,22.52-33.78,22.52c-44,0-74.35-65.9-149.86-65.9-34,0-52.32,33.88-51.95,71.11A2,2,0,0,0,448.34,224.09Z"/><path class="cls-8" d="M444.59,337.12V251s83.45,38.47,156,38.47,74.52-39.75,74.52-39.75S659,260.2,633.17,260.2c-69.32,0-85.26-90-160.77-90-34,0-52.32,33.88-51.95,71.11C420.89,286.73,444.59,337.12,444.59,337.12Z"/><path class="cls-10" d="M673.62,251.54s-12.34,26.7-67.76,23-75.08-50.42-121.76-54.33-61.82,18-61.82,18L424.16,201s18.73-31.84,45.73-29.81,63.23,21.07,81.81,44.8,46.36,41.06,73.68,45A77.28,77.28,0,0,0,673.62,251.54Z"/><path class="cls-9" d="M429.49,209.14S457.1,154.62,549.62,215l-29.73-31L480,169.22s-28.49,5.45-29.2,5.8-17.06,15.13-17.06,15.13Z"/><path d="M685.14,194a2.51,2.51,0,0,0-3.51-1.72c1-9-.31-18.64-3-27.72A100.37,100.37,0,0,0,673,149.2a2.12,2.12,0,0,0-3.84,0A27.63,27.63,0,0,1,664.7,156c-7.25,8.11-16.93,10.26-27.39,9-18.17-1.63-31.24-15.7-47-23.57-17.29-9-37.1-12.2-56.46-11.83-13.64.86-26.79,5.73-38.61,12.42a112,112,0,0,0-9.41,6.14A50.49,50.49,0,0,0,460,165c-19,4.48-33.16,19.54-40.14,39.21a103.29,103.29,0,0,0-5.61,42.4A183.81,183.81,0,0,0,419.6,281a280.52,280.52,0,0,0,20.45,56.36l.39.77a5.55,5.55,0,0,0,1.23,1.78,5.11,5.11,0,0,0,3.82,1.3c.12-2.71.25-5.43.39-8.14a3.28,3.28,0,0,1,2.21,1.78l-.06-.17-.3-.76c-.58-1.45-1.12-2.92-1.67-4.38,1-18.53,2.2-37.2,2.48-55.78.1-5.54.14-11,.16-16.52,3,1.24,6,2.44,9,3.61q7.46,2.88,15,5.54c45.06,15.48,92.64,27.83,140.66,24.63a131.59,131.59,0,0,0,20.4-3.3v49.45a4.14,4.14,0,0,0,3.23,4,4.58,4.58,0,0,0,.9.09,4.12,4.12,0,0,0,3.73-2.37c.65-1.37,14.37-30.83,21-65.25a43.93,43.93,0,0,0,7.7-8.67,39.69,39.69,0,0,0,3.8-7.21,36,36,0,0,0,1.42-4.64,56,56,0,0,0,10.08-23.7A95.13,95.13,0,0,0,685.14,194ZM514.35,142c7.71-2.83,15.72-4.79,24-4.64l4.24,0c18.29.37,36.34,4.57,52,14.17,13.52,8,25.62,17.87,42.23,19,12.07,1.11,23.45-2.08,31.41-11.65a42.87,42.87,0,0,0,2.66-3.74,101.16,101.16,0,0,1,3.47,10.57c3.95,14.81,4,28.38-1.39,38.79-11.22,11.15-28.4,11.84-44,4.33-18-8.66-32.15-22.39-48.76-33.8-20.15-14.42-44-25.73-69.06-27.94-2.07-.22-4.61-.4-7-.52A99.35,99.35,0,0,1,514.35,142ZM642,316V285.18c.9-.32,1.81-.64,2.71-1a68.2,68.2,0,0,0,8-3.73A306.88,306.88,0,0,1,642,316Zm-13.44-30.79c-52.65,8.63-119.16-11.79-167.91-31.71-4.83-2-9.69-4.11-14.33-6.28a4.15,4.15,0,0,0-5.86,3.75c0,6.85,0,13.62.17,20.34.31,16.69,1.52,33.24,2.45,49.94-2-5.72-3.84-11.49-5.56-17.22-5.95-20.39-10.45-41.55-10.63-62.82,0-25.42,9.88-57.72,37.83-63.66,7.93-1.4,16.32-.69,24.24.78,16.76,3.14,31.33,12.5,44.26,23.62,24.65,21.09,45.13,53.57,78.89,58.82,38.32,6,60-7.45,59.89-6.91C666.24,273.22,647.1,282,628.56,285.21ZM669.86,251a72.4,72.4,0,0,1-7.56,2.69,89.08,89.08,0,0,1-32.5,3.4,70.57,70.57,0,0,1-24.73-6.59,89.48,89.48,0,0,1-13.77-8.31c-19-14-33-33-50.48-48.84-17.27-16.35-39.27-28.53-63.59-29.54-.7-.06-1.38-.1-2.07-.14a37.69,37.69,0,0,1,17.95-7.41,45.81,45.81,0,0,1,7.13-.41,114.17,114.17,0,0,1,15,1c22,2.68,42,12.43,60.25,25,16.73,11.12,32.08,25,50.6,33.38,19.94,9.18,43.23,6.11,55.22-12.56C683.17,220.22,680.33,238.53,669.86,251Z"/><rect class="cls-11" x="691.73" y="603.87" width="49.41" height="53.16" transform="translate(-123.62 177.62) rotate(-13.02)"/><path d="M698.35,667.16a5.25,5.25,0,0,1-5.11-4.07l-12-51.79a5.31,5.31,0,0,1,.66-4,5.26,5.26,0,0,1,3.27-2.33l48.14-11.13a5.24,5.24,0,0,1,6.3,3.93l12,51.79a5.25,5.25,0,0,1-3.93,6.3L699.54,667A5.44,5.44,0,0,1,698.35,667.16Zm-5.67-53.11,9.61,41.56,37.9-8.77-9.61-41.56Z"/><path class="cls-11" d="M727.4,642.9c-24.86,0-45,35.76-45,60.62a45,45,0,0,0,28.08,41.71V718.29c-10.65-5.95-17.85-1.71-17.85-14.77a34.79,34.79,0,0,1,69.57,0c0,8.36-3-2.84-7.87,3.16l2.12,31.22a44.88,44.88,0,0,0,16-34.38C772.42,678.66,752.27,642.9,727.4,642.9Z"/><path d="M710.47,750.48a5.25,5.25,0,0,1-2-.39,50.07,50.07,0,0,1-31.35-46.57c0-13.41,5.39-29.73,14.08-42.58,10.16-15,23-23.29,36.18-23.29s26,8.27,36.19,23.29c8.68,12.85,14.08,29.17,14.08,42.58a50.16,50.16,0,0,1-17.84,38.39,5.25,5.25,0,0,1-8.63-3.65L749.08,707a5.23,5.23,0,0,1,1.18-3.68,9.77,9.77,0,0,1,6.42-3.74,29.54,29.54,0,0,0-58.81,3.91c0,4.85,0,4.85,4.89,6.21a43.49,43.49,0,0,1,10.27,4,5.24,5.24,0,0,1,2.69,4.58v26.94a5.24,5.24,0,0,1-2.32,4.35A5.19,5.19,0,0,1,710.47,750.48ZM688.2,710.19a39.52,39.52,0,0,0,17,26.34v-15a43,43,0,0,0-5.28-1.72C695.5,718.61,690.2,717.13,688.2,710.19Zm71.73,1.6.9,13.26a39.61,39.61,0,0,0,6.1-17.2,5.81,5.81,0,0,1-3,3.56A5.47,5.47,0,0,1,759.93,711.79ZM727.4,663.48A40.1,40.1,0,0,1,766,692.7a75.34,75.34,0,0,0-11.07-25.87c-8-11.87-18-18.68-27.48-18.68S708,655,699.92,666.83a75.41,75.41,0,0,0-11.06,25.85A40.12,40.12,0,0,1,727.4,663.48Z"/><path d="M710.47,731.61a5.24,5.24,0,0,1-2-.38,50.28,50.28,0,1,1,51.34-8.18,5.25,5.25,0,0,1-8.56-3.12l-2.12-12.37a5.22,5.22,0,0,1,1.11-4.21,29.53,29.53,0,1,0-37.23,7.1,5.25,5.25,0,0,1,2.69,4.58v11.33a5.24,5.24,0,0,1-5.25,5.25Z"/><path class="cls-12" d="M727.4,639.64a45,45,0,0,0-16.93,86.72V715a34.79,34.79,0,1,1,43.85-8.35L756.44,719a45,45,0,0,0-29-79.4Z"/><path class="cls-13" d="M677,632.28l74.91-12.42-17.29-96.15-25.57-45.82a66.61,66.61,0,0,0-50.88-33.75l-15-1.28Z"/><path class="cls-14" d="M692.92,494l25.57,45.81,14.93,83.08,18.49-3.06-17.29-96.15-25.57-45.82a66.61,66.61,0,0,0-50.88-33.75l-15-1.28,3.23,18.05A66.62,66.62,0,0,1,692.92,494Z"/><path d="M677,637.53a5.26,5.26,0,0,1-5.17-4.32L638,443.78a5.26,5.26,0,0,1,1.29-4.46,5.21,5.21,0,0,1,4.33-1.69l15,1.28h.12a72,72,0,0,1,54.9,36.41l25.57,45.81a5.26,5.26,0,0,1,.58,1.64l17.29,96.15a5.25,5.25,0,0,1-4.31,6.11l-74.91,12.42A5.07,5.07,0,0,1,677,637.53ZM649.53,448.67l31.73,177.58,64.54-10.7-16.19-90-25.14-45.05a61.49,61.49,0,0,0-46.81-31.08Z"/><rect class="cls-15" x="529.76" y="691.16" width="24.06" height="115.45"/><path d="M553.82,811.87H529.76a5.25,5.25,0,0,1-5.25-5.26V691.16a5.25,5.25,0,0,1,5.25-5.25h24.06a5.25,5.25,0,0,1,5.25,5.25V806.61A5.25,5.25,0,0,1,553.82,811.87ZM535,801.36h13.56v-105H535Z"/><rect class="cls-15" x="553.6" y="689.63" width="121.92" height="259.2"/><path d="M675.52,954.08H553.6a5.25,5.25,0,0,1-5.25-5.25V689.63a5.25,5.25,0,0,1,5.25-5.25H675.52a5.25,5.25,0,0,1,5.25,5.25v259.2A5.25,5.25,0,0,1,675.52,954.08Zm-116.67-10.5H670.27V694.88H558.85Z"/><rect class="cls-16" x="570.43" y="704.26" width="4.67" height="81.93"/><rect class="cls-17" x="578.96" y="704.26" width="79.72" height="81.93"/><rect class="cls-15" x="414.17" y="690.81" width="121.92" height="259.2" transform="translate(5.46 -3.14) rotate(0.38)"/><path d="M535.19,955.66l-121.92-.81a5.26,5.26,0,0,1-5.22-5.29l1.73-259.19a5.24,5.24,0,0,1,5.28-5.21L537,686a5.24,5.24,0,0,1,5.22,5.28l-1.72,259.19A5.26,5.26,0,0,1,535.19,955.66Zm-116.6-11.28,111.42.74,1.65-248.69-111.42-.74Z"/><rect class="cls-17" x="440.02" y="705.47" width="79.72" height="81.93" transform="translate(4.97 -3.17) rotate(0.38)"/><rect class="cls-16" x="431.49" y="705.17" width="4.67" height="81.93" transform="translate(4.96 -2.86) rotate(0.38)"/><path d="M587.87,804.63l65.9-3.3a5,5,0,0,1,5.24,4.74c0,.13,0,.38,0,.51v33.49a5,5,0,0,1-5.25,5.25l-63.2-2.8a2.45,2.45,0,0,1,0-4.9l63.2-2.8-5.25,5.25V806.58l5.25,5.25-65.9-3.3a2,2,0,0,1,0-3.9Z"/><path d="M441.7,805.59l65.92-2.87a5,5,0,0,1,5.21,4.78c0,.13,0,.38,0,.51l-.23,33.49a5,5,0,0,1-5.28,5.22l-63.18-3.23a2.44,2.44,0,0,1-2.33-2.57,2.48,2.48,0,0,1,2.36-2.33l63.22-2.38-5.29,5.22.22-33.49,5.22,5.29-65.88-3.74a2,2,0,0,1,0-3.9Z"/><path d="M675.32,891.06H555.66a5.25,5.25,0,0,1,0-10.5H675.32a5.25,5.25,0,0,1,0,10.5Z"/><path d="M535.45,892.64l-118.76-.79a5.25,5.25,0,0,1,.07-10.5l118.76.79a5.25,5.25,0,0,1-.07,10.5Z"/><rect class="cls-13" x="414.04" y="659.11" width="255.51" height="32.41"/><path d="M669.55,696.77H414a5.25,5.25,0,0,1-5.25-5.25V659.11a5.25,5.25,0,0,1,5.25-5.25H669.55a5.25,5.25,0,0,1,5.25,5.25v32.41A5.25,5.25,0,0,1,669.55,696.77Zm-250.26-10.5h245V664.36h-245Z"/><polygon class="cls-13" points="682.58 663.94 401 663.94 443.02 427.13 640.66 427.13 682.58 663.94"/><polygon class="cls-14" points="502.44 428.47 460.13 448.67 433.23 639.64 678.24 639.64 682.37 663.94 402.58 662.32 444.93 427.13 502.44 428.47"/><path d="M682.58,669.2H401a5.26,5.26,0,0,1-5.17-6.17l42-236.82a5.25,5.25,0,0,1,5.17-4.33H640.66a5.25,5.25,0,0,1,5.17,4.34L687.76,663a5.26,5.26,0,0,1-5.18,6.17ZM407.27,658.69H676.32L636.26,432.38H447.42Z"/><path class="cls-6" d="M545.21,620.08c-24.67.45-48.91-14.91-58.1-38-2.24-4.66-6.18-11.42-2.89-15.62A38.24,38.24,0,0,1,532.83,556c-1.57-12.06-9.81-28,4.23-35.71.89-.71.87-1.27-.12-1.82-4.4-2.72-9.34-4.72-13.35-8a1.76,1.76,0,0,1-.64-1.11c-1.42-10.2,18.1-14.9,26.09-13.57,19.29,4-3.44,16.3,1.1,21.06,4.65,2,25,10,20.64,16.54a4.76,4.76,0,0,1-3.54,2c-6.44.63-13.65-.91-18.21,5l0,0a1.85,1.85,0,0,1-3.3-.74c-.72-3.84,4.62-8,8-9.12,1.07-.75,5.45-.81,3.87-2.64-7.11-7.24-17.93-4.57-20.49,4.65a8.11,8.11,0,0,0-.24,2.94c1.43,13.76,7.08,27,9,40.62,1,3.52-3.6,5.78-5,2.05-4.53-20.54-32.46-27.92-46.66-12.48-2.3,1.93-3.7,4.11-2.78,7.39,5.84,19.07,31.16,46.95,49.42,25.15a2.66,2.66,0,0,1,4.13.2c1.68,5.55-5.82,9.76-9.51,12.67,15.2,4.63,43.13.37,35.87-21.49-5.49-14.5-21-23.17-25.89-37.9a3.6,3.6,0,0,1,0-2.13c2.29-8,9.87,9.47,12.77,11.29a1.7,1.7,0,0,0,2.55.09c12.23-12.64,31.53-12.15,45.65-2.9,4.75,2.5-.88,9.46-4.35,5.49A27.24,27.24,0,0,0,577.76,558c-32.43,12.23,5.79,12.67.15,44.52,9.22-4.87,16.14-14,21-23.12.69-1.34,2.14-3.48,3.9-2.6,4.7,3.78-2.23,10.75-4,14.83-11.28,17.59-32.72,28.79-53.54,28.46Zm-.07-118.42c-3.23.17-15.89,2.4-13.81,6.13,1.34,1.25,6.44,3.84,9.73,5.61,3.54,1.23,7.08-7.42,8.05-9.51S547.1,501.47,545.14,501.66Z"/><path class="cls-6" d="M545.38,455.16a8,8,0,0,1,4.77,2.14q5.79,5.22,11.4,10.62c3.33,3.21,6.63,6.46,9.82,9.81,2.91,3.07,5.72,6.25,8.45,9.49,2.54,3,5,6.12,7.34,9.3,2.23,3,4.32,6.15,6.36,9.3,1.44,2.23,2.78,4.54,4,6.9,1.05,2,1.89,4.13,2.81,6.19.13.29.22.59.37.85,1.32,2.28-.42,4.71-2.75,5.09-1.21.2-2.86-1-3.62-2.46-1.43-2.73-2.86-5.46-4.39-8.14s-3.19-5.6-5-8.25c-2.74-4-5.61-7.84-8.57-11.63q-3.52-4.51-7.43-8.71c-3.71-4-7.52-7.87-11.43-11.66-3.47-3.35-7.12-6.51-10.7-9.75-.94-.84-1.59-.86-2.46-.12a211.14,211.14,0,0,0-16.28,15.23q-6.25,6.6-12.17,13.5a112.55,112.55,0,0,0-6.87,8.93q-3.86,5.49-7.35,11.25c-1.82,3-3.35,6.21-5,9.32a4.3,4.3,0,0,1-2,2.11,3.38,3.38,0,0,1-4.52-4.39c1.36-3,2.62-6.08,4.18-9s3.32-5.58,5.1-8.3q2.4-3.66,5-7.16,3.09-4.1,6.38-8c2.33-2.77,4.69-5.52,7.17-8.15,3.26-3.44,6.62-6.79,10-10.11s6.65-6.45,10-9.6a37.14,37.14,0,0,1,4.46-3.55A12,12,0,0,1,545.38,455.16Z"/><rect class="cls-11" x="338.86" y="602.87" width="49.41" height="53.16" transform="translate(575.97 1324.62) rotate(-166.98)"/><rect class="cls-18" x="373.4" y="606.81" width="14.42" height="53.16" transform="translate(608.73 1336.24) rotate(-166.98)"/><path d="M380.46,666l-48.14-11.14a5.25,5.25,0,0,1-3.93-6.3l12-51.79a5.24,5.24,0,0,1,6.3-3.93L394.81,604a5.26,5.26,0,0,1,3.93,6.3l-12,51.79a5.25,5.25,0,0,1-5.11,4.07A5.42,5.42,0,0,1,380.46,666Zm-31-61.74-9.61,41.55,37.9,8.77,9.61-41.56Z"/><path class="cls-11" d="M352.6,641.9c24.86,0,45,35.76,45,60.62a45,45,0,0,1-28.08,41.71V717.29c10.65-5.94,17.85-1.71,17.85-14.77a34.79,34.79,0,0,0-69.57,0c0,8.36,2.95-2.84,7.87,3.16l-2.12,31.23a44.92,44.92,0,0,1-16-34.39C307.58,677.66,327.73,641.9,352.6,641.9Z"/><path class="cls-18" d="M369.48,647.46l-5.77,22.1a34.79,34.79,0,0,1,23.67,33c0,13.06-7.2,8.83-17.85,14.77v26.94a45,45,0,0,0,28.08-41.71C397.61,683.63,386,658.47,369.48,647.46Z"/><path d="M366.6,748.59a5.26,5.26,0,0,1-2.32-4.36V717.29a5.25,5.25,0,0,1,2.69-4.58,43.49,43.49,0,0,1,10.27-4c4.89-1.36,4.89-1.36,4.89-6.21a29.54,29.54,0,0,0-58.81-3.91,9.77,9.77,0,0,1,6.42,3.74,5.26,5.26,0,0,1,1.18,3.69l-2.12,31.22a5.25,5.25,0,0,1-8.63,3.66,50.2,50.2,0,0,1-17.84-38.4c0-13.41,5.4-29.72,14.08-42.57,10.16-15,23-23.3,36.19-23.3s26,8.27,36.18,23.3c8.69,12.85,14.08,29.16,14.08,42.57a50.09,50.09,0,0,1-31.35,46.58,5.44,5.44,0,0,1-2,.38A5.25,5.25,0,0,1,366.6,748.59Zm13.46-29.74a44.83,44.83,0,0,0-5.28,1.72v15a39.49,39.49,0,0,0,17-26.34C389.8,716.14,384.5,717.61,380.06,718.85Zm-64-8.44a5.76,5.76,0,0,1-3-3.56,39.56,39.56,0,0,0,6.1,17.2l.9-13.25A5.48,5.48,0,0,1,316,710.41Zm75.11-18.72a75.46,75.46,0,0,0-11.06-25.86c-8-11.87-18.05-18.68-27.48-18.68s-19.46,6.81-27.48,18.68a75.34,75.34,0,0,0-11.07,25.87,40,40,0,0,1,77.09,0Z"/><path d="M369.53,730.62a5.25,5.25,0,0,0,2-.39,50.28,50.28,0,1,0-51.34-8.18,5.24,5.24,0,0,0,8.56-3.12l2.12-12.36a5.23,5.23,0,0,0-1.11-4.22,29.53,29.53,0,1,1,37.23,7.1,5.26,5.26,0,0,0-2.69,4.59v11.33a5.26,5.26,0,0,0,5.25,5.25Z"/><path class="cls-12" d="M352.6,638.64a45,45,0,0,1,16.93,86.73V714a34.79,34.79,0,1,0-43.85-8.36L323.56,718a45,45,0,0,1,29-79.4Z"/><path class="cls-13" d="M403,631.29l-74.91-12.43,17.29-96.15L371,476.9a66.59,66.59,0,0,1,50.88-33.75l15-1.29Z"/><polygon class="cls-14" points="374.78 626.61 400.8 633.39 436.85 441.86 374.78 626.61"/><path d="M402.14,636.47,327.23,624a5.25,5.25,0,0,1-4.31-6.11l17.29-96.15a5.3,5.3,0,0,1,.58-1.63l25.57-45.81a72,72,0,0,1,54.9-36.41l.12,0,15-1.28a5.25,5.25,0,0,1,5.62,6.16L408.17,632.21a5.26,5.26,0,0,1-5.17,4.33A6.36,6.36,0,0,1,402.14,636.47Zm20.2-188.1a61.5,61.5,0,0,0-46.81,31.09l-25.14,45-16.19,90,64.54,10.71,31.73-177.58Z"/></g></g></svg>