<svg width="496" height="325" viewBox="0 0 496 325" fill="none" xmlns="http://www.w3.org/2000/svg">
<path d="M95.7003 49.3893C91.1936 49.3893 87.6403 48.8043 85.0403 47.6343C82.4836 46.4209 80.5336 44.1026 79.1903 40.6793C77.8903 37.2126 77.2403 32.0776 77.2403 25.2743C77.2403 18.5143 77.9119 13.3793 79.2553 9.86926C80.6419 6.31593 82.6353 3.91093 85.2353 2.65426C87.8353 1.3976 91.3236 0.769265 95.7003 0.769265C100.207 0.769265 103.76 1.3976 106.36 2.65426C108.96 3.8676 110.91 6.25093 112.21 9.80426C113.51 13.3143 114.16 18.4709 114.16 25.2743C114.16 32.0776 113.489 37.2126 112.145 40.6793C110.845 44.1026 108.895 46.4209 106.295 47.6343C103.739 48.8043 100.207 49.3893 95.7003 49.3893ZM95.7003 44.7743C99.1669 44.7743 101.81 44.2976 103.63 43.3443C105.494 42.3909 106.859 40.5276 107.725 37.7543C108.592 34.9809 109.025 30.8209 109.025 25.2743C109.025 19.5109 108.592 15.2209 107.725 12.4043C106.859 9.5876 105.494 7.72427 103.63 6.81426C101.81 5.86093 99.1669 5.38427 95.7003 5.38427C92.4069 5.38427 89.8286 5.86093 87.9653 6.81426C86.1019 7.72427 84.6936 9.60927 83.7403 12.4693C82.8303 15.3293 82.3753 19.5976 82.3753 25.2743C82.3753 30.8643 82.7869 35.0459 83.6103 37.8193C84.4336 40.5493 85.7553 42.3909 87.5753 43.3443C89.4386 44.2976 92.1469 44.7743 95.7003 44.7743ZM133.241 49.3893C126.307 49.3893 122.841 45.8359 122.841 38.7293V14.2893H127.976V37.4293C127.976 40.2026 128.582 42.1309 129.796 43.2143C131.052 44.2976 132.959 44.8393 135.516 44.8393C137.466 44.8393 139.286 44.5793 140.976 44.0593C142.666 43.4959 144.442 42.6509 146.306 41.5243V14.2893H151.441V48.9993H147.411L146.306 45.1643C141.886 47.9809 137.531 49.3893 133.241 49.3893ZM161.119 14.2893H165.019L166.254 20.3343C167.944 18.2976 169.764 16.7159 171.714 15.5893C173.664 14.4626 175.809 13.8993 178.149 13.8993C179.319 13.8993 180.402 14.0076 181.399 14.2243V19.4893C179.449 19.2726 178.192 19.1643 177.629 19.1643C175.332 19.1643 173.339 19.5759 171.649 20.3993C170.002 21.2226 168.204 22.5443 166.254 24.3643V48.9993H161.119V14.2893ZM205.425 14.2893H209.455L210.56 18.1243C214.894 15.1776 219.227 13.7043 223.56 13.7043C225.64 13.7043 227.439 14.1809 228.955 15.1343C230.515 16.0443 231.729 17.2793 232.595 18.8393C234.415 17.4959 236.625 16.3043 239.225 15.2643C241.869 14.2243 244.317 13.7043 246.57 13.7043C250.167 13.7043 252.875 14.8093 254.695 17.0193C256.515 19.2293 257.425 22.0893 257.425 25.5993V48.9993H252.29V25.9893C252.29 23.7359 251.619 21.9159 250.275 20.5293C248.975 19.0993 247.199 18.3843 244.945 18.3843C243.082 18.3843 241.132 18.7309 239.095 19.4243C237.102 20.1176 235.174 21.0276 233.31 22.1543C233.744 23.5409 233.96 24.8409 233.96 26.0543V48.9993H228.825V25.9893C228.825 23.7359 228.175 21.9159 226.875 20.5293C225.619 19.0993 223.864 18.3843 221.61 18.3843C219.53 18.3843 217.667 18.6659 216.02 19.2293C214.417 19.7493 212.597 20.5943 210.56 21.7643V48.9993H205.425V14.2893ZM267.841 8.11427C267.538 8.11427 267.278 8.0276 267.061 7.85427C266.888 7.6376 266.801 7.3776 266.801 7.07426V2.00426C266.801 1.31093 267.148 0.964266 267.841 0.964266H271.481C272.131 0.964266 272.456 1.31093 272.456 2.00426V7.07426C272.456 7.7676 272.131 8.11427 271.481 8.11427H267.841ZM267.061 14.2893H272.196V48.9993H267.061V14.2893ZM294.065 49.3893C292.115 49.3893 289.667 49.3026 286.72 49.1293C283.773 48.9559 281.758 48.7393 280.675 48.4793V45.3593H294.91C297.337 45.3593 299.113 45.0343 300.24 44.3843C301.367 43.7343 301.93 42.3693 301.93 40.2893V38.7293C301.93 35.4793 299.828 33.8543 295.625 33.8543H290.75C287.413 33.8543 284.835 33.2043 283.015 31.9043C281.238 30.6043 280.35 28.3943 280.35 25.2743V23.4543C280.35 20.1609 281.303 17.7559 283.21 16.2393C285.16 14.7226 288.28 13.9643 292.57 13.9643C294.433 13.9643 296.622 14.0726 299.135 14.2893C301.692 14.4626 303.685 14.6793 305.115 14.9393V18.0593H291.725C289.385 18.0593 287.652 18.4493 286.525 19.2293C285.398 20.0093 284.835 21.4176 284.835 23.4543V24.8843C284.835 26.7476 285.377 28.0043 286.46 28.6543C287.587 29.2609 289.298 29.5643 291.595 29.5643H296.535C299.698 29.5643 302.147 30.3009 303.88 31.7743C305.613 33.2476 306.48 35.3709 306.48 38.1443V40.5493C306.48 43.8426 305.418 46.1393 303.295 47.4393C301.172 48.7393 298.095 49.3893 294.065 49.3893ZM326.565 49.3893C324.615 49.3893 322.167 49.3026 319.22 49.1293C316.273 48.9559 314.258 48.7393 313.175 48.4793V45.3593H327.41C329.837 45.3593 331.613 45.0343 332.74 44.3843C333.867 43.7343 334.43 42.3693 334.43 40.2893V38.7293C334.43 35.4793 332.328 33.8543 328.125 33.8543H323.25C319.913 33.8543 317.335 33.2043 315.515 31.9043C313.738 30.6043 312.85 28.3943 312.85 25.2743V23.4543C312.85 20.1609 313.803 17.7559 315.71 16.2393C317.66 14.7226 320.78 13.9643 325.07 13.9643C326.933 13.9643 329.122 14.0726 331.635 14.2893C334.192 14.4626 336.185 14.6793 337.615 14.9393V18.0593H324.225C321.885 18.0593 320.152 18.4493 319.025 19.2293C317.898 20.0093 317.335 21.4176 317.335 23.4543V24.8843C317.335 26.7476 317.877 28.0043 318.96 28.6543C320.087 29.2609 321.798 29.5643 324.095 29.5643H329.035C332.198 29.5643 334.647 30.3009 336.38 31.7743C338.113 33.2476 338.98 35.3709 338.98 38.1443V40.5493C338.98 43.8426 337.918 46.1393 335.795 47.4393C333.672 48.7393 330.595 49.3893 326.565 49.3893ZM347.885 8.11427C347.582 8.11427 347.322 8.0276 347.105 7.85427C346.932 7.6376 346.845 7.3776 346.845 7.07426V2.00426C346.845 1.31093 347.192 0.964266 347.885 0.964266H351.525C352.175 0.964266 352.5 1.31093 352.5 2.00426V7.07426C352.5 7.7676 352.175 8.11427 351.525 8.11427H347.885ZM347.105 14.2893H352.24V48.9993H347.105V14.2893ZM375.929 49.3893C372.376 49.3893 369.516 48.8909 367.349 47.8943C365.182 46.8976 363.557 45.1209 362.474 42.5643C361.434 39.9643 360.914 36.3026 360.914 31.5793C360.914 26.8126 361.456 23.1509 362.539 20.5943C363.622 17.9943 365.226 16.2176 367.349 15.2643C369.472 14.3109 372.332 13.8343 375.929 13.8343C379.482 13.8343 382.342 14.3326 384.509 15.3293C386.676 16.2826 388.301 18.0593 389.384 20.6593C390.467 23.2159 391.009 26.8559 391.009 31.5793C391.009 36.3026 390.467 39.9643 389.384 42.5643C388.301 45.1209 386.676 46.8976 384.509 47.8943C382.386 48.8909 379.526 49.3893 375.929 49.3893ZM375.929 45.1643C378.312 45.1643 380.176 44.8609 381.519 44.2543C382.906 43.6043 383.967 42.3043 384.704 40.3543C385.441 38.4043 385.809 35.4793 385.809 31.5793C385.809 27.6793 385.441 24.7759 384.704 22.8693C384.011 20.9193 382.971 19.6409 381.584 19.0343C380.197 18.3843 378.312 18.0593 375.929 18.0593C373.502 18.0593 371.596 18.3843 370.209 19.0343C368.866 19.6409 367.826 20.9193 367.089 22.8693C366.396 24.7759 366.049 27.6793 366.049 31.5793C366.049 35.4793 366.396 38.4043 367.089 40.3543C367.826 42.3043 368.866 43.6043 370.209 44.2543C371.596 44.8609 373.502 45.1643 375.929 45.1643ZM399.664 14.2893H403.694L404.799 18.1243C406.619 16.8676 408.634 15.8276 410.844 15.0043C413.054 14.1376 415.264 13.7043 417.474 13.7043C421.07 13.7043 423.757 14.8093 425.534 17.0193C427.31 19.2293 428.199 22.0243 428.199 25.4043V48.9993H423.064V25.9893C423.064 23.7359 422.414 21.9159 421.114 20.5293C419.857 19.0993 418.102 18.3843 415.849 18.3843C413.769 18.3843 411.905 18.6659 410.259 19.2293C408.655 19.7493 406.835 20.5943 404.799 21.7643V48.9993H399.664V14.2893ZM456.176 8.11427C455.873 8.11427 455.613 8.0276 455.396 7.85427C455.223 7.6376 455.136 7.3776 455.136 7.07426V2.00426C455.136 1.31093 455.483 0.964266 456.176 0.964266H459.816C460.466 0.964266 460.791 1.31093 460.791 2.00426V7.07426C460.791 7.7676 460.466 8.11427 459.816 8.11427H456.176ZM455.396 14.2893H460.531V48.9993H455.396V14.2893ZM482.4 49.3893C480.45 49.3893 478.002 49.3026 475.055 49.1293C472.108 48.9559 470.093 48.7393 469.01 48.4793V45.3593H483.245C485.672 45.3593 487.448 45.0343 488.575 44.3843C489.702 43.7343 490.265 42.3693 490.265 40.2893V38.7293C490.265 35.4793 488.163 33.8543 483.96 33.8543H479.085C475.748 33.8543 473.17 33.2043 471.35 31.9043C469.573 30.6043 468.685 28.3943 468.685 25.2743V23.4543C468.685 20.1609 469.638 17.7559 471.545 16.2393C473.495 14.7226 476.615 13.9643 480.905 13.9643C482.768 13.9643 484.957 14.0726 487.47 14.2893C490.027 14.4626 492.02 14.6793 493.45 14.9393V18.0593H480.06C477.72 18.0593 475.987 18.4493 474.86 19.2293C473.733 20.0093 473.17 21.4176 473.17 23.4543V24.8843C473.17 26.7476 473.712 28.0043 474.795 28.6543C475.922 29.2609 477.633 29.5643 479.93 29.5643H484.87C488.033 29.5643 490.482 30.3009 492.215 31.7743C493.948 33.2476 494.815 35.3709 494.815 38.1443V40.5493C494.815 43.8426 493.753 46.1393 491.63 47.4393C489.507 48.7393 486.43 49.3893 482.4 49.3893ZM15.6462 113.999C12.2228 113.999 9.70951 113.133 8.10617 111.399C6.50284 109.623 5.74451 106.741 5.83117 102.754L6.02617 83.5143H0.501172V80.1993L6.09117 79.2893L6.93617 69.6043H10.9012V79.2893H20.9112V83.5143H10.9012V102.754C10.9012 105.398 11.3995 107.218 12.3962 108.214C13.3928 109.168 14.6495 109.709 16.1662 109.839L20.3912 110.229V113.999H15.6462ZM41.7884 114.389C38.235 114.389 35.375 113.891 33.2084 112.894C31.0417 111.898 29.4167 110.121 28.3334 107.564C27.2934 104.964 26.7734 101.303 26.7734 96.5793C26.7734 91.8126 27.315 88.1509 28.3984 85.5943C29.4817 82.9943 31.085 81.2176 33.2084 80.2643C35.3317 79.3109 38.1917 78.8343 41.7884 78.8343C45.3417 78.8343 48.2017 79.3326 50.3684 80.3293C52.535 81.2826 54.16 83.0593 55.2434 85.6593C56.3267 88.2159 56.8684 91.8559 56.8684 96.5793C56.8684 101.303 56.3267 104.964 55.2434 107.564C54.16 110.121 52.535 111.898 50.3684 112.894C48.245 113.891 45.385 114.389 41.7884 114.389ZM41.7884 110.164C44.1717 110.164 46.035 109.861 47.3784 109.254C48.765 108.604 49.8267 107.304 50.5634 105.354C51.3 103.404 51.6684 100.479 51.6684 96.5793C51.6684 92.6793 51.3 89.7759 50.5634 87.8693C49.87 85.9193 48.83 84.6409 47.4434 84.0343C46.0567 83.3843 44.1717 83.0593 41.7884 83.0593C39.3617 83.0593 37.455 83.3843 36.0684 84.0343C34.725 84.6409 33.685 85.9193 32.9484 87.8693C32.255 89.7759 31.9084 92.6793 31.9084 96.5793C31.9084 100.479 32.255 103.404 32.9484 105.354C33.685 107.304 34.725 108.604 36.0684 109.254C37.455 109.861 39.3617 110.164 41.7884 110.164ZM93.3775 114.389C86.4442 114.389 82.9775 110.836 82.9775 103.729V79.2893H88.1125V102.429C88.1125 105.203 88.7192 107.131 89.9325 108.214C91.1892 109.298 93.0959 109.839 95.6525 109.839C97.6025 109.839 99.4225 109.579 101.113 109.059C102.803 108.496 104.579 107.651 106.443 106.524V79.2893H111.578V113.999H107.548L106.443 110.164C102.023 112.981 97.6675 114.389 93.3775 114.389ZM121.255 79.2893H125.285L126.39 83.1243C128.21 81.8676 130.225 80.8276 132.435 80.0043C134.645 79.1376 136.855 78.7043 139.065 78.7043C142.662 78.7043 145.349 79.8093 147.125 82.0193C148.902 84.2293 149.79 87.0243 149.79 90.4043V113.999H144.655V90.9893C144.655 88.7359 144.005 86.9159 142.705 85.5293C141.449 84.0993 139.694 83.3843 137.44 83.3843C135.36 83.3843 133.497 83.6659 131.85 84.2293C130.247 84.7493 128.427 85.5943 126.39 86.7643V113.999H121.255V79.2893ZM176.173 114.389C172.187 114.389 168.33 113.089 164.603 110.489L163.628 113.999H159.468V64.4043H164.603V82.4743C166.423 81.4343 168.352 80.5676 170.388 79.8743C172.468 79.1809 174.332 78.8343 175.978 78.8343C180.225 78.8343 183.345 80.2209 185.338 82.9943C187.375 85.7676 188.393 90.4043 188.393 96.9043C188.393 108.561 184.32 114.389 176.173 114.389ZM174.548 110.099C177.408 110.099 179.575 108.994 181.048 106.784C182.522 104.531 183.258 101.173 183.258 96.7093C183.258 93.0693 182.89 90.2743 182.153 88.3243C181.46 86.3309 180.485 84.9659 179.228 84.2293C177.972 83.4926 176.412 83.1243 174.548 83.1243C172.728 83.1243 171.06 83.3626 169.543 83.8393C168.027 84.3159 166.38 85.0526 164.603 86.0493V107.304C166.207 108.171 167.788 108.864 169.348 109.384C170.952 109.861 172.685 110.099 174.548 110.099ZM207.381 114.389C200.448 114.389 196.981 110.836 196.981 103.729V79.2893H202.116V102.429C202.116 105.203 202.723 107.131 203.936 108.214C205.193 109.298 207.1 109.839 209.656 109.839C211.606 109.839 213.426 109.579 215.116 109.059C216.806 108.496 218.583 107.651 220.446 106.524V79.2893H225.581V113.999H221.551L220.446 110.164C216.026 112.981 211.671 114.389 207.381 114.389ZM235.259 79.2893H239.289L240.394 83.1243C242.214 81.8676 244.229 80.8276 246.439 80.0043C248.649 79.1376 250.859 78.7043 253.069 78.7043C256.666 78.7043 259.353 79.8093 261.129 82.0193C262.906 84.2293 263.794 87.0243 263.794 90.4043V113.999H258.659V90.9893C258.659 88.7359 258.009 86.9159 256.709 85.5293C255.453 84.0993 253.698 83.3843 251.444 83.3843C249.364 83.3843 247.501 83.6659 245.854 84.2293C244.251 84.7493 242.431 85.5943 240.394 86.7643V113.999H235.259V79.2893ZM284.717 114.389C280.427 114.389 277.264 112.981 275.227 110.164C273.234 107.348 272.237 102.928 272.237 96.9043C272.237 92.5709 272.671 89.0826 273.537 86.4393C274.404 83.7959 275.791 81.8676 277.697 80.6543C279.604 79.4409 282.161 78.8343 285.367 78.8343C288.661 78.8343 292.214 79.5276 296.027 80.9143V64.4043H301.162V113.999H297.002L296.027 110.489C294.987 111.399 293.319 112.288 291.022 113.154C288.726 113.978 286.624 114.389 284.717 114.389ZM286.212 110.164C288.032 110.164 289.701 109.904 291.217 109.384C292.777 108.821 294.381 108.106 296.027 107.239V84.5543C293.991 83.9476 292.322 83.5143 291.022 83.2543C289.766 82.9943 288.336 82.8643 286.732 82.8643C284.436 82.8643 282.616 83.2976 281.272 84.1643C279.929 84.9876 278.932 86.3959 278.282 88.3893C277.676 90.3826 277.372 93.1559 277.372 96.7093C277.372 101.563 278.044 105.029 279.387 107.109C280.731 109.146 283.006 110.164 286.212 110.164ZM319.96 114.064C316.883 114.064 314.587 113.219 313.07 111.529C311.597 109.839 310.86 106.958 310.86 102.884V64.4043H315.995V102.234C315.995 105.094 316.385 107.044 317.165 108.084C317.945 109.124 319.18 109.753 320.87 109.969L324.38 110.359V114.064H319.96ZM343.226 114.389C339.5 114.389 336.596 113.848 334.516 112.764C332.48 111.681 331.006 109.861 330.096 107.304C329.186 104.748 328.731 101.173 328.731 96.5793C328.731 91.9426 329.186 88.3459 330.096 85.7893C331.05 83.2326 332.566 81.4343 334.646 80.3943C336.726 79.3543 339.608 78.8343 343.291 78.8343C346.455 78.8343 348.99 79.1809 350.896 79.8743C352.803 80.5676 354.211 81.7593 355.121 83.4493C356.031 85.0959 356.486 87.3926 356.486 90.3393C356.486 93.2859 355.62 95.4309 353.886 96.7743C352.196 98.0743 349.77 98.7243 346.606 98.7243H333.866C333.91 101.714 334.213 104.033 334.776 105.679C335.34 107.283 336.38 108.474 337.896 109.254C339.413 109.991 341.601 110.359 344.461 110.359H355.641V113.479C353.301 113.783 351.221 113.999 349.401 114.129C347.581 114.303 345.523 114.389 343.226 114.389ZM346.151 95.3443C348.145 95.3443 349.596 94.9759 350.506 94.2393C351.416 93.5026 351.871 92.2243 351.871 90.4043C351.871 87.5009 351.221 85.5076 349.921 84.4243C348.665 83.2976 346.455 82.7343 343.291 82.7343C340.778 82.7343 338.85 83.1026 337.506 83.8393C336.163 84.5759 335.21 85.8326 334.646 87.6093C334.083 89.3859 333.801 91.9643 333.801 95.3443H346.151ZM396.302 114.389C394.265 114.389 391.73 114.259 388.697 113.999C385.707 113.783 383.41 113.523 381.807 113.219V109.254C385.187 109.601 389.954 109.774 396.107 109.774C399.4 109.774 401.957 109.254 403.777 108.214C405.597 107.174 406.507 105.289 406.507 102.559V99.3093C406.507 94.8026 404.124 92.5493 399.357 92.5493H394.222C390.105 92.5493 386.964 91.6609 384.797 89.8843C382.674 88.0643 381.612 85.0959 381.612 80.9793V78.2493C381.612 73.8726 382.782 70.7093 385.122 68.7593C387.462 66.7659 390.929 65.7693 395.522 65.7693C397.472 65.7693 399.812 65.9209 402.542 66.2243C405.315 66.4843 407.569 66.7876 409.302 67.1343V71.0343C403.452 70.6443 399.032 70.4493 396.042 70.4493C392.835 70.4493 390.452 71.0343 388.892 72.2043C387.332 73.3309 386.552 75.4109 386.552 78.4443V80.6543C386.552 83.1676 387.202 84.9659 388.502 86.0493C389.845 87.0893 391.817 87.6093 394.417 87.6093H399.942C403.712 87.6093 406.572 88.6276 408.522 90.6643C410.472 92.6576 411.447 95.3443 411.447 98.7243V102.429C411.447 106.893 410.082 110.013 407.352 111.789C404.665 113.523 400.982 114.389 396.302 114.389ZM430.045 114.259C427.315 114.259 424.997 113.631 423.09 112.374C421.227 111.074 420.295 108.604 420.295 104.964V75.7793C420.295 72.3993 421.205 69.9509 423.025 68.4343C424.845 66.9176 427.077 66.1593 429.72 66.1593C436.653 66.2893 442.048 66.4409 445.905 66.6143L449.74 66.7443V70.9043H431.02C427.337 70.9043 425.495 72.8109 425.495 76.6243V87.9343L446.88 88.2593V92.2243L425.495 92.5493V103.794C425.495 106.004 426.015 107.499 427.055 108.279C428.095 109.059 429.503 109.449 431.28 109.449H449.74V113.609C441.507 114.043 434.942 114.259 430.045 114.259ZM475.734 114.389C471.228 114.389 467.674 113.804 465.074 112.634C462.518 111.421 460.568 109.103 459.224 105.679C457.924 102.213 457.274 97.0776 457.274 90.2743C457.274 83.5143 457.946 78.3793 459.289 74.8693C460.676 71.3159 462.669 68.9109 465.269 67.6543C467.869 66.3976 471.358 65.7693 475.734 65.7693C480.241 65.7693 483.794 66.3976 486.394 67.6543C488.994 68.8676 490.944 71.2509 492.244 74.8043C493.544 78.3143 494.194 83.4709 494.194 90.2743C494.194 97.0776 493.523 102.213 492.179 105.679C490.879 109.103 488.929 111.421 486.329 112.634C483.773 113.804 480.241 114.389 475.734 114.389ZM475.734 109.774C479.201 109.774 481.844 109.298 483.664 108.344C485.528 107.391 486.893 105.528 487.759 102.754C488.626 99.9809 489.059 95.8209 489.059 90.2743C489.059 84.5109 488.626 80.2209 487.759 77.4043C486.893 74.5876 485.528 72.7243 483.664 71.8143C481.844 70.8609 479.201 70.3843 475.734 70.3843C472.441 70.3843 469.863 70.8609 467.999 71.8143C466.136 72.7243 464.728 74.6093 463.774 77.4693C462.864 80.3293 462.409 84.5976 462.409 90.2743C462.409 95.8643 462.821 100.046 463.644 102.819C464.468 105.549 465.789 107.391 467.609 108.344C469.473 109.298 472.181 109.774 475.734 109.774ZM44.6021 179.389C42.6521 179.389 40.2038 179.303 37.2571 179.129C34.3105 178.956 32.2955 178.739 31.2121 178.479V175.359H45.4471C47.8738 175.359 49.6505 175.034 50.7771 174.384C51.9038 173.734 52.4671 172.369 52.4671 170.289V168.729C52.4671 165.479 50.3655 163.854 46.1621 163.854H41.2871C37.9505 163.854 35.3721 163.204 33.5521 161.904C31.7755 160.604 30.8871 158.394 30.8871 155.274V153.454C30.8871 150.161 31.8405 147.756 33.7471 146.239C35.6971 144.723 38.8171 143.964 43.1071 143.964C44.9705 143.964 47.1588 144.073 49.6722 144.289C52.2288 144.463 54.2221 144.679 55.6521 144.939V148.059H42.2621C39.9221 148.059 38.1888 148.449 37.0621 149.229C35.9355 150.009 35.3721 151.418 35.3721 153.454V154.884C35.3721 156.748 35.9138 158.004 36.9971 158.654C38.1238 159.261 39.8355 159.564 42.1321 159.564H47.0721C50.2355 159.564 52.6838 160.301 54.4171 161.774C56.1505 163.248 57.0172 165.371 57.0172 168.144V170.549C57.0172 173.843 55.9555 176.139 53.8321 177.439C51.7088 178.739 48.6321 179.389 44.6021 179.389ZM78.4021 179.389C74.6755 179.389 71.7721 178.848 69.6921 177.764C67.6555 176.681 66.1821 174.861 65.2721 172.304C64.3621 169.748 63.9071 166.173 63.9071 161.579C63.9071 156.943 64.3621 153.346 65.2721 150.789C66.2255 148.233 67.7421 146.434 69.8221 145.394C71.9021 144.354 74.7838 143.834 78.4671 143.834C81.6305 143.834 84.1655 144.181 86.0722 144.874C87.9788 145.568 89.3872 146.759 90.2972 148.449C91.2072 150.096 91.6622 152.393 91.6622 155.339C91.6622 158.286 90.7955 160.431 89.0622 161.774C87.3722 163.074 84.9455 163.724 81.7821 163.724H69.0421C69.0855 166.714 69.3888 169.033 69.9521 170.679C70.5155 172.283 71.5555 173.474 73.0721 174.254C74.5888 174.991 76.7771 175.359 79.6372 175.359H90.8171V178.479C88.4771 178.783 86.3972 178.999 84.5772 179.129C82.7571 179.303 80.6988 179.389 78.4021 179.389ZM81.3271 160.344C83.3205 160.344 84.7721 159.976 85.6821 159.239C86.5921 158.503 87.0471 157.224 87.0471 155.404C87.0471 152.501 86.3971 150.508 85.0971 149.424C83.8405 148.298 81.6305 147.734 78.4671 147.734C75.9538 147.734 74.0255 148.103 72.6821 148.839C71.3388 149.576 70.3855 150.833 69.8221 152.609C69.2588 154.386 68.9771 156.964 68.9771 160.344H81.3271ZM100.308 144.289H104.208L105.443 150.334C107.133 148.298 108.953 146.716 110.903 145.589C112.853 144.463 114.998 143.899 117.338 143.899C118.508 143.899 119.591 144.008 120.588 144.224V149.489C118.638 149.273 117.381 149.164 116.818 149.164C114.521 149.164 112.528 149.576 110.838 150.399C109.191 151.223 107.393 152.544 105.443 154.364V178.999H100.308V144.289ZM123.39 144.289H128.655L139.445 174.189L150.56 144.289H155.76L142.305 178.999H136.455L123.39 144.289ZM162.724 138.114C162.421 138.114 162.161 138.028 161.944 137.854C161.771 137.638 161.684 137.378 161.684 137.074V132.004C161.684 131.311 162.031 130.964 162.724 130.964H166.364C167.014 130.964 167.339 131.311 167.339 132.004V137.074C167.339 137.768 167.014 138.114 166.364 138.114H162.724ZM161.944 144.289H167.079V178.999H161.944V144.289ZM189.598 179.389C185.178 179.389 181.755 178.111 179.328 175.554C176.945 172.954 175.753 168.339 175.753 161.709C175.753 157.073 176.295 153.454 177.378 150.854C178.505 148.254 180.086 146.456 182.123 145.459C184.16 144.419 186.695 143.899 189.728 143.899C193.888 143.899 197.723 144.203 201.233 144.809V147.864H191.093C188.71 147.864 186.781 148.254 185.308 149.034C183.878 149.814 182.773 151.223 181.993 153.259C181.256 155.253 180.888 158.113 180.888 161.839C180.888 165.393 181.278 168.166 182.058 170.159C182.881 172.109 184.03 173.474 185.503 174.254C186.976 174.991 188.861 175.359 191.158 175.359H201.753V178.349C197.68 179.043 193.628 179.389 189.598 179.389ZM222.113 179.389C218.386 179.389 215.483 178.848 213.403 177.764C211.366 176.681 209.893 174.861 208.983 172.304C208.073 169.748 207.618 166.173 207.618 161.579C207.618 156.943 208.073 153.346 208.983 150.789C209.936 148.233 211.453 146.434 213.533 145.394C215.613 144.354 218.495 143.834 222.178 143.834C225.341 143.834 227.876 144.181 229.783 144.874C231.69 145.568 233.098 146.759 234.008 148.449C234.918 150.096 235.373 152.393 235.373 155.339C235.373 158.286 234.506 160.431 232.773 161.774C231.083 163.074 228.656 163.724 225.493 163.724H212.753C212.796 166.714 213.1 169.033 213.663 170.679C214.226 172.283 215.266 173.474 216.783 174.254C218.3 174.991 220.488 175.359 223.348 175.359H234.528V178.479C232.188 178.783 230.108 178.999 228.288 179.129C226.468 179.303 224.41 179.389 222.113 179.389ZM225.038 160.344C227.031 160.344 228.483 159.976 229.393 159.239C230.303 158.503 230.758 157.224 230.758 155.404C230.758 152.501 230.108 150.508 228.808 149.424C227.551 148.298 225.341 147.734 222.178 147.734C219.665 147.734 217.736 148.103 216.393 148.839C215.05 149.576 214.096 150.833 213.533 152.609C212.97 154.386 212.688 156.964 212.688 160.344H225.038ZM255.979 179.389C254.029 179.389 251.581 179.303 248.634 179.129C245.687 178.956 243.672 178.739 242.589 178.479V175.359H256.824C259.251 175.359 261.027 175.034 262.154 174.384C263.281 173.734 263.844 172.369 263.844 170.289V168.729C263.844 165.479 261.742 163.854 257.539 163.854H252.664C249.327 163.854 246.749 163.204 244.929 161.904C243.152 160.604 242.264 158.394 242.264 155.274V153.454C242.264 150.161 243.217 147.756 245.124 146.239C247.074 144.723 250.194 143.964 254.484 143.964C256.347 143.964 258.536 144.073 261.049 144.289C263.606 144.463 265.599 144.679 267.029 144.939V148.059H253.639C251.299 148.059 249.566 148.449 248.439 149.229C247.312 150.009 246.749 151.418 246.749 153.454V154.884C246.749 156.748 247.291 158.004 248.374 158.654C249.501 159.261 251.212 159.564 253.509 159.564H258.449C261.612 159.564 264.061 160.301 265.794 161.774C267.527 163.248 268.394 165.371 268.394 168.144V170.549C268.394 173.843 267.332 176.139 265.209 177.439C263.086 178.739 260.009 179.389 255.979 179.389ZM305.999 179.389C304.049 179.389 301.6 179.303 298.654 179.129C295.707 178.956 293.692 178.739 292.609 178.479V175.359H306.844C309.27 175.359 311.047 175.034 312.174 174.384C313.3 173.734 313.864 172.369 313.864 170.289V168.729C313.864 165.479 311.762 163.854 307.559 163.854H302.684C299.347 163.854 296.769 163.204 294.949 161.904C293.172 160.604 292.284 158.394 292.284 155.274V153.454C292.284 150.161 293.237 147.756 295.144 146.239C297.094 144.723 300.214 143.964 304.504 143.964C306.367 143.964 308.555 144.073 311.069 144.289C313.625 144.463 315.619 144.679 317.049 144.939V148.059H303.659C301.319 148.059 299.585 148.449 298.459 149.229C297.332 150.009 296.769 151.418 296.769 153.454V154.884C296.769 156.748 297.31 158.004 298.394 158.654C299.52 159.261 301.232 159.564 303.529 159.564H308.469C311.632 159.564 314.08 160.301 315.814 161.774C317.547 163.248 318.414 165.371 318.414 168.144V170.549C318.414 173.843 317.352 176.139 315.229 177.439C313.105 178.739 310.029 179.389 305.999 179.389ZM340.319 179.389C336.765 179.389 333.905 178.891 331.739 177.894C329.572 176.898 327.947 175.121 326.864 172.564C325.824 169.964 325.304 166.303 325.304 161.579C325.304 156.813 325.845 153.151 326.929 150.594C328.012 147.994 329.615 146.218 331.739 145.264C333.862 144.311 336.722 143.834 340.319 143.834C343.872 143.834 346.732 144.333 348.899 145.329C351.065 146.283 352.69 148.059 353.774 150.659C354.857 153.216 355.399 156.856 355.399 161.579C355.399 166.303 354.857 169.964 353.774 172.564C352.69 175.121 351.065 176.898 348.899 177.894C346.775 178.891 343.915 179.389 340.319 179.389ZM340.319 175.164C342.702 175.164 344.565 174.861 345.909 174.254C347.295 173.604 348.357 172.304 349.094 170.354C349.83 168.404 350.199 165.479 350.199 161.579C350.199 157.679 349.83 154.776 349.094 152.869C348.4 150.919 347.36 149.641 345.974 149.034C344.587 148.384 342.702 148.059 340.319 148.059C337.892 148.059 335.985 148.384 334.599 149.034C333.255 149.641 332.215 150.919 331.479 152.869C330.785 154.776 330.439 157.679 330.439 161.579C330.439 165.479 330.785 168.404 331.479 170.354C332.215 172.304 333.255 173.604 334.599 174.254C335.985 174.861 337.892 175.164 340.319 175.164ZM393.078 178.999C389.654 178.999 387.141 178.133 385.538 176.399C383.934 174.623 383.176 171.741 383.263 167.754L383.458 148.514H377.933V145.199L383.523 144.289L384.368 134.604H388.333V144.289H398.343V148.514H388.333V167.754C388.333 170.398 388.831 172.218 389.828 173.214C390.824 174.168 392.081 174.709 393.598 174.839L397.823 175.229V178.999H393.078ZM405.44 129.404H410.575V148.124C412.352 146.868 414.345 145.828 416.555 145.004C418.808 144.138 421.062 143.704 423.315 143.704C426.825 143.704 429.468 144.788 431.245 146.954C433.065 149.121 433.975 151.916 433.975 155.339V178.999H428.84V155.924C428.84 153.714 428.19 151.916 426.89 150.529C425.59 149.099 423.835 148.384 421.625 148.384C419.545 148.384 417.682 148.666 416.035 149.229C414.432 149.749 412.612 150.594 410.575 151.764V178.999H405.44V129.404ZM450.413 179.389C447.813 179.389 445.69 178.609 444.043 177.049C442.44 175.489 441.638 173.366 441.638 170.679V168.209C441.638 165.393 442.548 163.161 444.368 161.514C446.231 159.868 448.94 159.044 452.493 159.044H464.258V154.754C464.258 152.414 463.608 150.681 462.308 149.554C461.051 148.428 458.711 147.864 455.288 147.864H444.498V144.809C448.571 144.116 452.796 143.769 457.173 143.769C461.376 143.769 464.453 144.636 466.403 146.369C468.396 148.059 469.393 150.768 469.393 154.494V178.999H465.428L464.453 175.034C464.15 175.294 463.196 175.793 461.593 176.529C460.033 177.266 458.235 177.938 456.198 178.544C454.161 179.108 452.233 179.389 450.413 179.389ZM452.688 175.554C453.858 175.554 455.288 175.338 456.978 174.904C458.668 174.471 460.185 174.016 461.528 173.539C462.915 173.063 463.825 172.738 464.258 172.564V161.644L453.663 162.099C451.28 162.186 449.525 162.771 448.398 163.854C447.315 164.938 446.773 166.411 446.773 168.274V169.834C446.773 171.828 447.336 173.279 448.463 174.189C449.633 175.099 451.041 175.554 452.688 175.554ZM490.578 178.999C487.154 178.999 484.641 178.133 483.038 176.399C481.434 174.623 480.676 171.741 480.763 167.754L480.958 148.514H475.433V145.199L481.023 144.289L481.868 134.604H485.833V144.289H495.843V148.514H485.833V167.754C485.833 170.398 486.331 172.218 487.328 173.214C488.324 174.168 489.581 174.709 491.098 174.839L495.323 175.229V178.999H490.578ZM33.2292 243.999C29.8058 243.999 27.2925 243.133 25.6892 241.399C24.0858 239.623 23.3275 236.741 23.4142 232.754L23.6092 213.514H18.0842V210.199L23.6742 209.289L24.5192 199.604H28.4842V209.289H38.4942V213.514H28.4842V232.754C28.4842 235.398 28.9825 237.218 29.9792 238.214C30.9758 239.168 32.2325 239.709 33.7492 239.839L37.9742 240.229V243.999H33.2292ZM45.5914 194.404H50.7264V213.124C52.503 211.868 54.4964 210.828 56.7064 210.004C58.9597 209.138 61.213 208.704 63.4664 208.704C66.9764 208.704 69.6197 209.788 71.3964 211.954C73.2164 214.121 74.1264 216.916 74.1264 220.339V243.999H68.9914V220.924C68.9914 218.714 68.3414 216.916 67.0414 215.529C65.7414 214.099 63.9864 213.384 61.7764 213.384C59.6964 213.384 57.833 213.666 56.1864 214.229C54.583 214.749 52.763 215.594 50.7264 216.764V243.999H45.5914V194.404ZM97.0643 244.389C93.3376 244.389 90.4343 243.848 88.3543 242.764C86.3176 241.681 84.8443 239.861 83.9343 237.304C83.0243 234.748 82.5693 231.173 82.5693 226.579C82.5693 221.943 83.0243 218.346 83.9343 215.789C84.8876 213.233 86.4043 211.434 88.4843 210.394C90.5643 209.354 93.4459 208.834 97.1293 208.834C100.293 208.834 102.828 209.181 104.734 209.874C106.641 210.568 108.049 211.759 108.959 213.449C109.869 215.096 110.324 217.393 110.324 220.339C110.324 223.286 109.458 225.431 107.724 226.774C106.034 228.074 103.608 228.724 100.444 228.724H87.7043C87.7476 231.714 88.0509 234.033 88.6143 235.679C89.1776 237.283 90.2176 238.474 91.7343 239.254C93.2509 239.991 95.4393 240.359 98.2993 240.359H109.479V243.479C107.139 243.783 105.059 243.999 103.239 244.129C101.419 244.303 99.3609 244.389 97.0643 244.389ZM99.9893 225.344C101.983 225.344 103.434 224.976 104.344 224.239C105.254 223.503 105.709 222.224 105.709 220.404C105.709 217.501 105.059 215.508 103.759 214.424C102.503 213.298 100.293 212.734 97.1293 212.734C94.6159 212.734 92.6876 213.103 91.3443 213.839C90.0009 214.576 89.0476 215.833 88.4843 217.609C87.9209 219.386 87.6393 221.964 87.6393 225.344H99.9893ZM149.1 244.389C144.68 244.389 141.256 243.111 138.83 240.554C136.446 237.954 135.255 233.339 135.255 226.709C135.255 222.073 135.796 218.454 136.88 215.854C138.006 213.254 139.588 211.456 141.625 210.459C143.661 209.419 146.196 208.899 149.23 208.899C153.39 208.899 157.225 209.203 160.735 209.809V212.864H150.595C148.211 212.864 146.283 213.254 144.81 214.034C143.38 214.814 142.275 216.223 141.495 218.259C140.758 220.253 140.39 223.113 140.39 226.839C140.39 230.393 140.78 233.166 141.56 235.159C142.383 237.109 143.531 238.474 145.005 239.254C146.478 239.991 148.363 240.359 150.66 240.359H161.255V243.349C157.181 244.043 153.13 244.389 149.1 244.389ZM182.135 244.389C178.582 244.389 175.722 243.891 173.555 242.894C171.388 241.898 169.763 240.121 168.68 237.564C167.64 234.964 167.12 231.303 167.12 226.579C167.12 221.813 167.662 218.151 168.745 215.594C169.828 212.994 171.432 211.218 173.555 210.264C175.678 209.311 178.538 208.834 182.135 208.834C185.688 208.834 188.548 209.333 190.715 210.329C192.882 211.283 194.507 213.059 195.59 215.659C196.673 218.216 197.215 221.856 197.215 226.579C197.215 231.303 196.673 234.964 195.59 237.564C194.507 240.121 192.882 241.898 190.715 242.894C188.592 243.891 185.732 244.389 182.135 244.389ZM182.135 240.164C184.518 240.164 186.382 239.861 187.725 239.254C189.112 238.604 190.173 237.304 190.91 235.354C191.647 233.404 192.015 230.479 192.015 226.579C192.015 222.679 191.647 219.776 190.91 217.869C190.217 215.919 189.177 214.641 187.79 214.034C186.403 213.384 184.518 213.059 182.135 213.059C179.708 213.059 177.802 213.384 176.415 214.034C175.072 214.641 174.032 215.919 173.295 217.869C172.602 219.776 172.255 222.679 172.255 226.579C172.255 230.479 172.602 233.404 173.295 235.354C174.032 237.304 175.072 238.604 176.415 239.254C177.802 239.861 179.708 240.164 182.135 240.164ZM205.87 209.289H209.9L211.005 213.124C215.338 210.178 219.671 208.704 224.005 208.704C226.085 208.704 227.883 209.181 229.4 210.134C230.96 211.044 232.173 212.279 233.04 213.839C234.86 212.496 237.07 211.304 239.67 210.264C242.313 209.224 244.761 208.704 247.015 208.704C250.611 208.704 253.32 209.809 255.14 212.019C256.96 214.229 257.87 217.089 257.87 220.599V243.999H252.735V220.989C252.735 218.736 252.063 216.916 250.72 215.529C249.42 214.099 247.643 213.384 245.39 213.384C243.526 213.384 241.576 213.731 239.54 214.424C237.546 215.118 235.618 216.028 233.755 217.154C234.188 218.541 234.405 219.841 234.405 221.054V243.999H229.27V220.989C229.27 218.736 228.62 216.916 227.32 215.529C226.063 214.099 224.308 213.384 222.055 213.384C219.975 213.384 218.111 213.666 216.465 214.229C214.861 214.749 213.041 215.594 211.005 216.764V243.999H205.87V209.289ZM267.505 209.289H271.665L272.64 212.864C274.027 211.868 275.782 210.958 277.905 210.134C280.029 209.268 282.065 208.834 284.015 208.834C288.262 208.834 291.382 210.503 293.375 213.839C295.412 217.176 296.43 221.423 296.43 226.579C296.43 232.516 295.412 236.979 293.375 239.969C291.382 242.959 288.262 244.454 284.015 244.454C282.152 244.454 280.224 244.151 278.23 243.544C276.28 242.938 274.417 242.136 272.64 241.139V259.404H267.505V209.289ZM282.585 240.099C288.392 240.099 291.295 235.593 291.295 226.579C291.295 222.029 290.472 218.649 288.825 216.439C287.179 214.229 285.099 213.124 282.585 213.124C280.765 213.124 279.054 213.406 277.45 213.969C275.847 214.489 274.244 215.183 272.64 216.049V237.304C275.934 239.168 279.249 240.099 282.585 240.099ZM314.184 244.064C311.107 244.064 308.81 243.219 307.294 241.529C305.82 239.839 305.084 236.958 305.084 232.884V194.404H310.219V232.234C310.219 235.094 310.609 237.044 311.389 238.084C312.169 239.124 313.404 239.753 315.094 239.969L318.604 240.359V244.064H314.184ZM324.97 203.114C324.667 203.114 324.407 203.028 324.19 202.854C324.017 202.638 323.93 202.378 323.93 202.074V197.004C323.93 196.311 324.277 195.964 324.97 195.964H328.61C329.26 195.964 329.585 196.311 329.585 197.004V202.074C329.585 202.768 329.26 203.114 328.61 203.114H324.97ZM324.19 209.289H329.325V243.999H324.19V209.289ZM351.844 244.389C347.424 244.389 344.001 243.111 341.574 240.554C339.191 237.954 337.999 233.339 337.999 226.709C337.999 222.073 338.541 218.454 339.624 215.854C340.751 213.254 342.332 211.456 344.369 210.459C346.406 209.419 348.941 208.899 351.974 208.899C356.134 208.899 359.969 209.203 363.479 209.809V212.864H353.339C350.956 212.864 349.027 213.254 347.554 214.034C346.124 214.814 345.019 216.223 344.239 218.259C343.502 220.253 343.134 223.113 343.134 226.839C343.134 230.393 343.524 233.166 344.304 235.159C345.127 237.109 346.276 238.474 347.749 239.254C349.222 239.991 351.107 240.359 353.404 240.359H363.999V243.349C359.926 244.043 355.874 244.389 351.844 244.389ZM377.859 244.389C375.259 244.389 373.136 243.609 371.489 242.049C369.886 240.489 369.084 238.366 369.084 235.679V233.209C369.084 230.393 369.994 228.161 371.814 226.514C373.678 224.868 376.386 224.044 379.939 224.044H391.704V219.754C391.704 217.414 391.054 215.681 389.754 214.554C388.498 213.428 386.158 212.864 382.734 212.864H371.944V209.809C376.018 209.116 380.243 208.769 384.619 208.769C388.823 208.769 391.899 209.636 393.849 211.369C395.843 213.059 396.839 215.768 396.839 219.494V243.999H392.874L391.899 240.034C391.596 240.294 390.643 240.793 389.039 241.529C387.479 242.266 385.681 242.938 383.644 243.544C381.608 244.108 379.679 244.389 377.859 244.389ZM380.134 240.554C381.304 240.554 382.734 240.338 384.424 239.904C386.114 239.471 387.631 239.016 388.974 238.539C390.361 238.063 391.271 237.738 391.704 237.564V226.644L381.109 227.099C378.726 227.186 376.971 227.771 375.844 228.854C374.761 229.938 374.219 231.411 374.219 233.274V234.834C374.219 236.828 374.783 238.279 375.909 239.189C377.079 240.099 378.488 240.554 380.134 240.554ZM418.024 243.999C414.601 243.999 412.087 243.133 410.484 241.399C408.881 239.623 408.122 236.741 408.209 232.754L408.404 213.514H402.879V210.199L408.469 209.289L409.314 199.604H413.279V209.289H423.289V213.514H413.279V232.754C413.279 235.398 413.777 237.218 414.774 238.214C415.771 239.168 417.027 239.709 418.544 239.839L422.769 240.229V243.999H418.024ZM443.646 244.389C439.92 244.389 437.016 243.848 434.936 242.764C432.9 241.681 431.426 239.861 430.516 237.304C429.606 234.748 429.151 231.173 429.151 226.579C429.151 221.943 429.606 218.346 430.516 215.789C431.47 213.233 432.986 211.434 435.066 210.394C437.146 209.354 440.028 208.834 443.711 208.834C446.875 208.834 449.41 209.181 451.316 209.874C453.223 210.568 454.631 211.759 455.541 213.449C456.451 215.096 456.906 217.393 456.906 220.339C456.906 223.286 456.04 225.431 454.306 226.774C452.616 228.074 450.19 228.724 447.026 228.724H434.286C434.33 231.714 434.633 234.033 435.196 235.679C435.76 237.283 436.8 238.474 438.316 239.254C439.833 239.991 442.021 240.359 444.881 240.359H456.061V243.479C453.721 243.783 451.641 243.999 449.821 244.129C448.001 244.303 445.943 244.389 443.646 244.389ZM446.571 225.344C448.565 225.344 450.016 224.976 450.926 224.239C451.836 223.503 452.291 222.224 452.291 220.404C452.291 217.501 451.641 215.508 450.341 214.424C449.085 213.298 446.875 212.734 443.711 212.734C441.198 212.734 439.27 213.103 437.926 213.839C436.583 214.576 435.63 215.833 435.066 217.609C434.503 219.386 434.221 221.964 434.221 225.344H446.571ZM476.797 244.389C472.507 244.389 469.344 242.981 467.307 240.164C465.314 237.348 464.317 232.928 464.317 226.904C464.317 222.571 464.751 219.083 465.617 216.439C466.484 213.796 467.871 211.868 469.777 210.654C471.684 209.441 474.241 208.834 477.447 208.834C480.741 208.834 484.294 209.528 488.107 210.914V194.404H493.242V243.999H489.082L488.107 240.489C487.067 241.399 485.399 242.288 483.102 243.154C480.806 243.978 478.704 244.389 476.797 244.389ZM478.292 240.164C480.112 240.164 481.781 239.904 483.297 239.384C484.857 238.821 486.461 238.106 488.107 237.239V214.554C486.071 213.948 484.402 213.514 483.102 213.254C481.846 212.994 480.416 212.864 478.812 212.864C476.516 212.864 474.696 213.298 473.352 214.164C472.009 214.988 471.012 216.396 470.362 218.389C469.756 220.383 469.452 223.156 469.452 226.709C469.452 231.563 470.124 235.029 471.467 237.109C472.811 239.146 475.086 240.164 478.292 240.164ZM84.2593 309.389C80.2726 309.389 76.4159 308.089 72.6893 305.489L71.7143 308.999H67.5543V259.404H72.6893V277.474C74.5093 276.434 76.4376 275.568 78.4743 274.874C80.5543 274.181 82.4176 273.834 84.0643 273.834C88.3109 273.834 91.4309 275.221 93.4243 277.994C95.4609 280.768 96.4793 285.404 96.4793 291.904C96.4793 303.561 92.4059 309.389 84.2593 309.389ZM82.6343 305.099C85.4943 305.099 87.6609 303.994 89.1343 301.784C90.6076 299.531 91.3443 296.173 91.3443 291.709C91.3443 288.069 90.9759 285.274 90.2393 283.324C89.5459 281.331 88.5709 279.966 87.3143 279.229C86.0576 278.493 84.4976 278.124 82.6343 278.124C80.8143 278.124 79.1459 278.363 77.6293 278.839C76.1126 279.316 74.4659 280.053 72.6893 281.049V302.304C74.2926 303.171 75.8743 303.864 77.4343 304.384C79.0376 304.861 80.7709 305.099 82.6343 305.099ZM118.392 309.389C114.666 309.389 111.762 308.848 109.682 307.764C107.646 306.681 106.172 304.861 105.262 302.304C104.352 299.748 103.897 296.173 103.897 291.579C103.897 286.943 104.352 283.346 105.262 280.789C106.216 278.233 107.732 276.434 109.812 275.394C111.892 274.354 114.774 273.834 118.457 273.834C121.621 273.834 124.156 274.181 126.062 274.874C127.969 275.568 129.377 276.759 130.287 278.449C131.197 280.096 131.652 282.393 131.652 285.339C131.652 288.286 130.786 290.431 129.052 291.774C127.362 293.074 124.936 293.724 121.772 293.724H109.032C109.076 296.714 109.379 299.033 109.942 300.679C110.506 302.283 111.546 303.474 113.062 304.254C114.579 304.991 116.767 305.359 119.627 305.359H130.807V308.479C128.467 308.783 126.387 308.999 124.567 309.129C122.747 309.303 120.689 309.389 118.392 309.389ZM121.317 290.344C123.311 290.344 124.762 289.976 125.672 289.239C126.582 288.503 127.037 287.224 127.037 285.404C127.037 282.501 126.387 280.508 125.087 279.424C123.831 278.298 121.621 277.734 118.457 277.734C115.944 277.734 114.016 278.103 112.672 278.839C111.329 279.576 110.376 280.833 109.812 282.609C109.249 284.386 108.967 286.964 108.967 290.344H121.317ZM152.908 309.389C148.488 309.389 145.065 308.111 142.638 305.554C140.255 302.954 139.063 298.339 139.063 291.709C139.063 287.073 139.605 283.454 140.688 280.854C141.815 278.254 143.397 276.456 145.433 275.459C147.47 274.419 150.005 273.899 153.038 273.899C157.198 273.899 161.033 274.203 164.543 274.809V277.864H154.403C152.02 277.864 150.092 278.254 148.618 279.034C147.188 279.814 146.083 281.223 145.303 283.259C144.567 285.253 144.198 288.113 144.198 291.839C144.198 295.393 144.588 298.166 145.368 300.159C146.192 302.109 147.34 303.474 148.813 304.254C150.287 304.991 152.172 305.359 154.468 305.359H165.063V308.349C160.99 309.043 156.938 309.389 152.908 309.389ZM185.944 309.389C182.39 309.389 179.53 308.891 177.364 307.894C175.197 306.898 173.572 305.121 172.489 302.564C171.449 299.964 170.929 296.303 170.929 291.579C170.929 286.813 171.47 283.151 172.554 280.594C173.637 277.994 175.24 276.218 177.364 275.264C179.487 274.311 182.347 273.834 185.944 273.834C189.497 273.834 192.357 274.333 194.524 275.329C196.69 276.283 198.315 278.059 199.399 280.659C200.482 283.216 201.024 286.856 201.024 291.579C201.024 296.303 200.482 299.964 199.399 302.564C198.315 305.121 196.69 306.898 194.524 307.894C192.4 308.891 189.54 309.389 185.944 309.389ZM185.944 305.164C188.327 305.164 190.19 304.861 191.534 304.254C192.92 303.604 193.982 302.304 194.719 300.354C195.455 298.404 195.824 295.479 195.824 291.579C195.824 287.679 195.455 284.776 194.719 282.869C194.025 280.919 192.985 279.641 191.599 279.034C190.212 278.384 188.327 278.059 185.944 278.059C183.517 278.059 181.61 278.384 180.224 279.034C178.88 279.641 177.84 280.919 177.104 282.869C176.41 284.776 176.064 287.679 176.064 291.579C176.064 295.479 176.41 298.404 177.104 300.354C177.84 302.304 178.88 303.604 180.224 304.254C181.61 304.861 183.517 305.164 185.944 305.164ZM209.678 274.289H213.708L214.813 278.124C219.147 275.178 223.48 273.704 227.813 273.704C229.893 273.704 231.692 274.181 233.208 275.134C234.768 276.044 235.982 277.279 236.848 278.839C238.668 277.496 240.878 276.304 243.478 275.264C246.122 274.224 248.57 273.704 250.823 273.704C254.42 273.704 257.128 274.809 258.948 277.019C260.768 279.229 261.678 282.089 261.678 285.599V308.999H256.543V285.989C256.543 283.736 255.872 281.916 254.528 280.529C253.228 279.099 251.452 278.384 249.198 278.384C247.335 278.384 245.385 278.731 243.348 279.424C241.355 280.118 239.427 281.028 237.563 282.154C237.997 283.541 238.213 284.841 238.213 286.054V308.999H233.078V285.989C233.078 283.736 232.428 281.916 231.128 280.529C229.872 279.099 228.117 278.384 225.863 278.384C223.783 278.384 221.92 278.666 220.273 279.229C218.67 279.749 216.85 280.594 214.813 281.764V308.999H209.678V274.289ZM284.574 309.389C280.847 309.389 277.944 308.848 275.864 307.764C273.827 306.681 272.354 304.861 271.444 302.304C270.534 299.748 270.079 296.173 270.079 291.579C270.079 286.943 270.534 283.346 271.444 280.789C272.397 278.233 273.914 276.434 275.994 275.394C278.074 274.354 280.956 273.834 284.639 273.834C287.802 273.834 290.337 274.181 292.244 274.874C294.151 275.568 295.559 276.759 296.469 278.449C297.379 280.096 297.834 282.393 297.834 285.339C297.834 288.286 296.967 290.431 295.234 291.774C293.544 293.074 291.117 293.724 287.954 293.724H275.214C275.257 296.714 275.561 299.033 276.124 300.679C276.687 302.283 277.727 303.474 279.244 304.254C280.761 304.991 282.949 305.359 285.809 305.359H296.989V308.479C294.649 308.783 292.569 308.999 290.749 309.129C288.929 309.303 286.871 309.389 284.574 309.389ZM287.499 290.344C289.492 290.344 290.944 289.976 291.854 289.239C292.764 288.503 293.219 287.224 293.219 285.404C293.219 282.501 292.569 280.508 291.269 279.424C290.012 278.298 287.802 277.734 284.639 277.734C282.126 277.734 280.197 278.103 278.854 278.839C277.511 279.576 276.557 280.833 275.994 282.609C275.431 284.386 275.149 286.964 275.149 290.344H287.499ZM318.44 309.389C316.49 309.389 314.042 309.303 311.095 309.129C308.148 308.956 306.133 308.739 305.05 308.479V305.359H319.285C321.712 305.359 323.488 305.034 324.615 304.384C325.742 303.734 326.305 302.369 326.305 300.289V298.729C326.305 295.479 324.203 293.854 320 293.854H315.125C311.788 293.854 309.21 293.204 307.39 291.904C305.613 290.604 304.725 288.394 304.725 285.274V283.454C304.725 280.161 305.678 277.756 307.585 276.239C309.535 274.723 312.655 273.964 316.945 273.964C318.808 273.964 320.997 274.073 323.51 274.289C326.067 274.463 328.06 274.679 329.49 274.939V278.059H316.1C313.76 278.059 312.027 278.449 310.9 279.229C309.773 280.009 309.21 281.418 309.21 283.454V284.884C309.21 286.748 309.752 288.004 310.835 288.654C311.962 289.261 313.673 289.564 315.97 289.564H320.91C324.073 289.564 326.522 290.301 328.255 291.774C329.988 293.248 330.855 295.371 330.855 298.144V300.549C330.855 303.843 329.793 306.139 327.67 307.439C325.547 308.739 322.47 309.389 318.44 309.389ZM369.76 309.389C366.033 309.389 363.13 308.848 361.05 307.764C359.013 306.681 357.54 304.861 356.63 302.304C355.72 299.748 355.265 296.173 355.265 291.579C355.265 286.943 355.72 283.346 356.63 280.789C357.583 278.233 359.1 276.434 361.18 275.394C363.26 274.354 366.141 273.834 369.825 273.834C372.988 273.834 375.523 274.181 377.43 274.874C379.336 275.568 380.745 276.759 381.655 278.449C382.565 280.096 383.02 282.393 383.02 285.339C383.02 288.286 382.153 290.431 380.42 291.774C378.73 293.074 376.303 293.724 373.14 293.724H360.4C360.443 296.714 360.746 299.033 361.31 300.679C361.873 302.283 362.913 303.474 364.43 304.254C365.946 304.991 368.135 305.359 370.995 305.359H382.175V308.479C379.835 308.783 377.755 308.999 375.935 309.129C374.115 309.303 372.056 309.389 369.76 309.389ZM372.685 290.344C374.678 290.344 376.13 289.976 377.04 289.239C377.95 288.503 378.405 287.224 378.405 285.404C378.405 282.501 377.755 280.508 376.455 279.424C375.198 278.298 372.988 277.734 369.825 277.734C367.311 277.734 365.383 278.103 364.04 278.839C362.696 279.576 361.743 280.833 361.18 282.609C360.616 284.386 360.335 286.964 360.335 290.344H372.685ZM398.426 309.389C395.826 309.389 393.702 308.609 392.056 307.049C390.452 305.489 389.651 303.366 389.651 300.679V298.209C389.651 295.393 390.561 293.161 392.381 291.514C394.244 289.868 396.952 289.044 400.506 289.044H412.271V284.754C412.271 282.414 411.621 280.681 410.321 279.554C409.064 278.428 406.724 277.864 403.301 277.864H392.511V274.809C396.584 274.116 400.809 273.769 405.186 273.769C409.389 273.769 412.466 274.636 414.416 276.369C416.409 278.059 417.406 280.768 417.406 284.494V308.999H413.441L412.466 305.034C412.162 305.294 411.209 305.793 409.606 306.529C408.046 307.266 406.247 307.938 404.211 308.544C402.174 309.108 400.246 309.389 398.426 309.389ZM400.701 305.554C401.871 305.554 403.301 305.338 404.991 304.904C406.681 304.471 408.197 304.016 409.541 303.539C410.927 303.063 411.837 302.738 412.271 302.564V291.644L401.676 292.099C399.292 292.186 397.537 292.771 396.411 293.854C395.327 294.938 394.786 296.411 394.786 298.274V299.834C394.786 301.828 395.349 303.279 396.476 304.189C397.646 305.099 399.054 305.554 400.701 305.554ZM439.046 309.389C437.096 309.389 434.647 309.303 431.701 309.129C428.754 308.956 426.739 308.739 425.656 308.479V305.359H439.891C442.317 305.359 444.094 305.034 445.221 304.384C446.347 303.734 446.911 302.369 446.911 300.289V298.729C446.911 295.479 444.809 293.854 440.606 293.854H435.731C432.394 293.854 429.816 293.204 427.996 291.904C426.219 290.604 425.331 288.394 425.331 285.274V283.454C425.331 280.161 426.284 277.756 428.191 276.239C430.141 274.723 433.261 273.964 437.551 273.964C439.414 273.964 441.602 274.073 444.116 274.289C446.672 274.463 448.666 274.679 450.096 274.939V278.059H436.706C434.366 278.059 432.632 278.449 431.506 279.229C430.379 280.009 429.816 281.418 429.816 283.454V284.884C429.816 286.748 430.357 288.004 431.441 288.654C432.567 289.261 434.279 289.564 436.576 289.564H441.516C444.679 289.564 447.127 290.301 448.861 291.774C450.594 293.248 451.461 295.371 451.461 298.144V300.549C451.461 303.843 450.399 306.139 448.276 307.439C446.152 308.739 443.076 309.389 439.046 309.389ZM472.348 308.999C470.398 308.956 468.622 308.328 467.018 307.114C465.415 305.858 464.158 303.778 463.248 300.874L454.928 274.289H460.323L468.058 299.769C469.142 302.976 470.94 304.579 473.453 304.579L482.358 274.289H487.623L474.948 317.969L471.958 324.404H467.928L472.348 308.999ZM490.057 309.064C489.754 309.064 489.494 308.978 489.277 308.804C489.104 308.588 489.017 308.328 489.017 308.024V302.824C489.017 302.131 489.364 301.784 490.057 301.784H492.917C493.611 301.784 493.957 302.131 493.957 302.824V308.024C493.957 308.718 493.611 309.064 492.917 309.064H490.057Z" fill="#EEC469"/>
</svg>
